<?xml version="1.0" encoding="UTF-8"?>
<!DOCTYPE svg PUBLIC "-//W3C//DTD SVG 1.1//EN" "http://www.w3.org/Graphics/SVG/1.1/DTD/svg11.dtd">
<svg version="1.2" xmlns="http://www.w3.org/2000/svg" xmlns:xlink="http://www.w3.org/1999/xlink" x="0" y="0" width="495" height="579" viewBox="0 0 495 579">
<style type="text/css"><![CDATA[
text { font:12px Dialog; }
]]></style>
<rect x="-1097" y="-1033" width="2934" height="3098" style="fill:rgb(255,255,255);stroke:none" />
<clipPath id="clip1"><path d="M19,14 L227,14 L227,113 L19,113 L19,14 Z" /></clipPath>
<path d="M23,18 L23,108 L222,108 L222,18 Z" style="fill:rgb(255,255,255);stroke:none" clip-path="url(#clip1)" />
<clipPath id="clip2"><path d="M19,14 L227,14 L227,113 L19,113 L19,14 Z" /></clipPath>
<path d="M23,18 L23,108 L222,108 L222,18 Z" style="fill:none;stroke:rgb(127,127,127);stroke-width:5" clip-path="url(#clip2)" />
<clipPath id="clip3"><path d="M54,34 L192,34 L192,93 L54,93 L54,34 Z" /></clipPath>
<path d="M68.669693,44.4423828 L64.2502594,55.7832031 L61.6970367,55.7832031 L57.4929352,44.4423828 L60.1076813,44.4423828 L62.6609039,52.2456055 C62.8796501,52.9155273 63.0129509,53.4931641 63.0608063,53.9785156 L63.1120758,53.9785156 C63.1735992,53.4179688 63.2966461,52.8574219 63.4812164,52.296875 L66.1369781,44.4423828 Z M71.0588531,45.2011719 C72.2141266,44.5175781 73.5505524,44.1757813 75.0681305,44.1757813 C77.9323883,44.1757813 79.3645172,45.6557617 79.3645172,48.6157227 L79.3645172,55.7832031 L77.0266266,55.7832031 L77.0266266,54.0605469 L76.9753571,54.0605469 C76.2028961,55.3867188 75.0544586,56.0498047 73.5300446,56.0498047 C72.4157867,56.0498047 71.5390778,55.7490234 70.8999176,55.1474609 C70.2607574,54.5458984 69.9411774,53.7358398 69.9411774,52.7172852 C69.9411774,50.5844727 71.2092438,49.340332 73.7453766,48.9848633 L77.0368805,48.5336914 C77.0368805,46.8452148 76.2951813,46.0009766 74.8117828,46.0009766 C73.4514313,46.0009766 72.2004547,46.4418945 71.0588531,47.3237305 Z M74.5349274,50.5126953 C73.7146149,50.6220703 73.1352692,50.8305664 72.7968903,51.1381836 C72.4585114,51.4458008 72.2893219,51.8969727 72.2893219,52.4916992 C72.2893219,52.9907227 72.4704742,53.3991699 72.8327789,53.717041 C73.1950836,54.0349121 73.6599274,54.1938477 74.2273102,54.1938477 C75.0339508,54.1938477 75.7038727,53.9084473 76.2370758,53.3376465 C76.7702789,52.7668457 77.0368805,52.0473633 77.0368805,51.1791992 L77.0368805,50.1743164 Z M82.8816071,55.7832031 L82.8816071,38.9975586 L85.291275,38.9975586 L85.291275,55.7832031 Z M88.6032867,40.5458984 C88.6032867,40.1425781 88.7417145,39.8093262 89.0185699,39.5461426 C89.2954254,39.282959 89.6457672,39.1513672 90.0695953,39.1513672 C90.4865875,39.1513672 90.8386383,39.282959 91.1257477,39.5461426 C91.4128571,39.8093262 91.5564117,40.1425781 91.5564117,40.5458984 C91.5564117,40.9492188 91.4128571,41.2824707 91.1257477,41.5456543 C90.8386383,41.8088379 90.4865875,41.9404297 90.0695953,41.9404297 C89.6526031,41.9404297 89.3039703,41.8071289 89.0236969,41.5405273 C88.7434235,41.2739258 88.6032867,40.9423828 88.6032867,40.5458984 Z M88.8391266,55.7832031 L88.8391266,44.4423828 L91.2487946,44.4423828 L91.2487946,55.7832031 Z M104.9992828,55.7832031 L102.5998688,55.7832031 L102.5998688,53.9887695 L102.5485992,53.9887695 C101.7282867,55.362793 100.4773102,56.0498047 98.7956696,56.0498047 C97.3601227,56.0498047 96.2168121,55.5388184 95.3657379,54.5168457 C94.5146637,53.494873 94.0891266,52.1157227 94.0891266,50.3793945 C94.0891266,48.4995117 94.5676422,46.9956055 95.5246735,45.8676758 C96.4817047,44.7397461 97.7292633,44.1757813 99.2673492,44.1757813 C100.8054352,44.1757813 101.8991852,44.7568359 102.5485992,45.9189453 L102.5998688,45.9189453 L102.5998688,38.9975586 L104.9992828,38.9975586 Z M102.6203766,49.1386719 C102.6203766,48.2773438 102.3418121,47.5561523 101.7846832,46.9750977 C101.2275543,46.394043 100.5388336,46.1035156 99.7185211,46.1035156 C98.747818,46.1035156 97.9753571,46.4760742 97.4011383,47.2211914 C96.8269196,47.9663086 96.5398102,48.9848633 96.5398102,50.2768555 C96.5398102,51.4663086 96.8098297,52.404541 97.3498688,53.0915527 C97.8899078,53.7785645 98.6247711,54.1220703 99.5544586,54.1220703 C100.4568024,54.1220703 101.1933746,53.7819824 101.7641754,53.1018066 C102.3349762,52.4216309 102.6203766,51.5620117 102.6203766,50.5229492 Z M109.0905914,45.2011719 C110.2458649,44.5175781 111.5822906,44.1757813 113.0998688,44.1757813 C115.9641266,44.1757813 117.3962555,45.6557617 117.3962555,48.6157227 L117.3962555,55.7832031 L115.0583649,55.7832031 L115.0583649,54.0605469 L115.0070953,54.0605469 C114.2346344,55.3867188 113.0861969,56.0498047 111.5617828,56.0498047 C110.447525,56.0498047 109.570816,55.7490234 108.9316559,55.1474609 C108.2924957,54.5458984 107.9729156,53.7358398 107.9729156,52.7172852 C107.9729156,50.5844727 109.2409821,49.340332 111.7771149,48.9848633 L115.0686188,48.5336914 C115.0686188,46.8452148 114.3269196,46.0009766 112.8435211,46.0009766 C111.4831696,46.0009766 110.232193,46.4418945 109.0905914,47.3237305 Z M112.5666656,50.5126953 C111.7463531,50.6220703 111.1670074,50.8305664 110.8286285,51.1381836 C110.4902496,51.4458008 110.3210602,51.8969727 110.3210602,52.4916992 C110.3210602,52.9907227 110.5022125,53.3991699 110.8645172,53.717041 C111.2268219,54.0349121 111.6916656,54.1938477 112.2590485,54.1938477 C113.0656891,54.1938477 113.735611,53.9084473 114.2688141,53.3376465 C114.8020172,52.7668457 115.0686188,52.0473633 115.0686188,51.1791992 L115.0686188,50.1743164 Z M126.7580719,55.6601563 C126.313736,55.9130859 125.6745758,56.0395508 124.8405914,56.0395508 C122.6872711,56.0395508 121.610611,54.8706055 121.610611,52.5327148 L121.610611,46.3496094 L119.6931305,46.3496094 L119.6931305,44.4423828 L121.610611,44.4423828 L121.610611,41.7866211 L124.010025,41.0585938 L124.010025,44.4423828 L126.7580719,44.4423828 L126.7580719,46.3496094 L124.010025,46.3496094 L124.010025,52.1123047 C124.010025,52.8164063 124.1347809,53.3256836 124.3842926,53.6401367 C124.6338043,53.9545898 125.0354156,54.1118164 125.5891266,54.1118164 C126.0197906,54.1118164 126.4094391,53.9887695 126.7580719,53.7426758 Z M138.7653961,50.7587891 L130.9724274,50.7587891 C131.0749664,53.0488281 132.2404938,54.1938477 134.4690094,54.1938477 C135.7268219,54.1938477 136.8718414,53.8178711 137.904068,53.065918 L137.904068,55.0551758 C136.8923492,55.7182617 135.5627594,56.0498047 133.9152985,56.0498047 C132.2336578,56.0498047 130.9177399,55.5371094 129.9675446,54.5117188 C129.0173492,53.4863281 128.5422516,52.0507813 128.5422516,50.2050781 C128.5422516,48.4550781 129.0532379,47.0126953 130.0752106,45.8779297 C131.0971832,44.7431641 132.3772125,44.1757813 133.9152985,44.1757813 C135.4465485,44.1757813 136.6377106,44.6594238 137.4887848,45.626709 C138.339859,46.5939941 138.7653961,47.925293 138.7653961,49.6206055 Z M136.4275055,49.0053711 C136.4206696,48.034668 136.1985016,47.2895508 135.7610016,46.7700195 C135.3235016,46.2504883 134.7014313,45.9907227 133.8947906,45.9907227 C133.1633453,45.9907227 132.5276031,46.2658691 131.9875641,46.8161621 C131.447525,47.3664551 131.1125641,48.0961914 130.9826813,49.0053711 Z M144.3845367,49.9692383 L144.3845367,55.7832031 L141.9235992,55.7832031 L141.9235992,39.8999023 L146.7224274,39.8999023 C148.5202789,39.8999023 149.8977203,40.3151855 150.8547516,41.145752 C151.8117828,41.9763184 152.2902985,43.1811523 152.2902985,44.7602539 C152.2902985,46.3530273 151.7194977,47.6330566 150.5778961,48.6003418 C149.4362946,49.567627 148.0246735,50.0239258 146.3430328,49.9692383 Z M144.3845367,41.9609375 L144.3845367,47.918457 L146.1482086,47.918457 C148.5202789,47.918457 149.7063141,46.8999023 149.7063141,44.862793 C149.7063141,42.9282227 148.5681305,41.9609375 146.2917633,41.9609375 Z M161.6008453,46.7392578 C161.2453766,46.5068359 160.7736969,46.390625 160.1858063,46.390625 C159.4065094,46.390625 158.7758942,46.7324219 158.2939606,47.4160156 C157.812027,48.0996094 157.5710602,49.0053711 157.5710602,50.1333008 L157.5710602,55.7832031 L155.1613922,55.7832031 L155.1613922,44.4423828 L157.5710602,44.4423828 L157.5710602,46.6982422 L157.6223297,46.6982422 C158.1828766,45.0644531 159.1740875,44.2475586 160.5959625,44.2475586 C161.0197906,44.2475586 161.3547516,44.2954102 161.6008453,44.3911133 Z M162.9646149,50.215332 C162.9646149,48.3491211 163.496109,46.8759766 164.5590973,45.7958984 C165.6220856,44.7158203 167.0695953,44.1757813 168.9016266,44.1757813 C170.6311188,44.1757813 171.9983063,44.6987305 173.0031891,45.7446289 C174.0080719,46.7905273 174.5105133,48.2192383 174.5105133,50.0307617 C174.5105133,51.855957 173.9807281,53.3154297 172.9211578,54.4091797 C171.8615875,55.5029297 170.4465485,56.0498047 168.6760406,56.0498047 C166.9397125,56.0498047 165.5537262,55.5200195 164.5180817,54.4604492 C163.4824371,53.4008789 162.9646149,51.9858398 162.9646149,50.215332 Z M165.4152985,50.1640625 C165.4152985,51.4082031 165.7177887,52.3789063 166.3227692,53.0761719 C166.9277496,53.7734375 167.7497711,54.1220703 168.7888336,54.1220703 C170.9694977,54.1220703 172.0598297,52.7788086 172.0598297,50.0922852 C172.0598297,48.793457 171.7795563,47.8039551 171.2190094,47.1237793 C170.6584625,46.4436035 169.8484039,46.1035156 168.7888336,46.1035156 C167.7292633,46.1035156 166.9021149,46.4658203 166.3073883,47.1904297 C165.7126617,47.9150391 165.4152985,48.90625 165.4152985,50.1640625 Z M179.9963531,54.2553711 L179.9963531,61.0024414 L177.5866852,61.0024414 L177.5866852,44.4423828 L179.9963531,44.4423828 L179.9963531,46.3291016 L180.0476227,46.3291016 C180.9226227,44.8935547 182.1941071,44.1757813 183.8620758,44.1757813 C185.3044586,44.1757813 186.4392242,44.6799316 187.2663727,45.6882324 C188.0935059,46.6965332 188.5070953,48.0620117 188.5070953,49.784668 C188.5070953,51.6782227 188.0388184,53.1958008 187.1023102,54.3374023 C186.1657867,55.4790039 184.9113922,56.0498047 183.3391266,56.0498047 C181.9035797,56.0498047 180.8064117,55.4516602 180.0476227,54.2553711 Z M179.9758453,51.0048828 C179.9758453,51.8867188 180.2492828,52.626709 180.7961578,53.2248535 C181.3430328,53.822998 182.0334625,54.1220703 182.8674469,54.1220703 C183.8723297,54.1220703 184.6516266,53.7375488 185.2053375,52.9685059 C185.7590485,52.1994629 186.0359039,51.1347656 186.0359039,49.7744141 C186.0359039,48.6054688 185.7795563,47.701416 185.266861,47.0622559 C184.7541656,46.4230957 184.0363922,46.1035156 183.1135406,46.1035156 C182.1906891,46.1035156 181.437027,46.4384766 180.8525543,47.1083984 C180.2680817,47.7783203 179.9758453,48.6259766 179.9758453,49.6513672 Z" style="fill:rgb(117,117,117);stroke:none" clip-path="url(#clip3)" />
<clipPath id="clip4"><path d="M54,34 L192,34 L192,93 L54,93 L54,34 Z" /></clipPath>
<path d="M120.590332,86.7463379 C118.2729492,84.1281738 117.1142578,80.9016113 117.1142578,77.0666504 C117.1142578,73.279541 118.2729492,70.0085449 120.590332,67.2536621 L122.6513672,67.2536621 C120.3681641,70.111084 119.2265625,73.3786621 119.2265625,77.0563965 C119.2265625,80.713623 120.3681641,83.9436035 122.6513672,86.7463379 Z M123.328125,86.7463379 C125.6181641,83.9572754 126.7631836,80.7272949 126.7631836,77.0563965 C126.7631836,73.392334 125.6147461,70.1247559 123.3178711,67.2536621 L125.3891602,67.2536621 C127.7202148,70.0153809 128.8857422,73.286377 128.8857422,77.0666504 C128.8857422,80.8947754 127.7167969,84.1213379 125.3789063,86.7463379 Z" style="fill:rgb(117,117,117);stroke:none" clip-path="url(#clip4)" />
<clipPath id="clip5"><path d="M12,362 L240,362 L240,411 L12,411 L12,362 Z" /></clipPath>
<path d="M23,365 C18.5817184,365 15,368.5817261 15,373 L15,399 C15,403.4182739 18.5817184,407 23,407 L228,407 C232.4182739,407 236,403.4182739 236,399 L236,373 C236,368.5817261 232.4182739,365 228,365 Z" style="fill:none;stroke:rgb(127,127,127);stroke-width:4" clip-path="url(#clip5)" />
<clipPath id="clip6"><path d="M28,373 L224,373 L224,400 L28,400 L28,373 Z" /></clipPath>
<path d="M36.6152496,386.4958496 L35.5610504,387.5998535 C35.2290192,386.8693848 34.9135895,386.285553 34.6147614,385.8483887 L34.6147614,393.8835449 L33.1704254,393.8835449 L33.1704254,386.4958496 C32.6391754,387.7796936 32.0498199,388.8089905 31.402359,389.5837402 L30.5473785,388.0563965 C31.5600662,386.8223267 32.3984528,385.29776 33.0625153,383.482666 L30.7548981,383.482666 L30.7548981,382.0383301 L33.1704254,382.0383301 L33.1704254,379.0251465 L34.6147614,379.0251465 L34.6147614,382.0383301 L36.3330231,382.0383301 L36.3330231,383.482666 L34.6147614,383.482666 L34.6147614,383.7565918 C35.4060974,384.691803 36.0729294,385.6048889 36.6152496,386.4958496 Z M44.417984,386.5290527 L38.4580231,386.5290527 L38.4580231,391.9162598 C39.3932419,391.5344238 40.2205505,391.1304321 40.9399567,390.7043457 L41.1391754,392.2067871 C39.766777,392.9649048 38.4414215,393.5598145 37.1631012,393.9914551 L36.6152496,392.6135254 C36.8642731,392.5028381 36.9887848,392.3257446 36.9887848,392.0822754 L36.9887848,379.3820801 L44.417984,379.3820801 Z M42.9570465,382.2624512 L42.9570465,380.7434082 L38.4580231,380.7434082 L38.4580231,382.2624512 Z M42.9570465,385.2009277 L42.9570465,383.5656738 L38.4580231,383.5656738 L38.4580231,385.2009277 Z M45.7129059,392.8127441 L44.7251129,393.9416504 C42.3510895,392.4309082 40.7241364,390.2810059 39.8442535,387.4919434 L41.1889801,387.1018066 C41.4712067,387.95401 41.7727966,388.6291504 42.0937653,389.1271973 C42.934906,388.4022522 43.6211014,387.7049866 44.152359,387.0354004 L45.3227692,387.9567871 C44.6365662,388.7536621 43.8147888,389.5283813 42.8574371,390.2810059 C43.6155701,391.2826233 44.5673981,392.1265259 45.7129059,392.8127441 Z M52.9677887,386.6286621 C52.4918747,386.8832092 51.9716949,387.1377563 51.4072418,387.392334 L51.4072418,392.513916 C51.4072418,392.9400024 51.2730408,393.2803345 51.0046539,393.5349121 C50.7362595,393.7894592 50.2727966,393.916748 49.6142731,393.916748 L48.477066,393.916748 L48.1616364,392.4060059 C48.4327927,392.4281311 48.7011871,392.439209 48.9668121,392.439209 C49.4316559,392.439209 49.711113,392.4032288 49.805191,392.3312988 C49.8992615,392.2593384 49.9463043,392.1486816 49.9463043,391.9992676 L49.9463043,388.0231934 C49.2158356,388.3054199 48.6375427,388.5101624 48.211441,388.6374512 L47.8877106,387.2263184 C48.5351639,387.0160217 49.2213669,386.7586975 49.9463043,386.4543457 L49.9463043,383.1755371 L48.0537262,383.1755371 L48.0537262,381.7478027 L49.9463043,381.7478027 L49.9463043,379.0085449 L51.4072418,379.0085449 L51.4072418,381.7478027 L52.7851715,381.7478027 L52.7851715,383.1755371 L51.4072418,383.1755371 L51.4072418,385.798584 C51.7503357,385.6436157 52.1792145,385.4388733 52.6938629,385.1843262 Z M62.8623199,386.9689941 L59.6001129,386.9689941 L59.6001129,388.5959473 L62.0322418,388.5959473 L62.0322418,393.9914551 L60.5713043,393.9914551 L60.5713043,393.1530762 L56.8110504,393.1530762 L56.8110504,393.9914551 L55.3667145,393.9914551 L55.3667145,388.5959473 L58.1059723,388.5959473 L58.1059723,386.9689941 L54.8354645,386.9689941 C54.7026443,389.9461975 54.1547928,392.2814941 53.1919098,393.9748535 L51.930191,392.8708496 C52.9262848,391.1608887 53.4243317,388.7176819 53.4243317,385.5412598 L53.4243317,379.4899902 L62.2480621,379.4899902 L62.2480621,383.8562012 L54.9101715,383.8562012 L54.9101715,385.5744629 L58.1059723,385.5744629 L58.1059723,384.2961426 L59.6001129,384.2961426 L59.6001129,385.5744629 L62.8623199,385.5744629 Z M60.7207184,382.4450684 L60.7207184,380.8679199 L54.9101715,380.8679199 L54.9101715,382.4450684 Z M60.5713043,391.8166504 L60.5713043,389.9904785 L56.8110504,389.9904785 L56.8110504,391.8166504 Z M69.6772614,381.7810059 L68.398941,382.6193848 C67.7957458,381.6786194 67.0542145,380.7129517 66.1743317,379.7224121 L67.4858551,378.9255371 C68.3546677,379.8884277 69.0851364,380.8402405 69.6772614,381.7810059 Z M80.4018707,385.3835449 L78.0195465,385.3835449 C77.5989685,385.3835449 77.2558746,385.2604065 76.9902496,385.0141602 C76.7246246,384.7678833 76.5918121,384.456604 76.5918121,384.0803223 L76.5918121,380.9177246 L73.180191,380.9177246 C73.180191,382.2347717 72.9602203,383.2571411 72.5202789,383.9848633 C72.0803375,384.7125549 71.4259567,385.2645569 70.5571442,385.6408691 L69.6274567,384.4870605 C70.2251129,384.2214355 70.7231598,383.8658752 71.1215973,383.4204102 C71.5200348,382.9749146 71.7192535,382.2236938 71.7192535,381.166748 L71.7192535,379.5231934 L78.077652,379.5231934 L78.077652,383.6901855 C78.077652,383.8894043 78.1827927,383.9890137 78.3930817,383.9890137 L80.4018707,383.9890137 Z M70.8642731,390.7458496 C69.8903122,391.553772 68.8250427,392.322998 67.6684723,393.0534668 L66.9546051,391.7585449 C67.070816,391.642334 67.1289215,391.4901428 67.1289215,391.302002 L67.1289215,385.0100098 L65.5766754,385.0100098 L65.5766754,383.5324707 L68.6728668,383.5324707 L68.6728668,390.6213379 C69.0934372,390.3501587 69.6191559,389.9489746 70.2500153,389.4177246 Z M80.542984,392.8127441 L79.8789215,394.1574707 C78.1689606,393.6594238 76.5641403,392.9621277 75.0644684,392.0656738 C73.5758591,392.9842834 71.9544373,393.6428223 70.2002106,394.0412598 L69.4531403,392.7131348 C71.1963043,392.3534241 72.6600037,391.833252 73.8442535,391.1525879 C72.7762146,390.2339478 71.9350739,389.0303345 71.320816,387.541748 L70.4575348,387.541748 L70.4575348,386.1555176 L78.9741364,386.1555176 L78.9741364,387.541748 C78.0001755,389.2240295 77.1064606,390.4165649 76.292984,391.1193848 C77.41082,391.7834473 78.8274841,392.3479004 80.542984,392.8127441 Z M77.2558746,387.541748 L72.9062653,387.541748 C73.4707184,388.7093811 74.1901169,389.6390686 75.0644684,390.3308105 C75.8004684,389.6556702 76.5309372,388.7259827 77.2558746,387.541748 Z M97.9082184,393.5847168 L83.0830231,393.5847168 L83.0830231,392.4724121 L84.9589996,392.4724121 L84.9589996,385.2839355 L89.0844879,385.2839355 L89.2920074,384.5036621 L83.2573395,384.5036621 L83.2573395,383.333252 L89.5825348,383.333252 L89.7319489,382.6027832 L83.8300934,382.6027832 L83.8300934,379.2990723 L97.0947418,379.2990723 L97.0947418,382.6027832 L91.3090973,382.6027832 L91.1762848,383.333252 L97.6342926,383.333252 L97.6342926,384.5036621 L90.902359,384.5036621 L90.7363434,385.2839355 L96.0073395,385.2839355 L96.0073395,392.4724121 L97.9082184,392.4724121 Z M95.6172028,381.4904785 L95.6172028,380.4777832 L93.1684723,380.4777832 L93.1684723,381.4904785 Z M91.7407379,381.4904785 L91.7407379,380.4777832 L89.2422028,380.4777832 L89.2422028,381.4904785 Z M87.7978668,381.4904785 L87.7978668,380.4777832 L85.3491364,380.4777832 L85.3491364,381.4904785 Z M94.5131989,387.1018066 L94.5131989,386.3215332 L86.5029449,386.3215332 L86.5029449,387.1018066 Z M94.5131989,388.8200684 L94.5131989,388.0397949 L86.5029449,388.0397949 L86.5029449,388.8200684 Z M94.5131989,390.6047363 L94.5131989,389.7912598 L86.5029449,389.7912598 L86.5029449,390.6047363 Z M94.5131989,392.4724121 L94.5131989,391.5759277 L86.5029449,391.5759277 L86.5029449,392.4724121 Z M107.4956207,388.380127 C107.0363083,388.1975098 106.8066559,387.8433228 106.8066559,387.317627 C106.8066559,387.0077209 106.9242477,386.7531738 107.1594391,386.5539551 C107.3946304,386.3547363 107.6533356,386.255127 107.9355621,386.255127 C108.2565231,386.255127 108.5193787,386.3713379 108.7241364,386.6037598 C108.9288864,386.8361816 109.0312653,387.1239319 109.0312653,387.467041 C109.0312653,388.1034241 108.544281,388.7923889 107.5703278,389.5339355 L107.0556793,389.135498 C107.2659683,388.8311157 107.4126129,388.5793457 107.4956207,388.380127 Z M125.7324371,382.154541 L118.2202301,382.154541 L118.2202301,380.7102051 L121.3247223,380.7102051 C121.164238,380.2398071 120.937355,379.7583618 120.6440582,379.2658691 L122.1963043,378.8425293 C122.6058121,379.5840454 122.8658981,380.206604 122.9765778,380.7102051 L125.7324371,380.7102051 Z M133.1284332,392.8293457 L132.2402496,394.0578613 C130.9840698,393.2997131 129.9768982,392.4336548 129.2187653,391.4597168 C128.5657654,392.2289124 127.4756012,393.0783691 125.9482574,394.0080566 L125.0849762,392.779541 C126.5680466,392.0269165 127.6720505,391.171936 128.3969879,390.2145996 C127.804863,389.0801392 127.3981247,387.9401855 127.1767731,386.7946777 L128.4467926,386.1887207 C128.7068787,387.3618774 128.9808044,388.2390137 129.2685699,388.8200684 C129.9215698,387.4310608 130.2729645,385.4526978 130.3227692,382.8850098 L128.621109,382.8850098 C128.200531,384.1799316 127.6748199,385.3475647 127.0439606,386.3879395 L126.0561676,385.151123 C127.0301285,383.4632874 127.7024918,381.4046936 128.0732574,378.9753418 L129.4345856,379.1994629 C129.3626404,379.8745728 129.2381287,380.6271973 129.0610504,381.4572754 L132.8379059,381.4572754 L132.8379059,382.8850098 L131.7837067,382.8850098 C131.6287537,386.3215332 131.0781403,388.7923889 130.1318512,390.2976074 C130.7129059,391.1996155 131.7117615,392.0435181 133.1284332,392.8293457 Z M126.0229645,386.138916 L124.6782379,386.8278809 C124.3130035,385.8207092 123.6434097,384.6669006 122.6694489,383.3664551 L123.8232574,382.5446777 C124.7640152,383.6127014 125.4972458,384.810791 126.0229645,386.138916 Z M121.6152496,383.142334 C120.8847809,384.7914124 120.046402,386.1223145 119.1001129,387.1350098 L118.0127106,386.0974121 C118.9202652,385.1013184 119.6562653,383.9226074 120.2207184,382.5612793 Z M125.3755035,391.9328613 L124.2714996,392.9040527 C123.5354996,391.9743652 122.9461441,391.2770996 122.5034332,390.8122559 C121.7618942,391.9356079 120.632988,393.0285645 119.1167145,394.0910645 L117.996109,393.0036621 C119.5677261,391.9632874 120.6966324,390.875885 121.3828278,389.7414551 C120.7298355,389.1271973 120.0602341,388.5654907 119.3740387,388.0563965 L120.121109,386.8112793 C120.5693512,387.1488342 121.2334137,387.6773071 122.1132965,388.3967285 C122.456398,387.5389709 122.7109528,386.744873 122.8769684,386.0144043 L124.2548981,386.4377441 C124.0556793,387.3950806 123.7153473,388.3994751 123.233902,389.4509277 C124.2189255,390.4746704 124.9327927,391.302002 125.3755035,391.9328613 Z M150.5849762,384.0969238 L149.6469879,385.267334 C149.2817535,385.062561 148.9026794,384.7914124 148.5097809,384.4538574 L148.5097809,385.4001465 L143.2387848,385.4001465 L143.2387848,384.279541 C142.7628784,384.7277832 142.3146362,385.0847168 141.8940582,385.3503418 L141.030777,384.1799316 C142.7407379,383.0399475 144.1684723,381.2663574 145.3139801,378.8591309 L146.7085114,379.2990723 C146.6863708,379.4318848 146.6227417,379.5868225 146.5175934,379.763916 C147.7793121,381.800354 149.1351013,383.2446899 150.5849762,384.0969238 Z M148.0615387,383.9890137 C147.1871948,383.098053 146.4235229,382.1351624 145.7705231,381.1003418 C145.1618042,382.1019592 144.4202576,383.0648499 143.5459137,383.9890137 Z M141.3877106,385.8151855 C141.3655701,387.3591309 141.3226929,388.8242188 141.2590485,390.2104492 C141.1954041,391.5966797 141.1068726,392.4502563 140.9934235,392.7712402 C140.8799744,393.0921936 140.6904449,393.3467407 140.4248199,393.5349121 C140.1591949,393.723053 139.6998901,393.8171387 139.0468903,393.8171387 L138.1006012,393.8171387 L137.6772614,392.3728027 C137.9594879,392.4004517 138.3108826,392.4143066 138.7314606,392.4143066 C139.0856323,392.4143066 139.3180542,392.3700256 139.4287262,392.2814941 C139.5393982,392.1929321 139.622406,392.0739746 139.6777496,391.9245605 C139.7330933,391.7751465 139.7870483,391.1733398 139.8396149,390.1191406 C139.8921814,389.0649414 139.9184723,388.0812988 139.9184723,387.1682129 L135.8261871,387.1682129 L136.4238434,381.3244629 L137.7934723,381.5651855 L137.3701324,385.8151855 L139.1215973,385.8151855 L139.4453278,380.7766113 L135.7265778,380.7766113 L135.7265778,379.4401855 L140.9892731,379.4401855 L140.5825348,385.8151855 Z M146.5839996,391.1359863 L145.2392731,391.4763184 C145.2226715,390.0762329 144.9570465,388.3469238 144.4423981,386.2883301 L145.8037262,385.9147949 C146.2907104,387.9567871 146.5507965,389.6971741 146.5839996,391.1359863 Z M150.3774567,393.5100098 L141.4873199,393.5100098 L141.4873199,392.1154785 L146.6919098,392.1154785 C147.3891754,390.5825806 147.937027,388.5654907 148.3354645,386.064209 L149.7299957,386.4543457 C149.2983551,388.7342834 148.7781677,390.6213379 148.1694489,392.1154785 L150.3774567,392.1154785 Z M144.292984,391.302002 L142.9150543,391.6257324 C142.7822418,390.0375061 142.397644,388.338623 141.7612457,386.5290527 L143.0644684,386.0974121 C143.7285309,388.0342407 144.138031,389.769104 144.292984,391.302002 Z M139.6196442,389.9074707 C138.4685974,390.4442444 137.2539215,390.9090881 135.9756012,391.302002 L135.4858551,389.9904785 C136.5870972,389.6971741 137.7934723,389.2461548 139.1049957,388.6374512 Z M157.8232574,379.7224121 C156.4951324,381.460022 155.1282654,382.7411194 153.7226715,383.5656738 L152.9756012,382.2209473 C154.0879059,381.6398926 155.2887573,380.546936 156.5781403,378.9421387 Z M166.8462067,384.619873 L158.4126129,384.619873 L158.4126129,379.2990723 L166.8462067,379.2990723 Z M165.3852692,381.3244629 L165.3852692,380.5939941 L159.9067535,380.5939941 L159.9067535,381.3244629 Z M165.3852692,383.291748 L165.3852692,382.5446777 L159.9067535,382.5446777 L159.9067535,383.291748 Z M157.9560699,383.0925293 C157.5852966,383.850647 157.1647339,384.5645142 156.6943512,385.2341309 L156.6943512,393.8503418 L155.183609,393.8503418 L155.183609,387.2429199 C154.5914917,387.835022 154.1266479,388.2583618 153.7890778,388.5129395 L153.058609,387.1350098 C154.2649841,386.1776428 155.4824371,384.6309204 156.7109528,382.494873 Z M167.9668121,389.177002 L165.999527,389.177002 L165.999527,392.2897949 C165.999527,393.3246155 165.313324,393.842041 163.9409332,393.842041 C163.5756989,393.842041 163.1855621,393.828186 162.7705231,393.8005371 L162.3388824,392.4226074 C162.8203278,392.4502563 163.2353668,392.4641113 163.5839996,392.4641113 C163.9879761,392.4641113 164.250824,392.4170532 164.3725739,392.322998 C164.4943237,392.2289124 164.555191,392.0822754 164.555191,391.8830566 L164.555191,389.177002 L157.3916168,389.177002 L157.3916168,387.8156738 L164.555191,387.8156738 L164.555191,386.8112793 L157.765152,386.8112793 L157.765152,385.4748535 L167.5434723,385.4748535 L167.5434723,386.8112793 L165.999527,386.8112793 L165.999527,387.8156738 L167.9668121,387.8156738 Z M162.1894684,391.3850098 L161.1186676,392.439209 C160.2609253,391.5427246 159.4612732,390.8703613 158.7197418,390.4221191 L159.6909332,389.3845215 C160.421402,389.7774048 161.2542419,390.4442444 162.1894684,391.3850098 Z M185.0332184,392.5637207 C185.0332184,392.9289551 184.9170074,393.2388306 184.6845856,393.4934082 C184.4521637,393.7479553 184.1809998,393.8862915 183.871109,393.9084473 C183.5612183,393.9305725 183.1434021,393.9416504 182.617691,393.9416504 C182.2911987,393.9416504 181.8540192,393.9333496 181.3061676,393.916748 L180.8662262,392.3894043 C181.4583435,392.4281311 181.9785309,392.4475098 182.4267731,392.4475098 C182.9469604,392.4475098 183.2568512,392.4267578 183.3564606,392.3852539 C183.4560699,392.34375 183.5058746,392.2676392 183.5058746,392.1569824 L183.5058746,379.0666504 L185.0332184,379.0666504 Z M179.9531403,385.4001465 L178.7080231,386.1887207 C178.3261871,385.4416504 178.0882263,384.9989319 177.9941559,384.8605957 C177.3964996,384.9602051 176.773941,385.0570374 176.1264801,385.151123 L176.1264801,387.392334 L179.1811676,387.392334 L179.1811676,388.869873 L176.1264801,388.869873 L176.1264801,391.4597168 C177.0617065,391.3490295 178.1933746,391.1027832 179.5214996,390.7209473 L179.5214996,392.173584 C177.6344604,392.6992798 174.7679138,393.2194824 170.9218903,393.7341309 L170.4985504,392.2897949 C171.7381287,392.1846313 173.1022339,392.0075684 174.5908356,391.7585449 L174.5908356,388.869873 L171.195816,388.869873 L171.195816,387.392334 L174.5908356,387.392334 L174.5908356,385.4001465 C173.1852417,385.5827637 172.0867615,385.710022 171.2954254,385.7819824 L170.8720856,384.3708496 C172.0673981,383.5794983 173.0413513,382.4395142 173.7939606,380.9509277 L170.7558746,380.9509277 L170.7558746,379.4733887 L179.5962067,379.4733887 L179.5962067,380.9509277 L175.5952301,380.9509277 C174.920105,382.1462402 174.0872498,383.2059631 173.0966949,384.130127 C174.3639526,384.0194397 175.7197418,383.8423462 177.1640778,383.598877 C176.9371948,383.2059631 176.5581207,382.6968384 176.0268707,382.0715332 L177.3300934,381.3410645 C178.5696716,382.7909241 179.4440308,384.1439514 179.9531403,385.4001465 Z M181.8706207,390.8288574 L180.3764801,390.8288574 L180.3764801,380.2536621 L181.8706207,380.2536621 Z M202.7636871,381.6315918 C202.7526245,383.2585449 202.694519,385.3683167 202.5893707,387.9609375 C202.4842224,390.5535278 202.3292847,392.0822754 202.124527,392.5471191 C201.9197693,393.0119324 201.60849,393.3536682 201.1906891,393.5722656 C200.7728882,393.7908325 199.7560425,393.9056702 198.140152,393.916748 L197.5756989,392.4226074 L199.8501129,392.4060059 C200.0659332,392.4060059 200.2955933,392.3146973 200.5390778,392.1320801 C200.7825623,391.9494629 200.9651794,390.7181702 201.0869293,388.4382324 C201.2086792,386.1582642 201.2667847,384.381897 201.2612457,383.1091309 L197.8496246,383.1091309 C197.3183746,384.4593811 196.7179565,385.6104126 196.0483551,386.5622559 L194.8862457,385.5246582 C196.1036987,383.5545959 196.961441,381.3548889 197.4594879,378.9255371 L198.9536285,379.2492676 C198.8429565,379.8247681 198.6437378,380.6188965 198.3559723,381.6315918 Z M194.5459137,393.7507324 L193.0849762,393.7507324 L193.0849762,392.630127 L190.0136871,392.630127 L190.0136871,393.916748 L188.5112457,393.916748 L188.5112457,381.548584 L190.0302887,381.548584 C190.4563904,380.7627563 190.7884216,379.8994751 191.0263824,378.9587402 L192.5952301,379.2160645 C192.5122223,379.7528381 192.2465973,380.5303345 191.7983551,381.548584 L194.5459137,381.548584 Z M193.0849762,386.1721191 L193.0849762,383.026123 L190.0136871,383.026123 L190.0136871,386.1721191 Z M193.0849762,391.1691895 L193.0849762,387.5998535 L190.0136871,387.5998535 L190.0136871,391.1691895 Z M200.2983551,389.2268066 L198.9702301,390.0817871 C198.2397614,388.6208496 197.4567261,387.4006348 196.621109,386.4211426 L197.949234,385.5910645 C199.0781403,387.0021973 199.8611755,388.2141113 200.2983551,389.2268066 Z M209.8442535,379.2658691 C209.71698,379.8081665 209.5094604,380.4888306 209.2216949,381.3078613 L208.7900543,382.494873 L208.7900543,393.8171387 L207.2959137,393.8171387 L207.2959137,385.7570801 C207.0856323,386.1555176 206.7619019,386.6452637 206.3247223,387.2263184 L205.4780426,385.7404785 C206.6512146,384.013916 207.6141052,381.7312012 208.3667145,378.892334 Z M220.452652,393.5598145 L209.6035309,393.5598145 L209.6035309,392.2565918 L210.7490387,392.2565918 L210.7490387,382.7521973 L213.6875153,382.7521973 C213.8369293,382.2430725 213.9503784,381.8418579 214.0278473,381.548584 L209.9853668,381.548584 L209.9853668,380.220459 L214.3681793,380.220459 C214.5397339,379.5065918 214.6365662,379.0804749 214.6587067,378.9421387 L216.2358551,379.0998535 C216.1915894,379.3931274 216.1058044,379.7666626 215.9785309,380.220459 L220.2534332,380.220459 L220.2534332,381.548584 L215.6464996,381.548584 C215.5856323,381.8031311 215.4777222,382.2043457 215.3227692,382.7521973 L219.2324371,382.7521973 L219.2324371,392.2565918 L220.452652,392.2565918 Z M217.7465973,385.1179199 L217.7465973,384.0471191 L212.2597809,384.0471191 L212.2597809,385.1179199 Z M217.7714996,387.4753418 L217.7714996,386.2883301 L212.2597809,386.2883301 L212.2597809,387.4753418 Z M217.7714996,389.9074707 L217.7714996,388.6706543 L212.2597809,388.6706543 L212.2597809,389.9074707 Z M217.7714996,392.2565918 L217.7714996,391.0446777 L212.2597809,391.0446777 L212.2597809,392.2565918 Z" style="fill:rgb(89,89,89);stroke:none" clip-path="url(#clip6)" />
<clipPath id="clip7"><path d="M27,233 L221,233 L221,282 L27,282 L27,233 Z" /></clipPath>
<path d="M38,236 C33.5817184,236 30,239.5817261 30,244 L30,270 C30,274.4182739 33.5817184,278 38,278 L209,278 C213.4182739,278 217,274.4182739 217,270 L217,244 C217,239.5817261 213.4182739,236 209,236 Z" style="fill:none;stroke:rgb(127,127,127);stroke-width:4" clip-path="url(#clip7)" />
<clipPath id="clip8"><path d="M43,244 L205,244 L205,271 L43,271 L43,244 Z" /></clipPath>
<path d="M61.4536285,252.8474121 L57.867691,252.8474121 L57.867691,253.8186035 L56.4067535,253.8186035 L56.4067535,252.8474121 L54.4477692,252.8474121 L54.4477692,251.4694824 L56.4067535,251.4694824 L56.4067535,250.1330566 L57.867691,250.1330566 L57.867691,251.4694824 L61.4536285,251.4694824 Z M53.7173004,252.8474121 L51.7334137,252.8474121 L51.7334137,253.8186035 L50.2724762,253.8186035 L50.2724762,252.8474121 L46.6616364,252.8474121 L46.6616364,251.4694824 L50.2724762,251.4694824 L50.2724762,250.1330566 L51.7334137,250.1330566 L51.7334137,251.4694824 L53.7173004,251.4694824 Z M53.1611481,254.7897949 C52.4970856,255.5313263 51.7887497,256.2036743 51.0361481,256.8068848 C51.7168121,257.9745178 52.0571442,259.4022522 52.0571442,261.0900879 C52.0571442,262.1138306 51.9658356,262.9024048 51.7832184,263.4558105 C51.6006012,264.0091858 51.3086853,264.392395 50.907486,264.6054688 C50.506279,264.818512 49.898941,264.9250488 49.0854645,264.9250488 C48.8364334,264.9250488 48.4878006,264.916748 48.039566,264.9001465 L47.5166168,263.4060059 C48.2802887,263.4502563 48.9830856,263.4724121 49.6250153,263.4724121 C49.9183044,263.4724121 50.1521149,263.3589478 50.3264313,263.1320801 C50.5007477,262.9051819 50.5879059,262.2715454 50.5879059,261.2312012 C50.5879059,260.9046936 50.5713043,260.5809631 50.5381012,260.2600098 C49.5807419,261.2671509 48.532074,262.1000061 47.3921051,262.7585449 L46.5122223,261.6047363 C48.0063553,260.8244629 49.2348785,259.8449707 50.1977692,258.6662598 C50.0981598,258.2788696 49.9681091,257.9551392 49.8076324,257.6950684 C48.8613434,258.2595215 48.0340271,258.6911621 47.3256989,258.9899902 L46.4956207,257.7780762 C47.5581131,257.3630371 48.3854294,256.9673462 48.9775543,256.5910645 C48.3688278,255.9823303 47.6438904,255.4427795 46.8027496,254.9724121 L47.8735504,253.9348145 C48.8253708,254.4937286 49.594574,255.088623 50.1811676,255.7194824 C50.7234802,255.2933655 51.3183746,254.7289124 51.9658356,254.026123 Z M61.6113434,263.9538574 L60.7065582,265.1408691 C58.6313629,263.6743774 57.2893982,261.9976196 56.6806793,260.1105957 C56.0885544,262.1249084 54.7714996,263.7739868 52.7295074,265.0578613 L51.8662262,263.8459473 C54.0188904,262.6838379 55.2723083,260.813385 55.6264801,258.2346191 L52.2397614,258.2346191 L52.2397614,256.8483887 L55.7094879,256.8483887 L55.7094879,254.2419434 L57.2036285,254.2419434 L57.2036285,256.8483887 L61.4536285,256.8483887 L61.4536285,258.2346191 L57.4941559,258.2346191 C57.9977341,260.5145569 59.3701286,262.4209595 61.6113434,263.9538574 Z M60.640152,255.5534668 L59.8930817,256.5910645 C59.2843552,256.1594238 58.5289841,255.7609863 57.6269684,255.395752 L58.3906403,254.2751465 C59.2815895,254.6569824 60.0314255,255.0830841 60.640152,255.5534668 Z M79.0761871,264.0202637 L78.0219879,265.0910645 C76.782402,264.0396118 75.8250427,263.0518188 75.1499176,262.1276855 C74.4139099,263.0794983 73.4288864,264.0617676 72.1948395,265.0744629 L71.1074371,264.0202637 C72.513031,262.9024048 73.5838318,261.8482056 74.3198395,260.857666 C73.1079254,258.8876038 72.3608551,256.2922363 72.0786285,253.0715332 L71.7382965,253.0715332 L71.7382965,251.9675293 L70.8667145,251.9675293 L70.8667145,264.9499512 L69.405777,264.9499512 L69.405777,262.1442871 C67.8341599,262.6699829 66.2072067,263.0960999 64.5249176,263.4226074 L64.0019684,261.9616699 C64.4059372,261.9173889 64.8431091,261.8482056 65.3134918,261.7541504 L65.3134918,251.9675293 L64.2260895,251.9675293 L64.2260895,250.5397949 L71.9707184,250.5397949 L71.9707184,251.5773926 L78.3789215,251.5773926 C78.2184372,255.7222443 77.449234,258.8267212 76.0713043,260.8908691 C76.7464294,261.875885 77.7480621,262.9190063 79.0761871,264.0202637 Z M69.405777,254.026123 L69.405777,251.9675293 L66.7910309,251.9675293 L66.7910309,254.026123 Z M76.8017731,253.0715332 L73.5561676,253.0715332 C73.8217926,255.6392365 74.3834763,257.7365723 75.2412262,259.3635254 C76.0325623,257.7476196 76.5527496,255.6502991 76.8017731,253.0715332 Z M69.405777,257.5041504 L69.405777,255.4538574 L66.7910309,255.4538574 L66.7910309,257.5041504 Z M69.405777,260.6169434 L69.405777,258.9152832 L66.7910309,258.9152832 L66.7910309,261.3972168 C67.7705231,261.1703186 68.6421051,260.9102173 69.405777,260.6169434 Z M96.4829254,251.9343262 L90.5644684,251.9343262 C90.4261169,252.3659668 90.2462692,252.8169708 90.0249176,253.2873535 L95.246109,253.2873535 L95.246109,259.7038574 L91.2285309,259.7038574 L91.2285309,263.5388184 C91.2285309,263.8597717 91.1344528,264.1336975 90.9463043,264.3605957 C90.7581482,264.5874634 90.539566,264.7382813 90.2905426,264.8129883 C90.0415192,264.8876953 89.5656052,264.9250488 88.8628082,264.9250488 C88.5639801,264.9250488 88.265152,264.916748 87.9663239,264.9001465 L87.5097809,263.5056152 C88.6663513,263.5056152 89.3235016,263.4793091 89.4812164,263.4267578 C89.6389313,263.374176 89.7177887,263.2206116 89.7177887,262.9660645 L89.7177887,259.7038574 L85.6006012,259.7038574 L85.6006012,253.2873535 L88.4643707,253.2873535 C88.641449,252.9165802 88.8213043,252.4655762 89.0039215,251.9343262 L84.3471832,251.9343262 L84.3471832,257.4211426 C84.3471832,260.6362915 83.7965622,263.1929321 82.6953278,265.0910645 L81.3921051,264.1862793 C82.3660583,262.4265137 82.8530426,260.0690918 82.8530426,257.1140137 L82.8530426,250.5397949 L96.4663239,250.5397949 Z M93.7104645,255.8605957 L93.7104645,254.6320801 L87.1528473,254.6320801 L87.1528473,255.8605957 Z M93.7104645,258.3757324 L93.7104645,257.1804199 L87.1528473,257.1804199 L87.1528473,258.3757324 Z M96.6406403,263.4890137 L95.4619293,264.4602051 C94.7037888,263.2980957 93.7021637,262.1470337 92.4570465,261.0070801 L93.6274567,260.1271973 C94.7674255,261.1288147 95.7718201,262.2494202 96.6406403,263.4890137 Z M88.3730621,260.8410645 C87.6093903,262.1304321 86.5385895,263.3091431 85.1606598,264.3771973 L83.9736481,263.4060059 C85.4567184,262.2383423 86.5053864,261.1454163 87.1196442,260.1271973 Z M114.0888824,256.9147949 L112.4951324,257.595459 C112.4010544,257.2246704 112.2433395,256.7875061 112.0219879,256.2839355 C110.1404724,256.5716858 108.0542145,256.7819824 105.7631989,256.9147949 L105.4062653,255.470459 C105.6552887,255.4040527 105.9181442,255.2629395 106.1948395,255.0471191 C106.4715271,254.8312988 106.8464508,254.2115021 107.3195953,253.1877441 C107.7927399,252.1639709 108.181488,251.1153107 108.4858551,250.041748 L110.1792145,250.2492676 C109.8305817,251.4777832 109.0724411,253.1324005 107.9048004,255.2131348 C108.8344879,255.2020569 109.9910583,255.0830841 111.374527,254.8562012 C111.0314255,254.136795 110.6108551,253.4063263 110.1128082,252.6647949 L111.5903473,252.0671387 C112.6915817,253.760498 113.5244293,255.3763733 114.0888824,256.9147949 Z M105.945816,254.3415527 C105.8130035,254.3526154 105.525238,254.3885803 105.0825348,254.4494629 C104.8667145,257.0282288 104.4129333,259.0674438 103.7212067,260.5671387 C104.468277,261.2145996 105.0991364,261.831604 105.6137848,262.4182129 L104.3354645,263.6799316 C103.8042145,262.9715881 103.3393707,262.4265137 102.9409332,262.0446777 C102.0887146,263.2897949 101.1590271,264.2692871 100.1518707,264.9831543 L99.0478668,263.6799316 C100.292984,262.7280884 101.1894684,261.8039551 101.7373199,260.9074707 C101.0511169,260.2987366 100.2514801,259.6817017 99.3383942,259.0563965 C99.7202301,257.7559204 100.0494919,256.3558655 100.3261871,254.8562012 C100.1269684,254.8838654 99.7229919,254.9115295 99.1142731,254.939209 L99.1142731,253.4450684 C99.8392029,253.4118652 100.3317184,253.3786621 100.5918121,253.345459 C100.7744293,252.3825684 100.9238434,251.3034668 101.0400543,250.1081543 L102.6338043,250.2492676 C102.5009918,251.2674866 102.3543396,252.2635803 102.1938629,253.2375488 C102.5203552,253.2264709 102.985199,253.1988068 103.5883942,253.154541 C103.6215973,252.8833771 103.6381989,252.4351349 103.6381989,251.8098145 L105.1987457,251.8098145 C105.1987457,252.04776 105.1876755,252.4351349 105.1655426,252.9719238 L105.945816,252.8972168 Z M103.4638824,254.6154785 L101.9199371,254.7565918 C101.731781,255.8024902 101.4772263,257.0586548 101.1562653,258.5251465 C101.7151794,258.9291077 102.1412888,259.2528381 102.4345856,259.4963379 C103.00457,257.9855957 103.3476715,256.3586426 103.4638824,254.6154785 Z M113.2256012,264.9665527 L111.6484528,264.9665527 L111.6484528,264.2194824 L107.4980621,264.2194824 L107.4980621,264.9665527 L105.9292145,264.9665527 L105.9292145,257.9191895 L113.2256012,257.9191895 Z M111.6484528,262.7419434 L111.6484528,259.380127 L107.4980621,259.380127 L107.4980621,262.7419434 Z M120.8706207,250.3322754 C120.7433395,250.874588 120.53582,251.5552521 120.2480621,252.3742676 L119.8164215,253.5612793 L119.8164215,264.8835449 L118.3222809,264.8835449 L118.3222809,256.8234863 C118.1119919,257.2219238 117.7882614,257.7116699 117.3510895,258.2927246 L116.5044098,256.8068848 C117.6775894,255.0803223 118.64048,252.7976074 119.3930817,249.9587402 Z M131.4790192,264.6262207 L120.6298981,264.6262207 L120.6298981,263.322998 L121.7754059,263.322998 L121.7754059,253.8186035 L124.7138824,253.8186035 C124.8632965,253.3094788 124.976738,252.9082794 125.0542145,252.6149902 L121.011734,252.6149902 L121.011734,251.2868652 L125.3945465,251.2868652 C125.5660934,250.572998 125.662941,250.1468811 125.6850739,250.0085449 L127.2622223,250.1662598 C127.2179489,250.459549 127.1321793,250.8330841 127.0048981,251.2868652 L131.2798004,251.2868652 L131.2798004,252.6149902 L126.6728668,252.6149902 C126.6119919,252.8695374 126.5040817,253.270752 126.3491364,253.8186035 L130.2588043,253.8186035 L130.2588043,263.322998 L131.4790192,263.322998 Z M128.7729645,256.1843262 L128.7729645,255.1135254 L123.2861481,255.1135254 L123.2861481,256.1843262 Z M128.7978668,258.541748 L128.7978668,257.3547363 L123.2861481,257.3547363 L123.2861481,258.541748 Z M128.7978668,260.973877 L128.7978668,259.7370605 L123.2861481,259.7370605 L123.2861481,260.973877 Z M128.7978668,263.322998 L128.7978668,262.111084 L123.2861481,262.111084 L123.2861481,263.322998 Z M147.8149567,250.9963379 L146.7939606,252.0007324 C146.356781,251.596756 145.8172302,251.1983185 145.1753082,250.8054199 L146.2129059,249.8425293 C146.9101715,250.2354279 147.4441833,250.6200256 147.8149567,250.9963379 Z M148.9687653,261.6047363 C148.6533356,263.8680725 147.9671326,264.9997559 146.9101715,264.9997559 C146.4785309,264.9997559 146.016449,264.79776 145.523941,264.3937988 C145.0314331,263.9898071 144.5942535,263.3783264 144.2124176,262.5593262 C143.2937927,263.4945374 142.3530426,264.3273926 141.390152,265.0578613 L140.2280426,264.0368652 C141.6779175,263.0075684 142.8234253,261.9976196 143.664566,261.0070801 C143.1277771,259.0591431 142.7985229,256.6131897 142.6767731,253.6691895 L134.1435699,253.6691895 L134.1435699,252.2165527 L142.5771637,252.2165527 C142.5439606,251.6687012 142.527359,250.9658966 142.527359,250.1081543 L144.0547028,250.1081543 C144.0547028,250.9769592 144.0713043,251.6797638 144.1045074,252.2165527 L148.902359,252.2165527 L148.902359,253.6691895 L144.1792145,253.6691895 C144.2511597,255.9159241 144.4642029,257.8251038 144.8183746,259.3967285 C145.6429138,258.0021973 146.2903748,256.444397 146.7607574,254.7233887 L148.105484,255.2131348 C147.4801636,257.5484009 146.5504761,259.559967 145.3164215,261.2478027 C145.5820465,261.9284668 145.8587341,262.4403381 146.1464996,262.7834473 C146.4342651,263.1265259 146.6473083,263.2980957 146.7856598,263.2980957 C146.8852692,263.2980957 146.962738,263.2704163 147.0180817,263.2150879 C147.0734253,263.159729 147.1633453,262.8747559 147.2878571,262.3601074 C147.4123688,261.845459 147.5078278,261.3335571 147.574234,260.8244629 Z M141.2490387,260.0441895 L135.0649567,260.0441895 L135.0649567,255.0803223 L141.2490387,255.0803223 Z M139.7714996,258.6496582 L139.7714996,256.4665527 L136.608902,256.4665527 L136.608902,258.6496582 Z M142.070816,262.2355957 C139.9236755,262.9439087 137.3559723,263.5775452 134.367691,264.1364746 L134.0771637,262.6921387 C137.7903748,262.0059204 140.4189606,261.3833618 141.9629059,260.8244629 Z M166.7158356,263.7131348 L165.6948395,264.9665527 C164.4663239,263.3174438 163.6611481,261.3529358 163.2793121,259.072998 C162.825531,261.4082642 161.9816284,263.3783264 160.7475739,264.9831543 L159.6601715,263.8625488 C161.2041168,261.8869629 162.0756989,259.2528381 162.2749176,255.9602051 L160.0669098,255.9602051 L160.0669098,254.5822754 L162.3413239,254.5822754 C162.3800659,252.2967834 162.3994293,250.799881 162.3994293,250.0915527 L163.8603668,250.0915527 L163.7690582,254.5822754 L166.4585114,254.5822754 L166.4585114,255.9602051 L163.8271637,255.9602051 C164.1813354,259.0646973 165.1442261,261.6489868 166.7158356,263.7131348 Z M159.9340973,261.0070801 L151.6499176,261.0070801 L151.6499176,259.7038574 L155.0532379,259.7038574 L155.0532379,258.6828613 L152.0400543,258.6828613 L152.0400543,257.3713379 L155.0532379,257.3713379 L155.0532379,256.3669434 L152.0732574,256.3669434 L152.0732574,250.4318848 L159.5024567,250.4318848 L159.5024567,256.3669434 L156.4809723,256.3669434 L156.4809723,257.3713379 L159.5024567,257.3713379 L159.5024567,258.6828613 L156.4809723,258.6828613 L156.4809723,259.7038574 L159.9340973,259.7038574 Z M158.2822418,255.0969238 L158.2822418,251.7102051 L156.4809723,251.7102051 L156.4809723,255.0969238 Z M157.9917145,252.2912598 C157.9363708,253.2873535 157.7952576,254.1478577 157.5683746,254.8728027 L156.8047028,254.6320801 C157.0039215,253.796463 157.1284332,252.9525452 157.1782379,252.1003418 Z M155.0532379,255.0969238 L155.0532379,251.7102051 L153.3017731,251.7102051 L153.3017731,255.0969238 Z M154.7627106,254.598877 L153.9326324,254.8395996 C153.8938904,254.0371857 153.7693787,253.1932678 153.5590973,252.3078613 L154.3393707,252.0671387 C154.5773315,252.924881 154.7184448,253.7687988 154.7627106,254.598877 Z M166.4419098,253.5280762 L165.2216949,254.0759277 C164.9616089,253.2735138 164.5686951,252.473877 164.042984,251.677002 L165.1967926,251.1125488 C165.7280426,251.9315491 166.1430817,252.7367249 166.4419098,253.5280762 Z M153.758316,261.654541 C153.6365662,262.6893616 153.2907104,263.8293457 152.7207184,265.0744629 L151.4673004,264.427002 C152.009613,263.2814941 152.3361206,262.2549438 152.4467926,261.3474121 Z M159.5356598,263.5554199 L158.3154449,263.9123535 C158.2324371,263.2372131 158.0276794,262.4846191 157.7011871,261.654541 L158.9463043,261.3806152 C159.2285309,262.111084 159.4249878,262.8359985 159.5356598,263.5554199 Z M157.6015778,264.4104004 L156.339859,264.651123 C156.2900543,263.6107483 156.1157379,262.6506348 155.8169098,261.770752 L157.0537262,261.5383301 C157.3359528,262.4846191 157.5185699,263.4419556 157.6015778,264.4104004 Z M155.5263824,264.7839355 L154.1816559,264.9333496 C154.1982574,264.678772 154.2065582,264.4214478 154.2065582,264.161377 C154.2065582,263.3589478 154.1484528,262.5814514 154.0322418,261.8288574 L155.3105621,261.654541 C155.4765778,262.5454712 155.5595856,263.3562012 155.5595856,264.0866699 C155.5595856,264.3301392 155.5485229,264.562561 155.5263824,264.7839355 Z M173.2568512,252.8806152 L171.9785309,253.7521973 C171.480484,252.9165802 170.7168121,251.9647522 169.6875153,250.8967285 L170.874527,250.041748 C171.6271362,250.7500763 172.4212341,251.6963654 173.2568512,252.8806152 Z M184.155777,264.1364746 L183.0268707,265.1574707 C180.9848785,263.2095337 179.5516052,260.8299866 178.727066,258.0187988 C178.0021362,260.7414551 176.5522614,263.098877 174.3774567,265.0910645 L173.2568512,264.1364746 C174.5628357,262.9024048 175.575531,261.6144104 176.2949371,260.2724609 C177.0143433,258.930481 177.4653473,257.5332031 177.6479645,256.0805664 C177.8305817,254.6279297 177.9412537,252.6786194 177.9799957,250.232666 L179.4741364,250.232666 C179.4519958,250.9686584 179.4409332,251.6327209 179.4409332,252.2248535 C179.4409332,254.1616974 179.6166382,255.76651 179.9680328,257.0393066 C180.3194275,258.3120728 180.8340759,259.5682678 181.5119781,260.8078613 C182.1898804,262.0474243 183.0711365,263.1569824 184.155777,264.1364746 Z M174.6845856,261.5217285 C173.7438354,262.4956665 172.733902,263.3894043 171.6548004,264.2028809 L170.874527,262.8830566 C170.9741364,262.7557678 171.023941,262.6229553 171.023941,262.4846191 L171.023941,256.0598145 L169.1728668,256.0598145 L169.1728668,254.5490723 L172.542984,254.5490723 L172.542984,261.5881348 C173.0299683,261.1620178 173.5114136,260.7137756 173.9873199,260.2434082 Z M190.8960114,250.3322754 C190.7687378,250.874588 190.5612183,251.5552521 190.2734528,252.3742676 L189.8418121,253.5612793 L189.8418121,264.8835449 L188.3476715,264.8835449 L188.3476715,256.8234863 C188.1373901,257.2219238 187.8136597,257.7116699 187.3764801,258.2927246 L186.5298004,256.8068848 C187.7029724,255.0803223 188.665863,252.7976074 189.4184723,249.9587402 Z M201.5044098,264.6262207 L190.6552887,264.6262207 L190.6552887,263.322998 L191.8007965,263.322998 L191.8007965,253.8186035 L194.7392731,253.8186035 C194.8886871,253.3094788 195.0021362,252.9082794 195.0796051,252.6149902 L191.0371246,252.6149902 L191.0371246,251.2868652 L195.4199371,251.2868652 C195.5914917,250.572998 195.688324,250.1468811 195.7104645,250.0085449 L197.2876129,250.1662598 C197.2433472,250.459549 197.1575623,250.8330841 197.0302887,251.2868652 L201.305191,251.2868652 L201.305191,252.6149902 L196.6982574,252.6149902 C196.6373901,252.8695374 196.52948,253.270752 196.374527,253.8186035 L200.2841949,253.8186035 L200.2841949,263.322998 L201.5044098,263.322998 Z M198.7983551,256.1843262 L198.7983551,255.1135254 L193.3115387,255.1135254 L193.3115387,256.1843262 Z M198.8232574,258.541748 L198.8232574,257.3547363 L193.3115387,257.3547363 L193.3115387,258.541748 Z M198.8232574,260.973877 L198.8232574,259.7370605 L193.3115387,259.7370605 L193.3115387,260.973877 Z M198.8232574,263.322998 L198.8232574,262.111084 L193.3115387,262.111084 L193.3115387,263.322998 Z" style="fill:rgb(89,89,89);stroke:none" clip-path="url(#clip8)" />
<clipPath id="clip9"><path d="M335,365 L479,365 L479,414 L335,414 L335,365 Z" /></clipPath>
<path d="M346,368 C341.5817261,368 338,371.5817261 338,376 L338,402 C338,406.4182739 341.5817261,410 346,410 L467,410 C471.4182739,410 475,406.4182739 475,402 L475,376 C475,371.5817261 471.4182739,368 467,368 Z" style="fill:none;stroke:rgb(127,127,127);stroke-width:4" clip-path="url(#clip9)" />
<clipPath id="clip10"><path d="M351,376 L463,376 L463,403 L351,403 L351,376 Z" /></clipPath>
<path d="M361.9746094,383.6022949 L354.4624023,383.6022949 L354.4624023,382.157959 L357.5668945,382.157959 C357.4064331,381.687561 357.1795349,381.2061157 356.8862305,380.713623 L358.4384766,380.2902832 C358.8479919,381.0317993 359.1080933,381.6543579 359.21875,382.157959 L361.9746094,382.157959 Z M369.3706055,394.2770996 L368.4824219,395.5056152 C367.2262573,394.747467 366.2190857,393.8814087 365.4609375,392.9074707 C364.8079529,393.6766663 363.7177734,394.526123 362.1904297,395.4558105 L361.3271484,394.2272949 C362.8102417,393.4746704 363.9142456,392.6196899 364.6391602,391.6623535 C364.0470581,390.5278931 363.6403198,389.3879395 363.4189453,388.2424316 L364.6889648,387.6364746 C364.9490662,388.8096313 365.2229919,389.6867676 365.5107422,390.2678223 C366.1637573,388.8788147 366.5151367,386.9004517 366.5649414,384.3327637 L364.8632813,384.3327637 C364.4427185,385.6276855 363.9169922,386.7953186 363.2861328,387.8356934 L362.2983398,386.598877 C363.2723083,384.9110413 363.9446716,382.8524475 364.3154297,380.4230957 L365.6767578,380.6472168 C365.6048279,381.3223267 365.4803162,382.0749512 365.3032227,382.9050293 L369.0800781,382.9050293 L369.0800781,384.3327637 L368.0258789,384.3327637 C367.8709412,387.7692871 367.3203125,390.2401428 366.3740234,391.7453613 C366.9550781,392.6473694 367.953949,393.491272 369.3706055,394.2770996 Z M362.2651367,387.5866699 L360.9204102,388.2756348 C360.5551758,387.2684631 359.8855896,386.1146545 358.9116211,384.814209 L360.0654297,383.9924316 C361.0061951,385.0604553 361.7394409,386.2585449 362.2651367,387.5866699 Z M357.8574219,384.5900879 C357.1269531,386.2391663 356.2885742,387.5700684 355.3422852,388.5827637 L354.2548828,387.545166 C355.1624451,386.5490723 355.8984375,385.3703613 356.4628906,384.0090332 Z M361.6176758,393.3806152 L360.5136719,394.3518066 C359.7776794,393.4221191 359.188324,392.7248535 358.7456055,392.2600098 C358.0040894,393.3833618 356.8751831,394.4763184 355.3588867,395.5388184 L354.2382813,394.451416 C355.809906,393.4110413 356.9388123,392.3236389 357.625,391.189209 C356.9720154,390.5749512 356.3024292,390.0132446 355.6162109,389.5041504 L356.3632813,388.2590332 C356.8115234,388.5965881 357.4755859,389.125061 358.3554688,389.8444824 C358.6985779,388.9867249 358.953125,388.192627 359.1191406,387.4621582 L360.4970703,387.885498 C360.2978516,388.8428345 359.9575195,389.847229 359.4760742,390.8986816 C360.4611206,391.9224243 361.1749878,392.7497559 361.6176758,393.3806152 Z M386.8271484,385.5446777 L385.8891602,386.7150879 C385.5239258,386.5103149 385.1448669,386.2391663 384.7519531,385.9016113 L384.7519531,386.8479004 L379.480957,386.8479004 L379.480957,385.7272949 C379.0050354,386.1755371 378.5568237,386.5324707 378.1362305,386.7980957 L377.2729492,385.6276855 C378.9829102,384.4877014 380.4106445,382.7141113 381.5561523,380.3068848 L382.9506836,380.7468262 C382.9285583,380.8796387 382.8648987,381.0345764 382.7597656,381.2116699 C384.0214844,383.2481079 385.3772888,384.6924438 386.8271484,385.5446777 Z M384.3037109,385.4367676 C383.4293518,384.5458069 382.6656799,383.5829163 382.0126953,382.5480957 C381.4039612,383.5497131 380.6624451,384.5126038 379.7880859,385.4367676 Z M377.6298828,387.2629395 C377.6077576,388.8068848 377.5648804,390.2719727 377.5012207,391.6582031 C377.4375916,393.0444336 377.3490601,393.8980103 377.2355957,394.2189941 C377.1221619,394.5399475 376.9326172,394.7944946 376.6669922,394.982666 C376.4013672,395.1708069 375.9420776,395.2648926 375.2890625,395.2648926 L374.3427734,395.2648926 L373.9194336,393.8205566 C374.2016602,393.8482056 374.5530701,393.8620605 374.9736328,393.8620605 C375.3278198,393.8620605 375.5602417,393.8177795 375.6708984,393.729248 C375.7815857,393.640686 375.8645935,393.5217285 375.9199219,393.3723145 C375.9752808,393.2229004 376.0292358,392.6210938 376.0817871,391.5668945 C376.1343689,390.5126953 376.1606445,389.5290527 376.1606445,388.6159668 L372.0683594,388.6159668 L372.6660156,382.7722168 L374.0356445,383.0129395 L373.6123047,387.2629395 L375.3637695,387.2629395 L375.6875,382.2243652 L371.96875,382.2243652 L371.96875,380.8879395 L377.2314453,380.8879395 L376.824707,387.2629395 Z M382.8261719,392.5837402 L381.4814453,392.9240723 C381.4648438,391.5239868 381.1992188,389.7946777 380.6845703,387.736084 L382.0458984,387.3625488 C382.5328674,389.404541 382.7929688,391.144928 382.8261719,392.5837402 Z M386.6196289,394.9577637 L377.7294922,394.9577637 L377.7294922,393.5632324 L382.934082,393.5632324 C383.6313477,392.0303345 384.1791992,390.0132446 384.5776367,387.5119629 L385.972168,387.9020996 C385.5405273,390.1820374 385.0203552,392.0690918 384.4116211,393.5632324 L386.6196289,393.5632324 Z M380.5351563,392.7497559 L379.1572266,393.0734863 C379.0244141,391.48526 378.6398315,389.786377 378.003418,387.9768066 L379.3066406,387.545166 C379.9707031,389.4819946 380.3802185,391.2168579 380.5351563,392.7497559 Z M375.8618164,391.3552246 C374.7107849,391.8919983 373.4960938,392.356842 372.2177734,392.7497559 L371.7280273,391.4382324 C372.8292847,391.144928 374.0356445,390.6939087 375.347168,390.0852051 Z M394.7875977,387.1633301 C394.4998169,386.9751587 394.117981,386.8811035 393.6420898,386.8811035 C393.0112305,386.8811035 392.5007324,387.1577759 392.1105957,387.7111816 C391.720459,388.2645569 391.5253906,388.9978027 391.5253906,389.9108887 L391.5253906,394.4846191 L389.574707,394.4846191 L389.574707,385.3039551 L391.5253906,385.3039551 L391.5253906,387.130127 L391.5668945,387.130127 C392.0206604,385.8075256 392.8230591,385.1462402 393.9741211,385.1462402 C394.3171997,385.1462402 394.5883789,385.184967 394.7875977,385.2624512 Z M404.1674805,390.4172363 L397.8588867,390.4172363 C397.9418945,392.2710571 398.8854065,393.197998 400.6894531,393.197998 C401.7076721,393.197998 402.6345825,392.8936157 403.4702148,392.2849121 L403.4702148,393.8952637 C402.6511841,394.4320374 401.5748596,394.7004395 400.2412109,394.7004395 C398.8798828,394.7004395 397.8146057,394.2853699 397.0454102,393.4553223 C396.2761841,392.6252441 395.8916016,391.4631348 395.8916016,389.9689941 C395.8916016,388.5523071 396.3052368,387.3846741 397.1325684,386.4660645 C397.9598694,385.5474243 398.9960938,385.0881348 400.2412109,385.0881348 C401.4807739,385.0881348 402.4450378,385.4796448 403.1340332,386.2626953 C403.822998,387.0457153 404.1674805,388.1234436 404.1674805,389.4958496 Z M402.2749023,388.9978027 C402.2693481,388.2119751 402.0895081,387.6087952 401.7353516,387.1882324 C401.3811646,386.7676392 400.877594,386.557373 400.2246094,386.557373 C399.6324768,386.557373 399.1178284,386.7800903 398.6806641,387.2255859 C398.2434692,387.671051 397.9723206,388.2617798 397.8671875,388.9978027 Z M414.734375,398.7097168 L412.7919922,398.7097168 L412.7919922,393.0153809 L412.7504883,393.0153809 C412.1140747,394.1387329 411.1069336,394.7004395 409.7290039,394.7004395 C408.5668945,394.7004395 407.6385803,394.2922974 406.9440918,393.4760742 C406.2495728,392.6598206 405.9023438,391.5378418 405.9023438,390.1101074 C405.9023438,388.5772095 406.2869263,387.3569946 407.0561523,386.4494629 C407.8253479,385.5419006 408.8408203,385.0881348 410.1025391,385.0881348 C411.3144531,385.0881348 412.1970825,385.5612793 412.7504883,386.5075684 L412.7919922,386.5075684 L412.7919922,385.3039551 L414.734375,385.3039551 Z M412.8085938,389.138916 C412.8085632,388.4526978 412.5899963,387.8661194 412.152832,387.3791504 C411.7156372,386.8921509 411.1511841,386.6486816 410.4594727,386.6486816 C409.6570435,386.6486816 409.0275879,386.9516602 408.5710449,387.5576172 C408.114502,388.1635742 407.8862305,388.9978027 407.8862305,390.0603027 C407.8862305,391.0231934 408.1075745,391.7771606 408.550293,392.3222656 C408.992981,392.8673401 409.568512,393.1398926 410.2768555,393.1398926 C411.0515747,393.1398926 411.6672363,392.8673401 412.1237793,392.3222656 C412.5802917,391.7771606 412.8085632,391.0895996 412.8085938,390.2595215 Z M425.7080078,394.4846191 L423.765625,394.4846191 L423.765625,393.048584 L423.7241211,393.048584 C423.0877075,394.1498108 422.1469727,394.7004395 420.9018555,394.7004395 C418.7380981,394.7004395 417.65625,393.4027405 417.65625,390.807373 L417.65625,385.3039551 L419.5986328,385.3039551 L419.5986328,390.5666504 C419.5986328,392.282135 420.2571411,393.1398926 421.5742188,393.1398926 C422.2161255,393.1398926 422.7418518,392.9046936 423.1513672,392.4343262 C423.5608521,391.9639282 423.7655945,391.3469238 423.765625,390.583252 L423.765625,385.3039551 L425.7080078,385.3039551 Z M428.5717773,382.1496582 C428.5717773,381.8231506 428.6838379,381.5533752 428.907959,381.340332 C429.1320496,381.1272583 429.4156799,381.020752 429.7587891,381.020752 C430.096344,381.020752 430.3813477,381.1272583 430.6137695,381.340332 C430.8461609,381.5533752 430.9623718,381.8231506 430.9624023,382.1496582 C430.9623718,382.4761353 430.8461609,382.7459106 430.6137695,382.9589844 C430.3813477,383.1720276 430.096344,383.2785645 429.7587891,383.2785645 C429.4212036,383.2785645 429.1389771,383.1706543 428.9121094,382.954834 C428.6852112,382.7390137 428.5717773,382.4706116 428.5717773,382.1496582 Z M428.7626953,394.4846191 L428.7626953,385.3039551 L430.7133789,385.3039551 L430.7133789,394.4846191 Z M438.8149414,387.1633301 C438.5271606,386.9751587 438.1453247,386.8811035 437.6694336,386.8811035 C437.0385742,386.8811035 436.5280762,387.1577759 436.1379395,387.7111816 C435.7478027,388.2645569 435.5527344,388.9978027 435.5527344,389.9108887 L435.5527344,394.4846191 L433.6020508,394.4846191 L433.6020508,385.3039551 L435.5527344,385.3039551 L435.5527344,387.130127 L435.5942383,387.130127 C436.0480042,385.8075256 436.8504028,385.1462402 438.0014648,385.1462402 C438.3445435,385.1462402 438.6157227,385.184967 438.8149414,385.2624512 Z M448.1948242,390.4172363 L441.8862305,390.4172363 C441.9692383,392.2710571 442.9127502,393.197998 444.7167969,393.197998 C445.7350159,393.197998 446.6619263,392.8936157 447.4975586,392.2849121 L447.4975586,393.8952637 C446.6785278,394.4320374 445.6022034,394.7004395 444.2685547,394.7004395 C442.9072266,394.7004395 441.8419495,394.2853699 441.0727539,393.4553223 C440.3035278,392.6252441 439.9189453,391.4631348 439.9189453,389.9689941 C439.9189453,388.5523071 440.3325806,387.3846741 441.1599121,386.4660645 C441.9872131,385.5474243 443.0234375,385.0881348 444.2685547,385.0881348 C445.5081177,385.0881348 446.4723816,385.4796448 447.161377,386.2626953 C447.8503418,387.0457153 448.1948242,388.1234436 448.1948242,389.4958496 Z M446.3022461,388.9978027 C446.2966919,388.2119751 446.1168518,387.6087952 445.7626953,387.1882324 C445.4085083,386.7676392 444.9049377,386.557373 444.2519531,386.557373 C443.6598206,386.557373 443.1451721,386.7800903 442.7080078,387.2255859 C442.270813,387.671051 441.9996643,388.2617798 441.8945313,388.9978027 Z M458.7617188,394.4846191 L456.8193359,394.4846191 L456.8193359,393.0319824 L456.777832,393.0319824 C456.1137695,394.1442566 455.1010742,394.7004395 453.7397461,394.7004395 C452.5776367,394.7004395 451.6520996,394.2867737 450.9631348,393.4594727 C450.2741699,392.6321411 449.9296875,391.515686 449.9296875,390.1101074 C449.9296875,388.5882874 450.3170471,387.3708496 451.0917969,386.4577637 C451.8665161,385.5446777 452.8764648,385.0881348 454.121582,385.0881348 C455.3666687,385.0881348 456.2521057,385.5585022 456.777832,386.4992676 L456.8193359,386.4992676 L456.8193359,380.8962402 L458.7617188,380.8962402 Z M456.8359375,389.1057129 C456.835907,388.4084473 456.6104126,387.8246155 456.1594238,387.354248 C455.7084045,386.8838501 455.1508789,386.6486816 454.4868164,386.6486816 C453.7009888,386.6486816 453.0756836,386.9502563 452.6108398,387.5534668 C452.1459961,388.1566467 451.9135742,388.9812012 451.9135742,390.0270996 C451.9135742,390.9899902 452.1321411,391.7495117 452.5693359,392.3056641 C453.0065002,392.8618164 453.6013794,393.1398926 454.3540039,393.1398926 C455.0844727,393.1398926 455.6807251,392.864563 456.1428223,392.3139648 C456.6048889,391.7633362 456.835907,391.0674438 456.8359375,390.2263184 Z" style="fill:rgb(89,89,89);stroke:none" clip-path="url(#clip10)" />
<clipPath id="clip11"><path d="M352,440 L461,440 L461,489 L352,489 L352,440 Z" /></clipPath>
<path d="M363,443 C358.5817261,443 355,446.5817261 355,451 L355,477 C355,481.4182739 358.5817261,485 363,485 L449,485 C453.4182739,485 457,481.4182739 457,477 L457,451 C457,446.5817261 453.4182739,443 449,443 Z" style="fill:none;stroke:rgb(127,127,127);stroke-width:4" clip-path="url(#clip11)" />
<clipPath id="clip12"><path d="M368,451 L445,451 L445,478 L368,478 L368,451 Z" /></clipPath>
<path d="M378.4331055,458.5566406 L370.9208984,458.5566406 L370.9208984,457.1123047 L374.0253906,457.1123047 C373.8649292,456.6419067 373.638031,456.1604614 373.3447266,455.6679688 L374.8969727,455.2446289 C375.306488,455.986145 375.5665894,456.6087036 375.6772461,457.1123047 L378.4331055,457.1123047 Z M385.8291016,469.2314453 L384.940918,470.4599609 C383.6847229,469.7018127 382.6775818,468.8357544 381.9194336,467.8618164 C381.266449,468.631012 380.1762695,469.4804688 378.6489258,470.4101563 L377.7856445,469.1816406 C379.2687073,468.4290161 380.3727112,467.5740356 381.0976563,466.6166992 C380.5055237,465.4822388 380.0987854,464.3422852 379.8774414,463.1967773 L381.1474609,462.5908203 C381.4075623,463.7639771 381.681488,464.6411133 381.9692383,465.222168 C382.6222229,463.8331604 382.9736328,461.8547974 383.0234375,459.2871094 L381.3217773,459.2871094 C380.9012146,460.5820313 380.3754883,461.7496643 379.7446289,462.7900391 L378.7568359,461.5532227 C379.7308044,459.865387 380.4031677,457.8067932 380.7739258,455.3774414 L382.1352539,455.6015625 C382.063324,456.2766724 381.9388123,457.0292969 381.7617188,457.859375 L385.5385742,457.859375 L385.5385742,459.2871094 L384.484375,459.2871094 C384.3294373,462.7236328 383.7788086,465.1944885 382.8325195,466.699707 C383.4135742,467.6017151 384.4124451,468.4456177 385.8291016,469.2314453 Z M378.7236328,462.5410156 L377.3789063,463.2299805 C377.0136719,462.2228088 376.3440857,461.0690002 375.3701172,459.7685547 L376.5239258,458.9467773 C377.4646912,460.014801 378.197937,461.2128906 378.7236328,462.5410156 Z M374.315918,459.5444336 C373.5854492,461.193512 372.7470703,462.5244141 371.8007813,463.5371094 L370.7133789,462.4995117 C371.6209412,461.503418 372.3569336,460.324707 372.9213867,458.9633789 Z M378.0761719,468.3349609 L376.972168,469.3061523 C376.2361755,468.3764648 375.6468201,467.6791992 375.2041016,467.2143555 C374.4625854,468.3377075 373.3336792,469.4306641 371.8173828,470.4931641 L370.6967773,469.4057617 C372.2684021,468.365387 373.3973083,467.2779846 374.0834961,466.1435547 C373.4305115,465.5292969 372.7609253,464.9675903 372.074707,464.4584961 L372.8217773,463.2133789 C373.2700195,463.5509338 373.934082,464.0794067 374.8139648,464.7988281 C375.157074,463.9410706 375.4116211,463.1469727 375.5776367,462.4165039 L376.9555664,462.8398438 C376.7563477,463.7971802 376.4160156,464.8015747 375.9345703,465.8530273 C376.9196167,466.87677 377.6334839,467.7041016 378.0761719,468.3349609 Z M403.2856445,460.4990234 L402.3476563,461.6694336 C401.9824219,461.4646606 401.6033325,461.193512 401.2104492,460.855957 L401.2104492,461.8022461 L395.9394531,461.8022461 L395.9394531,460.6816406 C395.4635315,461.1298828 395.0152893,461.4868164 394.5947266,461.7524414 L393.7314453,460.5820313 C395.4414063,459.4420471 396.8691406,457.668457 398.0146484,455.2612305 L399.4091797,455.7011719 C399.3870239,455.8339844 399.3233948,455.9889221 399.2182617,456.1660156 C400.4799805,458.2024536 401.8357544,459.6467896 403.2856445,460.4990234 Z M400.762207,460.3911133 C399.8878479,459.5001526 399.124176,458.537262 398.4711914,457.5024414 C397.8624573,458.5040588 397.1209106,459.4669495 396.246582,460.3911133 Z M394.0883789,462.2172852 C394.0662231,463.7612305 394.0233459,465.2263184 393.9597168,466.6125488 C393.8960571,467.9987793 393.8075256,468.852356 393.6940918,469.1733398 C393.5806274,469.4942932 393.3911133,469.7488403 393.1254883,469.9370117 C392.8598633,470.1251526 392.4005432,470.2192383 391.7475586,470.2192383 L390.8012695,470.2192383 L390.3779297,468.7749023 C390.6601563,468.8025513 391.0115356,468.8164063 391.4321289,468.8164063 C391.7862854,468.8164063 392.0187073,468.7721252 392.1293945,468.6835938 C392.2400513,468.5950317 392.3230591,468.4760742 392.378418,468.3266602 C392.4337463,468.1772461 392.4877014,467.5754395 392.5402832,466.5212402 C392.5928345,465.467041 392.6191406,464.4833984 392.6191406,463.5703125 L388.5268555,463.5703125 L389.1245117,457.7265625 L390.4941406,457.9672852 L390.0708008,462.2172852 L391.8222656,462.2172852 L392.1459961,457.1787109 L388.4272461,457.1787109 L388.4272461,455.8422852 L393.6899414,455.8422852 L393.2832031,462.2172852 Z M399.284668,467.5380859 L397.9399414,467.878418 C397.9233398,466.4783325 397.6577148,464.7490234 397.1430664,462.6904297 L398.5043945,462.3168945 C398.9913635,464.3588867 399.2514648,466.0992737 399.284668,467.5380859 Z M403.078125,469.9121094 L394.1879883,469.9121094 L394.1879883,468.5175781 L399.3925781,468.5175781 C400.0898438,466.9846802 400.6376953,464.9675903 401.0361328,462.4663086 L402.4306641,462.8564453 C401.9990234,465.1363831 401.4788208,467.0234375 400.8701172,468.5175781 L403.078125,468.5175781 Z M396.9936523,467.7041016 L395.6157227,468.027832 C395.4828796,466.4396057 395.0982971,464.7407227 394.4619141,462.9311523 L395.7651367,462.4995117 C396.4291992,464.4363403 396.8386841,466.1712036 396.9936523,467.7041016 Z M392.3203125,466.3095703 C391.1692505,466.846344 389.9545898,467.3111877 388.6762695,467.7041016 L388.1865234,466.3925781 C389.2877502,466.0992737 390.4941406,465.6482544 391.8056641,465.0395508 Z M410.7480469,469.3393555 C410.3883362,469.5440979 409.8709106,469.6464844 409.1958008,469.6464844 C407.4526367,469.6464844 406.5810547,468.7001648 406.5810547,466.8076172 L406.5810547,461.8022461 L405.0288086,461.8022461 L405.0288086,460.2583008 L406.5810547,460.2583008 L406.5810547,458.1083984 L408.5234375,457.519043 L408.5234375,460.2583008 L410.7480469,460.2583008 L410.7480469,461.8022461 L408.5234375,461.8022461 L408.5234375,466.4672852 C408.5234375,467.037262 408.6244202,467.4495239 408.826416,467.7041016 C409.0283813,467.9586487 409.3535156,468.0859375 409.8017578,468.0859375 C410.1503906,468.0859375 410.4658203,467.9863281 410.7480469,467.7871094 Z M420.5927734,460.2583008 L416.550293,470.6508789 C415.7478638,472.72052 414.5857544,473.7553711 413.0639648,473.7553711 C412.565918,473.7553711 412.1619263,473.7027893 411.8520508,473.5976563 L411.8520508,471.9541016 C412.1730042,472.0979614 412.5050354,472.1699219 412.8481445,472.1699219 C413.5786133,472.1699219 414.1181641,471.7631531 414.4667969,470.949707 L415.105957,469.4223633 L411.4702148,460.2583008 L413.6367188,460.2583008 L415.8447266,466.8076172 C415.8945313,466.9459534 415.9664612,467.2392578 416.0605469,467.6875 L416.1020508,467.6875 C416.1296997,467.5104065 416.2044067,467.2226563 416.3261719,466.8242188 L418.6254883,460.2583008 Z M424.2368164,468.2021484 L424.2368164,473.6640625 L422.2861328,473.6640625 L422.2861328,460.2583008 L424.2368164,460.2583008 L424.2368164,461.7856445 L424.2783203,461.7856445 C424.9866333,460.6235352 426.0159302,460.0424805 427.3662109,460.0424805 C428.533844,460.0424805 429.4524536,460.450592 430.1220703,461.2668457 C430.7916565,462.0830688 431.1264648,463.1884766 431.1264648,464.5830078 C431.1264648,466.1158752 430.7473755,467.3443909 429.9892578,468.2685547 C429.2311096,469.192688 428.2156372,469.6547852 426.9428711,469.6547852 C425.7807617,469.6547852 424.8925781,469.1705627 424.2783203,468.2021484 Z M424.2202148,465.5708008 C424.2201843,466.284668 424.4415588,466.8836975 424.8842773,467.3679199 C425.3269653,467.8521118 425.8858948,468.0942383 426.5610352,468.0942383 C427.3744812,468.0942383 428.0053406,467.782959 428.4536133,467.1604004 C428.901825,466.5378418 429.125946,465.6759338 429.1259766,464.574707 C429.125946,463.628418 428.9184265,462.8965454 428.503418,462.3791504 C428.0883484,461.8617249 427.5072937,461.6030273 426.7602539,461.6030273 C426.0131836,461.6030273 425.4030762,461.874176 424.9299316,462.4165039 C424.4567566,462.9588013 424.2201843,463.6450195 424.2202148,464.4750977 Z M441.3032227,465.371582 L434.9946289,465.371582 C435.0776367,467.2254028 436.0211487,468.1523438 437.8251953,468.1523438 C438.8434143,468.1523438 439.7703247,467.8479614 440.605957,467.2392578 L440.605957,468.8496094 C439.7869263,469.3863831 438.7106018,469.6547852 437.3769531,469.6547852 C436.015625,469.6547852 434.9503479,469.2397156 434.1811523,468.409668 C433.4119263,467.5795898 433.0273438,466.4174805 433.0273438,464.9233398 C433.0273438,463.5066528 433.440979,462.3390198 434.2683105,461.4204102 C435.0956116,460.50177 436.1318359,460.0424805 437.3769531,460.0424805 C438.6165161,460.0424805 439.58078,460.4339905 440.2697754,461.217041 C440.9587402,462.000061 441.3032227,463.0777893 441.3032227,464.4501953 Z M439.4106445,463.9521484 C439.4050903,463.1663208 439.2252502,462.5631409 438.8710938,462.1425781 C438.5169067,461.7219849 438.0133362,461.5117188 437.3603516,461.5117188 C436.768219,461.5117188 436.2535706,461.734436 435.8164063,462.1799316 C435.3792114,462.6253967 435.1080627,463.2161255 435.0029297,463.9521484 Z" style="fill:rgb(89,89,89);stroke:none" clip-path="url(#clip12)" />
<clipPath id="clip13"><path d="M334,516 L481,516 L481,565 L334,565 L334,516 Z" /></clipPath>
<path d="M345,519 C340.5817261,519 337,522.5817261 337,527 L337,553 C337,557.4182739 340.5817261,561 345,561 L469,561 C473.4182739,561 477,557.4182739 477,553 L477,527 C477,522.5817261 473.4182739,519 469,519 Z" style="fill:none;stroke:rgb(127,127,127);stroke-width:4" clip-path="url(#clip13)" />
<clipPath id="clip14"><path d="M350,527 L465,527 L465,554 L350,554 L350,527 Z" /></clipPath>
<path d="M360.4284668,536.1877441 L352.9162598,536.1877441 L352.9162598,534.7434082 L356.020752,534.7434082 C355.8602905,534.2730103 355.6333923,533.7915649 355.3400879,533.2990723 L356.892334,532.8757324 C357.3018494,533.6172485 357.5619507,534.2398071 357.6726074,534.7434082 L360.4284668,534.7434082 Z M367.8244629,546.8625488 L366.9362793,548.0910645 C365.6801147,547.3328857 364.6729431,546.4668579 363.9147949,545.4929199 C363.2618103,546.262085 362.1716309,547.1115723 360.6442871,548.0412598 L359.7810059,546.8127441 C361.2640991,546.0601196 362.368103,545.2051392 363.0930176,544.2478027 C362.5009155,543.1133423 362.0941772,541.9733887 361.8728027,540.8278809 L363.1428223,540.2219238 C363.4029236,541.3950806 363.6768494,542.2722168 363.9645996,542.8532715 C364.6176147,541.4642334 364.9689941,539.4859009 365.0187988,536.9182129 L363.3171387,536.9182129 C362.8965759,538.2131348 362.3708496,539.3807373 361.7399902,540.4211426 L360.7521973,539.1843262 C361.7261658,537.49646 362.3985291,535.4378662 362.7692871,533.0085449 L364.1306152,533.232666 C364.0586853,533.9077759 363.9341736,534.6604004 363.7570801,535.4904785 L367.5339355,535.4904785 L367.5339355,536.9182129 L366.4797363,536.9182129 C366.3247986,540.3547363 365.7741699,542.8255615 364.8278809,544.3308105 C365.4089355,545.2327881 366.4078064,546.0767212 367.8244629,546.8625488 Z M360.7189941,540.1721191 L359.3742676,540.861084 C359.0090332,539.8538818 358.339447,538.7000732 357.3654785,537.3996582 L358.5192871,536.5778809 C359.4600525,537.645874 360.1932983,538.8439941 360.7189941,540.1721191 Z M356.3112793,537.1755371 C355.5808105,538.824585 354.7424316,540.1555176 353.7961426,541.1682129 L352.7087402,540.1306152 C353.6163025,539.1345215 354.3522949,537.9558105 354.916748,536.5944824 Z M360.0715332,545.9660645 L358.9675293,546.9372559 C358.2315369,546.0075684 357.6421814,545.3103027 357.1994629,544.845459 C356.4579468,545.968811 355.3290405,547.0617676 353.8127441,548.1242676 L352.6921387,547.0368652 C354.2637634,545.99646 355.3926697,544.9090576 356.0788574,543.7746582 C355.4258728,543.1604004 354.7562866,542.5986938 354.0700684,542.0895996 L354.8171387,540.8444824 C355.2653809,541.1820068 355.9294434,541.7105103 356.8093262,542.4299316 C357.1524353,541.5721436 357.4069824,540.7780762 357.572998,540.0476074 L358.9509277,540.4709473 C358.751709,541.4282837 358.411377,542.4326782 357.9299316,543.4841309 C358.914978,544.5078735 359.6288452,545.3352051 360.0715332,545.9660645 Z M385.2810059,538.130127 L384.3430176,539.3005371 C383.9777832,539.0957642 383.5987244,538.824585 383.2058105,538.4870605 L383.2058105,539.4333496 L377.9348145,539.4333496 L377.9348145,538.3127441 C377.4589233,538.7609863 377.0106812,539.1179199 376.5900879,539.3835449 L375.7268066,538.2131348 C377.4367676,537.0731201 378.864502,535.2995605 380.0100098,532.892334 L381.404541,533.3322754 C381.3824158,533.4650879 381.3187561,533.6199951 381.213623,533.7971191 C382.4753418,535.8335571 383.8311462,537.2778931 385.2810059,538.130127 Z M382.7575684,538.0222168 C381.8832092,537.1312256 381.1195374,536.168335 380.4665527,535.1335449 C379.8578186,536.1351318 379.1163025,537.0980225 378.2419434,538.0222168 Z M376.0837402,539.8483887 C376.061615,541.392334 376.0187378,542.8574219 375.9550781,544.2436523 C375.891449,545.6298828 375.8029175,546.4834595 375.6894531,546.8044434 C375.5760193,547.1253662 375.3864746,547.3799438 375.1208496,547.5681152 C374.8552246,547.7562256 374.3959351,547.8503418 373.7429199,547.8503418 L372.7966309,547.8503418 L372.373291,546.4060059 C372.6555176,546.4336548 373.0069275,546.4475098 373.4274902,546.4475098 C373.7816772,546.4475098 374.0140991,546.4031982 374.1247559,546.3146973 C374.2354431,546.2261353 374.3184509,546.1071777 374.3737793,545.9577637 C374.4291382,545.8083496 374.4830933,545.206543 374.5356445,544.1523438 C374.5882263,543.0981445 374.614502,542.114502 374.614502,541.201416 L370.5222168,541.201416 L371.119873,535.357666 L372.489502,535.5983887 L372.0661621,539.8483887 L373.817627,539.8483887 L374.1413574,534.8098145 L370.4226074,534.8098145 L370.4226074,533.4733887 L375.6853027,533.4733887 L375.2785645,539.8483887 Z M381.2800293,545.1691895 L379.9353027,545.5095215 C379.9187012,544.109436 379.6530762,542.380127 379.1384277,540.3215332 L380.4997559,539.947998 C380.9867249,541.9899902 381.2468262,543.7303467 381.2800293,545.1691895 Z M385.0734863,547.5432129 L376.1833496,547.5432129 L376.1833496,546.1486816 L381.3879395,546.1486816 C382.0852051,544.6157837 382.6330566,542.5986938 383.0314941,540.0974121 L384.4260254,540.4875488 C383.9943848,542.7674561 383.4742126,544.654541 382.8654785,546.1486816 L385.0734863,546.1486816 Z M378.9890137,545.3352051 L377.611084,545.6589355 C377.4782715,544.0706787 377.093689,542.3718262 376.4572754,540.5622559 L377.760498,540.1306152 C378.4245605,542.0674438 378.8340759,543.8023071 378.9890137,545.3352051 Z M374.3156738,543.9406738 C373.1646423,544.477417 371.9499512,544.9422607 370.6716309,545.3352051 L370.1818848,544.0236816 C371.2831421,543.7303467 372.489502,543.2793579 373.8010254,542.6706543 Z M395.7897949,537.8894043 L392.2121582,547.0700684 L390.1452637,547.0700684 L386.7419434,537.8894043 L388.8586426,537.8894043 L390.9255371,544.2062988 C391.1026001,544.7485962 391.2105103,545.2161865 391.2492676,545.6091309 L391.2907715,545.6091309 C391.3405762,545.1553345 391.4401855,544.7015381 391.5895996,544.2478027 L393.739502,537.8894043 Z M397.723877,538.5036621 C398.6590881,537.9502563 399.7409668,537.673584 400.9694824,537.673584 C403.288147,537.673584 404.4475098,538.8716431 404.4475098,541.2678223 L404.4475098,547.0700684 L402.5549316,547.0700684 L402.5549316,545.6755371 L402.5134277,545.6755371 C401.888092,546.7490845 400.9584045,547.2858887 399.7243652,547.2858887 C398.8223267,547.2858887 398.1126099,547.0423584 397.5952148,546.5554199 C397.0777893,546.0684204 396.8190918,545.4126587 396.8190918,544.5881348 C396.8190918,542.8615723 397.8456116,541.8543701 399.8986816,541.5666504 L402.5632324,541.201416 C402.5632324,539.8345337 401.9627991,539.151123 400.7619629,539.151123 C399.6607056,539.151123 398.6480103,539.5080566 397.723877,540.2219238 Z M400.5378418,542.8034668 C399.8737793,542.8919678 399.4047852,543.060791 399.1308594,543.3098145 C398.8569336,543.5588379 398.7199707,543.9240723 398.7199707,544.4055176 C398.7199707,544.8094482 398.8666077,545.1401367 399.1599121,545.3974609 C399.453186,545.6547852 399.8294983,545.7834473 400.2888184,545.7834473 C400.941803,545.7834473 401.4841309,545.5523682 401.9157715,545.090332 C402.3474121,544.6282349 402.5632324,544.0457764 402.5632324,543.3430176 L402.5632324,542.529541 Z M407.2946777,547.0700684 L407.2946777,533.4816895 L409.2453613,533.4816895 L409.2453613,547.0700684 Z M411.9265137,534.7351074 C411.9265137,534.4085693 412.0385742,534.1387939 412.2626953,533.9257813 C412.4867859,533.7127075 412.7704163,533.6062012 413.1135254,533.6062012 C413.4510803,533.6062012 413.736084,533.7127075 413.9685059,533.9257813 C414.2008972,534.1387939 414.3171082,534.4085693 414.3171387,534.7351074 C414.3171082,535.0615845 414.2008972,535.3313599 413.9685059,535.5444336 C413.736084,535.7574463 413.4510803,535.8640137 413.1135254,535.8640137 C412.7759399,535.8640137 412.4937134,535.7561035 412.2668457,535.5402832 C412.0399475,535.3244629 411.9265137,535.0560303 411.9265137,534.7351074 Z M412.1174316,547.0700684 L412.1174316,537.8894043 L414.0681152,537.8894043 L414.0681152,547.0700684 Z M425.1994629,547.0700684 L423.2570801,547.0700684 L423.2570801,545.6174316 L423.2155762,545.6174316 C422.5515137,546.7297363 421.5388184,547.2858887 420.1774902,547.2858887 C419.0153809,547.2858887 418.0898438,546.8721924 417.4008789,546.0449219 C416.7119141,545.2175903 416.3674316,544.1011353 416.3674316,542.6955566 C416.3674316,541.1737061 416.7547913,539.9562988 417.529541,539.0432129 C418.3042603,538.130127 419.314209,537.673584 420.5593262,537.673584 C421.8044128,537.673584 422.6898499,538.1439209 423.2155762,539.0847168 L423.2570801,539.0847168 L423.2570801,533.4816895 L425.1994629,533.4816895 Z M423.2736816,541.6911621 C423.2736511,540.9938965 423.0481567,540.4100342 422.597168,539.9396973 C422.1461487,539.4692993 421.588623,539.2341309 420.9245605,539.2341309 C420.1387329,539.2341309 419.5134277,539.5357056 419.048584,540.138916 C418.5837402,540.7420654 418.3513184,541.5666504 418.3513184,542.6125488 C418.3513184,543.5754395 418.5698853,544.3349609 419.0070801,544.8911133 C419.4442444,545.4472656 420.0391235,545.7253418 420.791748,545.7253418 C421.5222168,545.7253418 422.1184692,545.4500122 422.5805664,544.8994141 C423.0426331,544.3487549 423.2736511,543.6528931 423.2736816,542.8117676 Z M428.5114746,538.5036621 C429.4466858,537.9502563 430.5285645,537.673584 431.7570801,537.673584 C434.0757446,537.673584 435.2351074,538.8716431 435.2351074,541.2678223 L435.2351074,547.0700684 L433.3425293,547.0700684 L433.3425293,545.6755371 L433.3010254,545.6755371 C432.6756897,546.7490845 431.7460022,547.2858887 430.5119629,547.2858887 C429.6099243,547.2858887 428.9002075,547.0423584 428.3828125,546.5554199 C427.865387,546.0684204 427.6066895,545.4126587 427.6066895,544.5881348 C427.6066895,542.8615723 428.6332092,541.8543701 430.6862793,541.5666504 L433.3508301,541.201416 C433.3508301,539.8345337 432.7503967,539.151123 431.5495605,539.151123 C430.4483032,539.151123 429.4356079,539.5080566 428.5114746,540.2219238 Z M431.3254395,542.8034668 C430.661377,542.8919678 430.1923828,543.060791 429.918457,543.3098145 C429.6445313,543.5588379 429.5075684,543.9240723 429.5075684,544.4055176 C429.5075684,544.8094482 429.6542053,545.1401367 429.9475098,545.3974609 C430.2407837,545.6547852 430.6170959,545.7834473 431.076416,545.7834473 C431.7294006,545.7834473 432.2717285,545.5523682 432.7033691,545.090332 C433.1350098,544.6282349 433.3508301,544.0457764 433.3508301,543.3430176 L433.3508301,542.529541 Z M442.8137207,546.970459 C442.45401,547.1751709 441.9365845,547.2775879 441.2614746,547.2775879 C439.5183105,547.2775879 438.6467285,546.3312988 438.6467285,544.4387207 L438.6467285,539.4333496 L437.0944824,539.4333496 L437.0944824,537.8894043 L438.6467285,537.8894043 L438.6467285,535.739502 L440.5891113,535.1501465 L440.5891113,537.8894043 L442.8137207,537.8894043 L442.8137207,539.4333496 L440.5891113,539.4333496 L440.5891113,544.0983887 C440.5891113,544.668335 440.690094,545.0806274 440.8920898,545.3352051 C441.0940552,545.5897217 441.4191895,545.717041 441.8674316,545.717041 C442.2160645,545.717041 442.5314941,545.6174316 442.8137207,545.4182129 Z M444.2580566,542.5627441 C444.2580566,541.052002 444.6882935,539.859436 445.5488281,538.9851074 C446.4093323,538.1107178 447.5811157,537.673584 449.064209,537.673584 C450.4642639,537.673584 451.5710144,538.0969238 452.3845215,538.9436035 C453.197998,539.7902832 453.6047363,540.9468384 453.6047363,542.4133301 C453.6047363,543.8908691 453.1758423,545.0723267 452.3181152,545.9577637 C451.4603577,546.8431396 450.3148499,547.2858887 448.8815918,547.2858887 C447.4759827,547.2858887 446.3540039,546.8569946 445.515625,545.9992676 C444.6772461,545.1414795 444.2580566,543.9959717 444.2580566,542.5627441 Z M446.2419434,542.5212402 C446.2419434,543.5283813 446.4868164,544.314209 446.9765625,544.8786621 C447.4663086,545.4431152 448.1317444,545.7253418 448.9729004,545.7253418 C450.7381897,545.7253418 451.6208496,544.6379395 451.6208496,542.4631348 C451.6208496,541.4116821 451.3939514,540.6106567 450.9401855,540.0600586 C450.4863892,539.5093994 449.8306274,539.2341309 448.9729004,539.2341309 C448.1151428,539.2341309 447.4455566,539.5274048 446.9641113,540.1140137 C446.482666,540.7005615 446.2419434,541.5029907 446.2419434,542.5212402 Z M461.3078613,539.7487793 C461.0200806,539.5606079 460.6382446,539.4665527 460.1623535,539.4665527 C459.5314941,539.4665527 459.0209961,539.7432251 458.6308594,540.2966309 C458.2407227,540.8499756 458.0456543,541.583252 458.0456543,542.4963379 L458.0456543,547.0700684 L456.0949707,547.0700684 L456.0949707,537.8894043 L458.0456543,537.8894043 L458.0456543,539.7155762 L458.0871582,539.7155762 C458.5409241,538.3929443 459.3433228,537.7316895 460.4943848,537.7316895 C460.8374634,537.7316895 461.1086426,537.7703857 461.3078613,537.8479004 Z" style="fill:rgb(89,89,89);stroke:none" clip-path="url(#clip14)" />
<clipPath id="clip15"><path d="M106,272 L144,272 L144,371 L106,371 L106,272 Z" /></clipPath>
<path d="M123.9069748,278 L125.2558136,365" style="fill:none;stroke:rgb(127,127,127);stroke-width:5" clip-path="url(#clip15)" />
<clipPath id="clip16"><path d="M106,272 L144,272 L144,371 L106,371 L106,272 Z" /></clipPath>
<path d="M118.0687027,352.9856262 L125.2558136,365 L132.0670166,352.7685852 Z" style="fill:rgb(127,127,127);stroke:none" clip-path="url(#clip16)" />
<clipPath id="clip17"><path d="M106,272 L144,272 L144,371 L106,371 L106,272 Z" /></clipPath>
<path d="M118.0687027,352.9856262 L125.2558136,365 L132.0670166,352.7685852 Z" style="fill:none;stroke:rgb(127,127,127);stroke-width:5" clip-path="url(#clip17)" />
<clipPath id="clip18"><path d="M105,102 L143,102 L143,242 L105,242 L105,102 Z" /></clipPath>
<path d="M122.8479385,108 L123.4458771,236" style="fill:none;stroke:rgb(127,127,127);stroke-width:5" clip-path="url(#clip18)" />
<clipPath id="clip19"><path d="M105,102 L143,102 L143,242 L105,242 L105,102 Z" /></clipPath>
<path d="M116.3893127,223.9084778 L123.4458771,236 L130.3891602,223.8430786 Z" style="fill:rgb(127,127,127);stroke:none" clip-path="url(#clip19)" />
<clipPath id="clip20"><path d="M105,102 L143,102 L143,242 L105,242 L105,102 Z" /></clipPath>
<path d="M116.3893127,223.9084778 L123.4458771,236 L130.3891602,223.8430786 Z" style="fill:none;stroke:rgb(127,127,127);stroke-width:5" clip-path="url(#clip20)" />
<clipPath id="clip21"><path d="M387,404 L425,404 L425,449 L387,449 L387,404 Z" /></clipPath>
<path d="M406.3599854,410 L406.2799988,443" style="fill:none;stroke:rgb(127,127,127);stroke-width:5" clip-path="url(#clip21)" />
<clipPath id="clip22"><path d="M387,404 L425,404 L425,449 L387,449 L387,404 Z" /></clipPath>
<path d="M399.3094177,430.8587036 L406.2799988,443 L413.3093567,430.8926392 Z" style="fill:rgb(127,127,127);stroke:none" clip-path="url(#clip22)" />
<clipPath id="clip23"><path d="M387,404 L425,404 L425,449 L387,449 L387,404 Z" /></clipPath>
<path d="M399.3094177,430.8587036 L406.2799988,443 L413.3093567,430.8926392 Z" style="fill:none;stroke:rgb(127,127,127);stroke-width:5" clip-path="url(#clip23)" />
<clipPath id="clip24"><path d="M387,479 L425,479 L425,525 L387,525 L387,479 Z" /></clipPath>
<path d="M406.2763062,485 L406.7236938,519" style="fill:none;stroke:rgb(127,127,127);stroke-width:5" clip-path="url(#clip24)" />
<clipPath id="clip25"><path d="M387,479 L425,479 L425,525 L387,525 L387,479 Z" /></clipPath>
<path d="M399.5647583,506.9687805 L406.7236938,519 L413.5635681,506.7846069 Z" style="fill:rgb(127,127,127);stroke:none" clip-path="url(#clip25)" />
<clipPath id="clip26"><path d="M387,479 L425,479 L425,525 L387,525 L387,479 Z" /></clipPath>
<path d="M399.5647583,506.9687805 L406.7236938,519 L413.5635681,506.7846069 Z" style="fill:none;stroke:rgb(127,127,127);stroke-width:5" clip-path="url(#clip26)" />
<clipPath id="clip27"><path d="M230,374 L344,374 L344,401 L230,401 L230,374 Z" /></clipPath>
<path d="M236,387.1776123 L338,388.2673645" style="fill:none;stroke:rgb(127,127,127);stroke-width:5" clip-path="url(#clip27)" />
<clipPath id="clip28"><path d="M230,374 L344,374 L344,401 L230,401 L230,374 Z" /></clipPath>
<path d="M325.8015747,395.1374512 L338,388.2673645 L325.9511108,381.1382446 Z" style="fill:rgb(127,127,127);stroke:none" clip-path="url(#clip28)" />
<clipPath id="clip29"><path d="M230,374 L344,374 L344,401 L230,401 L230,374 Z" /></clipPath>
<path d="M325.8015747,395.1374512 L338,388.2673645 L325.9511108,381.1382446 Z" style="fill:none;stroke:rgb(127,127,127);stroke-width:5" clip-path="url(#clip29)" />
</svg>
