<svg version="1.1" xmlns="http://www.w3.org/2000/svg" viewBox="0 0 608.4013828822544 704.0442199707031" width="1825.2041486467633" height="2112.1326599121094">
  <!-- svg-source:excalidraw -->
  
  <defs>
    <style>
      @font-face {
        font-family: "Virgil";
        src: url("https://excalidraw.com/Virgil.woff2");
      }
      @font-face {
        font-family: "Cascadia";
        src: url("https://excalidraw.com/Cascadia.woff2");
      }
    </style>
  </defs>
  <rect x="0" y="0" width="608.4013828822544" height="704.0442199707031" fill="#ffffff"></rect><g transform="translate(41.27276611328125 26.535415649414062) rotate(0 104.5 17.5)"><text x="0" y="25" font-family="Virgil, Segoe UI Emoji" font-size="28px" fill="#000000" text-anchor="start" style="white-space: pre;" direction="ltr">collection proxy</text></g><g transform="translate(15.50103759765625 145.2173309326172) rotate(0 130.29830932617188 28.8443603515625)"><path d="M12.810908388346434 -1.7004512660205364 M12.823713481414504 -0.16770123018230823 C100.82291851889661 -1.0285882135818942, 187.57873394765767 0.6649592293462672, 247.31557033698417 1.6518218354402097 M14.840505813703011 -0.6592988825523638 C93.0754226068864 -1.1638146577108475, 171.79986369496154 -0.5744789226731888, 245.71448361288748 0.37596721921563414 M246.17443847656244 0 C255.64696394527945 0.9040570147335529, 260.3327768556773 4.900026508917412, 259.2615571729838 13.669509995728731 M245.66762871667737 -0.21391941234469414 C256.83705727650465 -1.7007514128461478, 259.8251691559329 3.168752146822712, 262.77707236800336 14.503488784097135 M261.40848075225944 15.817605208605528 C259.4336798110957 19.444392348935047, 262.6714807668681 25.665612320075116, 261.50115608051414 42.192735742777586 M260.1206099148839 15.004414254799485 C259.87558593388144 20.434332395240585, 260.4435379111344 26.345629090979536, 261.37799367867404 43.02043651975691 M260.5966186523437 43.26654052734375 C262.347920846194 53.989526658008494, 257.67989515389 58.21514855697751, 246.80133802816266 58.75697599723935 M259.79555196687573 42.976566303521395 C262.53317693863056 51.28636466568957, 255.54736392690484 57.60029075648636, 244.6268166283145 56.43448392655701 M247.0945185001886 58.38076312642288 C175.995420646853 57.56707701871588, 104.59717812316458 57.86962872533045, 13.842049568533627 57.65522192546875 M245.7738210859406 57.62299577704698 C188.7069358895965 58.353720164660906, 130.65489021908942 58.78829904510001, 14.248733625153033 57.485911010820296 M14.42218017578125 57.688720703125 C3.687656433631977 58.86600684002042, 0.7791140787303448 53.49702170367042, 0.8725977651774883 44.433263409882784 M14.606199216097593 56.471815813332796 C4.770084106860062 59.932221232913435, -1.7859265824779866 53.01926451629648, -1.3983254333958028 45.099545078538355 M-1.9751657359302044 44.04130144044757 C-1.531166789210513 30.818535543237545, -1.0630649301178006 19.192643883088067, -1.8634626977145672 15.21429879590869 M-0.7836018446832895 44.02189582027495 C-0.35692248326027537 34.3594939405473, 0.5586475970200286 24.673343662992508, -0.7724262718111277 14.633613580837846 M0 14.42218017578125 C0.39012904092669487 4.7263279644151535, 3.698141963531574 -0.6757000796496868, 14.625971149653196 1.194099772721529 M-0.7185447700321674 13.54758595302701 C0.32481328640133134 7.069541270596286, 6.1476446329926455 0.8676574757322668, 12.653794620372356 0.46085485722869635" stroke="#000000" stroke-width="4" fill="none"></path></g><g transform="translate(25.816162109375 156.61241149902344) rotate(0 122.5 52.5)"><text x="0" y="25" font-family="Virgil, Segoe UI Emoji" font-size="28px" fill="#000000" text-anchor="start" style="white-space: pre;" direction="ltr">intercept function</text><text x="0" y="60" font-family="Virgil, Segoe UI Emoji" font-size="28px" fill="#000000" text-anchor="start" style="white-space: pre;" direction="ltr"></text><text x="0" y="95" font-family="Virgil, Segoe UI Emoji" font-size="28px" fill="#000000" text-anchor="start" style="white-space: pre;" direction="ltr"></text></g><g transform="translate(32.09967041015625 265.4412536621094) rotate(0 115.8355712890625 51.232666015625)"><path d="M114.08109783008695 0.6733561269938946 C143.00643435406005 13.329878127204834, 170.46055774283542 23.292358260231673, 230.83288036659357 52.24478716775775 M115.6672388073057 -0.7155325468629599 C151.64175469121355 15.851880163156416, 186.74840561416778 31.20318298434558, 231.9413519259542 51.275429064407945 M233.66346489265558 51.390444707125425 C194.25159565274618 69.43416753307847, 158.16570549865787 85.83178193627218, 115.59992836788297 102.60757810994986 M231.71704629622397 51.818376356735826 C206.79314280958218 63.855995253254875, 181.17930155956535 73.37862664692375, 116.13755795918405 102.52557980455461 M115.35675190761685 104.23666460439566 C78.42722051530853 88.3992495325713, 41.89947244986669 72.10210879894763, -1.9812101237475872 53.00611658021808 M115.35565040074289 103.06582629121843 C91.79320074384106 91.71961300012117, 66.1734847484995 79.96701547869334, -0.12168988026678562 51.90778964199126 M0.8844696171581745 50.232889842242 C44.99019431285561 31.103854459002612, 90.23198010660708 8.939303541406986, 116.58543657138944 -0.3912624605000019 M-0.04469546116888523 52.50539391674101 C42.580807237476115 33.89969307079911, 84.94417896211148 13.505070356726641, 116.59152588807046 -0.45385695062577724" stroke="#000000" stroke-width="4" fill="none"></path></g><g transform="translate(73.9541015625 299.0525817871094) rotate(0 86.5 17.5)"><text x="0" y="25" font-family="Virgil, Segoe UI Emoji" font-size="28px" fill="#000000" text-anchor="start" style="white-space: pre;" direction="ltr">is readonly? </text></g><g><g transform="translate(262.20147705078125 312.8628234863281) rotate(0 53.34308241146613 -0.9869545292993962)"><path d="M1.093543953448534 0.8601769141852855 C18.38648313159744 0.5622306915620963, 86.9590071943899 -0.5887928473452728, 104.18578655198216 -0.8874371595680715 M0.20851579966954903 0.2661658487934617 C17.845955090054 -0.4868626517833522, 89.27750876508964 -2.8794736003658423, 106.47764902326279 -2.834085972784087" stroke="#000000" stroke-width="4" fill="none"></path></g><g transform="translate(262.20147705078125 312.8628234863281) rotate(0 53.34308241146613 -0.9869545292993962)"><path d="M79.91669755430499 6.616698917650383 C88.3578603652475 3.188874041281961, 97.68130799701848 -0.5622587058115442, 106.03804067659192 -3.16858812215738 M77.81424246171096 7.006924311348002 C87.66047469439022 4.832268009002143, 98.91367262773495 -0.008905347558071597, 105.95712080175988 -3.251866139275953" stroke="#000000" stroke-width="4" fill="none"></path></g><g transform="translate(262.20147705078125 312.8628234863281) rotate(0 53.34308241146613 -0.9869545292993962)"><path d="M79.53409958488534 -13.90094278844332 C88.25761598885747 -10.444906823288534, 97.70949383545715 -7.308692164724992, 106.03804067659192 -3.16858812215738 M77.43164449229131 -13.5107173947457 C87.59639319596697 -8.24818303532983, 98.98822067517854 -5.655047850502006, 105.95712080175988 -3.251866139275953" stroke="#000000" stroke-width="4" fill="none"></path></g></g><g transform="translate(283.00384521484375 273.9787902832031) rotate(0 21 17.5)"><text x="0" y="25" font-family="Virgil, Segoe UI Emoji" font-size="28px" fill="#000000" text-anchor="start" style="white-space: pre;" direction="ltr">Yes</text></g><g transform="translate(356.47808837890625 270.8797912597656) rotate(0 103.57855224609375 38.355010986328125)"><path d="M19.218078088015318 -1.5202739350497723 M17.682519901543856 -0.4494930990040302 C58.68870929810465 0.7949489323230858, 102.01764115682364 2.5541744200321315, 188.4080802090466 -0.783510971814394 M19.168874954804778 -0.6047171410173178 C62.27439305391527 2.39144726910241, 106.64746448249353 1.9867710105384147, 188.52587763033807 -0.5841878112405539 M187.97959899902344 0 C202.63866097852588 -1.3309611193835735, 208.33291072770953 7.735296715050936, 208.49743170663714 18.11247419193387 M186.03144438192248 0.6284779198467731 C199.75603974852712 2.059645610116422, 208.51035042200238 4.3267799248918895, 208.6034237543121 20.254607509635388 M208.60103296115994 19.048631262034178 C206.47048588031583 29.074136534876942, 206.12803704971128 41.79600334946775, 205.65217768028378 57.21037907525897 M206.45907864533365 18.77185201086104 C207.8281412096181 27.231407340805056, 206.69430523826267 35.708290933078175, 208.04273918829858 58.00493245758116 M207.1571044921875 57.53251647949219 C205.92098028585315 69.36595617607236, 199.82042260095477 76.19433711841702, 187.96295566484332 77.31963776424527 M206.53350551053882 55.78607331588864 C206.91953217778354 70.26433154847473, 200.0980238357559 77.28354220297187, 189.6379561463371 78.06787995006889 M188.03012036159635 75.4267147295177 C127.10870348066499 76.29942957390784, 61.54665015564184 76.62498501767158, 20.32530652359128 78.2135617248714 M188.1713022943586 76.41979109682143 C126.06354013679228 76.64277826595456, 63.646427011818744 75.01755909967572, 18.252860939130187 77.19275420345366 M19.177505493164062 76.71002197265625 C4.5096197836101055 76.11070977523923, -1.3990815170109272 71.25361250713468, -0.0649743564426899 57.155356634408236 M17.292082142084837 77.4394420273602 C7.559932718612254 75.16639526393264, -1.6048567971214651 70.8750662913546, 2.1107797065749763 56.979732560180125 M0.7574102766811848 58.483982156962156 C0.06468257531413829 48.72359017143006, 0.9393510542798975 40.49012613389601, 0.2880319245159626 18.76653380319476 M-0.047939205542206764 57.45912575162947 C-0.7689781367793165 42.15799848449034, -0.927510458232411 26.330010026555314, 0.9225697871297598 18.543700033798814 M0 19.177505493164062 C1.235542606562376 7.269663203507662, 7.849111508578062 0.005743730813264847, 18.330847453325987 -1.030241023749113 M1.25563008710742 17.69744025543332 C-0.6152818223461509 8.323655360005795, 6.104497830010951 -1.041134382225573, 18.914051417447627 1.8083110919222234" stroke="#000000" stroke-width="4" fill="none"></path></g><g transform="translate(374.95306396484375 294.7093811035156) rotate(0 89 17.5)"><text x="0" y="25" font-family="Virgil, Segoe UI Emoji" font-size="28px" fill="#000000" text-anchor="start" style="white-space: pre;" direction="ltr">track effect</text></g><g transform="translate(10 10) rotate(0 132.36392211914062 33.955718994140625)"><path d="M16.56074856594205 1.6382435075938702 M16.155055242366608 0.7812340929910065 C81.07031206895633 -1.6929163849656628, 147.42897169865583 0.9536952394053321, 248.39760391243516 -0.8627710789617336 M16.133575583761438 -0.6700800326420838 C82.39118911566838 1.5379370935718901, 148.91028167157563 2.343973596296479, 247.47009083816587 0.27511066935366835 M247.74998474121094 0 C259.2247546799481 -0.21747593954205513, 262.94676660373807 7.260789465159178, 263.9624175913632 17.06818611547351 M245.89966307953 -0.8769310005009174 C258.8838712146506 -0.203229316137731, 266.4455249538645 4.825108418799937, 266.64107028152796 16.112193057872354 M265.84606106206775 18.422160495072603 C266.2797875979383 30.87795255947295, 265.8263971188505 42.095329859469, 266.15544528886676 50.663891304284334 M265.0274206344038 17.830076729878783 C264.3383717824215 30.04621870747805, 264.29268905413096 44.35834419032634, 265.2343055550009 50.327797865495086 M264.72784423828125 50.93357849121094 C264.07372580841184 63.30142326280475, 260.4663386233151 68.19249231740832, 248.47681688144803 68.82567937299609 M263.50136553123593 51.5799107067287 C262.5737752011046 61.5856579342857, 259.15816568043084 69.37636635098606, 246.71771628763526 66.48091543707997 M249.41041173021958 68.75806045271794 C202.5518077209041 66.19510820302169, 154.39371934660494 65.67393430384371, 17.8483998435461 66.37600304302559 M247.27183487542266 67.92272312636399 C175.6161003322982 66.817697818682, 103.36218029735444 65.90064335101941, 16.80882522650465 67.69673358946984 M16.977859497070312 67.91143798828125 C7.613996375352144 67.71187825128436, -0.9480645768344402 62.226963113993406, 0.28520726040005684 50.17324526235461 M17.10979710891843 68.67189950868487 C7.127713458798826 68.94921330604703, 0.4523638715967535 62.10859733615071, 0.2737591138109563 49.75976125989109 M-0.5279752500355244 49.040284026414156 C0.4531600732765315 42.42890077787506, -0.5628066997566106 37.318848858681655, 1.5155550949275494 18.337846744805574 M-0.4299436863511801 51.12189463339746 C-0.10433199939127069 41.319870233277385, -0.3998545103966723 30.060362541531333, -0.5585156138986349 16.870660996064544 M0 16.977859497070312 C1.0715490467846394 6.403323840349913, 5.085789669305086 0.7345326654613018, 15.820175398141146 1.4308605901896954 M0.626294482499361 16.838824223726988 C1.1537487318739292 6.06432278547436, 7.165869771502912 -1.7188541432842612, 17.70042800810188 1.90459600482136" stroke="#000000" stroke-width="4" fill="none"></path></g><g><g transform="translate(143.88934326171875 81.19963073730469) rotate(0 0.24883065891992828 27.776493126899)"><path d="M0.7567556552588939 -1.0477649979293346 C0.86158907537659 8.360955582807462, 0.7629850717882314 47.02589068685969, 0.7042786054313181 56.600751251727345 M-0.3050863550696523 1.016554432818666 C-0.2829798727824044 10.083258999992783, 0.20121739262404537 46.03824975243148, 0.24752024217508728 54.93779851020314" stroke="#000000" stroke-width="4" fill="none"></path></g><g transform="translate(143.88934326171875 81.19963073730469) rotate(0 0.24883065891992828 27.776493126899)"><path d="M-11.284154859604632 30.409395469563606 C-5.0494885814754715 37.838151140029716, -2.3847378024748824 43.55834133510073, 0.09200535743497307 56.07879722015001 M-9.37028275360385 28.929824233266118 C-7.193588281382099 38.37207679295403, -3.1288103936470275 47.135658693569695, 0.5326754137035459 55.66308336042799" stroke="#000000" stroke-width="4" fill="none"></path></g><g transform="translate(143.88934326171875 81.19963073730469) rotate(0 0.24883065891992828 27.776493126899)"><path d="M7.774265719865296 30.222904535238314 C8.172079711169456 37.82896543898003, 4.999747533070006 43.60627280437818, 0.09200535743497307 56.07879722015001 M9.688137825866077 28.743333298940826 C5.0510197856135886 38.1712988973421, 2.303624579058061 47.001539444714055, 0.5326754137035459 55.66308336042799" stroke="#000000" stroke-width="4" fill="none"></path></g></g><g transform="translate(24.21588134765625 595.8945617675781) rotate(0 143.79443359375 49.0748291015625)"><path d="M26.297348726540797 1.782598089426756 M24.70585327937541 0.24968874415584458 C94.41060290280932 -1.8055444533274376, 162.9174498844687 -1.0543048073645127, 263.59353821378977 0.45017912045624275 M23.83369426881726 0.1118701000798845 C100.32892641763077 0.13193066150938193, 177.81837551489596 0.9220544691322538, 263.44386194250217 -0.10115360859237366 M263.05145263671875 0 C277.4740425236523 -1.5220883376896381, 286.86271857097745 8.25927002355456, 287.1914341337979 24.0464792959392 M263.0954993851483 -1.819406557828188 C278.35665224101393 1.531578425504267, 287.2110447039828 9.310036323405798, 286.9288213243708 23.06355544123798 M289.2110882513225 22.77038632705807 C287.75836685838607 44.166764358339066, 288.5472020262709 59.70485457834077, 287.5362119190395 71.88977979496119 M287.22329639829695 24.069848930463188 C288.07449758422996 35.798702385160105, 287.7357659972968 49.02527274354355, 287.3440034929663 73.79684481583533 M287.5888671875 73.61224365234372 C287.58241306617856 90.42362971231339, 279.46770929172635 96.91613156720993, 264.816978443414 97.84587318822739 M288.02462493255734 72.07435531541702 C289.14764951970426 91.75247785244134, 280.8962814083323 100.12077225241808, 263.73235407974573 98.94321455750611 M262.4437857146569 97.95247442411745 C178.16395990513124 99.6808255853214, 94.08558961287436 97.50588295373765, 25.062260101775845 98.84222470146237 M263.75897847602204 97.86451013825699 C194.63872494346373 96.90170296974749, 128.4215532730127 97.92889815839922, 23.83331910227278 98.5389976635744 M24.537414550781243 98.14965820312497 C9.525942910462614 97.76062889024612, 1.1660380251705647 91.79203302785751, 1.1557338126003742 74.03911168500778 M22.791839469224207 97.49489636346695 C10.328523354791102 98.12125707063821, -0.15106626842170945 88.85067703519013, 2.2899235477671027 72.51181791815904 M1.8929296247661114 75.21816073730585 C-0.9063141169794084 60.54218264327096, 0.8228744444601057 50.341412831706776, 1.4609884731471539 23.912001837044947 M0.041917795315384865 73.02614132128653 C0.38788518621415047 61.130707782923125, 0.24316147281617073 49.63264935137124, -0.34128898940980434 24.176606750115745 M0 24.537414550781243 C1.400457251816988 9.651140641421076, 7.2097799666225875 0.10950858518481255, 23.43072270229458 -1.1222182996571064 M-1.9110845439136028 22.575395297259085 C-1.6946959802880883 9.909473697282369, 6.404719447158273 -0.966826476715505, 23.811319767497473 -1.921283890865743" stroke="#000000" stroke-width="4" fill="none"></path></g><g transform="translate(51.58673095703125 605.9772644042969) rotate(0 126 35)"><text x="0" y="25" font-family="Virgil, Segoe UI Emoji" font-size="28px" fill="#000000" text-anchor="start" style="white-space: pre;" direction="ltr">recursively handle </text><text x="0" y="60" font-family="Virgil, Segoe UI Emoji" font-size="28px" fill="#000000" text-anchor="start" style="white-space: pre;" direction="ltr">inner element</text></g><g transform="translate(22.2640380859375 428.3167724609375) rotate(0 127.73477172851562 51.558807373046875)"><path d="M128.74959595128894 -0.2538353316485882 C171.98978635474276 21.34025046551139, 218.8309209894236 36.96835464635402, 253.85851020738482 53.81400631740689 M128.52407085336745 -0.5758370999246836 C164.86940187076897 14.49940613190066, 202.15516108369172 29.22278655970823, 256.17002742923796 51.061822390183806 M255.56978053972125 50.54421852901578 C226.82203183760183 60.90777549205876, 198.23356213148526 76.09209293142743, 128.13799579069018 104.31242715194821 M256.20018785633147 52.935798620805144 C224.58602551576288 63.70529213883279, 194.9049721938522 77.20844179141687, 127.50013040937483 103.91260567866266 M129.92449195310473 104.26868306472898 C101.69420724961336 90.80808628612621, 77.7008411035257 80.54028187307445, -1.8289366252720356 51.40016149356961 M128.18481659330428 102.39939013682306 C82.05322966471016 84.9823812745706, 35.02481561794578 65.92980062019242, -0.7045165952295065 52.279431676492095 M-1.1654568202793598 50.23382829502225 C44.78518277637661 32.325775557756415, 87.41107002727688 15.005664478987448, 128.70582086965442 -1.3208009116351604 M0.35100393928587437 51.31115326844156 C37.12697344511748 38.8461107698828, 72.38557545632125 23.74516095273197, 128.77947508729994 0.04193905554711819" stroke="#000000" stroke-width="4" fill="none"></path></g><g transform="translate(76.0972900390625 464.8467712402344) rotate(0 72 17.5)"><text x="0" y="25" font-family="Virgil, Segoe UI Emoji" font-size="28px" fill="#000000" text-anchor="start" style="white-space: pre;" direction="ltr">is shallow?</text></g><g><g transform="translate(272.9166259765625 482.5982971191406) rotate(0 53.53543703972832 -2.2608799628913516)"><path d="M1.1091472081840037 0.4448862500488757 C18.802215847621365 -0.3149008087813855, 89.32644178991517 -4.1087657026946545, 106.83856331631542 -4.966646175831556 M0.23231076314114052 -0.367152414014563 C17.699460268855717 -0.9494434052612633, 87.76541045759183 -3.2622082820441576, 105.84021031006239 -3.804611015310511" stroke="#000000" stroke-width="4" fill="none"></path></g><g transform="translate(272.9166259765625 482.5982971191406) rotate(0 53.53543703972832 -2.2608799628913516)"><path d="M78.73035882702894 7.184830318886469 C86.7690592928813 1.856255080505381, 97.14346736923393 -2.800720170624242, 106.08030349283479 -2.2665854088868946 M77.6576389382673 7.923079905781577 C84.37618456381101 5.007486312579392, 89.67431263633384 3.6984013644693503, 105.82784049293957 -2.9080533508118243" stroke="#000000" stroke-width="4" fill="none"></path></g><g transform="translate(272.9166259765625 482.5982971191406) rotate(0 53.53543703972832 -2.2608799628913516)"><path d="M78.07979783522956 -13.326063683613484 C86.28081591462545 -11.344840878343726, 96.88726562361805 -8.686005019924107, 106.08030349283479 -2.2665854088868946 M77.00707794646792 -12.587814096718375 C84.01224307545341 -11.368202562388214, 89.44159085077703 -8.540191297978385, 105.82784049293957 -2.9080533508118243" stroke="#000000" stroke-width="4" fill="none"></path></g></g><g transform="translate(378.14959716796875 439.4151916503906) rotate(0 107.48660278320312 35.08869934082031)"><path d="M17.263909209519625 -1.1414876468479633 M16.983183573931456 -0.04864312335848808 C64.71001709540684 0.025553485265622067, 110.91946704144277 -1.6632469688740874, 196.2815013639629 0.0493842251598835 M16.721948558464646 -0.12407472170889378 C70.73320934721787 -2.1377215925298145, 121.66066314439394 -1.4098441544614244, 198.11747979559004 0.5642572995275259 M197.4288558959961 0 C209.1689978328844 -0.47719137743115425, 216.4682255871594 3.959538331876198, 213.50141655281186 16.81687445566058 M197.86936043575406 -0.4053613431751728 C210.55320459113767 0.9672362664714456, 214.4350244095549 8.105494185226657, 215.89619969632477 15.793994967080653 M216.31790156289935 19.36479638889432 C213.7474002730828 30.354788431434923, 215.55290185332115 39.88895848300873, 215.38443071767688 50.88232599571347 M215.83648234046996 16.777510499581695 C214.77926622475317 25.159568993160292, 214.48209767187765 35.04416616776916, 215.32992541231215 51.85673073492944 M214.97320556640625 52.63304901123047 C214.465687263757 65.91329494242866, 211.0078069654604 70.85584587976336, 198.10982524231076 69.24871463701129 M216.29790614917874 53.25488002225757 C214.05021675731987 66.33647871607293, 208.71174454794576 72.4268900314346, 197.89429917838424 71.19008284006267 M198.79957694932818 68.25336407497525 C127.2065478892808 69.78401994707788, 54.91107666004396 71.01253211500848, 18.833047937601805 68.93145428970456 M196.94421833194792 70.23754451237619 C133.6044678927191 69.61013125676669, 71.26953350878813 70.14290218848743, 17.018239254131913 70.30149451456964 M17.544349670410156 70.17739868164062 C6.846498398731152 71.06729037687182, -0.03797949478030205 63.02108958487709, 0.4599026329815388 52.59304566308856 M17.78225325420499 70.02129204198718 C5.809187999429802 72.45700570140033, -2.2895491788163778 65.10087147944917, 0.6628568818792702 51.797594205476344 M1.0374168865382671 53.78357909992337 C0.9985041087846052 42.55870168073497, 1.474339551327635 34.32087336432977, -1.9631773717701435 17.009436953812838 M0.7407894674688578 53.28143320046365 C0.29355987495665403 42.503999485030505, -0.8425597887587085 33.699075153752624, 0.8814417067915201 17.616978203877807 M0 17.544349670410156 C1.5567264445126057 6.590319624791542, 4.732411413143078 -0.2029896266758442, 17.248227704316378 1.8965746872127056 M1.4877307303249836 15.794433187693357 C-0.9565688977017999 6.110855593221882, 6.3241435140992195 1.2972556272521616, 19.59303186442703 1.1381873885169624" stroke="#000000" stroke-width="4" fill="none"></path></g><g transform="translate(392.2110595703125 441.8401794433594) rotate(0 103.09516165597097 34.86309814453125)"><text x="0" y="24.86309814453125" font-family="Virgil, Segoe UI Emoji" font-size="27.890478515624988px" fill="#000000" text-anchor="start" style="white-space: pre;" direction="ltr">return original </text><text x="0" y="59.7261962890625" font-family="Virgil, Segoe UI Emoji" font-size="27.890478515624988px" fill="#000000" text-anchor="start" style="white-space: pre;" direction="ltr">element</text></g><g transform="translate(311.841064453125 445.4067077636719) rotate(0 21 17.5)"><text x="0" y="25" font-family="Virgil, Segoe UI Emoji" font-size="28px" fill="#000000" text-anchor="start" style="white-space: pre;" direction="ltr">Yes</text></g><g><g transform="translate(149.55535888671875 203.79824829101562) rotate(0 -0.696574440615052 30.595289420117638)"><path d="M-0.04015682414174071 0.7899418540298939 C0.1439439706504346 11.116406371941169, 0.1440226249396802 50.901123987386626, 0.1096030645072461 61.03152145817876 M-1.5203778861556203 0.15905738205648956 C-1.3999525918159634 10.185439556449031, -0.855520010450855 49.13857105087179, -0.7947435636911542 59.05543169320561" stroke="#000000" stroke-width="4" fill="none"></path></g><g transform="translate(149.55535888671875 203.79824829101562) rotate(0 -0.696574440615052 30.595289420117638)"><path d="M-10.03637803323459 31.113482886711285 C-8.81289280723602 36.61906326899317, -5.619542104926796 43.396245491971875, -2.48349828989245 57.17604323045351 M-10.919863724856489 30.375662605995462 C-9.106031370903969 39.581282367290875, -5.65989350506113 47.12092290946849, -0.14857378759421414 58.31669366859831" stroke="#000000" stroke-width="4" fill="none"></path></g><g transform="translate(149.55535888671875 203.79824829101562) rotate(0 -0.696574440615052 30.595289420117638)"><path d="M10.483682650196497 30.896430049491922 C7.250930403435563 36.442262117125544, 5.989720846652235 43.26656286269133, -2.48349828989245 57.17604323045351 M9.600196958574598 30.1586097687761 C5.216822409873066 39.364650552996864, 2.4664000807724973 46.96983578298328, -0.14857378759421414 58.31669366859831" stroke="#000000" stroke-width="4" fill="none"></path></g></g><g><g transform="translate(148.411865234375 370.7040710449219) rotate(0 1.4432409353554476 28.437541701467723)"><path d="M-0.3601591877639293 0.35584744736552243 C0.32157012100021054 9.674748708059392, 2.79520731245478 46.86936903918782, 3.246641058474779 55.991161077469584 M1.6516185093205422 -0.502936588106677 C2.276464854606117 8.988434598765647, 2.5252244737030316 47.99775965355026, 2.462464779941365 57.378019991042095" stroke="#000000" stroke-width="4" fill="none"></path></g><g transform="translate(148.411865234375 370.7040710449219) rotate(0 1.4432409353554476 28.437541701467723)"><path d="M-6.6339931018428775 31.439446397433738 C-5.462338887675718 36.048819175786704, -4.744363422861924 44.65384117183285, 0.7440405677538364 59.32287348684855 M-6.505599464826462 31.128698816830973 C-5.032891326189475 39.49299634282357, -0.5487293392971608 47.223894051078055, 2.9885338603984564 57.25860273529776" stroke="#000000" stroke-width="4" fill="none"></path></g><g transform="translate(148.411865234375 370.7040710449219) rotate(0 1.4432409353554476 28.437541701467723)"><path d="M12.64031236847113 31.401313799728765 C9.38489982920693 35.961596722412914, 5.675783832727335 44.57537734781443, 0.7440405677538364 59.32287348684855 M12.768706005487546 31.090566219126 C8.43664912191288 39.543621754816826, 7.1162614289990005 47.286003278046614, 2.9885338603984564 57.25860273529776" stroke="#000000" stroke-width="4" fill="none"></path></g></g><g><g transform="translate(454.55096435546875 352.9406433105469) rotate(0 -149.19663452005483 36.775259769232946)"><path d="M0.8149700112640856 1.017413728684187 C-48.753700205932056 12.872662187864382, -248.37088612442216 59.8324016901354, -298.45869467779994 71.96102432534099 M-0.21630946216173474 0.5059519909042867 C-49.8183335328816 12.417337006054197, -249.69812371211435 61.13680619917499, -299.20823905137365 73.0445675475616" stroke="#000000" stroke-width="4" fill="none"></path></g><g transform="translate(454.55096435546875 352.9406433105469) rotate(0 -149.19663452005483 36.775259769232946)"><path d="M-272.53104663002097 57.0637540239688 C-280.8682981938206 58.67920664967099, -283.13691753860564 61.934031918239995, -298.75046346974557 74.32966831681318 M-273.9336848996093 56.311842724665624 C-283.9578872903843 61.5782853773216, -291.55959146599855 67.49361419605754, -298.37294149105435 73.69310172070749" stroke="#000000" stroke-width="4" fill="none"></path></g><g transform="translate(454.55096435546875 352.9406433105469) rotate(0 -149.19663452005483 36.775259769232946)"><path d="M-267.69827867260955 77.00778461599451 C-277.20170185225624 74.41242322233981, -280.49862412203515 73.4236131302462, -298.75046346974557 74.32966831681318 M-269.1009169421979 76.25587331669134 C-280.94568109494213 74.40074521223796, -290.26283244842034 73.23670847983993, -298.37294149105435 73.69310172070749" stroke="#000000" stroke-width="4" fill="none"></path></g></g><g transform="translate(168.19049072265625 372.5393371582031) rotate(0 17 17.5)"><text x="0" y="25" font-family="Virgil, Segoe UI Emoji" font-size="28px" fill="#000000" text-anchor="start" style="white-space: pre;" direction="ltr">No</text></g><g><g transform="translate(153.99078369140625 533.4847717285156) rotate(0 0.6413482241332531 29.373520124116908)"><path d="M-0.7658662386238575 0.470795387774706 C-0.37497960602243746 9.962269722173613, 1.5041505110760531 48.26348030840357, 2.0485626868903637 57.78645107224584 M1.0329152567591517 -0.3276409789826722 C1.3061111339336882 9.253378144313272, 1.01578591678602 49.256149334221455, 1.1867029414977879 59.074681227216495" stroke="#000000" stroke-width="4" fill="none"></path></g><g transform="translate(153.99078369140625 533.4847717285156) rotate(0 0.6413482241332531 29.373520124116908)"><path d="M-8.098642431877959 31.99738284728262 C-6.711513967240279 40.34394858770259, -4.235926611750738 45.06434426595361, -0.7248004219029098 60.895826512137425 M-9.83667151138972 31.59568573503527 C-4.8684435667882475 39.860958656617, -3.159672652004912 49.45821062367996, 1.1799905588384718 59.06125787937082" stroke="#000000" stroke-width="4" fill="none"></path></g><g transform="translate(153.99078369140625 533.4847717285156) rotate(0 0.6413482241332531 29.373520124116908)"><path d="M11.838113142961664 31.92340475751865 C7.737762467137859 40.16309373117836, 4.7253543119763455 44.903853376023, -0.7248004219029098 60.895826512137425 M10.100084063449902 31.521707645271302 C8.584431791236486 39.92324300907351, 3.809721527937546 49.544552830022205, 1.1799905588384718 59.06125787937082" stroke="#000000" stroke-width="4" fill="none"></path></g></g><g transform="translate(176.19049072265625 540.5393371582031) rotate(0 17 17.5)"><text x="0" y="25" font-family="Virgil, Segoe UI Emoji" font-size="28px" fill="#000000" text-anchor="start" style="white-space: pre;" direction="ltr">No</text></g></svg>