<?xml version="1.0" encoding="UTF-8"?>
<!DOCTYPE svg PUBLIC "-//W3C//DTD SVG 1.1//EN" "http://www.w3.org/Graphics/SVG/1.1/DTD/svg11.dtd">
<svg version="1.2" xmlns="http://www.w3.org/2000/svg" xmlns:xlink="http://www.w3.org/1999/xlink" x="0" y="0" width="541" height="376" viewBox="0 0 541 376">
<style type="text/css"><![CDATA[
text { font:12px Dialog; }
]]></style>
<rect x="-1048" y="-1033" width="3024" height="2692" style="fill:rgb(255,255,255);stroke:none" />
<clipPath id="clip1"><path d="M13,14 L139,14 L139,112 L13,112 L13,14 Z" /></clipPath>
<path d="M17,18 L17,107 L134,107 L134,18 Z" style="fill:rgb(255,255,255);stroke:none" clip-path="url(#clip1)" />
<clipPath id="clip2"><path d="M13,14 L139,14 L139,112 L13,112 L13,14 Z" /></clipPath>
<path d="M17,18 L17,107 L134,107 L134,18 Z" style="fill:none;stroke:rgb(127,127,127);stroke-width:5" clip-path="url(#clip2)" />
<clipPath id="clip3"><path d="M48,34 L104,34 L104,92 L48,92 L48,34 Z" /></clipPath>
<path d="M65.2333984,42.2993164 L59.5014687,58.1826172 L56.7534218,58.1826172 L51.1137733,42.2993164 L53.8105507,42.2993164 L57.8300819,54.3476563 C57.9804688,54.7919922 58.0864296,55.2841797 58.147953,55.8242188 L58.1992226,55.8242188 C58.2470703,55.3730469 58.3666992,54.8740234 58.5581093,54.3271484 L62.6289101,42.2993164 Z M67.2739258,42.9453125 C67.2739258,42.5419922 67.4123535,42.2087402 67.689209,41.9455566 C67.9660645,41.682373 68.3164063,41.5507813 68.7402344,41.5507813 C69.1572266,41.5507813 69.5092773,41.682373 69.7963867,41.9455566 C70.0834961,42.2087402 70.2270508,42.5419922 70.2270508,42.9453125 C70.2270508,43.3486328 70.0834961,43.6818848 69.7963867,43.9450684 C69.5092773,44.208252 69.1572266,44.3398438 68.7402344,44.3398438 C68.3232422,44.3398438 67.9746094,44.206543 67.6943359,43.9399414 C67.4140625,43.6733398 67.2739258,43.3417969 67.2739258,42.9453125 Z M67.5097656,58.1826172 L67.5097656,46.8417969 L69.9194336,46.8417969 L69.9194336,58.1826172 Z M82.9829102,53.1582031 L75.1899414,53.1582031 C75.2924805,55.4482422 76.4580078,56.5932617 78.6865234,56.5932617 C79.9443359,56.5932617 81.0893555,56.2172852 82.121582,55.465332 L82.121582,57.4545898 C81.1098633,58.1176758 79.7802734,58.4492188 78.1328125,58.4492188 C76.4511719,58.4492188 75.1352539,57.9365234 74.1850586,56.9111328 C73.2348633,55.8857422 72.7597656,54.4501953 72.7597656,52.6044922 C72.7597656,50.8544922 73.270752,49.4121094 74.2927246,48.2773438 C75.3146973,47.1425781 76.5947266,46.5751953 78.1328125,46.5751953 C79.6640625,46.5751953 80.8552246,47.0588379 81.7062988,48.026123 C82.557373,48.9934082 82.9829102,50.324707 82.9829102,52.0200195 Z M80.6450195,51.4047852 C80.6381836,50.434082 80.4160156,49.6889648 79.9785156,49.1694336 C79.5410156,48.6499023 78.9189453,48.3901367 78.1123047,48.3901367 C77.3808594,48.3901367 76.7451172,48.6652832 76.2050781,49.2155762 C75.6650391,49.7658691 75.3300781,50.4956055 75.2001953,51.4047852 Z M100.8862305,46.8417969 L97.543457,58.1826172 L95.03125,58.1826172 L92.9189453,50.5844727 C92.8232422,50.2495117 92.7651367,49.8530273 92.7446289,49.3950195 L92.6933594,49.3950195 C92.6728516,49.6958008 92.5976563,50.0820313 92.4677734,50.5537109 L90.1914063,58.1826172 L87.7304688,58.1826172 L84.3774414,46.8417969 L86.8691406,46.8417969 L88.9404297,54.9731445 C89.0224609,55.3081055 89.0771484,55.6772461 89.1044922,56.0805664 L89.1762695,56.0805664 C89.2036133,55.6977539 89.2719727,55.3183594 89.3813477,54.9423828 L91.7705078,46.8417969 L94.0161133,46.8417969 L96.1489258,54.9936523 C96.1967773,55.1782227 96.2514648,55.5473633 96.3129883,56.1010742 L96.3950195,56.1010742 C96.4155273,55.7592773 96.4770508,55.3901367 96.5795898,54.9936523 L98.5996094,46.8417969 Z" style="fill:rgb(117,117,117);stroke:none" clip-path="url(#clip3)" />
<clipPath id="clip4"><path d="M48,34 L104,34 L104,92 L48,92 L48,34 Z" /></clipPath>
<path d="" style="fill:rgb(117,117,117);stroke:none" clip-path="url(#clip4)" />
<clipPath id="clip5"><path d="M181,313 L361,313 L361,362 L181,362 L181,313 Z" /></clipPath>
<path d="M192,316 C187.5817261,316 184,319.5817261 184,324 L184,350 C184,354.4182739 187.5817261,358 192,358 L349,358 C353.4182739,358 357,354.4182739 357,350 L357,324 C357,319.5817261 353.4182739,316 349,316 Z" style="fill:none;stroke:rgb(127,127,127);stroke-width:4" clip-path="url(#clip5)" />
<clipPath id="clip6"><path d="M197,324 L345,324 L345,351 L197,351 L197,324 Z" /></clipPath>
<path d="M213.4299469,343.1652832 L213.4299469,334.864502 C213.4299469,334.1395569 213.4686737,333.2790527 213.5461578,332.282959 L213.4963531,332.282959 C213.3303223,332.9968262 213.2002869,333.4644165 213.1062164,333.685791 L209.1965485,343.1652832 L207.8933258,343.1652832 L203.9670563,333.760498 C203.8674469,333.522522 203.7373962,333.0300293 203.5769196,332.282959 L203.5271149,332.282959 C203.5824585,333.0576782 203.6101074,333.9929199 203.6101227,335.088623 L203.6101227,343.1652832 L201.7590485,343.1652832 L201.7590485,330.307373 L204.5398102,330.307373 L208.0178375,338.7990723 C208.2889862,339.4631348 208.4688416,340.0137329 208.5573883,340.4509277 L208.6154938,340.4509277 C208.7206268,340.1022949 208.9143219,339.5433655 209.1965485,338.7741699 L212.7326813,330.307373 L215.4055328,330.307373 L215.4055328,343.1652832 Z M226.7859039,343.1652832 L224.8435211,343.1652832 L224.8435211,341.729248 L224.8020172,341.729248 C224.1656189,342.8304749 223.2248688,343.3811035 221.9797516,343.3811035 C219.8160095,343.3811035 218.7341461,342.0834045 218.7341461,339.4880371 L218.7341461,333.9846191 L220.6765289,333.9846191 L220.6765289,339.2473145 C220.6765289,340.9627991 221.3350525,341.8205566 222.6521149,341.8205566 C223.2940369,341.8205566 223.8197479,341.5853577 224.2292633,341.1149902 C224.6387634,340.6445923 224.8435059,340.0275879 224.8435211,339.263916 L224.8435211,333.9846191 L226.7859039,333.9846191 Z M234.5720367,343.0656738 C234.212326,343.2704163 233.6949158,343.3728027 233.0197906,343.3728027 C231.2766266,343.3728027 230.4050446,342.4264832 230.4050446,340.5339355 L230.4050446,335.5285645 L228.8527985,335.5285645 L228.8527985,333.9846191 L230.4050446,333.9846191 L230.4050446,331.8347168 L232.3474274,331.2453613 L232.3474274,333.9846191 L234.5720367,333.9846191 L234.5720367,335.5285645 L232.3474274,335.5285645 L232.3474274,340.1936035 C232.3474274,340.7635803 232.44841,341.1758423 232.6504059,341.4304199 C232.8523865,341.684967 233.1775055,341.8122559 233.6257477,341.8122559 C233.9743805,341.8122559 234.2898102,341.7126465 234.5720367,341.5134277 Z M236.8298492,334.598877 C237.7650604,334.0454712 238.8469391,333.7687988 240.0754547,333.7687988 C242.3941345,333.7687988 243.5534821,334.9668579 243.5534821,337.3630371 L243.5534821,343.1652832 L241.6609039,343.1652832 L241.6609039,341.770752 L241.6194,341.770752 C240.9940643,342.8442993 240.0643768,343.3811035 238.8303375,343.3811035 C237.9283142,343.3811035 237.2185974,343.1376038 236.7011871,342.6506348 C236.1837616,342.1636353 235.9250641,341.5078735 235.9250641,340.6833496 C235.9250641,338.9567871 236.9515839,337.9496155 239.0046539,337.6618652 L241.6692047,337.2966309 C241.6692047,335.9297485 241.0687714,335.2463379 239.8679352,335.2463379 C238.7666931,335.2463379 237.7539978,335.6032715 236.8298492,336.3171387 Z M239.6438141,338.8986816 C238.9797516,338.9872131 238.5107574,339.1560059 238.2368317,339.4050293 C237.9629059,339.6540527 237.825943,340.0192871 237.825943,340.5007324 C237.825943,340.9046936 237.97258,341.2353516 238.2658844,341.4926758 C238.5591736,341.75 238.9354706,341.8786621 239.3947906,341.8786621 C240.0477753,341.8786621 240.5901031,341.6476135 241.0217438,341.1855469 C241.4533844,340.7234497 241.6692047,340.1410217 241.6692047,339.4382324 L241.6692047,338.6247559 Z M251.1320953,343.0656738 C250.7723846,343.2704163 250.2549744,343.3728027 249.5798492,343.3728027 C247.8366852,343.3728027 246.9651031,342.4264832 246.9651031,340.5339355 L246.9651031,335.5285645 L245.4128571,335.5285645 L245.4128571,333.9846191 L246.9651031,333.9846191 L246.9651031,331.8347168 L248.907486,331.2453613 L248.907486,333.9846191 L251.1320953,333.9846191 L251.1320953,335.5285645 L248.907486,335.5285645 L248.907486,340.1936035 C248.907486,340.7635803 249.0084686,341.1758423 249.2104645,341.4304199 C249.4124451,341.684967 249.7375641,341.8122559 250.1858063,341.8122559 C250.5344391,341.8122559 250.8498688,341.7126465 251.1320953,341.5134277 Z M252.9582672,330.8303223 C252.9582672,330.5038147 253.0703278,330.2340393 253.2944489,330.0209961 C253.5185547,329.8079224 253.8021698,329.701416 254.1452789,329.701416 C254.4828339,329.701416 254.7678375,329.8079224 255.0002594,330.0209961 C255.232666,330.2340393 255.348877,330.5038147 255.3488922,330.8303223 C255.348877,331.1567993 255.232666,331.4265747 255.0002594,331.6396484 C254.7678375,331.8526917 254.4828339,331.9592285 254.1452789,331.9592285 C253.8077087,331.9592285 253.5254822,331.8513184 253.2985992,331.635498 C253.071701,331.4196777 252.9582672,331.1512756 252.9582672,330.8303223 Z M253.1491852,343.1652832 L253.1491852,333.9846191 L255.0998688,333.9846191 L255.0998688,343.1652832 Z M257.3991699,338.657959 C257.3991699,337.1472168 257.8294373,335.9546509 258.6899414,335.0803223 C259.5504761,334.2059631 260.7222595,333.7687988 262.2053223,333.7687988 C263.6054077,333.7687988 264.7121582,334.1921387 265.5256348,335.0388184 C266.3391113,335.885498 266.7458496,337.0420532 266.7458496,338.5085449 C266.7458496,339.986084 266.3169861,341.1675415 265.4592285,342.0529785 C264.6015015,342.938385 263.4559937,343.3811035 262.0227051,343.3811035 C260.6171265,343.3811035 259.4951172,342.9522095 258.6567383,342.0944824 C257.8183594,341.2367249 257.3991699,340.091217 257.3991699,338.657959 Z M259.3830566,338.6164551 C259.3830566,339.6235962 259.6279297,340.4094238 260.1176758,340.973877 C260.6074219,341.5383301 261.2728882,341.8205566 262.1140137,341.8205566 C263.8793335,341.8205566 264.7619629,340.7331543 264.7619629,338.5583496 C264.7619629,337.506897 264.5350952,336.7058716 264.0812988,336.1552734 C263.627533,335.6046448 262.9717712,335.3293457 262.1140137,335.3293457 C261.2562866,335.3293457 260.5866699,335.6226196 260.1052246,336.2092285 C259.6237793,336.7958069 259.3830566,337.5982056 259.3830566,338.6164551 Z M277.2961426,343.1652832 L275.3537598,343.1652832 L275.3537598,337.9772949 C275.3537598,336.2119751 274.711853,335.3293457 273.4279785,335.3293457 C272.7805176,335.3293457 272.2451172,335.5742188 271.8217773,336.0639648 C271.3984375,336.5537109 271.1867676,337.1748657 271.1867676,337.9274902 L271.1867676,343.1652832 L269.236084,343.1652832 L269.236084,333.9846191 L271.1867676,333.9846191 L271.1867676,335.4870605 L271.2282715,335.4870605 C271.9089355,334.3415527 272.9050293,333.7687988 274.2165527,333.7687988 C276.2696228,333.7687988 277.2961426,335.0305176 277.2961426,337.5539551 Z M286.4768066,330.307373 L280.276123,345.298584 L278.4997559,345.298584 L284.6838379,330.307373 Z M298.5793457,343.1652832 L296.3879395,343.1652832 L295.1843262,339.8200684 L290.0378418,339.8200684 L288.892334,343.1652832 L286.7009277,343.1652832 L291.548584,330.307373 L293.7648926,330.307373 Z M294.6281738,338.1682129 L292.8352051,333.0964355 C292.7687988,332.9138184 292.7023926,332.5900879 292.6359863,332.1252441 L292.5778809,332.1252441 C292.5280762,332.5070801 292.4589233,332.8252563 292.3703613,333.079834 L290.5856934,338.1682129 Z M307.0129395,342.7751465 C306.3378296,343.1791077 305.4717712,343.3811035 304.4147949,343.3811035 C303.0756226,343.3811035 301.9909668,342.9577332 301.1608887,342.111084 C300.3308105,341.2644043 299.9157715,340.1576233 299.9157715,338.7907715 C299.9157715,337.2578735 300.3612671,336.0376587 301.2521973,335.130127 C302.143158,334.2225647 303.3301697,333.7687988 304.8132324,333.7687988 C305.7263184,333.7687988 306.4650879,333.9154358 307.029541,334.2087402 L307.029541,336.0349121 C306.3765564,335.5645142 305.67099,335.3293457 304.9128418,335.3293457 C304.0163574,335.3293457 303.2900391,335.6295471 302.7338867,336.2299805 C302.1777344,336.8303833 301.8996582,337.6369629 301.8996582,338.6496582 C301.8996582,339.6401978 302.1639099,340.4163208 302.6923828,340.9780273 C303.2208862,341.5397034 303.930603,341.8205566 304.8215332,341.8205566 C305.596283,341.8205566 306.3267517,341.5715332 307.0129395,341.0734863 Z M314.0769043,343.0656738 C313.7172241,343.2704163 313.1997986,343.3728027 312.5246582,343.3728027 C310.7814941,343.3728027 309.9099121,342.4264832 309.9099121,340.5339355 L309.9099121,335.5285645 L308.357666,335.5285645 L308.357666,333.9846191 L309.9099121,333.9846191 L309.9099121,331.8347168 L311.8522949,331.2453613 L311.8522949,333.9846191 L314.0769043,333.9846191 L314.0769043,335.5285645 L311.8522949,335.5285645 L311.8522949,340.1936035 C311.8522949,340.7635803 311.9533081,341.1758423 312.1552734,341.4304199 C312.3572693,341.684967 312.682373,341.8122559 313.1306152,341.8122559 C313.479248,341.8122559 313.7946777,341.7126465 314.0769043,341.5134277 Z M315.9030762,330.8303223 C315.9030762,330.5038147 316.0151367,330.2340393 316.2392578,330.0209961 C316.4633789,329.8079224 316.7470093,329.701416 317.0900879,329.701416 C317.4276733,329.701416 317.7126465,329.8079224 317.9450684,330.0209961 C318.1774902,330.2340393 318.2937012,330.5038147 318.2937012,330.8303223 C318.2937012,331.1567993 318.1774902,331.4265747 317.9450684,331.6396484 C317.7126465,331.8526917 317.4276733,331.9592285 317.0900879,331.9592285 C316.752533,331.9592285 316.4703064,331.8513184 316.2434082,331.635498 C316.0165405,331.4196777 315.9030762,331.1512756 315.9030762,330.8303223 Z M316.0939941,343.1652832 L316.0939941,333.9846191 L318.0446777,333.9846191 L318.0446777,343.1652832 Z M320.3439941,338.657959 C320.3439941,337.1472168 320.7742615,335.9546509 321.6347656,335.0803223 C322.4953003,334.2059631 323.6670837,333.7687988 325.1501465,333.7687988 C326.5502319,333.7687988 327.6569824,334.1921387 328.470459,335.0388184 C329.2839355,335.885498 329.6906738,337.0420532 329.6906738,338.5085449 C329.6906738,339.986084 329.2618103,341.1675415 328.4040527,342.0529785 C327.5463257,342.938385 326.4008179,343.3811035 324.9675293,343.3811035 C323.5619507,343.3811035 322.4399414,342.9522095 321.6015625,342.0944824 C320.7631836,341.2367249 320.3439941,340.091217 320.3439941,338.657959 Z M322.3278809,338.6164551 C322.3278809,339.6235962 322.5727539,340.4094238 323.0625,340.973877 C323.5522461,341.5383301 324.2177124,341.8205566 325.0588379,341.8205566 C326.8241577,341.8205566 327.7067871,340.7331543 327.7067871,338.5583496 C327.7067871,337.506897 327.4799194,336.7058716 327.026123,336.1552734 C326.5723572,335.6046448 325.9165955,335.3293457 325.0588379,335.3293457 C324.2011108,335.3293457 323.5314941,335.6226196 323.0500488,336.2092285 C322.5686035,336.7958069 322.3278809,337.5982056 322.3278809,338.6164551 Z M340.2409668,343.1652832 L338.298584,343.1652832 L338.298584,337.9772949 C338.298584,336.2119751 337.6566467,335.3293457 336.3728027,335.3293457 C335.7253418,335.3293457 335.1899414,335.5742188 334.7666016,336.0639648 C334.3432617,336.5537109 334.1315918,337.1748657 334.1315918,337.9274902 L334.1315918,343.1652832 L332.1809082,343.1652832 L332.1809082,333.9846191 L334.1315918,333.9846191 L334.1315918,335.4870605 L334.1730957,335.4870605 C334.8537598,334.3415527 335.8498535,333.7687988 337.161377,333.7687988 C339.214447,333.7687988 340.2409668,335.0305176 340.2409668,337.5539551 Z" style="fill:rgb(89,89,89);stroke:none" clip-path="url(#clip6)" />
<clipPath id="clip7"><path d="M383,38 L527,38 L527,87 L383,87 L383,38 Z" /></clipPath>
<path d="M394,41 C389.5817261,41 386,44.5817184 386,49 L386,75 C386,79.4182816 389.5817261,83 394,83 L515,83 C519.4182739,83 523,79.4182816 523,75 L523,49 C523,44.5817184 519.4182739,41 515,41 Z" style="fill:none;stroke:rgb(127,127,127);stroke-width:4" clip-path="url(#clip7)" />
<clipPath id="clip8"><path d="M399,49 L511,49 L511,76 L399,76 L399,49 Z" /></clipPath>
<path d="M403.2446289,65.3056641 C404.2296448,66.1080704 405.3889771,66.5092773 406.7226563,66.5092773 C408.427063,66.5092773 409.2792664,65.9254532 409.2792969,64.7578125 C409.2792664,64.4202499 409.1852112,64.1158829 408.9970703,63.8447266 C408.8088989,63.5735703 408.5557251,63.336998 408.2375488,63.1350098 C407.919342,62.9330254 407.289856,62.6079102 406.3491211,62.159668 C405.1925354,61.6062851 404.3845825,61.0445976 403.925293,60.4746094 C403.4659729,59.9046249 403.2363281,59.2350273 403.2363281,58.4658203 C403.2363281,57.3590508 403.6734924,56.4874687 404.5478516,55.8510742 C405.4221802,55.2146835 406.5400391,54.8964844 407.9013672,54.8964844 C409.1907349,54.8964844 410.1647034,55.0541992 410.8232422,55.3696289 L410.8232422,57.4116211 C410.0318909,56.8637695 409.0440979,56.5898438 407.8598633,56.5898438 C407.1017151,56.5898438 406.4902344,56.7420273 406.0253906,57.0463867 C405.5605469,57.35075 405.328125,57.7685547 405.328125,58.2998047 C405.328125,58.78125 405.498291,59.1769218 405.838623,59.4868164 C406.1789551,59.7967148 406.8969727,60.2117538 407.9926758,60.7319336 C409.2709961,61.3295898 410.1536255,61.9286308 410.640625,62.5290527 C411.127594,63.1294785 411.3710938,63.8198242 411.3710938,64.6000977 C411.3710938,65.762207 410.9505005,66.6503906 410.109375,67.2646484 C409.268219,67.8789063 408.1033325,68.1860352 406.6147461,68.1860352 C406.066864,68.1860352 405.4581604,68.1196289 404.7885742,67.9868164 C404.1189575,67.8540039 403.6043091,67.676918 403.2446289,67.4555664 Z M418.5595703,67.8706055 C418.1998596,68.0753555 417.6824341,68.1777344 417.0073242,68.1777344 C415.2641602,68.1777344 414.3925781,67.2314453 414.3925781,65.3388672 L414.3925781,60.3334961 L412.840332,60.3334961 L412.840332,58.7895508 L414.3925781,58.7895508 L414.3925781,56.6396484 L416.3349609,56.050293 L416.3349609,58.7895508 L418.5595703,58.7895508 L418.5595703,60.3334961 L416.3349609,60.3334961 L416.3349609,64.9985352 C416.3349609,65.5685196 416.4359436,65.9807968 416.6379395,66.2353516 C416.8399048,66.4899063 417.1650391,66.6171875 417.6132813,66.6171875 C417.9619141,66.6171875 418.2773438,66.5175781 418.5595703,66.3183594 Z M420.8173828,59.4038086 C421.752594,58.8504257 422.8344727,58.5737305 424.0629883,58.5737305 C426.3816528,58.5737305 427.5410156,59.7718124 427.5410156,62.1679688 L427.5410156,67.9702148 L425.6484375,67.9702148 L425.6484375,66.5756836 L425.6069336,66.5756836 C424.9815979,67.6492538 424.0519104,68.1860352 422.8178711,68.1860352 C421.9158325,68.1860352 421.2061157,67.942543 420.6887207,67.4555664 C420.1712952,66.9685898 419.9125977,66.3128281 419.9125977,65.4882813 C419.9125977,63.7617188 420.9391174,62.7545586 422.9921875,62.4667969 L425.6567383,62.1015625 C425.6567383,60.7347031 425.0563049,60.0512695 423.8554688,60.0512695 C422.7542114,60.0512695 421.7415161,60.4082031 420.8173828,61.1220703 Z M423.6313477,63.7036133 C422.9672852,63.7921562 422.498291,63.9609375 422.2243652,64.2099609 C421.9504395,64.4589844 421.8134766,64.8242188 421.8134766,65.3056641 C421.8134766,65.7096329 421.9601135,66.0402832 422.253418,66.2976074 C422.5466919,66.5549316 422.9230042,66.6835938 423.3823242,66.6835938 C424.0353088,66.6835938 424.5776367,66.4525528 425.0092773,65.9904785 C425.440918,65.5284042 425.6567383,64.945961 425.6567383,64.2431641 L425.6567383,63.4296875 Z M435.1196289,67.8706055 C434.7599182,68.0753555 434.2424927,68.1777344 433.5673828,68.1777344 C431.8242188,68.1777344 430.9526367,67.2314453 430.9526367,65.3388672 L430.9526367,60.3334961 L429.4003906,60.3334961 L429.4003906,58.7895508 L430.9526367,58.7895508 L430.9526367,56.6396484 L432.8950195,56.050293 L432.8950195,58.7895508 L435.1196289,58.7895508 L435.1196289,60.3334961 L432.8950195,60.3334961 L432.8950195,64.9985352 C432.8950195,65.5685196 432.9960022,65.9807968 433.197998,66.2353516 C433.3999634,66.4899063 433.7250977,66.6171875 434.1733398,66.6171875 C434.5219727,66.6171875 434.8374023,66.5175781 435.1196289,66.3183594 Z M444.8398438,63.902832 L438.53125,63.902832 C438.6142578,65.7566757 439.5577698,66.6835938 441.3618164,66.6835938 C442.3800354,66.6835938 443.3069458,66.3792343 444.1425781,65.7705078 L444.1425781,67.3808594 C443.3235474,67.9176407 442.2472229,68.1860352 440.9135742,68.1860352 C439.5522461,68.1860352 438.486969,67.7709961 437.7177734,66.940918 C436.9485474,66.1108398 436.5639648,64.9487305 436.5639648,63.4545898 C436.5639648,62.0379257 436.9776001,60.8702812 437.8049316,59.9516602 C438.6322327,59.0330429 439.668457,58.5737305 440.9135742,58.5737305 C442.1531372,58.5737305 443.1174011,58.9652519 443.8063965,59.748291 C444.4953613,60.5313339 444.8398438,61.6090508 444.8398438,62.9814453 Z M442.9472656,62.4833984 C442.9417114,61.6975937 442.7618713,61.0944023 442.4077148,60.6738281 C442.0535278,60.2532578 441.5499573,60.0429688 440.8969727,60.0429688 C440.3048401,60.0429688 439.7901917,60.2657089 439.3530273,60.7111816 C438.9158325,61.1566582 438.6446838,61.7473984 438.5395508,62.4833984 Z M453.4477539,55.1123047 L447.2470703,70.1035156 L445.4707031,70.1035156 L451.6547852,55.1123047 Z M465.0688477,67.0986328 C463.7849731,67.8235703 462.3046875,68.1860352 460.6279297,68.1860352 C458.7076721,68.1860352 457.1720276,67.602211 456.0209961,66.4345703 C454.8699341,65.2669296 454.2944336,63.6953125 454.2944336,61.7197266 C454.2944336,59.7220078 454.9321899,58.0853691 456.2077637,56.8098145 C457.4833069,55.5342636 459.1254883,54.8964844 461.1342773,54.8964844 C462.5177307,54.8964844 463.7019653,55.109539 464.6870117,55.5356445 L464.6870117,57.5776367 C463.6743164,56.9523125 462.4485474,56.6396484 461.0097656,56.6396484 C459.6539612,56.6396484 458.5444336,57.0961914 457.6811523,58.0092773 C456.8178711,58.9223633 456.3862305,60.1204453 456.3862305,61.6035156 C456.3862305,63.1308594 456.7832642,64.3220215 457.5773926,65.177002 C458.3714905,66.0319824 459.4464417,66.4594727 460.8022461,66.4594727 C461.6987305,66.4594727 462.4541016,66.293457 463.0683594,65.9614258 L463.0683594,62.7407227 L460.3374023,62.7407227 L460.3374023,61.0473633 L465.0688477,61.0473633 Z M475.71875,63.902832 L469.4101563,63.902832 C469.4931641,65.7566757 470.436676,66.6835938 472.2407227,66.6835938 C473.2589417,66.6835938 474.1858521,66.3792343 475.0214844,65.7705078 L475.0214844,67.3808594 C474.2024536,67.9176407 473.1261292,68.1860352 471.7924805,68.1860352 C470.4311523,68.1860352 469.3658752,67.7709961 468.5966797,66.940918 C467.8274536,66.1108398 467.4428711,64.9487305 467.4428711,63.4545898 C467.4428711,62.0379257 467.8565063,60.8702812 468.6838379,59.9516602 C469.5111389,59.0330429 470.5473633,58.5737305 471.7924805,58.5737305 C473.0320435,58.5737305 473.9963074,58.9652519 474.6853027,59.748291 C475.3742676,60.5313339 475.71875,61.6090508 475.71875,62.9814453 Z M473.8261719,62.4833984 C473.8206177,61.6975937 473.6407776,61.0944023 473.2866211,60.6738281 C472.9324341,60.2532578 472.4288635,60.0429688 471.7758789,60.0429688 C471.1837463,60.0429688 470.6690979,60.2657089 470.2319336,60.7111816 C469.7947388,61.1566582 469.5235901,61.7473984 469.418457,62.4833984 Z M482.7578125,67.8706055 C482.3981018,68.0753555 481.8806763,68.1777344 481.2055664,68.1777344 C479.4624023,68.1777344 478.5908203,67.2314453 478.5908203,65.3388672 L478.5908203,60.3334961 L477.0385742,60.3334961 L477.0385742,58.7895508 L478.5908203,58.7895508 L478.5908203,56.6396484 L480.5332031,56.050293 L480.5332031,58.7895508 L482.7578125,58.7895508 L482.7578125,60.3334961 L480.5332031,60.3334961 L480.5332031,64.9985352 C480.5332031,65.5685196 480.6341858,65.9807968 480.8361816,66.2353516 C481.038147,66.4899063 481.3632813,66.6171875 481.8115234,66.6171875 C482.1601563,66.6171875 482.4755859,66.5175781 482.7578125,66.3183594 Z M489.5063477,67.8706055 C489.146637,68.0753555 488.6292114,68.1777344 487.9541016,68.1777344 C486.2109375,68.1777344 485.3393555,67.2314453 485.3393555,65.3388672 L485.3393555,60.3334961 L483.7871094,60.3334961 L483.7871094,58.7895508 L485.3393555,58.7895508 L485.3393555,56.6396484 L487.2817383,56.050293 L487.2817383,58.7895508 L489.5063477,58.7895508 L489.5063477,60.3334961 L487.2817383,60.3334961 L487.2817383,64.9985352 C487.2817383,65.5685196 487.3827209,65.9807968 487.5847168,66.2353516 C487.7866821,66.4899063 488.1118164,66.6171875 488.5600586,66.6171875 C488.9086914,66.6171875 489.2241211,66.5175781 489.5063477,66.3183594 Z M499.2265625,63.902832 L492.9179688,63.902832 C493.0009766,65.7566757 493.9444885,66.6835938 495.7485352,66.6835938 C496.7667542,66.6835938 497.6936646,66.3792343 498.5292969,65.7705078 L498.5292969,67.3808594 C497.7102661,67.9176407 496.6339417,68.1860352 495.300293,68.1860352 C493.9389648,68.1860352 492.8736877,67.7709961 492.1044922,66.940918 C491.3352661,66.1108398 490.9506836,64.9487305 490.9506836,63.4545898 C490.9506836,62.0379257 491.3643188,60.8702812 492.1916504,59.9516602 C493.0189514,59.0330429 494.0551758,58.5737305 495.300293,58.5737305 C496.539856,58.5737305 497.5041199,58.9652519 498.1931152,59.748291 C498.8820801,60.5313339 499.2265625,61.6090508 499.2265625,62.9814453 Z M497.3339844,62.4833984 C497.3284302,61.6975937 497.1485901,61.0944023 496.7944336,60.6738281 C496.4402466,60.2532578 495.936676,60.0429688 495.2836914,60.0429688 C494.6915588,60.0429688 494.1769104,60.2657089 493.7397461,60.7111816 C493.3025513,61.1566582 493.0314026,61.7473984 492.9262695,62.4833984 Z M506.7636719,60.6489258 C506.4758911,60.4607773 506.0940552,60.3666992 505.6181641,60.3666992 C504.9873047,60.3666992 504.4768066,60.6433945 504.0866699,61.1967773 C503.6965332,61.750164 503.5014648,62.4833984 503.5014648,63.3964844 L503.5014648,67.9702148 L501.5507813,67.9702148 L501.5507813,58.7895508 L503.5014648,58.7895508 L503.5014648,60.6157227 L503.5429688,60.6157227 C503.9967346,59.2931328 504.7991333,58.6318359 505.9501953,58.6318359 C506.2932739,58.6318359 506.5644531,58.6705742 506.7636719,58.7480469 Z" style="fill:rgb(89,89,89);stroke:none" clip-path="url(#clip8)" />
<clipPath id="clip9"><path d="M39,101 L190,101 L190,326 L39,326 L39,101 Z" /></clipPath>
<path d="M77.5481186,107 L77.5481186,338.463623 L77.5481186,338.463623 L184,338.463623" style="fill:none;stroke:rgb(127,127,127);stroke-width:5" clip-path="url(#clip9)" />
<clipPath id="clip10"><path d="M116,324 L190,324 L190,351 L116,351 L116,324 Z" /></clipPath>
<path d="M77.5481186,107 L77.5481186,338.463623 L77.5481186,338.463623 L184,338.463623" style="fill:none;stroke:rgb(127,127,127);stroke-width:5" clip-path="url(#clip10)" />
<clipPath id="clip11"><path d="M39,324 L118,324 L118,351 L39,351 L39,324 Z" /></clipPath>
<path d="M77.5481186,107 L77.5481186,338.463623 L77.5481186,338.463623 L184,338.463623" style="fill:none;stroke:rgb(127,127,127);opacity:0.09803921568627451;stroke-width:5" clip-path="url(#clip11)" />
<clipPath id="clip12"><path d="M39,101 L190,101 L190,351 L39,351 L39,101 Z" /></clipPath>
<path d="M171.8756409,345.463623 L184,338.463623 L171.8756409,331.463623 Z" style="fill:rgb(127,127,127);stroke:none" clip-path="url(#clip12)" />
<clipPath id="clip13"><path d="M39,101 L190,101 L190,351 L39,351 L39,101 Z" /></clipPath>
<path d="M171.8756409,345.463623 L184,338.463623 L171.8756409,331.463623 Z" style="fill:none;stroke:rgb(127,127,127);stroke-width:5" clip-path="url(#clip13)" />
<clipPath id="clip14"><path d="M39,324 L118,324 L118,351 L39,351 L39,324 Z" /></clipPath>
<path d="M42.1796951,332.671875 L43.7109451,332.671875 L43.7109451,329.921875 L45.7265701,329.921875 L45.7265701,332.671875 L46.9765701,332.671875 L46.9765701,334.609375 L45.7265701,334.609375 L45.7265701,336.8671875 L46.8828201,336.5625 C46.8724022,337.3854065 46.8776093,338.083313 46.8984451,338.65625 L45.7265701,338.9921875 L45.7265701,343.046875 C45.7265701,343.880188 45.5377655,344.4296875 45.1601639,344.6953125 C44.7825584,344.960907 43.9036522,345.083313 42.5234451,345.0625 C42.4296951,344.4791565 42.2994843,343.8072815 42.1328201,343.046875 L43.2890701,343.046875 C43.5703201,343.046875 43.7109451,342.864563 43.7109451,342.5 L43.7109451,339.5546875 L42.2734451,339.953125 L42.1015701,337.65625 L43.7109451,337.3203125 L43.7109451,334.609375 L42.1796951,334.609375 Z M48.0859451,330.21875 L56.5859451,330.21875 L56.5859451,336.75 L48.0859451,336.75 Z M54.5859451,331.953125 L50.0859451,331.953125 L50.0859451,332.796875 L54.5859451,332.796875 Z M54.5859451,335.015625 L54.5859451,334.171875 L50.0859451,334.171875 L50.0859451,335.015625 Z M48.1015701,345.296875 C47.2265701,344.6510315 46.6588593,344.255188 46.3984451,344.109375 C47.4609451,342.9322815 48.0963593,341.40625 48.3046951,339.53125 L50.1328201,339.921875 C50.0703201,340.375 49.9921951,340.8125 49.8984451,341.234375 C50.5442772,342.098938 51.0859451,342.596344 51.5234451,342.7265625 L51.5234451,339.296875 L47.2421951,339.296875 L47.2421951,337.5 L57.6171951,337.5 L57.6171951,339.296875 L53.5234451,339.296875 L53.5234451,340.25 L57.0859451,340.25 L57.0859451,341.953125 L53.5234451,341.953125 L53.5234451,342.9921875 C54.8515701,343.0078125 56.2474022,343 57.7109451,342.96875 C57.5859451,343.4374695 57.4453201,344.052063 57.2890701,344.8125 C55.2838593,344.8541565 53.6562576,344.8372192 52.4062576,344.7617188 C51.1562576,344.6861877 50.1250076,344.1510315 49.3125076,343.15625 C48.9895897,343.958313 48.5859451,344.671875 48.1015701,345.296875 Z M58.7812576,331.65625 L65.0859451,331.65625 C64.8776093,331.161438 64.6927185,330.734375 64.5312576,330.375 L66.8437576,329.671875 C67.0937576,330.1666565 67.4166718,330.828125 67.8125076,331.65625 L73.8593826,331.65625 L73.8593826,333.625 L58.7812576,333.625 Z M58.8750076,337.25 C60.6041718,336.09375 62.1093826,334.895813 63.3906326,333.65625 L65.0781326,335.203125 C63.5885468,336.5572815 62.0104218,337.84375 60.3437576,339.0625 C60.0000076,338.5729065 59.5104218,337.96875 58.8750076,337.25 Z M69.2031326,333.703125 C70.9218826,334.921875 72.4687576,336.0625 73.8437576,337.125 L72.2187576,338.921875 C70.7812576,337.609375 69.2968826,336.375 67.7656326,335.21875 Z M64.1093826,336.796875 C64.7916718,337.9791565 65.5494843,338.973938 66.3828201,339.78125 C67.278656,338.9322815 68.0052185,337.927063 68.5625076,336.765625 L70.4062576,338 C69.7500076,339.1875 68.997406,340.2317505 68.1484451,341.1328125 C69.6640701,341.9973755 71.6562576,342.5729065 74.1250076,342.859375 C73.6041718,343.7343445 73.1718826,344.4791565 72.8281326,345.09375 C70.3437576,344.755188 68.1979218,343.9505005 66.3906326,342.6796875 C64.5937576,343.924469 62.4166718,344.75 59.8593826,345.15625 C59.5989647,344.5729065 59.1770897,343.828125 58.5937576,342.921875 C60.9895897,342.6197815 62.9947968,342.015625 64.6093826,341.109375 C63.7500076,340.208313 63.0000076,339.203125 62.3593826,338.09375 Z M82.6015701,330.953125 L76.7187576,345.0625 L74.4609451,345.0625 L80.3203201,330.953125 Z M85.3125076,329.65625 L87.2031326,329.90625 C87.0729218,330.223938 86.934906,330.53125 86.7890701,330.828125 L89.5937576,330.828125 L89.5937576,332.296875 L88.8046951,333.71875 L90.1093826,333.71875 L90.1093826,343.078125 C90.1093826,343.6822815 90.0039139,344.1484375 89.7929764,344.4765625 C89.5820389,344.8046875 89.2825623,345.002594 88.8945389,345.0703125 C88.5065155,345.1380005 88.0416718,345.171875 87.5000076,345.171875 C87.4427185,344.8541565 87.3828201,344.5416565 87.3203201,344.234375 L86.1250076,344.234375 L86.1250076,341.109375 L85.2031326,341.109375 C85.0520935,342.9843445 84.7552185,344.395813 84.3125076,345.34375 C83.8125076,344.84375 83.3020935,344.3854065 82.7812576,343.96875 C83.3854218,342.59375 83.6875076,340.421875 83.6875076,337.453125 L83.6875076,335.2578125 C83.5885468,335.3567505 83.4895935,335.453125 83.3906326,335.546875 C83.2656326,334.880188 83.0833435,334.15625 82.8437576,333.375 C83.9062576,332.28125 84.7291718,331.0416565 85.3125076,329.65625 Z M85.0234451,333.71875 L86.8437576,333.71875 L87.5937576,332.359375 L85.9609451,332.359375 C85.669281,332.833313 85.356781,333.286438 85.0234451,333.71875 Z M88.5000076,335.21875 L87.6093826,335.21875 L87.6093826,336.703125 L88.5000076,336.703125 Z M85.3281326,336.703125 L86.1250076,336.703125 L86.1250076,335.21875 L85.3281326,335.21875 Z M87.6093826,339.640625 L88.5000076,339.640625 L88.5000076,338.171875 L87.6093826,338.171875 Z M85.2890701,339.640625 L86.1250076,339.640625 L86.1250076,338.171875 L85.3281326,338.171875 C85.3229218,338.6875 85.309906,339.177063 85.2890701,339.640625 Z M88.5000076,341.109375 L87.6093826,341.109375 L87.6093826,343.3828125 C87.9843826,343.3984375 88.2265701,343.348938 88.3359451,343.234375 C88.4453201,343.1197815 88.5000076,342.895813 88.5000076,342.5625 Z M90.7500076,332.5625 L93.3437576,332.5625 L93.3437576,329.828125 L95.1875076,329.828125 L95.1875076,332.5625 L97.7968826,332.5625 L97.7968826,339.609375 L95.1875076,339.609375 L95.1875076,342.3046875 L96.1718826,342.2109375 L95.7500076,340.71875 L97.2031326,340.296875 C97.7343826,341.9322815 98.1510468,343.390625 98.4531326,344.671875 L96.9218826,345.125 L96.6484451,344.0078125 C94.8359451,344.1848755 92.8229218,344.411438 90.6093826,344.6875 L90.3125076,342.640625 L93.3437576,342.453125 L93.3437576,339.609375 L92.3593826,339.609375 L92.3593826,340.484375 L90.7500076,340.484375 Z M96.1718826,337.859375 L96.1718826,334.3125 L95.1875076,334.3125 L95.1875076,337.859375 Z M92.3593826,337.859375 L93.3437576,337.859375 L93.3437576,334.3125 L92.3593826,334.3125 Z M113.2578201,337.90625 C112.4557343,339.2916565 111.4140625,340.505188 110.1328201,341.546875 C111.3203125,342.078125 112.9088593,342.4947815 114.8984451,342.796875 C114.4401093,343.5468445 113.997406,344.3072815 113.5703201,345.078125 C111.4453201,344.598938 109.638031,343.8854065 108.1484451,342.9375 C106.6171951,343.833313 104.8046951,344.598938 102.7109451,345.234375 C102.3359451,344.546875 101.9401093,343.8749695 101.5234451,343.21875 C103.263031,342.7291565 104.8307343,342.161438 106.2265701,341.515625 C105.466156,340.8072815 104.778656,339.9947815 104.1640701,339.078125 C102.9557343,341.005188 101.5703201,342.640625 100.0078201,343.984375 C99.7890701,343.005188 99.559906,342.1354065 99.3203201,341.375 C101.3515701,339.46875 102.8671951,337.255188 103.8671951,334.734375 L99.9453201,334.734375 L99.9453201,332.859375 C100.2369843,332.005188 100.497406,331.109375 100.7265701,330.171875 L102.8671951,330.40625 C102.7109451,331.052063 102.497406,331.8541565 102.2265701,332.8125 L104.4765701,332.8125 C104.716156,331.927063 104.9557343,330.895813 105.1953201,329.71875 L107.4609451,329.90625 L106.8046951,332.8125 L111.1796951,332.8125 C110.5963593,332.239563 109.997406,331.6666565 109.3828201,331.09375 L110.7578201,329.796875 C111.716156,330.536438 112.528656,331.208313 113.1953201,331.8125 L112.2109451,332.8125 L114.8515701,332.8125 L114.8515701,334.734375 L106.2109451,334.734375 C106.0546951,335.171875 105.872406,335.6510315 105.6640701,336.171875 L113.2578201,336.171875 Z M108.1171951,340.421875 C109.200531,339.6510315 110.044281,338.8385315 110.6484451,337.984375 L105.8984451,337.984375 C106.481781,338.911438 107.2213593,339.723938 108.1171951,340.421875 Z" style="fill:rgb(102,102,102);stroke:none" clip-path="url(#clip14)" />
<clipPath id="clip15"><path d="M128,54 L243,54 L243,81 L128,81 L128,54 Z" /></clipPath>
<path d="M386,67.0553513 L134,67.6962738" style="fill:none;stroke:rgb(127,127,127);stroke-width:5" clip-path="url(#clip15)" />
<clipPath id="clip16"><path d="M277,54 L392,54 L392,81 L277,81 L277,54 Z" /></clipPath>
<path d="M386,67.0553513 L134,67.6962738" style="fill:none;stroke:rgb(127,127,127);stroke-width:5" clip-path="url(#clip16)" />
<clipPath id="clip17"><path d="M241,54 L279,54 L279,81 L241,81 L241,54 Z" /></clipPath>
<path d="M386,67.0553513 L134,67.6962738" style="fill:none;stroke:rgb(127,127,127);opacity:0.09803921568627451;stroke-width:5" clip-path="url(#clip17)" />
<clipPath id="clip18"><path d="M128,54 L392,54 L392,81 L128,81 L128,54 Z" /></clipPath>
<path d="M146.1065063,60.6654625 L134,67.6962738 L146.1421204,74.6654129 Z" style="fill:rgb(127,127,127);stroke:none" clip-path="url(#clip18)" />
<clipPath id="clip19"><path d="M128,54 L392,54 L392,81 L128,81 L128,54 Z" /></clipPath>
<path d="M146.1065063,60.6654625 L134,67.6962738 L146.1421204,74.6654129 Z" style="fill:none;stroke:rgb(127,127,127);stroke-width:5" clip-path="url(#clip19)" />
<clipPath id="clip20"><path d="M241,54 L279,54 L279,81 L241,81 L241,54 Z" /></clipPath>
<path d="M249.5742188,70.53125 L250.8867188,69.5 L249.4179688,69.5 L249.4179688,64.234375 L253.2304688,64.234375 L253.2304688,63.03125 L248.9648438,63.03125 L248.9648438,61.234375 L253.2304688,61.234375 L253.2304688,59.765625 L255.3085938,59.765625 L255.3085938,61.234375 L259.7617188,61.234375 L259.7617188,63.03125 L255.3085938,63.03125 L255.3085938,64.234375 L259.1523438,64.234375 L259.1523438,70.140625 L257.1523438,70.140625 L257.1523438,69.5 L255.2773438,69.5 C255.2148438,70.5520859 255.048172,71.390625 254.7773438,72.015625 C256.2252502,72.5052109 257.9648438,72.7760391 259.9960938,72.828125 C259.5065002,73.8072891 259.1367188,74.5572891 258.8867188,75.078125 C256.7929688,74.859375 254.970047,74.3697891 253.4179688,73.609375 C252.5846252,74.171875 251.3085938,74.7135391 249.5898438,75.234375 C249.3085938,74.765625 248.9179688,74.1614609 248.4179688,73.421875 C249.782547,73.1197891 250.8190002,72.796875 251.5273438,72.453125 C250.798172,71.9010391 250.1471252,71.2604141 249.5742188,70.53125 Z M247.1054688,59.796875 L249.1835938,60.3125 C248.8815002,61.4583359 248.5221252,62.5833359 248.1054688,63.6875 L248.1054688,75.203125 L246.1523438,75.203125 L246.1523438,67.96875 C245.7877502,68.6458359 245.4023438,69.3072891 244.9960938,69.953125 C244.8815002,68.9947891 244.7096252,68.0052109 244.4804688,66.984375 C245.657547,64.7864609 246.532547,62.390625 247.1054688,59.796875 Z M257.1523438,67.765625 L257.1523438,65.96875 L255.3085938,65.96875 L255.3085938,67.765625 Z M251.4179688,67.765625 L253.2304688,67.765625 L253.2304688,65.96875 L251.4179688,65.96875 Z M252.8867188,71.15625 C253.0533752,70.7291641 253.1627502,70.1770859 253.2148438,69.5 L251.0117188,69.5 C251.501297,70.1458359 252.126297,70.6979141 252.8867188,71.15625 Z M275.5195313,72.6875 C275.5195313,73.3489609 275.3684692,73.8606796 275.0664063,74.2226563 C274.7643127,74.5846329 274.302063,74.7981796 273.6796875,74.8632813 C273.0572815,74.9283829 272.2382813,74.953125 271.2226563,74.9375 C271.0455627,74.1354141 270.8372192,73.3802109 270.5976563,72.671875 C271.6705627,72.734375 272.2539063,72.765625 272.3476563,72.765625 C273.0039063,72.765625 273.3320313,72.4479141 273.3320313,71.8125 L273.3320313,70.390625 L270.0820313,70.390625 L270.0820313,74.765625 L267.8789063,74.765625 L267.8789063,70.390625 L264.4960938,70.390625 C264.3346252,72.6875 263.8945313,74.2916641 263.1757813,75.203125 C262.5090942,74.7239609 261.8372192,74.2864609 261.1601563,73.890625 C262.0039063,72.7447891 262.4101563,70.7083359 262.3789063,67.78125 L262.3789063,60.421875 L275.5195313,60.421875 Z M264.5664063,64.421875 L267.8789063,64.421875 L267.8789063,62.484375 L264.5664063,62.484375 Z M273.3320313,62.484375 L270.0820313,62.484375 L270.0820313,64.421875 L273.3320313,64.421875 Z M264.5664063,68.375 L267.8789063,68.375 L267.8789063,66.4375 L264.5664063,66.4375 Z M270.0820313,68.375 L273.3320313,68.375 L273.3320313,66.4375 L270.0820313,66.4375 Z" style="fill:rgb(102,102,102);stroke:none" clip-path="url(#clip20)" />
<clipPath id="clip21"><path d="M351,77 L492,77 L492,325 L351,325 L351,77 Z" /></clipPath>
<path d="M357,337 L453.3333435,337 L453.3333435,337 L453.3333435,83" style="fill:none;stroke:rgb(127,127,127);stroke-width:5" clip-path="url(#clip21)" />
<clipPath id="clip22"><path d="M351,323 L415,323 L415,350 L351,350 L351,323 Z" /></clipPath>
<path d="M357,337 L453.3333435,337 L453.3333435,337 L453.3333435,83" style="fill:none;stroke:rgb(127,127,127);stroke-width:5" clip-path="url(#clip22)" />
<clipPath id="clip23"><path d="M413,323 L492,323 L492,350 L413,350 L413,323 Z" /></clipPath>
<path d="M357,337 L453.3333435,337 L453.3333435,337 L453.3333435,83" style="fill:none;stroke:rgb(127,127,127);opacity:0.09803921568627451;stroke-width:5" clip-path="url(#clip23)" />
<clipPath id="clip24"><path d="M351,77 L492,77 L492,350 L351,350 L351,77 Z" /></clipPath>
<path d="M460.3333435,95.1243591 L453.3333435,83 L446.3333435,95.1243591 Z" style="fill:rgb(127,127,127);stroke:none" clip-path="url(#clip24)" />
<clipPath id="clip25"><path d="M351,77 L492,77 L492,350 L351,350 L351,77 Z" /></clipPath>
<path d="M460.3333435,95.1243591 L453.3333435,83 L446.3333435,95.1243591 Z" style="fill:none;stroke:rgb(127,127,127);stroke-width:5" clip-path="url(#clip25)" />
<clipPath id="clip26"><path d="M413,323 L492,323 L492,350 L413,350 L413,323 Z" /></clipPath>
<path d="M424.4062805,328.7109375 L426.4531555,329.1171875 C426.307312,329.8359375 426.151062,330.518219 425.9844055,331.1640625 L431.3437805,331.1640625 L431.3437805,333.2421875 L430.273468,333.2421875 C429.9869995,335.8828125 429.273468,338.0442505 428.132843,339.7265625 C429.070343,340.7005005 430.2031555,341.5130005 431.5312805,342.1640625 L430.1562805,344.1796875 C428.8125,343.377594 427.666687,342.460907 426.7187805,341.4296875 C425.6719055,342.492157 424.447937,343.4140625 423.0469055,344.1953125 C422.776062,343.7161255 422.3489685,343.0442505 421.7656555,342.1796875 C423.166687,341.486969 424.3619995,340.645813 425.351593,339.65625 C424.716156,338.6666565 424.226593,337.5911255 423.882843,336.4296875 C423.716156,336.690094 423.5469055,336.9348755 423.3750305,337.1640625 C422.994812,336.5703125 422.651062,336.0755005 422.3437805,335.6796875 L422.3437805,336.8828125 L418.7812805,336.8828125 L418.7812805,340.8515625 C419.7083435,340.3515625 420.8125305,339.783844 422.0937805,339.1484375 C422.125,339.6067505 422.213562,340.315094 422.3594055,341.2734375 C419.713562,342.596344 418.0833435,343.549469 417.4687805,344.1328125 L416.3125305,342.6015625 C416.5937805,342.2578125 416.729187,341.8203125 416.7187805,341.2890625 L416.7187805,334.8828125 L420.2812805,334.8828125 L420.2812805,331.8515625 L416.3437805,331.8515625 L416.3437805,329.8515625 L422.3437805,329.8515625 L422.3437805,334.8359375 C423.3177185,333.1640625 424.0052185,331.1223755 424.4062805,328.7109375 Z M426.726593,337.9140625 C427.419281,336.705719 427.916687,335.1484375 428.2187805,333.2421875 L425.3594055,333.2421875 C425.2864685,333.4505005 425.210968,333.6536255 425.132843,333.8515625 C425.4557495,335.377594 425.9869995,336.7317505 426.726593,337.9140625 Z M432.773468,330.5390625 L439.0312805,330.5390625 L438.507843,329.2578125 L440.757843,328.6953125 L441.5469055,330.5390625 L447.632843,330.5390625 L447.632843,332.3828125 L443.070343,332.3828125 L443.070343,335.9921875 L441.070343,335.9921875 L441.070343,332.3828125 L439.320343,332.3828125 L439.320343,335.9921875 L437.320343,335.9921875 L437.320343,332.3828125 L432.773468,332.3828125 Z M435.914093,332.6328125 L437.242218,334.0078125 C436.106781,334.9140625 434.8828125,335.783844 433.570343,336.6171875 C433.195343,336.0234375 432.809906,335.486969 432.414093,335.0078125 C433.6744995,334.268219 434.841156,333.4765625 435.914093,332.6328125 Z M444.398468,332.7578125 C445.492218,333.424469 446.679718,334.2161255 447.960968,335.1328125 L446.617218,336.6796875 C445.5338745,335.8359375 444.3984375,334.986969 443.210968,334.1328125 Z M445.445343,336.3984375 L445.445343,338.1640625 C444.6901245,339.252594 443.7265625,340.205719 442.554718,341.0234375 C444.0859375,341.4817505 445.872406,341.7630005 447.914093,341.8671875 C447.757843,342.148407 447.372406,342.9036255 446.757843,344.1328125 C444.210968,343.8671875 442.023468,343.2786255 440.195343,342.3671875 C438.341156,343.2317505 436.1276245,343.8723755 433.554718,344.2890625 C433.2526245,343.643219 432.8776245,342.960907 432.429718,342.2421875 C434.5390625,341.9921875 436.4088745,341.583313 438.039093,341.015625 C437.044281,340.234375 436.2057495,339.3098755 435.523468,338.2421875 L434.445343,338.2421875 L434.445343,336.3984375 Z M440.226593,340.09375 C441.263031,339.5625 442.169281,338.9453125 442.945343,338.2421875 L437.789093,338.2421875 C438.445343,338.9661255 439.257843,339.583313 440.226593,340.09375 Z M456.4219055,329.9765625 L450.539093,344.0859375 L448.2812805,344.0859375 L454.1406555,329.9765625 Z M458.210968,332.1171875 L463.429718,332.1171875 L463.429718,331.1796875 L457.007843,331.1796875 L457.007843,329.4140625 L471.914093,329.4140625 L471.914093,331.1796875 L465.585968,331.1796875 L465.585968,332.1171875 L470.804718,332.1171875 L470.804718,339.8984375 L468.710968,339.8984375 L468.710968,339.0234375 L465.554718,339.0234375 C465.481781,339.861969 465.2864685,340.567688 464.9687805,341.140625 C466.8281555,341.5729065 469.231781,341.815094 472.179718,341.8671875 L470.976593,344.0078125 C467.591156,343.8567505 465.0156555,343.4322815 463.2500305,342.734375 C462.135437,343.3280945 460.4453125,343.830719 458.179718,344.2421875 C457.825531,343.690094 457.3307495,343.002594 456.695343,342.1796875 C458.5859375,342.002594 460.026062,341.768219 461.0156555,341.4765625 C460.2708435,340.9609375 459.617218,340.408844 459.054718,339.8203125 L460.2031555,339.0234375 L458.210968,339.0234375 Z M468.710968,333.7890625 L465.585968,333.7890625 L465.585968,334.8046875 L468.710968,334.8046875 Z M460.304718,334.8046875 L463.429718,334.8046875 L463.429718,333.7890625 L460.304718,333.7890625 Z M460.304718,337.3515625 L463.429718,337.3515625 L463.429718,336.3359375 L460.304718,336.3359375 Z M468.710968,337.3515625 L468.710968,336.3359375 L465.585968,336.3359375 L465.585968,337.3515625 Z M463.3750305,339.0234375 L460.6719055,339.0234375 C461.2708435,339.580719 461.9895935,340.049469 462.8281555,340.4296875 C463.1094055,340.0703125 463.291687,339.6015625 463.3750305,339.0234375 Z M481.1875305,331.8828125 L479.0469055,331.8828125 C479.3333435,332.0130005 479.890625,332.2578125 480.7187805,332.6171875 C480.546875,332.8828125 480.28125,333.283844 479.9219055,333.8203125 L481.5312805,333.8203125 L481.5312805,335.5703125 L478.5000305,335.5703125 L478.5000305,336.5859375 L481.2500305,336.5859375 L481.2500305,338.3359375 L478.5000305,338.3359375 L478.5000305,342.1015625 C478.5000305,342.5859375 478.3971558,342.96875 478.1914368,343.25 C477.9856873,343.5312195 477.6992493,343.7096252 477.3320618,343.7851563 C476.9648743,343.8606567 476.2864685,343.8984375 475.2969055,343.8984375 C475.2500305,343.2786255 475.1458435,342.692688 474.9844055,342.140625 L474.6562805,342.8359375 C474.2500305,342.5859375 473.6927185,342.3255005 472.9844055,342.0546875 C473.5052185,341.0755005 473.9583435,339.9296875 474.3437805,338.6171875 L476.0937805,339.1484375 C475.8125305,340.0911255 475.479187,341.002594 475.0937805,341.8828125 C475.3489685,341.9036255 475.604187,341.9140625 475.8594055,341.9140625 C476.2552185,341.9140625 476.4583435,341.6796875 476.4687805,341.2109375 L476.4687805,338.3359375 L473.5312805,338.3359375 L473.5312805,336.5859375 L476.4687805,336.5859375 L476.4687805,335.5703125 L473.2812805,335.5703125 L473.2812805,333.8203125 L474.960968,333.8203125 C474.742218,333.393219 474.5156555,332.986969 474.2812805,332.6015625 L475.9844055,331.9140625 C476.401062,332.6067505 476.7500305,333.2421875 477.0312805,333.8203125 L477.7187805,333.8203125 C478.2344055,332.9505005 478.588562,332.3046875 478.7812805,331.8828125 L473.5625305,331.8828125 L473.5625305,330.1328125 L476.3437805,330.1328125 C476.2031555,329.752594 476.0677185,329.408844 475.9375305,329.1015625 L478.0937805,328.7109375 C478.244812,329.1171875 478.401062,329.5911255 478.5625305,330.1328125 L481.1875305,330.1328125 Z M488.6875305,335.8671875 L487.5000305,335.8671875 L487.5000305,343.9921875 L485.4375305,343.9921875 L485.4375305,335.8671875 L484.0625305,335.8671875 L484.0625305,336.7578125 C484.0625305,340.0546875 483.3489685,342.5703125 481.9219055,344.3046875 C481.213562,343.690094 480.557312,343.1692505 479.9531555,342.7421875 C480.5469055,342.2161255 481.010437,341.5625 481.3437805,340.78125 L479.7500305,341.6796875 C479.385437,340.8567505 478.9895935,340.0859375 478.5625305,339.3671875 L480.0625305,338.6171875 C480.432312,339.1171875 480.8619995,339.833313 481.351593,340.765625 C481.7838745,339.75 482.0000305,338.518219 482.0000305,337.0703125 L482.0000305,330.0390625 C484.3750305,329.799469 486.307312,329.4192505 487.7969055,328.8984375 L488.6875305,330.9453125 C487.28125,331.3203125 485.7395935,331.5859375 484.0625305,331.7421875 L484.0625305,333.8203125 L488.6875305,333.8203125 Z" style="fill:rgb(102,102,102);stroke:none" clip-path="url(#clip26)" />
</svg>
