<?xml version="1.0" encoding="UTF-8"?>
<!DOCTYPE svg PUBLIC "-//W3C//DTD SVG 1.1//EN" "http://www.w3.org/Graphics/SVG/1.1/DTD/svg11.dtd">
<svg version="1.2" xmlns="http://www.w3.org/2000/svg" xmlns:xlink="http://www.w3.org/1999/xlink" x="0" y="0" width="770" height="347" viewBox="0 0 770 347">
<style type="text/css"><![CDATA[
text { font:12px Dialog; }
]]></style>
<rect x="-1319" y="-1067" width="3486" height="2634" style="fill:rgb(255,255,255);stroke:none" />
<clipPath id="clip1"><path d="M264,14 L431,14 L431,181 L264,181 L264,14 Z" /></clipPath>
<path d="M426,96.9999924 C426,53.3694878 390.6304932,17.9999847 346.9999695,18 C303.3694458,18.0000076 267.9999695,53.3695374 268,97.0000229 C268,140.6305237 303.3695374,176.0000153 347.0000916,175.9999847 C390.6305847,175.9999237 426.0000305,140.6303864 426,96.9999008 Z" style="fill:rgb(255,255,255);stroke:none" clip-path="url(#clip1)" />
<clipPath id="clip2"><path d="M264,14 L431,14 L431,181 L264,181 L264,14 Z" /></clipPath>
<path d="M426,96.9999924 C426,53.3694878 390.6304932,17.9999847 346.9999695,18 C303.3694458,18.0000076 267.9999695,53.3695374 268,97.0000229 C268,140.6305237 303.3695374,176.0000153 347.0000916,175.9999847 C390.6305847,175.9999237 426.0000305,140.6303864 426,96.9999008 Z" style="fill:none;stroke:rgb(127,127,127);stroke-width:5" clip-path="url(#clip2)" />
<clipPath id="clip3"><path d="M293,68 L402,68 L402,127 L293,127 L293,68 Z" /></clipPath>
<path d="M314.8771973,85.4919434 L306.6843262,85.4919434 L306.6843262,91.2751465 L304.7976074,91.2751465 L304.7976074,85.4919434 L296.5227051,85.4919434 L296.5227051,83.8410645 L304.7976074,83.8410645 L304.7976074,82.3439941 L299.9475098,82.3439941 L299.9475098,76.2531738 L296.861084,76.2531738 L296.861084,74.6433105 L299.9475098,74.6433105 L299.9475098,72.8591309 L301.8547363,72.8591309 L301.8547363,74.6433105 L309.5656738,74.6433105 L309.5656738,72.8591309 L311.4729004,72.8591309 L311.4729004,74.6433105 L314.5900879,74.6433105 L314.5900879,76.2531738 L311.4729004,76.2531738 L311.4729004,82.3439941 L306.6843262,82.3439941 L306.6843262,83.8410645 L314.8771973,83.8410645 Z M309.5656738,77.6682129 L309.5656738,76.2531738 L301.8547363,76.2531738 L301.8547363,77.6682129 Z M309.5656738,80.7033691 L309.5656738,79.2370605 L301.8547363,79.2370605 L301.8547363,80.7033691 Z M315.010498,89.3986816 L313.9338379,90.8342285 C312.1975098,89.6311035 310.1398926,88.5305176 307.7609863,87.5324707 L309.0222168,86.1071777 C311.3601074,87.0983887 313.3562012,88.1955566 315.010498,89.3986816 Z M303.7106934,87.3068848 C301.9812012,88.6535645 299.8723145,89.8054199 297.3840332,90.7624512 L296.3381348,89.1525879 C298.498291,88.4006348 300.4567871,87.3991699 302.213623,86.1481934 Z M336.677002,80.7341309 L335.6618652,82.3234863 C332.1687012,80.5393066 329.4104004,78.2150879 327.3869629,75.3508301 C325.2746582,77.989502 322.454834,80.2932129 318.9274902,82.2619629 L317.9226074,80.6418457 C322.0310059,78.4611816 325.0456543,75.802002 326.9665527,72.6643066 L328.7097168,73.3205566 C328.6618652,73.4436035 328.579834,73.604248 328.463623,73.8024902 C330.4187012,76.5983887 333.1564941,78.9089355 336.677002,80.7341309 Z M328.3098145,91.2033691 L326.3615723,91.2033691 L326.3615723,78.4577637 L328.3098145,78.4577637 Z M350.232666,90.1164551 L347.833252,90.1164551 L347.833252,88.3220215 L347.7819824,88.3220215 C346.9616699,89.6960449 345.7106934,90.3830566 344.0290527,90.3830566 C342.5935059,90.3830566 341.4501953,89.8720703 340.5991211,88.8500977 C339.7480469,87.828125 339.3225098,86.4489746 339.3225098,84.7126465 C339.3225098,82.8327637 339.8010254,81.3288574 340.7580566,80.2009277 C341.7150879,79.072998 342.9626465,78.5090332 344.5007324,78.5090332 C346.0388184,78.5090332 347.1325684,79.0900879 347.7819824,80.2521973 L347.833252,80.2521973 L347.833252,73.3308105 L350.232666,73.3308105 Z M347.8537598,83.4719238 C347.8537598,82.6105957 347.5751953,81.8894043 347.0180664,81.3083496 C346.4609375,80.7272949 345.7722168,80.4367676 344.9519043,80.4367676 C343.9812012,80.4367676 343.2087402,80.8093262 342.6345215,81.5544434 C342.0603027,82.2995605 341.7731934,83.3181152 341.7731934,84.6101074 C341.7731934,85.7995605 342.0432129,86.737793 342.583252,87.4248047 C343.123291,88.1118164 343.8581543,88.4553223 344.7878418,88.4553223 C345.6901855,88.4553223 346.4267578,88.1152344 346.9975586,87.4350586 C347.5683594,86.7548828 347.8537598,85.8952637 347.8537598,84.8562012 Z M363.5422363,85.092041 L355.7492676,85.092041 C355.8518066,87.3820801 357.017334,88.5270996 359.2458496,88.5270996 C360.5036621,88.5270996 361.6486816,88.151123 362.6809082,87.3991699 L362.6809082,89.3884277 C361.6691895,90.0515137 360.3395996,90.3830566 358.6921387,90.3830566 C357.010498,90.3830566 355.6945801,89.8703613 354.7443848,88.8449707 C353.7941895,87.8195801 353.3190918,86.3840332 353.3190918,84.5383301 C353.3190918,82.7883301 353.8300781,81.3459473 354.8520508,80.2111816 C355.8740234,79.076416 357.1540527,78.5090332 358.6921387,78.5090332 C360.2233887,78.5090332 361.4145508,78.9926758 362.265625,79.9599609 C363.1166992,80.9272461 363.5422363,82.2585449 363.5422363,83.9538574 Z M361.2043457,83.338623 C361.1975098,82.3679199 360.9753418,81.6228027 360.5378418,81.1032715 C360.1003418,80.5837402 359.4782715,80.3239746 358.6716309,80.3239746 C357.9401855,80.3239746 357.3044434,80.5991211 356.7644043,81.1494141 C356.2243652,81.699707 355.8894043,82.4294434 355.7595215,83.338623 Z M368.822998,88.588623 L368.822998,95.3356934 L366.4133301,95.3356934 L366.4133301,78.7756348 L368.822998,78.7756348 L368.822998,80.6623535 L368.8742676,80.6623535 C369.7492676,79.2268066 371.020752,78.5090332 372.6887207,78.5090332 C374.1311035,78.5090332 375.2658691,79.0131836 376.0930176,80.0214844 C376.920166,81.0297852 377.3337402,82.3952637 377.3337402,84.1179199 C377.3337402,86.0114746 376.8654785,87.5290527 375.9289551,88.6706543 C374.9924316,89.8122559 373.7380371,90.3830566 372.1657715,90.3830566 C370.7302246,90.3830566 369.6330566,89.7849121 368.8742676,88.588623 Z M368.8024902,85.3381348 C368.8024902,86.2199707 369.0759277,86.9599609 369.6228027,87.5581055 C370.1696777,88.15625 370.8601074,88.4553223 371.6940918,88.4553223 C372.6989746,88.4553223 373.4782715,88.0708008 374.0319824,87.3017578 C374.5856934,86.5327148 374.8625488,85.4680176 374.8625488,84.107666 C374.8625488,82.9387207 374.6062012,82.034668 374.0935059,81.3955078 C373.5808105,80.7563477 372.8630371,80.4367676 371.9401855,80.4367676 C371.017334,80.4367676 370.2636719,80.7717285 369.6791992,81.4416504 C369.0947266,82.1115723 368.8024902,82.9592285 368.8024902,83.9846191 Z M398.2004395,77.9348145 L391.7302246,77.9348145 C391.135498,79.4250488 390.482666,80.7272949 389.7717285,81.8415527 L389.7717285,88.8347168 C390.9064941,88.4929199 392.0891113,88.052002 393.3195801,87.5119629 L393.432373,89.3986816 C391.5114746,90.2258301 389.7033691,90.8513184 388.0080566,91.2751465 L387.4030762,89.5935059 C387.7380371,89.4020996 387.9055176,89.142334 387.9055176,88.814209 L387.9055176,84.4255371 C387.0168457,85.423584 386.2409668,86.192627 385.5778809,86.732666 L384.3371582,85.307373 C386.9074707,83.0241699 388.6848145,80.5666504 389.6691895,77.9348145 L385.3010254,77.9348145 L385.3010254,76.130127 L391.032959,76.130127 C390.6638184,75.1936035 390.1887207,74.263916 389.607666,73.3410645 L391.4123535,72.7053223 C392.130127,73.8811035 392.6633301,75.0227051 393.0119629,76.130127 L398.2004395,76.130127 Z M385.9060059,73.166748 C385.6462402,74.0144043 385.2668457,75.0158691 384.7678223,76.1711426 L384.0192871,77.7912598 L384.0192871,91.1828613 L382.173584,91.1828613 L382.173584,80.8161621 C381.5993652,81.486084 381.1584473,81.9885254 380.8508301,82.3234863 L379.989502,80.4777832 C381.739502,78.3723145 383.1101074,75.7883301 384.1013184,72.7258301 Z M398.6618652,90.013916 L397.2468262,91.2956543 C394.1159668,88.6091309 392.2634277,84.7229004 391.689209,79.6369629 L393.4938965,79.1345215 C393.6101074,80.4333496 393.8254395,81.6228027 394.1398926,82.7028809 C395.3156738,81.7663574 396.2419434,80.7922363 396.9187012,79.7805176 L398.3850098,81.0007324 C397.6057129,82.0876465 396.3649902,83.2702637 394.6628418,84.548584 C395.5925293,86.8044434 396.9255371,88.6262207 398.6618652,90.013916 Z" style="fill:rgb(117,117,117);stroke:none" clip-path="url(#clip3)" />
<clipPath id="clip4"><path d="M293,68 L402,68 L402,127 L293,127 L293,68 Z" /></clipPath>
<path d="M345.1723633,115.6604004 L343.4907227,115.6604004 L343.4907227,108.9440918 L338.8046875,108.9440918 L338.8046875,115.6604004 L337.1230469,115.6604004 L337.1230469,108.1853027 C337.0546875,108.2536621 336.9350586,108.3527832 336.7641602,108.482666 L336.1591797,106.6164551 C337.2666016,105.5432129 338.4082031,103.8752441 339.5839844,101.6125488 L341.2451172,102.0944824 C341.1494141,102.3884277 340.9443359,102.7814941 340.6298828,103.2736816 L344.0751953,103.2736816 L344.0751953,104.9963379 C343.8222656,105.4543457 343.3540039,106.2028809 342.6704102,107.2419434 L345.1723633,107.2419434 Z M341.9936523,105.0373535 L339.6044922,105.0373535 C339.1123047,105.8303223 338.5791016,106.5651855 338.0048828,107.2419434 L340.4042969,107.2419434 C341.046875,106.4763184 341.5766602,105.7414551 341.9936523,105.0373535 Z M336.4155273,105.5192871 L332.8676758,105.5192871 L332.8676758,106.739502 L335.9541016,106.739502 L335.9541016,112.532959 L332.8676758,112.532959 L332.8676758,113.3122559 C334.0639648,114.064209 335.2226563,114.8742676 336.34375,115.7424316 L335.5336914,117.3010254 C334.8911133,116.6994629 334.0024414,116.0056152 332.8676758,115.2194824 L332.8676758,120.1105957 L331.1655273,120.1105957 L331.1655273,114.9528809 C330.440918,116.3405762 329.5932617,117.6496582 328.6225586,118.880127 L327.3203125,117.7009277 C328.8242188,115.9645996 329.9008789,114.2419434 330.550293,112.532959 L328.0996094,112.532959 L328.0996094,106.739502 L331.1655273,106.739502 L331.1655273,105.5192871 L327.5253906,105.5192871 L327.5253906,103.8376465 L331.1655273,103.8376465 L331.1655273,101.7355957 L332.8676758,101.7355957 L332.8676758,103.8376465 L336.4155273,103.8376465 Z M334.2929688,110.8718262 L334.2929688,108.4006348 L332.8676758,108.4006348 L332.8676758,110.8718262 Z M331.1655273,110.8718262 L331.1655273,108.4006348 L329.7915039,108.4006348 L329.7915039,110.8718262 Z M341.9936523,109.7849121 C341.9936523,112.6149902 341.8449707,114.5 341.5476074,115.4399414 C341.2502441,116.3798828 340.6350098,117.2993164 339.7019043,118.1982422 C338.7687988,119.097168 337.4887695,119.7927246 335.8618164,120.2849121 L334.918457,118.767334 C336.4975586,118.3571777 337.7006836,117.7692871 338.527832,117.0036621 C339.3549805,116.2380371 339.8608398,115.3955078 340.0454102,114.4760742 C340.2299805,113.5566406 340.3051758,111.979248 340.2709961,109.7438965 Z M345.859375,119.1262207 L344.6186523,120.3874512 C343.7504883,119.3278809 342.6464844,118.2443848 341.3066406,117.1369629 L342.4550781,115.8962402 C343.7539063,116.9216309 344.8886719,117.998291 345.859375,119.1262207 Z M367.4438477,103.8991699 L362.7373047,103.8991699 C362.5048828,104.7810059 362.269043,105.5158691 362.0297852,106.1037598 L366.418457,106.1037598 L366.418457,115.4758301 L364.5932617,115.4758301 L364.5932617,107.8674316 L358.8100586,107.8674316 L358.8100586,115.4758301 L356.9643555,115.4758301 L356.9643555,106.1037598 L360.0917969,106.1037598 C360.3583984,105.5227051 360.5908203,104.7878418 360.7890625,103.8991699 L356.3388672,103.8991699 L356.3388672,102.1560059 L367.4438477,102.1560059 Z M356.3183594,114.5734863 C353.84375,115.8312988 351.5742188,116.8088379 349.5097656,117.5061035 L349.1098633,115.7219238 C349.9985352,115.482666 350.8598633,115.1750488 351.6938477,114.7990723 L351.6938477,105.0373535 L349.3251953,105.0373535 L349.3251953,103.2736816 L355.6416016,103.2736816 L355.6416016,105.0373535 L353.519043,105.0373535 L353.519043,113.9992676 C354.0454102,113.7736816 354.8520508,113.3908691 355.9389648,112.8508301 Z M362.5732422,112.3483887 C362.5732422,113.8317871 362.380127,115.0280762 361.9938965,115.9372559 C361.607666,116.8464355 360.8693848,117.6838379 359.7790527,118.4494629 C358.6887207,119.2150879 357.2822266,119.8063965 355.5595703,120.2233887 L354.6367188,118.6647949 C355.9628906,118.3435059 357.1352539,117.892334 358.1538086,117.3112793 C359.1723633,116.7302246 359.855957,116.1201172 360.2045898,115.480957 C360.5532227,114.8417969 360.7275391,113.9240723 360.7275391,112.7277832 L360.7275391,109.0056152 L362.5732422,109.0056152 Z M367.6796875,119.0236816 L366.3979492,120.2233887 C364.9760742,118.8425293 363.581543,117.7145996 362.2143555,116.8395996 L363.4345703,115.6193848 C364.9726563,116.5148926 366.3876953,117.6496582 367.6796875,119.0236816 Z" style="fill:rgb(117,117,117);stroke:none" clip-path="url(#clip4)" />
<clipPath id="clip5"><path d="M13,283 L275,283 L275,332 L13,332 L13,283 Z" /></clipPath>
<path d="M24,286 C19.5817261,286 16,289.5817261 16,294 L16,320 C16,324.4182739 19.5817261,328 24,328 L263,328 C267.4182739,328 271,324.4182739 271,320 L271,294 C271,289.5817261 267.4182739,286 263,286 Z" style="fill:none;stroke:rgb(158,158,158);stroke-width:4" clip-path="url(#clip5)" />
<clipPath id="clip6"><path d="M29,294 L259,294 L259,321 L29,321 L29,294 Z" /></clipPath>
<path d="M35.7351074,301.3283691 L34.4567871,302.1252441 C33.9753418,301.206604 33.2559204,300.2077637 32.298584,299.1286621 L33.5935059,298.3151855 C34.5674438,299.3721313 35.281311,300.3765259 35.7351074,301.3283691 Z M46.7834473,301.7185059 L41.670166,301.7185059 C40.6297913,303.0244751 39.7001038,304.0371704 38.8811035,304.7565918 C39.8218384,304.7123108 40.9313965,304.6210022 42.2097168,304.482666 C42.807373,303.7355957 43.3054199,303.0466309 43.7038574,302.4157715 L44.9489746,303.1794434 C43.0674438,306.1732483 40.5467834,308.4780884 37.3869629,310.0939941 L36.3991699,308.9069824 C38.2585449,307.9551392 39.7305298,306.9867249 40.8151855,306.001709 C39.3874512,306.1179199 38.1007996,306.1898499 36.9553223,306.2175293 L36.6730957,304.9641113 C37.6747131,304.1395569 38.6874084,303.0576782 39.7111816,301.7185059 L36.208252,301.7185059 L36.208252,300.307373 L40.5827637,300.307373 C40.416748,299.8425293 40.2009277,299.361084 39.9353027,298.8630371 L41.3796387,298.3981934 C41.7227173,299.0733032 42.010498,299.7097168 42.2429199,300.307373 L46.7834473,300.307373 Z M36.7893066,310.5588379 C35.7212524,311.4276428 34.7860413,312.1000061 33.9836426,312.5759277 L33.286377,311.3059082 C33.4136353,311.1620178 33.4772949,310.9960022 33.4772949,310.8078613 L33.4772949,304.3000488 L31.9250488,304.3000488 L31.9250488,302.888916 L35.0212402,302.888916 L35.0212402,310.0939941 C35.4694824,309.7730103 35.8485413,309.48526 36.1584473,309.2307129 Z M46.8000488,312.3601074 L45.8288574,313.5305176 C44.8936157,312.6616821 43.631897,311.7264709 42.0437012,310.7248535 C40.8262329,311.654541 39.1300964,312.5620728 36.9553223,313.4475098 L36.0754395,312.1525879 C38.3110962,311.3114319 40.0874634,310.3789673 41.404541,309.3552246 C42.7215881,308.3314514 44.0109863,306.8456116 45.2727051,304.8977051 L46.4929199,305.6779785 C45.4580688,307.3104553 44.3596191,308.6690063 43.1975098,309.7536621 C44.8853149,310.843811 46.0861816,311.7126465 46.8000488,312.3601074 Z M56.1965332,312.0695801 C55.5213928,312.4735413 54.6553345,312.6755371 53.5983887,312.6755371 C52.2591858,312.6755371 51.1745605,312.2521973 50.3444824,311.4055176 C49.5144043,310.5588379 49.0993652,309.4520569 49.0993652,308.0852051 C49.0993652,306.5523071 49.5448303,305.3320923 50.435791,304.4245605 C51.3267212,303.5169983 52.5137329,303.0632324 53.9968262,303.0632324 C54.9099121,303.0632324 55.6486816,303.2098694 56.2131348,303.5031738 L56.2131348,305.3293457 C55.5601196,304.8589478 54.8545532,304.6237793 54.0964355,304.6237793 C53.1999512,304.6237793 52.4736328,304.9239807 51.9174805,305.5244141 C51.3613281,306.1248169 51.083252,306.9313965 51.083252,307.9440918 C51.083252,308.9346313 51.3474731,309.7107544 51.8759766,310.2724609 C52.4044495,310.834137 53.1141663,311.1149902 54.005127,311.1149902 C54.7798462,311.1149902 55.5103149,310.8659668 56.1965332,310.3679199 Z M57.9562988,307.9523926 C57.9562988,306.4416504 58.3865356,305.2490845 59.2470703,304.3747559 C60.1075745,303.5003967 61.2793579,303.0632324 62.7624512,303.0632324 C64.1625061,303.0632324 65.2692566,303.4865723 66.0827637,304.333252 C66.8962402,305.1799316 67.3029785,306.3364868 67.3029785,307.8029785 C67.3029785,309.2805176 66.8740845,310.4619751 66.0163574,311.3474121 C65.1585999,312.2328186 64.013092,312.6755371 62.579834,312.6755371 C61.1742249,312.6755371 60.0522461,312.2466431 59.2138672,311.388916 C58.3754883,310.5311584 57.9562988,309.3856506 57.9562988,307.9523926 Z M59.9401855,307.9108887 C59.9401855,308.9180298 60.1850586,309.7038574 60.6748047,310.2683105 C61.1645508,310.8327637 61.8299866,311.1149902 62.6711426,311.1149902 C64.4364319,311.1149902 65.3190918,310.0275879 65.3190918,307.8527832 C65.3190918,306.8013306 65.0921936,306.0003052 64.6384277,305.449707 C64.1846313,304.8990784 63.5288696,304.6237793 62.6711426,304.6237793 C61.813385,304.6237793 61.1437988,304.9170532 60.6623535,305.5036621 C60.1809082,306.0902405 59.9401855,306.8926392 59.9401855,307.9108887 Z M83.373291,312.4597168 L81.4226074,312.4597168 L81.4226074,307.1970215 C81.4226074,306.2894592 81.2759399,305.6336975 80.982666,305.2297363 C80.6893616,304.8257446 80.2217407,304.6237793 79.579834,304.6237793 C79.0264282,304.6237793 78.5505371,304.8783264 78.1520996,305.3874512 C77.7536621,305.8965454 77.5544434,306.519104 77.5544434,307.255127 L77.5544434,312.4597168 L75.6120605,312.4597168 L75.6120605,307.064209 C75.61203,305.4372559 74.9894714,304.6237793 73.7443848,304.6237793 C73.1688538,304.6237793 72.6915588,304.8700256 72.3125,305.3625488 C71.9334106,305.8550415 71.7438965,306.4914551 71.7438965,307.2717285 L71.7438965,312.4597168 L69.7932129,312.4597168 L69.7932129,303.2790527 L71.7438965,303.2790527 L71.7438965,304.7233887 L71.7854004,304.7233887 C72.4439087,303.6166077 73.4067993,303.0632324 74.6740723,303.0632324 C75.9634399,303.0632324 76.835022,303.6747131 77.2888184,304.8977051 C77.9750061,303.6747131 78.9987793,303.0632324 80.3601074,303.0632324 C82.3688965,303.0632324 83.373291,304.3055725 83.373291,306.7902832 Z M88.3869629,311.2229004 L88.3869629,316.6848145 L86.4362793,316.6848145 L86.4362793,303.2790527 L88.3869629,303.2790527 L88.3869629,304.8063965 L88.4284668,304.8063965 C89.1367798,303.6442871 90.1660767,303.0632324 91.5163574,303.0632324 C92.6839905,303.0632324 93.6026154,303.471344 94.2722168,304.2875977 C94.941803,305.1038208 95.2766113,306.2092285 95.2766113,307.6037598 C95.2766113,309.1366272 94.8975372,310.3651428 94.1394043,311.2893066 C93.3812561,312.2134399 92.365799,312.6755371 91.0930176,312.6755371 C89.9309082,312.6755371 89.0427246,312.1913147 88.4284668,311.2229004 Z M88.3703613,308.5915527 C88.3703308,309.3054199 88.5917053,309.9044495 89.0344238,310.3886719 C89.4771118,310.8728638 90.0360413,311.1149902 90.7111816,311.1149902 C91.5246429,311.1149902 92.1555023,310.8037109 92.6037598,310.1811523 C93.0519867,309.5585938 93.2761078,308.6966858 93.276123,307.595459 C93.2761078,306.6491699 93.0685883,305.9172974 92.6535645,305.3999023 C92.2385101,304.8824768 91.6574554,304.6237793 90.9104004,304.6237793 C90.1633301,304.6237793 89.5532227,304.894928 89.0800781,305.4372559 C88.6069031,305.9795532 88.3703308,306.6657715 88.3703613,307.4958496 Z M105.6525879,312.4597168 L103.7102051,312.4597168 L103.7102051,311.0236816 L103.6687012,311.0236816 C103.0323029,312.1249084 102.0915527,312.6755371 100.8464355,312.6755371 C98.6826935,312.6755371 97.6008301,311.3778381 97.6008301,308.7824707 L97.6008301,303.2790527 L99.5432129,303.2790527 L99.5432129,308.541748 C99.5432129,310.2572327 100.2017365,311.1149902 101.5187988,311.1149902 C102.1607208,311.1149902 102.6864319,310.8797913 103.0959473,310.4094238 C103.5054474,309.9390259 103.7101898,309.3220215 103.7102051,308.5583496 L103.7102051,303.2790527 L105.6525879,303.2790527 Z M113.4387207,312.3601074 C113.07901,312.5648499 112.5615997,312.6672363 111.8864746,312.6672363 C110.1433105,312.6672363 109.2717285,311.7209473 109.2717285,309.8283691 L109.2717285,304.822998 L107.7194824,304.822998 L107.7194824,303.2790527 L109.2717285,303.2790527 L109.2717285,301.1291504 L111.2141113,300.5397949 L111.2141113,303.2790527 L113.4387207,303.2790527 L113.4387207,304.822998 L111.2141113,304.822998 L111.2141113,309.4880371 C111.2141113,310.0580139 111.315094,310.4702759 111.5170898,310.7248535 C111.7190704,310.9794006 112.0441895,311.1066895 112.4924316,311.1066895 C112.8410645,311.1066895 113.1564941,311.0070801 113.4387207,310.8078613 Z M123.1589355,308.392334 L116.8503418,308.392334 C116.9333496,310.2461548 117.8768616,311.1730957 119.6809082,311.1730957 C120.6991272,311.1730957 121.6260529,310.8687134 122.4616699,310.2600098 L122.4616699,311.8703613 C121.6426544,312.407135 120.5663147,312.6755371 119.232666,312.6755371 C117.8713379,312.6755371 116.8060608,312.260498 116.0368652,311.4304199 C115.2676544,310.6003418 114.8830566,309.4382324 114.8830566,307.9440918 C114.8830566,306.5274048 115.2967072,305.3597717 116.1240234,304.4411621 C116.9513245,303.522522 117.9875488,303.0632324 119.232666,303.0632324 C120.4722443,303.0632324 121.4365082,303.4547424 122.1254883,304.237793 C122.8144531,305.020813 123.1589355,306.0985413 123.1589355,307.4709473 Z M121.2663574,306.9729004 C121.2608185,306.1870728 121.0809631,305.5838928 120.7268066,305.1633301 C120.3726349,304.7427368 119.8690491,304.5324707 119.2160645,304.5324707 C118.6239319,304.5324707 118.1092834,304.755188 117.6721191,305.2006836 C117.2349396,305.6461487 116.9637756,306.2368774 116.8586426,306.9729004 Z M133.7258301,312.4597168 L131.7834473,312.4597168 L131.7834473,311.0070801 L131.7419434,311.0070801 C131.0778809,312.1193848 130.0651855,312.6755371 128.7038574,312.6755371 C127.541748,312.6755371 126.6162109,312.2618713 125.9272461,311.4345703 C125.2382813,310.6072388 124.8937988,309.4907837 124.8937988,308.0852051 C124.8937988,306.563385 125.2811584,305.3459473 126.0559082,304.4328613 C126.8306427,303.5197754 127.8405762,303.0632324 129.0856934,303.0632324 C130.3307953,303.0632324 131.216217,303.5335999 131.7419434,304.4743652 L131.7834473,304.4743652 L131.7834473,298.8713379 L133.7258301,298.8713379 Z M131.8000488,307.0808105 C131.8000336,306.3835449 131.5745392,305.7997131 131.1235352,305.3293457 C130.6725159,304.8589478 130.1149902,304.6237793 129.4509277,304.6237793 C128.6651154,304.6237793 128.0397949,304.925354 127.5749512,305.5285645 C127.1101074,306.1317444 126.8776855,306.9562988 126.8776855,308.0021973 C126.8776855,308.9650879 127.0962677,309.7246094 127.5334473,310.2807617 C127.9706116,310.8369141 128.565506,311.1149902 129.3181152,311.1149902 C130.048584,311.1149902 130.6448517,310.8396606 131.1069336,310.2890625 C131.5690002,309.7384338 131.8000336,309.0425415 131.8000488,308.201416 Z M150.7507324,301.9841309 L139.1213379,301.9841309 L139.1213379,305.2878418 C139.1213226,309.0121155 138.5568695,311.7043457 137.4279785,313.364502 L136.3405762,312.2355957 C137.2315216,310.769104 137.677002,308.1682129 137.677002,304.4328613 L137.677002,298.8464355 L150.7507324,298.8464355 Z M149.2897949,300.880127 L149.2897949,299.9504395 L139.1213379,299.9504395 L139.1213379,300.880127 Z M150.9084473,311.9367676 C150.9084473,312.3186035 150.8240509,312.6160278 150.6552734,312.8291016 C150.4864807,313.0421448 150.2858734,313.180481 150.0534668,313.2441406 C149.8210297,313.3077698 149.3838654,313.3395996 148.7419434,313.3395996 C148.3103027,313.3395996 147.875885,313.322998 147.4387207,313.2897949 L146.9821777,312.1027832 C147.4359436,312.1249084 148.1719513,312.1359863 149.1901855,312.1359863 C149.2676544,312.1359863 149.3465118,312.0986328 149.4267578,312.0239258 C149.5069885,311.9492188 149.5471191,311.8731079 149.5471191,311.7956543 L149.5471191,309.2805176 L146.2102051,309.2805176 L146.2102051,310.3679199 C146.4149475,310.3679199 146.6584473,310.3402405 146.9406738,310.2849121 C146.857666,310.1133423 146.7525177,309.972229 146.6252441,309.8615723 L147.8288574,309.4299316 C148.4541779,310.1936035 148.9190216,310.8687134 149.2233887,311.4553223 L148.0861816,311.9118652 C147.9754944,311.6794434 147.8343811,311.4359436 147.6628418,311.1813965 C145.9141388,311.4968262 144.1377716,311.7402954 142.3337402,311.9118652 L141.8937988,310.8078613 C143.1665802,310.7248535 144.1405334,310.6473694 144.8156738,310.5754395 L144.8156738,309.2805176 L141.4372559,309.2805176 L141.4372559,313.2565918 L140.0759277,313.2565918 L140.0759277,309.2805176 L139.3620605,309.2805176 L139.3620605,308.1765137 L140.0759277,308.1765137 L140.0759277,307.8195801 L141.4372559,307.8195801 L141.4372559,308.1765137 L144.8156738,308.1765137 L144.8156738,307.4626465 L140.6569824,307.4626465 L140.6569824,304.4494629 L144.8156738,304.4494629 L144.8156738,303.8435059 C144.0686035,303.8656311 143.3187561,303.876709 142.5661621,303.876709 C141.8080139,303.876709 141.0637207,303.8656311 140.333252,303.8435059 L139.8933105,302.7145996 C140.8395996,302.7478027 141.7554474,302.7644043 142.6408691,302.7644043 C145.374588,302.7644043 147.8924866,302.6066895 150.1945801,302.2912598 L150.7839355,303.3122559 C148.9964905,303.5446777 147.4719238,303.6913147 146.2102051,303.7521973 L146.2102051,304.4494629 L150.3439941,304.4494629 L150.3439941,307.4626465 L146.2102051,307.4626465 L146.2102051,308.1765137 L150.9084473,308.1765137 Z M148.9494629,306.458252 L148.9494629,305.4372559 L146.2102051,305.4372559 L146.2102051,306.458252 Z M144.8156738,306.458252 L144.8156738,305.4372559 L142.0349121,305.4372559 L142.0349121,306.458252 Z M159.3503418,303.4118652 L158.4538574,304.5905762 C158.2490997,304.2419434 158.0111389,303.8905334 157.7399902,303.536377 L157.7399902,313.364502 L156.270752,313.364502 L156.2209473,298.5061035 L156.2541504,298.489502 L157.7150879,298.5061035 L157.7150879,301.6437988 C158.2906036,302.1639709 158.8356934,302.7533264 159.3503418,303.4118652 Z M168.904541,313.0075684 L159.1677246,313.0075684 L159.1677246,311.5549316 L163.4841309,311.5549316 L163.4841309,307.9855957 L159.9645996,307.9855957 L159.9645996,306.5578613 L163.4841309,306.5578613 L163.4841309,303.4367676 L161.4255371,303.4367676 C160.966217,304.5601196 160.5345764,305.4151001 160.1306152,306.001709 L158.7692871,305.3210449 C159.748764,303.8213501 160.4820099,301.9121704 160.9689941,299.5935059 L162.4133301,299.8259277 C162.3303223,300.3516235 162.1643066,301.0654907 161.9152832,301.9675293 L163.4841309,301.9675293 L163.4841309,298.5227051 L164.994873,298.5227051 L164.994873,301.9675293 L168.4812012,301.9675293 L168.4812012,303.4118652 L164.994873,303.4118652 L164.994873,306.5578613 L168.107666,306.5578613 L168.107666,307.9855957 L164.994873,307.9855957 L164.994873,311.5549316 L168.904541,311.5549316 Z M155.7976074,302.3410645 C155.7090607,303.907135 155.5209045,305.3182678 155.2331543,306.5744629 L153.9797363,306.0183105 C154.2453613,304.7067871 154.4085999,303.3924866 154.4694824,302.0754395 Z M186.244873,301.0544434 C186.2337952,302.6813965 186.1756897,304.7911682 186.0705566,307.3837891 C185.9654083,309.9763794 185.8104553,311.505127 185.6057129,311.9699707 C185.4009552,312.4348145 185.0896759,312.7765198 184.671875,312.9951172 C184.2540588,313.2136841 183.2372131,313.3285217 181.6213379,313.3395996 L181.0568848,311.845459 L183.3312988,311.8288574 C183.5471191,311.8288574 183.7767639,311.7375488 184.0202637,311.5549316 C184.2637482,311.3723145 184.4463654,310.1410217 184.5681152,307.861084 C184.6898499,305.5811157 184.7479553,303.8047485 184.7424316,302.5319824 L181.3308105,302.5319824 C180.7995605,303.8822327 180.1991272,305.0332642 179.529541,305.9851074 L178.3674316,304.9475098 C179.5848694,302.9774475 180.442627,300.7777405 180.9406738,298.3483887 L182.4348145,298.6721191 C182.3241272,299.2476196 182.1249084,300.041748 181.8371582,301.0544434 Z M178.0270996,313.173584 L176.5661621,313.173584 L176.5661621,312.0529785 L173.494873,312.0529785 L173.494873,313.3395996 L171.9924316,313.3395996 L171.9924316,300.9714355 L173.5114746,300.9714355 C173.9375763,300.1856079 174.2696075,299.3223267 174.5075684,298.3815918 L176.076416,298.638916 C175.9934082,299.1756897 175.7277832,299.953186 175.279541,300.9714355 L178.0270996,300.9714355 Z M176.5661621,305.5949707 L176.5661621,302.4489746 L173.494873,302.4489746 L173.494873,305.5949707 Z M176.5661621,310.592041 L176.5661621,307.0227051 L173.494873,307.0227051 L173.494873,310.592041 Z M183.779541,308.6496582 L182.451416,309.5046387 C181.7209473,308.0437012 180.9378967,306.8234863 180.1022949,305.8439941 L181.4304199,305.013916 C182.5593262,306.4250488 183.3423615,307.6369629 183.779541,308.6496582 Z M201.501709,303.2790527 L198.7956543,312.4597168 L196.7619629,312.4597168 L195.052002,306.3088379 C194.9745178,306.0376587 194.9274902,305.7167053 194.9108887,305.3459473 L194.8693848,305.3459473 C194.8527832,305.5894165 194.7919006,305.9020996 194.6867676,306.2839355 L192.8439941,312.4597168 L190.8518066,312.4597168 L188.1374512,303.2790527 L190.154541,303.2790527 L191.8312988,309.8615723 C191.8977051,310.1327209 191.9419708,310.4315491 191.9641113,310.7580566 L192.0222168,310.7580566 C192.044342,310.4481506 192.0996857,310.1410217 192.1882324,309.8366699 L194.1223145,303.2790527 L195.9401855,303.2790527 L197.666748,309.8781738 C197.7054749,310.0275879 197.7497559,310.326416 197.7995605,310.7746582 L197.8659668,310.7746582 C197.8825684,310.4979553 197.932373,310.1991272 198.0153809,309.8781738 L199.6506348,303.2790527 Z M203.7180176,303.8933105 C204.6532288,303.3399048 205.7351074,303.0632324 206.963623,303.0632324 C209.2823029,303.0632324 210.4416504,304.2612915 210.4416504,306.6574707 L210.4416504,312.4597168 L208.5490723,312.4597168 L208.5490723,311.0651855 L208.5075684,311.0651855 C207.8822327,312.1387329 206.9525452,312.6755371 205.7185059,312.6755371 C204.8164825,312.6755371 204.1067657,312.4320374 203.5893555,311.9450684 C203.0719299,311.4580688 202.8132324,310.8023071 202.8132324,309.9777832 C202.8132324,308.2512207 203.8397522,307.2440491 205.8928223,306.9562988 L208.557373,306.5910645 C208.557373,305.2241821 207.9569397,304.5407715 206.7561035,304.5407715 C205.6548615,304.5407715 204.6421661,304.8977051 203.7180176,305.6115723 Z M206.5319824,308.1931152 C205.8679199,308.2816467 205.3989258,308.4504395 205.125,308.6994629 C204.8510742,308.9484863 204.7141113,309.3137207 204.7141113,309.795166 C204.7141113,310.1991272 204.8607483,310.5297852 205.1540527,310.7871094 C205.4473419,311.0444336 205.8236389,311.1730957 206.282959,311.1730957 C206.9359436,311.1730957 207.4782715,310.9420471 207.9099121,310.4799805 C208.3415527,310.0178833 208.557373,309.4354553 208.557373,308.732666 L208.557373,307.9191895 Z M218.0202637,312.3601074 C217.660553,312.5648499 217.1431427,312.6672363 216.4680176,312.6672363 C214.7248535,312.6672363 213.8532715,311.7209473 213.8532715,309.8283691 L213.8532715,304.822998 L212.3010254,304.822998 L212.3010254,303.2790527 L213.8532715,303.2790527 L213.8532715,301.1291504 L215.7956543,300.5397949 L215.7956543,303.2790527 L218.0202637,303.2790527 L218.0202637,304.822998 L215.7956543,304.822998 L215.7956543,309.4880371 C215.7956543,310.0580139 215.896637,310.4702759 216.0986328,310.7248535 C216.3006134,310.9794006 216.6257324,311.1066895 217.0739746,311.1066895 C217.4226074,311.1066895 217.7380371,311.0070801 218.0202637,310.8078613 Z M226.5617676,312.0695801 C225.8866272,312.4735413 225.0205841,312.6755371 223.963623,312.6755371 C222.6244202,312.6755371 221.5397949,312.2521973 220.7097168,311.4055176 C219.8796387,310.5588379 219.4645996,309.4520569 219.4645996,308.0852051 C219.4645996,306.5523071 219.9100647,305.3320923 220.8010254,304.4245605 C221.6919708,303.5169983 222.8789825,303.0632324 224.3620605,303.0632324 C225.2751465,303.0632324 226.013916,303.2098694 226.5783691,303.5031738 L226.5783691,305.3293457 C225.9253693,304.8589478 225.2198029,304.6237793 224.4616699,304.6237793 C223.5651855,304.6237793 222.8388672,304.9239807 222.2827148,305.5244141 C221.7265625,306.1248169 221.4484863,306.9313965 221.4484863,307.9440918 C221.4484863,308.9346313 221.7127228,309.7107544 222.2412109,310.2724609 C222.7696838,310.834137 223.4794006,311.1149902 224.3703613,311.1149902 C225.1450958,311.1149902 225.8755646,310.8659668 226.5617676,310.3679199 Z M236.9543457,312.4597168 L235.0036621,312.4597168 L235.0036621,307.1970215 C235.0036621,305.4815063 234.3700256,304.6237793 233.1027832,304.6237793 C232.4608459,304.6237793 231.9268341,304.8700256 231.5007324,305.3625488 C231.0746155,305.8550415 230.8615723,306.4831543 230.8615723,307.2468262 L230.8615723,312.4597168 L228.9108887,312.4597168 L228.9108887,298.8713379 L230.8615723,298.8713379 L230.8615723,304.748291 L230.9030762,304.748291 C231.6003418,303.6249084 232.5825958,303.0632324 233.8498535,303.0632324 C235.9195099,303.0632324 236.9543457,304.3138733 236.9543457,306.8151855 Z M247.5378418,308.392334 L241.229248,308.392334 C241.3122559,310.2461548 242.2557678,311.1730957 244.0598145,311.1730957 C245.0780334,311.1730957 246.0049591,310.8687134 246.8405762,310.2600098 L246.8405762,311.8703613 C246.0215607,312.407135 244.9452209,312.6755371 243.6115723,312.6755371 C242.2502441,312.6755371 241.184967,312.260498 240.4157715,311.4304199 C239.6465607,310.6003418 239.2619629,309.4382324 239.2619629,307.9440918 C239.2619629,306.5274048 239.6756134,305.3597717 240.5029297,304.4411621 C241.3302307,303.522522 242.3664551,303.0632324 243.6115723,303.0632324 C244.8511505,303.0632324 245.8154297,303.4547424 246.5043945,304.237793 C247.1933594,305.020813 247.5378418,306.0985413 247.5378418,307.4709473 Z M245.6452637,306.9729004 C245.6397247,306.1870728 245.4598694,305.5838928 245.1057129,305.1633301 C244.7515411,304.7427368 244.2479553,304.5324707 243.5949707,304.5324707 C243.0028381,304.5324707 242.4881897,304.755188 242.0510254,305.2006836 C241.6138458,305.6461487 241.3426819,306.2368774 241.2375488,306.9729004 Z M255.0749512,305.1384277 C254.7871857,304.9502563 254.4053497,304.8562012 253.9294434,304.8562012 C253.298584,304.8562012 252.7880859,305.1328735 252.3979492,305.6862793 C252.0078125,306.2396545 251.8127441,306.9729004 251.8127441,307.8859863 L251.8127441,312.4597168 L249.8620605,312.4597168 L249.8620605,303.2790527 L251.8127441,303.2790527 L251.8127441,305.1052246 L251.854248,305.1052246 C252.3080139,303.7826233 253.1104279,303.1213379 254.2614746,303.1213379 C254.6045685,303.1213379 254.8757324,303.1600647 255.0749512,303.2375488 Z" style="fill:rgb(3,3,3);stroke:none" clip-path="url(#clip6)" />
<clipPath id="clip7"><path d="M409,284 L758,284 L758,333 L409,333 L409,284 Z" /></clipPath>
<path d="M420,287 C415.5817261,287 412,290.5817261 412,295 L412,321 C412,325.4182739 415.5817261,329 420,329 L746,329 C750.4182739,329 754,325.4182739 754,321 L754,295 C754,290.5817261 750.4182739,287 746,287 Z" style="fill:none;stroke:rgb(158,158,158);stroke-width:4" clip-path="url(#clip7)" />
<clipPath id="clip8"><path d="M425,295 L742,295 L742,322 L425,322 L425,295 Z" /></clipPath>
<path d="M442.6089172,309.7160645 L435.976593,309.7160645 L435.976593,314.3977051 L434.4492493,314.3977051 L434.4492493,309.7160645 L427.7505188,309.7160645 L427.7505188,308.3796387 L434.4492493,308.3796387 L434.4492493,307.1677246 L430.5229797,307.1677246 L430.5229797,302.2370605 L428.0244446,302.2370605 L428.0244446,300.9338379 L430.5229797,300.9338379 L430.5229797,299.489502 L432.066925,299.489502 L432.066925,300.9338379 L438.3091125,300.9338379 L438.3091125,299.489502 L439.8530579,299.489502 L439.8530579,300.9338379 L442.3764954,300.9338379 L442.3764954,302.2370605 L439.8530579,302.2370605 L439.8530579,307.1677246 L435.976593,307.1677246 L435.976593,308.3796387 L442.6089172,308.3796387 Z M438.3091125,303.3825684 L438.3091125,302.2370605 L432.066925,302.2370605 L432.066925,303.3825684 Z M438.3091125,305.8395996 L438.3091125,304.6525879 L432.066925,304.6525879 L432.066925,305.8395996 Z M442.7168274,312.8786621 L441.8452454,314.0407715 C440.4396362,313.066803 438.7739563,312.1758423 436.848175,311.3679199 L437.8691711,310.2141113 C439.7617493,311.01651 441.3776245,311.9046936 442.7168274,312.8786621 Z M433.5693665,311.1853027 C432.1693115,312.2754517 430.4620972,313.2079163 428.4477844,313.982666 L427.6011047,312.6794434 C429.3497925,312.0707092 430.9352417,311.2600098 432.3574524,310.2473145 Z M460.2563782,305.864502 L459.4346008,307.151123 C456.6068115,305.7067871 454.3739014,303.8252563 452.7358704,301.5065918 C451.0259094,303.6426392 448.7431946,305.5075684 445.8877258,307.1013184 L445.0742493,305.7897949 C448.4000854,304.0244751 450.8405151,301.8718262 452.3955383,299.3317871 L453.8066711,299.8630371 C453.7679443,299.9626465 453.7015381,300.0926819 453.6074524,300.2531738 C455.1901245,302.51651 457.4064331,304.3869629 460.2563782,305.864502 Z M453.4829407,314.3395996 L451.9057922,314.3395996 L451.9057922,304.0217285 L453.4829407,304.0217285 Z M477.3891907,303.5983887 L472.1513977,303.5983887 C471.6699524,304.8047485 471.1414795,305.8589478 470.5659485,306.7609863 L470.5659485,312.4221191 C471.4845581,312.1454163 472.441925,311.7884827 473.4380188,311.3513184 L473.5293274,312.8786621 C471.9743042,313.5482483 470.5106201,314.0545959 469.1382141,314.3977051 L468.648468,313.036377 C468.9196167,312.8814087 469.0552063,312.6711426 469.0552063,312.4055176 L469.0552063,308.8527832 C468.3358154,309.6607056 467.7077026,310.2832642 467.170929,310.720459 L466.1665344,309.5666504 C468.2472534,307.7183228 469.6860657,305.7289124 470.4829407,303.5983887 L466.9468079,303.5983887 L466.9468079,302.1374512 L471.5869446,302.1374512 C471.2881165,301.379303 470.9035034,300.626709 470.433136,299.8796387 L471.8940735,299.3649902 C472.4751282,300.316803 472.9067688,301.2409668 473.1889954,302.1374512 L477.3891907,302.1374512 Z M467.436554,299.7385254 C467.2262573,300.4247131 466.9191284,301.2354126 466.5151672,302.1706543 L465.9092102,303.4821777 L465.9092102,314.322998 L464.4150696,314.322998 L464.4150696,305.9309082 C463.9502258,306.4732056 463.5932922,306.8799438 463.3442688,307.151123 L462.6470032,305.6569824 C464.0636597,303.9525452 465.1732178,301.8607483 465.9756165,299.3815918 Z M477.7627258,313.376709 L476.617218,314.4143066 C474.0827026,312.239502 472.5830383,309.0935059 472.1181946,304.9763184 L473.5791321,304.5695801 C473.6732178,305.6210022 473.8475342,306.5838928 474.1020813,307.458252 C475.053894,306.7001038 475.8037109,305.9115295 476.351593,305.0925293 L477.5386047,306.0803223 C476.9077454,306.9602051 475.9033508,307.9175415 474.5254211,308.9523926 C475.2780151,310.7785645 476.3571167,312.2533264 477.7627258,313.376709 Z M494.5718079,310.7038574 L493.2104797,310.7038574 L493.2104797,305.2668457 L489.4170227,305.2668457 L489.4170227,310.7038574 L488.0556946,310.7038574 L488.0556946,304.6525879 C488.0003662,304.7079163 487.9035034,304.788147 487.7651672,304.8933105 L487.2754211,303.3825684 C488.1719055,302.5137329 489.0960693,301.1634827 490.0478821,299.3317871 L491.3926086,299.7219238 C491.3151245,299.9598694 491.1491089,300.2780762 490.8945618,300.6765137 L493.6836243,300.6765137 L493.6836243,302.0710449 C493.4788818,302.441803 493.0997925,303.04776 492.5464172,303.888916 L494.5718079,303.888916 Z M491.9985657,302.104248 L490.0644836,302.104248 C489.6660461,302.7461548 489.2344055,303.3410645 488.7695618,303.888916 L490.7119446,303.888916 C491.2321167,303.269104 491.6610107,302.6742249 491.9985657,302.104248 Z M487.4829407,302.4943848 L484.6108704,302.4943848 L484.6108704,303.4821777 L487.1094055,303.4821777 L487.1094055,308.1721191 L484.6108704,308.1721191 L484.6108704,308.8029785 C485.5792847,309.4116821 486.5172729,310.0674438 487.4248352,310.7702637 L486.7690735,312.0319824 C486.2489014,311.5449829 485.52948,310.9833069 484.6108704,310.3469238 L484.6108704,314.3063965 L483.2329407,314.3063965 L483.2329407,310.1311035 C482.6463623,311.2544556 481.960144,312.314209 481.1743469,313.3103027 L480.1201477,312.3557129 C481.3375854,310.9501038 482.2091675,309.5555725 482.7348938,308.1721191 L480.7510071,308.1721191 L480.7510071,303.4821777 L483.2329407,303.4821777 L483.2329407,302.4943848 L480.2861633,302.4943848 L480.2861633,301.1330566 L483.2329407,301.1330566 L483.2329407,299.4313965 L484.6108704,299.4313965 L484.6108704,301.1330566 L487.4829407,301.1330566 Z M485.764679,306.8273926 L485.764679,304.8269043 L484.6108704,304.8269043 L484.6108704,306.8273926 Z M483.2329407,306.8273926 L483.2329407,304.8269043 L482.120636,304.8269043 L482.120636,306.8273926 Z M491.9985657,305.9475098 C491.9985657,308.2385254 491.8782043,309.7644653 491.6374817,310.5253906 C491.396759,311.2862854 490.8987122,312.0305786 490.1433411,312.7583008 C489.38797,313.4859924 488.3517456,314.0490723 487.0346985,314.4475098 L486.2710266,313.2189941 C487.5493469,312.8869629 488.5233154,312.4110413 489.1929016,311.7912598 C489.8624878,311.1714478 490.2720032,310.4894104 490.4214172,309.7451172 C490.5708313,309.0007935 490.6317139,307.723877 490.6040344,305.9143066 Z M495.1279602,313.5095215 L494.1235657,314.5305176 C493.4207764,313.67276 492.5270386,312.7956543 491.4424133,311.8991699 L492.3721008,310.8947754 C493.4235229,311.7248535 494.3421631,312.5964355 495.1279602,313.5095215 Z M512.5678711,306.5202637 L506.1098938,306.5202637 L506.1098938,312.845459 C506.1098938,313.2549438 505.9978333,313.5759277 505.7737122,313.8083496 C505.5495911,314.0407715 505.2383118,314.1887817 504.8398743,314.2524414 C504.4414063,314.3160706 503.7469482,314.3479004 502.7563782,314.3479004 C502.4354248,314.3479004 502.1310425,314.3395996 501.8432922,314.322998 L501.3120422,312.6960449 C501.7602844,312.7181702 502.6512451,312.729248 503.9848938,312.729248 C504.3778076,312.729248 504.5742493,312.5300293 504.5742493,312.1315918 L504.5742493,306.5202637 L497.7759094,306.5202637 L497.7759094,305.026123 L504.5742493,305.026123 L504.5742493,301.3405762 L498.7304993,301.3405762 L498.7304993,299.8962402 L511.5967102,299.8962402 L511.5967102,301.3405762 L506.1098938,301.3405762 L506.1098938,305.026123 L512.5678711,305.026123 Z M519.059082,302.3283691 L517.7807617,303.1252441 C517.2993164,302.206604 516.5799561,301.2077637 515.6225586,300.1286621 L516.9174805,299.3151855 C517.8914795,300.3721313 518.6053467,301.3765259 519.059082,302.3283691 Z M530.1074219,302.7185059 L524.9941406,302.7185059 C523.9537964,304.0244751 523.0241089,305.0371704 522.2050781,305.7565918 C523.145874,305.7123108 524.2553711,305.6210022 525.5336914,305.482666 C526.1313477,304.7355957 526.6293945,304.0466309 527.027832,303.4157715 L528.2729492,304.1794434 C526.3914795,307.1732483 523.8707886,309.4780884 520.7109375,311.0939941 L519.7231445,309.9069824 C521.5825195,308.9551392 523.0545654,307.9867249 524.1391602,307.001709 C522.7114258,307.1179199 521.4248047,307.1898499 520.2792969,307.2175293 L519.9970703,305.9641113 C520.9987183,305.1395569 522.0114136,304.0576782 523.0351563,302.7185059 L519.5322266,302.7185059 L519.5322266,301.307373 L523.9067383,301.307373 C523.7407227,300.8425293 523.5249023,300.361084 523.2592773,299.8630371 L524.7036133,299.3981934 C525.0467529,300.0733032 525.3344727,300.7097168 525.5668945,301.307373 L530.1074219,301.307373 Z M520.1132813,311.5588379 C519.0452881,312.4276428 518.1100464,313.1000061 517.3076172,313.5759277 L516.6103516,312.3059082 C516.7376709,312.1620178 516.8012695,311.9960022 516.8012695,311.8078613 L516.8012695,305.3000488 L515.2490234,305.3000488 L515.2490234,303.888916 L518.3452148,303.888916 L518.3452148,311.0939941 C518.793457,310.7730103 519.1725464,310.48526 519.4824219,310.2307129 Z M530.1240234,313.3601074 L529.152832,314.5305176 C528.2176514,313.6616821 526.9559326,312.7264709 525.3676758,311.7248535 C524.1502686,312.654541 522.4541016,313.5620728 520.2792969,314.4475098 L519.3994141,313.1525879 C521.6351318,312.3114319 523.411499,311.3789673 524.7285156,310.3552246 C526.0455933,309.3314514 527.3349609,307.8456116 528.5966797,305.8977051 L529.8168945,306.6779785 C528.7821045,308.3104553 527.6835938,309.6690063 526.5214844,310.7536621 C528.2093506,311.843811 529.4101563,312.7126465 530.1240234,313.3601074 Z M539.5205078,313.0695801 C538.8453979,313.4735413 537.9793701,313.6755371 536.9223633,313.6755371 C535.5831909,313.6755371 534.4985352,313.2521973 533.668457,312.4055176 C532.8383789,311.5588379 532.4233398,310.4520569 532.4233398,309.0852051 C532.4233398,307.5523071 532.8688354,306.3320923 533.7597656,305.4245605 C534.6507568,304.5169983 535.8377686,304.0632324 537.3208008,304.0632324 C538.2338867,304.0632324 538.9726563,304.2098694 539.5371094,304.5031738 L539.5371094,306.3293457 C538.8841553,305.8589478 538.1785889,305.6237793 537.4204102,305.6237793 C536.5239258,305.6237793 535.7976074,305.9239807 535.2414551,306.5244141 C534.6853027,307.1248169 534.4072266,307.9313965 534.4072266,308.9440918 C534.4072266,309.9346313 534.6715088,310.7107544 535.1999512,311.2724609 C535.7284546,311.834137 536.4381714,312.1149902 537.3291016,312.1149902 C538.1038818,312.1149902 538.8343506,311.8659668 539.5205078,311.3679199 Z M541.2802734,308.9523926 C541.2802734,307.4416504 541.7105713,306.2490845 542.5710449,305.3747559 C543.4315796,304.5003967 544.6033936,304.0632324 546.0864258,304.0632324 C547.4865112,304.0632324 548.5932617,304.4865723 549.4067383,305.333252 C550.2202148,306.1799316 550.6269531,307.3364868 550.6269531,308.8029785 C550.6269531,310.2805176 550.1981201,311.4619751 549.340332,312.3474121 C548.482605,313.2328186 547.3370972,313.6755371 545.9038086,313.6755371 C544.49823,313.6755371 543.3762207,313.2466431 542.5378418,312.388916 C541.6994629,311.5311584 541.2802734,310.3856506 541.2802734,308.9523926 Z M543.2641602,308.9108887 C543.2641602,309.9180298 543.5090332,310.7038574 543.9987793,311.2683105 C544.4885254,311.8327637 545.1539917,312.1149902 545.9951172,312.1149902 C547.760437,312.1149902 548.6430664,311.0275879 548.6430664,308.8527832 C548.6430664,307.8013306 548.4161987,307.0003052 547.9624023,306.449707 C547.508667,305.8990784 546.8529053,305.6237793 545.9951172,305.6237793 C545.1373901,305.6237793 544.4677734,305.9170532 543.9863281,306.5036621 C543.5048828,307.0902405 543.2641602,307.8926392 543.2641602,308.9108887 Z M566.6972656,313.4597168 L564.746582,313.4597168 L564.746582,308.1970215 C564.746582,307.2894592 564.5999756,306.6336975 564.3066406,306.2297363 C564.0133667,305.8257446 563.5457764,305.6237793 562.9038086,305.6237793 C562.3504639,305.6237793 561.8745117,305.8783264 561.4760742,306.3874512 C561.0776367,306.8965454 560.878418,307.519104 560.878418,308.255127 L560.878418,313.4597168 L558.9360352,313.4597168 L558.9360352,308.064209 C558.9360352,306.4372559 558.3134766,305.6237793 557.0683594,305.6237793 C556.4928589,305.6237793 556.015564,305.8700256 555.6364746,306.3625488 C555.2574463,306.8550415 555.0678711,307.4914551 555.0678711,308.2717285 L555.0678711,313.4597168 L553.1171875,313.4597168 L553.1171875,304.2790527 L555.0678711,304.2790527 L555.0678711,305.7233887 L555.109375,305.7233887 C555.7679443,304.6166077 556.730835,304.0632324 557.9980469,304.0632324 C559.2874756,304.0632324 560.1590576,304.6747131 560.612793,305.8977051 C561.2990112,304.6747131 562.3227539,304.0632324 563.684082,304.0632324 C565.6928711,304.0632324 566.6972656,305.3055725 566.6972656,307.7902832 Z M571.7109375,312.2229004 L571.7109375,317.6848145 L569.7602539,317.6848145 L569.7602539,304.2790527 L571.7109375,304.2790527 L571.7109375,305.8063965 L571.7524414,305.8063965 C572.4608154,304.6442871 573.4901123,304.0632324 574.840332,304.0632324 C576.0079956,304.0632324 576.9266357,304.471344 577.5961914,305.2875977 C578.2658081,306.1038208 578.6005859,307.2092285 578.6005859,308.6037598 C578.6005859,310.1366272 578.2215576,311.3651428 577.4633789,312.2893066 C576.7052612,313.2134399 575.6898193,313.6755371 574.4169922,313.6755371 C573.2548828,313.6755371 572.3666992,313.1913147 571.7524414,312.2229004 Z M571.6943359,309.5915527 C571.6943359,310.3054199 571.9157104,310.9044495 572.3583984,311.3886719 C572.8011475,311.8728638 573.3600464,312.1149902 574.0351563,312.1149902 C574.8486328,312.1149902 575.4794922,311.8037109 575.9277344,311.1811523 C576.3759766,310.5585938 576.6000977,309.6966858 576.6000977,308.595459 C576.6000977,307.6491699 576.3925781,306.9172974 575.9775391,306.3999023 C575.5625,305.8824768 574.9814453,305.6237793 574.234375,305.6237793 C573.4873047,305.6237793 572.8771973,305.894928 572.4040527,306.4372559 C571.9309082,306.9795532 571.6943359,307.6657715 571.6943359,308.4958496 Z M588.9765625,313.4597168 L587.0341797,313.4597168 L587.0341797,312.0236816 L586.9926758,312.0236816 C586.3563232,313.1249084 585.4155273,313.6755371 584.1704102,313.6755371 C582.0067139,313.6755371 580.9248047,312.3778381 580.9248047,309.7824707 L580.9248047,304.2790527 L582.8671875,304.2790527 L582.8671875,309.541748 C582.8671875,311.2572327 583.5257568,312.1149902 584.8427734,312.1149902 C585.4847412,312.1149902 586.010437,311.8797913 586.4199219,311.4094238 C586.8294678,310.9390259 587.0341797,310.3220215 587.0341797,309.5583496 L587.0341797,304.2790527 L588.9765625,304.2790527 Z M596.7626953,313.3601074 C596.4030151,313.5648499 595.8856201,313.6672363 595.2104492,313.6672363 C593.4672852,313.6672363 592.5957031,312.7209473 592.5957031,310.8283691 L592.5957031,305.822998 L591.043457,305.822998 L591.043457,304.2790527 L592.5957031,304.2790527 L592.5957031,302.1291504 L594.5380859,301.5397949 L594.5380859,304.2790527 L596.7626953,304.2790527 L596.7626953,305.822998 L594.5380859,305.822998 L594.5380859,310.4880371 C594.5380859,311.0580139 594.6390991,311.4702759 594.8410645,311.7248535 C595.0430908,311.9794006 595.3681641,312.1066895 595.8164063,312.1066895 C596.1650391,312.1066895 596.4804688,312.0070801 596.7626953,311.8078613 Z M606.4829102,309.392334 L600.1743164,309.392334 C600.2573242,311.2461548 601.2008667,312.1730957 603.0048828,312.1730957 C604.0231323,312.1730957 604.9500732,311.8687134 605.7856445,311.2600098 L605.7856445,312.8703613 C604.9666748,313.407135 603.8903198,313.6755371 602.5566406,313.6755371 C601.1953125,313.6755371 600.1300659,313.260498 599.3608398,312.4304199 C598.5916748,311.6003418 598.2070313,310.4382324 598.2070313,308.9440918 C598.2070313,307.5274048 598.6207275,306.3597717 599.447998,305.4411621 C600.2753296,304.522522 601.3115234,304.0632324 602.5566406,304.0632324 C603.7962646,304.0632324 604.760498,304.4547424 605.4494629,305.237793 C606.1384277,306.020813 606.4829102,307.0985413 606.4829102,308.4709473 Z M604.590332,307.9729004 C604.5848389,307.1870728 604.4049683,306.5838928 604.0507813,306.1633301 C603.6966553,305.7427368 603.1930542,305.5324707 602.5400391,305.5324707 C601.947937,305.5324707 601.4332886,305.755188 600.9960938,306.2006836 C600.55896,306.6461487 600.2877808,307.2368774 600.1826172,307.9729004 Z M617.0498047,313.4597168 L615.1074219,313.4597168 L615.1074219,312.0070801 L615.065918,312.0070801 C614.4018555,313.1193848 613.3891602,313.6755371 612.027832,313.6755371 C610.8657227,313.6755371 609.9401855,313.2618713 609.2512207,312.4345703 C608.5622559,311.6072388 608.2177734,310.4907837 608.2177734,309.0852051 C608.2177734,307.563385 608.6051636,306.3459473 609.3798828,305.4328613 C610.1546631,304.5197754 611.1645508,304.0632324 612.409668,304.0632324 C613.6547852,304.0632324 614.5402222,304.5335999 615.065918,305.4743652 L615.1074219,305.4743652 L615.1074219,299.8713379 L617.0498047,299.8713379 Z M615.1240234,308.0808105 C615.1240234,307.3835449 614.8985596,306.7997131 614.4475098,306.3293457 C613.996521,305.8589478 613.4389648,305.6237793 612.7749023,305.6237793 C611.9891357,305.6237793 611.3637695,305.925354 610.8989258,306.5285645 C610.434082,307.1317444 610.2016602,307.9562988 610.2016602,309.0021973 C610.2016602,309.9650879 610.4202881,310.7246094 610.8574219,311.2807617 C611.2946167,311.8369141 611.8895264,312.1149902 612.6420898,312.1149902 C613.3725586,312.1149902 613.9688721,311.8396606 614.4309082,311.2890625 C614.8930054,310.7384338 615.1240234,310.0425415 615.1240234,309.201416 Z M634.074707,302.9841309 L622.4453125,302.9841309 L622.4453125,306.2878418 C622.4453125,310.0121155 621.8808594,312.7043457 620.7519531,314.364502 L619.6645508,313.2355957 C620.555542,311.769104 621.0009766,309.1682129 621.0009766,305.4328613 L621.0009766,299.8464355 L634.074707,299.8464355 Z M632.6137695,301.880127 L632.6137695,300.9504395 L622.4453125,300.9504395 L622.4453125,301.880127 Z M634.2324219,312.9367676 C634.2324219,313.3186035 634.1480713,313.6160278 633.979248,313.8291016 C633.8104858,314.0421448 633.6098633,314.180481 633.3774414,314.2441406 C633.1450195,314.3077698 632.7078857,314.3395996 632.065918,314.3395996 C631.6342773,314.3395996 631.1998901,314.322998 630.7626953,314.2897949 L630.3061523,313.1027832 C630.7599487,313.1249084 631.4959717,313.1359863 632.5141602,313.1359863 C632.5916748,313.1359863 632.6705322,313.0986328 632.7507324,313.0239258 C632.8309937,312.9492188 632.8710938,312.8731079 632.8710938,312.7956543 L632.8710938,310.2805176 L629.5341797,310.2805176 L629.5341797,311.3679199 C629.7389526,311.3679199 629.9824219,311.3402405 630.2646484,311.2849121 C630.1816406,311.1133423 630.0765381,310.972229 629.9492188,310.8615723 L631.152832,310.4299316 C631.7781982,311.1936035 632.243042,311.8687134 632.5473633,312.4553223 L631.4101563,312.9118652 C631.2994995,312.6794434 631.1583862,312.4359436 630.9868164,312.1813965 C629.2381592,312.4968262 627.461792,312.7402954 625.6577148,312.9118652 L625.2177734,311.8078613 C626.4906006,311.7248535 627.4645386,311.6473694 628.1396484,311.5754395 L628.1396484,310.2805176 L624.7612305,310.2805176 L624.7612305,314.2565918 L623.3999023,314.2565918 L623.3999023,310.2805176 L622.6860352,310.2805176 L622.6860352,309.1765137 L623.3999023,309.1765137 L623.3999023,308.8195801 L624.7612305,308.8195801 L624.7612305,309.1765137 L628.1396484,309.1765137 L628.1396484,308.4626465 L623.980957,308.4626465 L623.980957,305.4494629 L628.1396484,305.4494629 L628.1396484,304.8435059 C627.3925781,304.8656311 626.6427612,304.876709 625.8901367,304.876709 C625.132019,304.876709 624.3876953,304.8656311 623.6572266,304.8435059 L623.2172852,303.7145996 C624.1635742,303.7478027 625.0794678,303.7644043 625.9648438,303.7644043 C628.6986084,303.7644043 631.2164917,303.6066895 633.5185547,303.2912598 L634.1079102,304.3122559 C632.3204956,304.5446777 630.7958984,304.6913147 629.5341797,304.7521973 L629.5341797,305.4494629 L633.6679688,305.4494629 L633.6679688,308.4626465 L629.5341797,308.4626465 L629.5341797,309.1765137 L634.2324219,309.1765137 Z M632.2734375,307.458252 L632.2734375,306.4372559 L629.5341797,306.4372559 L629.5341797,307.458252 Z M628.1396484,307.458252 L628.1396484,306.4372559 L625.3588867,306.4372559 L625.3588867,307.458252 Z M642.6743164,304.4118652 L641.777832,305.5905762 C641.5731201,305.2419434 641.335144,304.8905334 641.0639648,304.536377 L641.0639648,314.364502 L639.5947266,314.364502 L639.5449219,299.5061035 L639.578125,299.489502 L641.0390625,299.5061035 L641.0390625,302.6437988 C641.614624,303.1639709 642.159668,303.7533264 642.6743164,304.4118652 Z M652.2285156,314.0075684 L642.4916992,314.0075684 L642.4916992,312.5549316 L646.8081055,312.5549316 L646.8081055,308.9855957 L643.2885742,308.9855957 L643.2885742,307.5578613 L646.8081055,307.5578613 L646.8081055,304.4367676 L644.7495117,304.4367676 C644.2902222,305.5601196 643.8585815,306.4151001 643.4545898,307.001709 L642.0932617,306.3210449 C643.0727539,304.8213501 643.8060303,302.9121704 644.2929688,300.5935059 L645.7373047,300.8259277 C645.6542969,301.3516235 645.4882813,302.0654907 645.2392578,302.9675293 L646.8081055,302.9675293 L646.8081055,299.5227051 L648.3188477,299.5227051 L648.3188477,302.9675293 L651.8051758,302.9675293 L651.8051758,304.4118652 L648.3188477,304.4118652 L648.3188477,307.5578613 L651.4316406,307.5578613 L651.4316406,308.9855957 L648.3188477,308.9855957 L648.3188477,312.5549316 L652.2285156,312.5549316 Z M639.121582,303.3410645 C639.0330811,304.907135 638.8449097,306.3182678 638.5571289,307.5744629 L637.3037109,307.0183105 C637.5693359,305.7067871 637.732605,304.3924866 637.793457,303.0754395 Z M669.5688477,302.0544434 C669.5578003,303.6813965 669.4996948,305.7911682 669.3945313,308.3837891 C669.2894287,310.9763794 669.1344604,312.505127 668.9296875,312.9699707 C668.7249756,313.4348145 668.4136963,313.7765198 667.9958496,313.9951172 C667.578064,314.2136841 666.5612183,314.3285217 664.9453125,314.3395996 L664.3808594,312.845459 L666.6552734,312.8288574 C666.8710938,312.8288574 667.100769,312.7375488 667.3442383,312.5549316 C667.5877686,312.3723145 667.7703857,311.1410217 667.8920898,308.861084 C668.013855,306.5811157 668.0719604,304.8047485 668.0664063,303.5319824 L664.6547852,303.5319824 C664.1235352,304.8822327 663.5231323,306.0332642 662.8535156,306.9851074 L661.6914063,305.9475098 C662.9088745,303.9774475 663.7666016,301.7777405 664.2646484,299.3483887 L665.7587891,299.6721191 C665.6481323,300.2476196 665.4489136,301.041748 665.1611328,302.0544434 Z M661.3510742,314.173584 L659.8901367,314.173584 L659.8901367,313.0529785 L656.8188477,313.0529785 L656.8188477,314.3395996 L655.3164063,314.3395996 L655.3164063,301.9714355 L656.8354492,301.9714355 C657.2615967,301.1856079 657.5936279,300.3223267 657.831543,299.3815918 L659.4003906,299.638916 C659.3173828,300.1756897 659.0517578,300.953186 658.6035156,301.9714355 L661.3510742,301.9714355 Z M659.8901367,306.5949707 L659.8901367,303.4489746 L656.8188477,303.4489746 L656.8188477,306.5949707 Z M659.8901367,311.592041 L659.8901367,308.0227051 L656.8188477,308.0227051 L656.8188477,311.592041 Z M667.1035156,309.6496582 L665.7753906,310.5046387 C665.0449219,309.0437012 664.2619019,307.8234863 663.4262695,306.8439941 L664.7543945,306.013916 C665.8833008,307.4250488 666.6663818,308.6369629 667.1035156,309.6496582 Z M684.8256836,304.2790527 L682.1196289,313.4597168 L680.0859375,313.4597168 L678.3759766,307.3088379 C678.2985229,307.0376587 678.2514648,306.7167053 678.2348633,306.3459473 L678.1933594,306.3459473 C678.1767578,306.5894165 678.1159058,306.9020996 678.0107422,307.2839355 L676.1679688,313.4597168 L674.1757813,313.4597168 L671.4614258,304.2790527 L673.4785156,304.2790527 L675.1552734,310.8615723 C675.2216797,311.1327209 675.2659912,311.4315491 675.2880859,311.7580566 L675.3461914,311.7580566 C675.3683472,311.4481506 675.4237061,311.1410217 675.512207,310.8366699 L677.4462891,304.2790527 L679.2641602,304.2790527 L680.9907227,310.8781738 C681.02948,311.0275879 681.0737305,311.326416 681.1235352,311.7746582 L681.1899414,311.7746582 C681.206543,311.4979553 681.2563477,311.1991272 681.3393555,310.8781738 L682.9746094,304.2790527 Z M687.0419922,304.8933105 C687.9772339,304.3399048 689.059082,304.0632324 690.2875977,304.0632324 C692.6063232,304.0632324 693.765625,305.2612915 693.765625,307.6574707 L693.765625,313.4597168 L691.8730469,313.4597168 L691.8730469,312.0651855 L691.831543,312.0651855 C691.2062378,313.1387329 690.2765503,313.6755371 689.0424805,313.6755371 C688.1405029,313.6755371 687.4307861,313.4320374 686.9133301,312.9450684 C686.3959351,312.4580688 686.137207,311.8023071 686.137207,310.9777832 C686.137207,309.2512207 687.1637573,308.2440491 689.2167969,307.9562988 L691.8813477,307.5910645 C691.8813477,306.2241821 691.2809448,305.5407715 690.0800781,305.5407715 C688.9788818,305.5407715 687.9661865,305.8977051 687.0419922,306.6115723 Z M689.855957,309.1931152 C689.1918945,309.2816467 688.7229004,309.4504395 688.4489746,309.6994629 C688.1750488,309.9484863 688.0380859,310.3137207 688.0380859,310.795166 C688.0380859,311.1991272 688.1847534,311.5297852 688.4780273,311.7871094 C688.7713623,312.0444336 689.147644,312.1730957 689.6069336,312.1730957 C690.2599487,312.1730957 690.8022461,311.9420471 691.2338867,311.4799805 C691.6655273,311.0178833 691.8813477,310.4354553 691.8813477,309.732666 L691.8813477,308.9191895 Z M701.3442383,313.3601074 C700.9845581,313.5648499 700.4671631,313.6672363 699.7919922,313.6672363 C698.0488281,313.6672363 697.1772461,312.7209473 697.1772461,310.8283691 L697.1772461,305.822998 L695.625,305.822998 L695.625,304.2790527 L697.1772461,304.2790527 L697.1772461,302.1291504 L699.1196289,301.5397949 L699.1196289,304.2790527 L701.3442383,304.2790527 L701.3442383,305.822998 L699.1196289,305.822998 L699.1196289,310.4880371 C699.1196289,311.0580139 699.2206421,311.4702759 699.4226074,311.7248535 C699.6246338,311.9794006 699.949707,312.1066895 700.3979492,312.1066895 C700.746582,312.1066895 701.0620117,312.0070801 701.3442383,311.8078613 Z M709.8857422,313.0695801 C709.2106323,313.4735413 708.3446045,313.6755371 707.2875977,313.6755371 C705.9484253,313.6755371 704.8637695,313.2521973 704.0336914,312.4055176 C703.2036133,311.5588379 702.7885742,310.4520569 702.7885742,309.0852051 C702.7885742,307.5523071 703.2340698,306.3320923 704.125,305.4245605 C705.0159912,304.5169983 706.2030029,304.0632324 707.6860352,304.0632324 C708.5991211,304.0632324 709.3378906,304.2098694 709.9023438,304.5031738 L709.9023438,306.3293457 C709.2493896,305.8589478 708.5438232,305.6237793 707.7856445,305.6237793 C706.8891602,305.6237793 706.1628418,305.9239807 705.6066895,306.5244141 C705.0505371,307.1248169 704.7724609,307.9313965 704.7724609,308.9440918 C704.7724609,309.9346313 705.0367432,310.7107544 705.5651855,311.2724609 C706.093689,311.834137 706.8034058,312.1149902 707.6943359,312.1149902 C708.4691162,312.1149902 709.199585,311.8659668 709.8857422,311.3679199 Z M720.2783203,313.4597168 L718.3276367,313.4597168 L718.3276367,308.1970215 C718.3276367,306.4815063 717.6940308,305.6237793 716.4267578,305.6237793 C715.7848511,305.6237793 715.2508545,305.8700256 714.824707,306.3625488 C714.3986206,306.8550415 714.1855469,307.4831543 714.1855469,308.2468262 L714.1855469,313.4597168 L712.2348633,313.4597168 L712.2348633,299.8713379 L714.1855469,299.8713379 L714.1855469,305.748291 L714.2270508,305.748291 C714.9243164,304.6249084 715.9066162,304.0632324 717.1738281,304.0632324 C719.2435303,304.0632324 720.2783203,305.3138733 720.2783203,307.8151855 Z M730.8618164,309.392334 L724.5532227,309.392334 C724.6362305,311.2461548 725.5797729,312.1730957 727.3837891,312.1730957 C728.4020386,312.1730957 729.3289795,311.8687134 730.1645508,311.2600098 L730.1645508,312.8703613 C729.3455811,313.407135 728.2692261,313.6755371 726.9355469,313.6755371 C725.5742188,313.6755371 724.5089722,313.260498 723.7397461,312.4304199 C722.9705811,311.6003418 722.5859375,310.4382324 722.5859375,308.9440918 C722.5859375,307.5274048 722.9996338,306.3597717 723.8269043,305.4411621 C724.6542358,304.522522 725.6904297,304.0632324 726.9355469,304.0632324 C728.1751709,304.0632324 729.1394043,304.4547424 729.8283691,305.237793 C730.517334,306.020813 730.8618164,307.0985413 730.8618164,308.4709473 Z M728.9692383,307.9729004 C728.9637451,307.1870728 728.7838745,306.5838928 728.4296875,306.1633301 C728.0755615,305.7427368 727.5719604,305.5324707 726.9189453,305.5324707 C726.3268433,305.5324707 725.8121948,305.755188 725.375,306.2006836 C724.9378662,306.6461487 724.666687,307.2368774 724.5615234,307.9729004 Z M738.3989258,306.1384277 C738.1112061,305.9502563 737.7293701,305.8562012 737.253418,305.8562012 C736.6225586,305.8562012 736.1120605,306.1328735 735.7219238,306.6862793 C735.3317871,307.2396545 735.1367188,307.9729004 735.1367188,308.8859863 L735.1367188,313.4597168 L733.1860352,313.4597168 L733.1860352,304.2790527 L735.1367188,304.2790527 L735.1367188,306.1052246 L735.1782227,306.1052246 C735.632019,304.7826233 736.4344482,304.1213379 737.5854492,304.1213379 C737.9285889,304.1213379 738.199707,304.1600647 738.3989258,304.2375488 Z" style="fill:rgb(3,3,3);stroke:none" clip-path="url(#clip8)" />
<clipPath id="clip9"><path d="M157,150 L296,150 L296,209 L157,209 L157,150 Z" /></clipPath>
<path d="M163.8500061,286 L290.0172729,156.6775665" style="fill:none;stroke:rgb(127,127,127);stroke-width:5" clip-path="url(#clip9)" />
<clipPath id="clip10"><path d="M157,232 L296,232 L296,292 L157,292 L157,232 Z" /></clipPath>
<path d="M163.8500061,286 L290.0172729,156.6775665" style="fill:none;stroke:rgb(127,127,127);stroke-width:5" clip-path="url(#clip10)" />
<clipPath id="clip11"><path d="M157,207 L210,207 L210,234 L157,234 L157,207 Z" /></clipPath>
<path d="M163.8500061,286 L290.0172729,156.6775665" style="fill:none;stroke:rgb(127,127,127);stroke-width:5" clip-path="url(#clip11)" />
<clipPath id="clip12"><path d="M245,207 L296,207 L296,234 L245,234 L245,207 Z" /></clipPath>
<path d="M163.8500061,286 L290.0172729,156.6775665" style="fill:none;stroke:rgb(127,127,127);stroke-width:5" clip-path="url(#clip12)" />
<clipPath id="clip13"><path d="M208,207 L247,207 L247,234 L208,234 L208,207 Z" /></clipPath>
<path d="M163.8500061,286 L290.0172729,156.6775665" style="fill:none;stroke:rgb(127,127,127);opacity:0.09803921568627451;stroke-width:5" clip-path="url(#clip13)" />
<clipPath id="clip14"><path d="M157,150 L296,150 L296,292 L157,292 L157,150 Z" /></clipPath>
<path d="M286.5610657,170.2442322 L290.0172729,156.6775665 L276.5400696,160.4677429 Z" style="fill:rgb(127,127,127);stroke:none" clip-path="url(#clip14)" />
<clipPath id="clip15"><path d="M157,150 L296,150 L296,292 L157,292 L157,150 Z" /></clipPath>
<path d="M286.5610657,170.2442322 L290.0172729,156.6775665 L276.5400696,160.4677429 Z" style="fill:none;stroke:rgb(127,127,127);stroke-width:5" clip-path="url(#clip15)" />
<clipPath id="clip16"><path d="M208,207 L247,207 L247,234 L208,234 L208,207 Z" /></clipPath>
<path d="M220.2617188,212.7109375 L222.4960938,213.0546875 C222.376297,213.596344 222.2434845,214.127594 222.0976563,214.6484375 L226.7929688,214.6484375 L226.7929688,216.6484375 L221.4179688,216.6484375 C220.9596252,217.815094 220.407547,218.9296875 219.7617188,219.9921875 C219.2721252,219.6692657 218.7304688,219.3567657 218.1367188,219.0546875 L218.1367188,220.9296875 L215.9492188,220.9296875 L215.9492188,212.7890625 L218.1367188,212.7890625 L218.1367188,218.3359375 C219.1835938,216.5859375 219.891922,214.7109375 220.2617188,212.7109375 Z M212.6210938,213.4609375 L214.7773438,213.4609375 L214.7773438,220.3359375 L212.6210938,220.3359375 Z M222.6367188,216.9296875 C223.9492188,217.908844 224.9804688,218.7421875 225.7304688,219.4296875 L224.1679688,221.0703125 C223.345047,220.2578125 222.3658752,219.3984375 221.2304688,218.4921875 Z M211.4960938,225.7109375 L213.0585938,225.7109375 L213.0585938,221.1484375 L225.4648438,221.1484375 L225.4648438,225.7109375 L227.0273438,225.7109375 L227.0273438,227.6640625 L211.4960938,227.6640625 Z M223.2617188,223.0546875 L221.9492188,223.0546875 L221.9492188,225.7109375 L223.2617188,225.7109375 Z M215.2617188,225.7109375 L216.5742188,225.7109375 L216.5742188,223.0546875 L215.2617188,223.0546875 Z M218.6054688,225.7109375 L219.9179688,225.7109375 L219.9179688,223.0546875 L218.6054688,223.0546875 Z M243.5039063,220.3046875 L241.4414063,220.3046875 L241.4414063,228.0078125 L239.2226563,228.0078125 L239.2226563,220.3046875 L237.0351563,220.3046875 C237.0143127,223.252594 236.2486877,225.9140625 234.7382813,228.2890625 C234.3424377,227.955719 233.6809845,227.4817657 232.7539063,226.8671875 C234.1497345,225.0442657 234.8476563,222.8359375 234.8476563,220.2421875 L234.8476563,213.9140625 C237.6393127,213.6953125 240.2539063,213.3359375 242.6914063,212.8359375 L243.4414063,214.9140625 C241.1080627,215.268219 238.9726563,215.5442657 237.0351563,215.7421875 L237.0351563,218.2734375 L243.5039063,218.2734375 Z M228.5976563,213.8046875 L233.6445313,213.8046875 L233.6445313,224.9765625 L230.5039063,224.9765625 L230.5039063,225.8671875 L228.5976563,225.8671875 Z M231.7382813,223.2734375 L231.7382813,215.5078125 L230.5039063,215.5078125 L230.5039063,223.2734375 Z" style="fill:rgb(102,102,102);stroke:none" clip-path="url(#clip16)" />
<clipPath id="clip17"><path d="M403,146 L565,146 L565,208 L403,208 L403,146 Z" /></clipPath>
<path d="M559.5118408,287 L409.0097351,152.4800262" style="fill:none;stroke:rgb(127,127,127);stroke-width:5" clip-path="url(#clip17)" />
<clipPath id="clip18"><path d="M403,231 L565,231 L565,292 L403,292 L403,231 Z" /></clipPath>
<path d="M559.5118408,287 L409.0097351,152.4800262" style="fill:none;stroke:rgb(127,127,127);stroke-width:5" clip-path="url(#clip18)" />
<clipPath id="clip19"><path d="M403,206 L466,206 L466,233 L403,233 L403,206 Z" /></clipPath>
<path d="M559.5118408,287 L409.0097351,152.4800262" style="fill:none;stroke:rgb(127,127,127);stroke-width:5" clip-path="url(#clip19)" />
<clipPath id="clip20"><path d="M501,206 L565,206 L565,233 L501,233 L501,206 Z" /></clipPath>
<path d="M559.5118408,287 L409.0097351,152.4800262" style="fill:none;stroke:rgb(127,127,127);stroke-width:5" clip-path="url(#clip20)" />
<clipPath id="clip21"><path d="M464,206 L503,206 L503,233 L464,233 L464,206 Z" /></clipPath>
<path d="M559.5118408,287 L409.0097351,152.4800262" style="fill:none;stroke:rgb(127,127,127);opacity:0.09803921568627451;stroke-width:5" clip-path="url(#clip21)" />
<clipPath id="clip22"><path d="M403,146 L565,146 L565,292 L403,292 L403,146 Z" /></clipPath>
<path d="M422.7143555,155.3407288 L409.0097351,152.4800262 L413.3845825,165.7789307 Z" style="fill:rgb(127,127,127);stroke:none" clip-path="url(#clip22)" />
<clipPath id="clip23"><path d="M403,146 L565,146 L565,292 L403,292 L403,146 Z" /></clipPath>
<path d="M422.7143555,155.3407288 L409.0097351,152.4800262 L413.3845825,165.7789307 Z" style="fill:none;stroke:rgb(127,127,127);stroke-width:5" clip-path="url(#clip23)" />
<clipPath id="clip24"><path d="M464,206 L503,206 L503,233 L464,233 L464,206 Z" /></clipPath>
<path d="M476.2617188,211.7109375 L478.4960938,212.0546875 C478.3762817,212.596344 478.2434692,213.127594 478.0976563,213.6484375 L482.7929688,213.6484375 L482.7929688,215.6484375 L477.4179688,215.6484375 C476.9596558,216.815094 476.4075317,217.9296875 475.7617188,218.9921875 C475.2721558,218.6692657 474.7304688,218.3567657 474.1367188,218.0546875 L474.1367188,219.9296875 L471.9492188,219.9296875 L471.9492188,211.7890625 L474.1367188,211.7890625 L474.1367188,217.3359375 C475.1835938,215.5859375 475.8919067,213.7109375 476.2617188,211.7109375 Z M468.6210938,212.4609375 L470.7773438,212.4609375 L470.7773438,219.3359375 L468.6210938,219.3359375 Z M478.6367188,215.9296875 C479.9492188,216.908844 480.9804688,217.7421875 481.7304688,218.4296875 L480.1679688,220.0703125 C479.3450317,219.2578125 478.3659058,218.3984375 477.2304688,217.4921875 Z M467.4960938,224.7109375 L469.0585938,224.7109375 L469.0585938,220.1484375 L481.4648438,220.1484375 L481.4648438,224.7109375 L483.0273438,224.7109375 L483.0273438,226.6640625 L467.4960938,226.6640625 Z M479.2617188,222.0546875 L477.9492188,222.0546875 L477.9492188,224.7109375 L479.2617188,224.7109375 Z M471.2617188,224.7109375 L472.5742188,224.7109375 L472.5742188,222.0546875 L471.2617188,222.0546875 Z M474.6054688,224.7109375 L475.9179688,224.7109375 L475.9179688,222.0546875 L474.6054688,222.0546875 Z M499.5039063,219.3046875 L497.4414063,219.3046875 L497.4414063,227.0078125 L495.2226563,227.0078125 L495.2226563,219.3046875 L493.0351563,219.3046875 C493.0143127,222.252594 492.2486877,224.9140625 490.7382813,227.2890625 C490.3424377,226.955719 489.6809692,226.4817657 488.7539063,225.8671875 C490.1497192,224.0442657 490.8476563,221.8359375 490.8476563,219.2421875 L490.8476563,212.9140625 C493.6393127,212.6953125 496.2539063,212.3359375 498.6914063,211.8359375 L499.4414063,213.9140625 C497.1080627,214.268219 494.9726563,214.5442657 493.0351563,214.7421875 L493.0351563,217.2734375 L499.5039063,217.2734375 Z M484.5976563,212.8046875 L489.6445313,212.8046875 L489.6445313,223.9765625 L486.5039063,223.9765625 L486.5039063,224.8671875 L484.5976563,224.8671875 Z M487.7382813,222.2734375 L487.7382813,214.5078125 L486.5039063,214.5078125 L486.5039063,222.2734375 Z" style="fill:rgb(102,102,102);stroke:none" clip-path="url(#clip24)" />
<clipPath id="clip25"><path d="M265,293 L325,293 L325,320 L265,320 L265,293 Z" /></clipPath>
<path d="M412,307.6104736 L271,307.2901001" style="fill:none;stroke:rgb(127,127,127);stroke-width:5" clip-path="url(#clip25)" />
<clipPath id="clip26"><path d="M359,293 L418,293 L418,320 L359,320 L359,293 Z" /></clipPath>
<path d="M412,307.6104736 L271,307.2901001" style="fill:none;stroke:rgb(127,127,127);stroke-width:5" clip-path="url(#clip26)" />
<clipPath id="clip27"><path d="M323,293 L361,293 L361,320 L323,320 L323,293 Z" /></clipPath>
<path d="M412,307.6104736 L271,307.2901001" style="fill:none;stroke:rgb(127,127,127);opacity:0.09803921568627451;stroke-width:5" clip-path="url(#clip27)" />
<clipPath id="clip28"><path d="M265,293 L418,293 L418,320 L265,320 L265,293 Z" /></clipPath>
<path d="M283.1402283,300.317688 L271,307.2901001 L283.108429,314.317627 Z" style="fill:rgb(127,127,127);stroke:none" clip-path="url(#clip28)" />
<clipPath id="clip29"><path d="M265,293 L418,293 L418,320 L265,320 L265,293 Z" /></clipPath>
<path d="M283.1402283,300.317688 L271,307.2901001 L283.108429,314.317627 Z" style="fill:none;stroke:rgb(127,127,127);stroke-width:5" clip-path="url(#clip29)" />
<clipPath id="clip30"><path d="M323,293 L361,293 L361,320 L323,320 L323,293 Z" /></clipPath>
<path d="M330.8242188,301.6875 L335.1835938,301.6875 C334.7044373,300.7760315 334.2981873,300.067688 333.9648438,299.5625 L335.9960938,298.734375 L337.4648438,301.09375 L335.9804688,301.6875 L341.4023438,301.6875 L341.4023438,303.625 L337.0585938,303.625 C337.1731873,304.7604065 337.3789063,305.7890625 337.6757813,306.7109375 C338.4153748,306.1223755 339.1835938,305.4635315 339.9804688,304.734375 L341.4335938,306.25 L338.3867188,308.421875 C339.1419373,309.848938 340.1992188,310.9322815 341.5585938,311.671875 L339.9804688,313.59375 C337.4856873,311.734375 335.9856873,308.8541565 335.4804688,304.953125 C335.2252502,305.4791565 334.9335938,305.989563 334.6054688,306.484375 L334.6054688,311.328125 C335.1263123,311.130188 335.8138123,310.828125 336.6679688,310.421875 C336.7200623,311.3385315 336.7773438,312.03125 336.8398438,312.5 C335.3815002,313.036438 334.0742188,313.609375 332.9179688,314.21875 L331.9648438,312.59375 C332.4335938,312.239563 332.6679688,311.7135315 332.6679688,311.015625 L332.6679688,308.8359375 C332.1367188,309.3671875 331.5533752,309.880188 330.9179688,310.375 C330.5846252,309.78125 330.2096252,309.161438 329.7929688,308.515625 C331.7252502,307.114563 333.1809998,305.484375 334.1601563,303.625 L330.8242188,303.625 Z M329.0117188,298.90625 L331.0273438,299.515625 C330.6315002,300.6979065 330.2096252,301.8229065 329.7617188,302.890625 L329.7617188,314.046875 L327.8085938,314.046875 L327.8085938,306.859375 C327.4335938,307.505188 327.0481873,308.1197815 326.6523438,308.703125 C326.5169373,307.8697815 326.3033752,306.9322815 326.0117188,305.890625 C327.2200623,304.005188 328.2200623,301.677063 329.0117188,298.90625 Z M343.0976563,308.65625 L343.0976563,303.140625 L345.4882813,303.140625 L345.4882813,302 L342.7070313,302 L342.7070313,300.15625 L345.4882813,300.15625 L345.4882813,298.75 L347.3007813,298.75 L347.3007813,300.15625 L349.9726563,300.15625 L349.9726563,302 L347.3007813,302 L347.3007813,303.140625 L349.6914063,303.140625 L349.6914063,308.65625 L347.3007813,308.65625 L347.3007813,309.859375 L348.3164063,308.953125 C348.9726563,309.505188 349.6653748,310.15625 350.3945313,310.90625 C350.3736877,310.927063 349.9101563,311.364563 349.0039063,312.21875 C348.3684998,311.489563 347.8007813,310.8697815 347.3007813,310.359375 L347.3007813,314.21875 L345.4882813,314.21875 L345.4882813,310.78125 C344.8007813,311.9375 344.0195313,312.9375 343.1445313,313.78125 C342.9778748,313.1041565 342.7486877,312.3541565 342.4570313,311.53125 C343.3216248,310.864563 344.1549377,309.90625 344.9570313,308.65625 Z M350.5039063,310.3125 L350.5039063,303.59375 C350.1914063,303.333313 349.8424377,303.0625 349.4570313,302.78125 C350.4778748,301.645813 351.3268127,300.286438 352.0039063,298.703125 L353.9414063,299.109375 C353.8164063,299.3697815 353.6914063,299.6197815 353.5664063,299.859375 L356.9101563,299.859375 L356.9101563,301.515625 L355.6914063,303.078125 L357.5039063,303.078125 L357.5039063,310.3125 L355.7539063,310.3125 L355.7539063,304.765625 L352.2539063,304.765625 L352.2539063,310.3125 Z M353.1289063,305.53125 L354.8945313,305.53125 C354.8945313,307.6354065 354.7643127,309.145813 354.5039063,310.0625 C355.7018127,310.927063 356.8632813,311.802063 357.9882813,312.6875 L356.5664063,314.265625 C355.5351563,313.296875 354.5872498,312.473938 353.7226563,311.796875 C353.0768127,312.734375 352.0924377,313.567688 350.7695313,314.296875 C350.1028748,313.4635315 349.6445313,312.921875 349.3945313,312.671875 C351.3216248,311.859375 352.4570313,310.828125 352.8007813,309.578125 C353.0195313,308.921875 353.1289063,307.5729065 353.1289063,305.53125 Z M351.5976563,303.078125 L353.4570313,303.078125 L354.6289063,301.515625 L352.6445313,301.515625 C352.3007813,302.078125 351.9518127,302.598938 351.5976563,303.078125 Z M348.1914063,307 L348.1914063,304.796875 L347.3007813,304.796875 L347.3007813,307 Z M344.5976563,307 L345.4882813,307 L345.4882813,304.796875 L344.5976563,304.796875 Z" style="fill:rgb(102,102,102);stroke:none" clip-path="url(#clip30)" />
</svg>
