<svg version="1.1" xmlns="http://www.w3.org/2000/svg" viewBox="0 0 1015.8441772460938 1413.4295043945312" width="3047.5325317382812" height="4240.288513183594">
  <!-- svg-source:excalidraw -->
  
  <defs>
    <style>
      @font-face {
        font-family: "Virgil";
        src: url("https://excalidraw.com/Virgil.woff2");
      }
      @font-face {
        font-family: "Cascadia";
        src: url("https://excalidraw.com/Cascadia.woff2");
      }
    </style>
  </defs>
  <rect x="0" y="0" width="1015.8441772460938" height="1413.4295043945312" fill="#ffffff"></rect><g transform="translate(255.4017333984375 10) rotate(0 103.73092651367188 30.35688018798828)"><path d="M14.891103867441416 1.9930080734193325 M14.22441166266799 0.09359145537018776 C74.42616160684841 0.17911692589288997, 131.15348146680032 -0.20317307979100896, 191.74843126162892 -0.10027563199400902 M14.320301594212651 0.796477047726512 C65.46684383653378 -0.500474157532115, 115.0331267557348 -1.0883389737209272, 192.22589147277182 -0.6184235531836748 M192.28341293334967 0 C202.3428756433229 0.003288324922323227, 206.1925853528083 4.239562527587017, 207.61518156901008 16.500474866479635 M194.0455896891654 -1.9658200182020664 C204.1513825141515 -1.9615499092265962, 207.88618475031114 4.1760793871556725, 207.34903960060333 15.961517904885113 M206.6393269859255 15.023894790560007 C207.27795714928425 23.7626809606796, 207.13440830303944 30.788580320496457, 208.35919314250356 45.040019158273935 M208.17531341500586 14.624812928959727 C207.5574154264487 23.75509582469284, 208.2409480816878 30.634003522061697, 206.55983472056693 46.20963385514915 M207.4618530273438 45.53532028198242 C209.0108625926078 55.895005202541746, 202.43198852116868 62.28477519378066, 191.86439359560615 62.23130815848708 M205.9181232489646 44.155188139528036 C209.360668389313 53.77061795859287, 204.33533586493388 60.36440608371049, 191.87096725534653 60.34843748677522 M192.67831152305013 58.86358380690217 C137.9027960250634 60.6632068747432, 86.76661997409813 61.48198193253587, 13.767364080995321 62.66353690996766 M192.0817855019123 59.95601746253669 C125.41682783844426 62.25987474764531, 56.032694836231116 62.10602329815572, 16.081224562600255 61.02284446172416 M15.17844009399414 60.71376037597656 C3.858369195212921 61.89259010180831, -0.7103043757379055 56.55175910020868, -0.4041937552392483 46.6985611282289 M13.375449899584055 60.574086006730795 C6.549683726144334 59.53631269205361, 1.0228493554517626 57.815517356681326, 2.045300458185374 44.43373734820634 M-1.3710904754698277 45.62697887793183 C0.18232977761421026 32.82030529576878, 1.1782920397678358 21.601037872053002, 0.1266840063035488 14.342108372598886 M0.14220351167023182 45.841032115742564 C-0.8024723264648209 34.0887531117006, -0.7681629988624344 22.95448367491938, -0.9756326656788588 14.41403510980308 M0 15.17844009399414 C0.5876023806631565 5.213997022559246, 3.7491635916133728 1.7151383720338345, 13.992456320673227 -0.6227219738066196 M-0.555643554776907 13.708407457917929 C0.5490045947954059 5.460275400367877, 4.252738792014619 1.3936369406059383, 15.241257653944194 0.8664363490417597" stroke="#000000" stroke-width="1" fill="none"></path></g><g transform="translate(272.26580810546875 27.2447509765625) rotate(0 90 12.5)"><text x="0" y="18" font-family="Virgil, Segoe UI Emoji" font-size="20px" fill="#000000" text-anchor="start" style="white-space: pre;" direction="ltr">access a property</text></g><g transform="translate(241.68609619140625 144.9918212890625) rotate(0 122.84237670898438 38.861419677734375)"><path d="M121.69713872298598 1.5832972563803196 C170.12751106705946 13.520223277481072, 217.5164354114879 28.59496501781958, 244.27253466472027 37.78856194391847 M123.22685188241303 0.3672159593552351 C151.76479221630342 9.347531440194619, 179.5852232368377 19.996128163758588, 244.88749623484907 38.59851363115013 M246.25361471995708 38.50390828028321 C211.56265540946296 48.55123107517733, 176.39724796479544 63.143689030302426, 122.94295948371291 76.32007766142488 M246.61511874385175 38.66464569978416 C213.43639718331949 49.118783291043876, 180.756697852468 60.209697458653686, 122.66443687863648 77.7554080169648 M124.09264915809035 76.990349534899 C86.48454461742762 63.99748465443827, 45.925321586361264 53.34485979422658, 1.8011551462113857 38.560062769800425 M123.60047918744385 77.45369645766914 C87.36080495005967 66.51972943581087, 52.0869981000063 55.71555929106485, -0.6442681532353163 39.531975178048015 M0.6751185022294521 39.64522111788392 C50.64149008685723 25.135103323590013, 96.56933837136253 7.803329373616727, 122.40882819518447 -0.4541902504861355 M0.9332994241267443 38.29650202207267 C34.78924642411992 26.68967567646876, 71.60191724898294 14.554115853663532, 122.20906180329621 0.6223069112747908" stroke="#000000" stroke-width="1" fill="none"></path></g><g transform="translate(286.04290771484375 168.59219360351562) rotate(0 82.5 12.5)"><text x="0" y="18" font-family="Virgil, Segoe UI Emoji" font-size="20px" fill="#000000" text-anchor="start" style="white-space: pre;" direction="ltr">is a internal key</text></g><g><g transform="translate(360.279052734375 72.43345642089844) rotate(0 -0.21006815132932388 34.92115708434024)"><path d="M0.021253826469183057 1.1434574939310551 C0.004965172459681904 12.6578826683263, 1.044456929216782 56.70064455841979, 1.008698823302984 68.00515686050058 M-1.4267266439739617 0.6981687329057604 C-1.6421389419181895 12.44517753410774, 0.3664238892650851 57.52777305005429, 0.3949153713043778 69.1441454357747" stroke="#000000" stroke-width="1" fill="none"></path></g><g transform="translate(360.279052734375 72.43345642089844) rotate(0 -0.21006815132932388 34.92115708434024)"><path d="M-8.668494283113784 42.282593117969 C-7.788626414269186 51.22868268812929, -1.8775315833243518 64.16316907564322, 0.46946903607808044 67.92409772717394 M-10.762907379198975 40.868031989725196 C-7.240822936883419 48.77369854470847, -5.876434687229867 54.93327046110346, 0.7777310322131961 70.0389131653402" stroke="#000000" stroke-width="1" fill="none"></path></g><g transform="translate(360.279052734375 72.43345642089844) rotate(0 -0.21006815132932388 34.92115708434024)"><path d="M11.846171086861961 41.76441636843511 C4.675465022250307 50.91736964695857, 2.5406555307738845 64.05508628335362, 0.46946903607808044 67.92409772717394 M9.75175799077677 40.3498552401913 C8.067878989873757 48.43175355720408, 4.224559806675738 54.7228661476199, 0.7777310322131961 70.0389131653402" stroke="#000000" stroke-width="1" fill="none"></path></g></g><g><g transform="translate(483.62200927734375 183.3533935546875) rotate(0 75.59176691738878 -0.5487189738358609)"><path d="M-0.5549629591405392 0.1829993270337582 C24.385374422323235 -0.11713198964481908, 124.17647126739983 -1.384811115497617, 149.46727175311165 -1.2804372747054913 M1.3545427579712124 -0.7665299716126175 C26.688694781566312 -1.010070966929176, 126.81629384220716 -0.3093025908245576, 151.7384967939181 -0.35649250620032036" stroke="#000000" stroke-width="1" fill="none"></path></g><g transform="translate(483.62200927734375 183.3533935546875) rotate(0 75.59176691738878 -0.5487189738358609)"><path d="M123.82265933933883 8.422008237425327 C129.58124952736424 8.51838936019084, 141.11932794574636 3.823670515158958, 153.54645933445522 -0.1966982389333316 M123.04078738908498 10.681097534108996 C134.608707196987 6.225968726868672, 145.02751543560055 2.596707539176097, 151.80525354716906 0.05874367072259701" stroke="#000000" stroke-width="1" fill="none"></path></g><g transform="translate(483.62200927734375 183.3533935546875) rotate(0 75.59176691738878 -0.5487189738358609)"><path d="M123.88301864623236 -12.099111594102162 C129.71336485016352 -6.145516808822096, 141.2342144716385 -4.98274284817638, 153.54645933445522 -0.1966982389333316 M123.10114669597851 -9.840022297418493 C134.53287081630285 -6.673006139844077, 144.92925836328453 -2.6796201607233634, 151.80525354716906 0.05874367072259701" stroke="#000000" stroke-width="1" fill="none"></path></g></g><g transform="translate(546.6248168945312 149.128173828125) rotate(0 15.5 12.5)"><text x="0" y="18" font-family="Virgil, Segoe UI Emoji" font-size="20px" fill="#000000" text-anchor="start" style="white-space: pre;" direction="ltr">yes</text></g><g transform="translate(643.5216674804688 126.1072998046875) rotate(0 181.1612548828125 54.758392333984375)"><path d="M28.927790459245443 0.19508135691285133 M26.25855195767756 0.08421978808469748 C132.22679004638405 -1.348338389966377, 235.0785384377414 -1.4082062449168669, 335.86623702438044 0.5029299883419525 M26.90660185033964 -0.0015297133458072004 C147.95137905390933 -1.4247548577533604, 268.6953924678719 -1.5484221375860059, 335.07415699635044 -0.15158389498893415 M334.94331359863276 0 C351.65504433338833 -0.831153865903616, 361.69424873217935 10.338053269932669, 360.3782160840928 26.378894928842783 M334.7199808917939 -0.49309181794524193 C355.1063029355679 -0.1271680550649763, 360.19332372415806 8.986991073998313, 364.5820941256359 29.175838254205882 M360.3732482232153 26.575282510370016 C360.5173475884085 46.11516461493955, 362.26379980074216 62.61689593215557, 361.5226390399038 83.57778721675277 M363.25795271806413 28.14595335908234 C362.6155095501153 42.44739207806262, 362.24009857608957 58.95238495048528, 361.4706480186432 81.91919994540513 M362.32250976562494 82.13758850097656 C362.871945079416 102.18241795276602, 352.3731271189947 111.25977480784059, 335.2753816209733 110.77229106798768 M362.19955151900643 82.8200659789145 C362.393030511029 100.497287345243, 352.23357137509925 111.3644612295553, 334.7942017721012 110.73980616163462 M334.8169582488095 110.10508975517426 C245.5699757366206 109.01630215840247, 154.6052961848136 107.86404541790932, 28.075445008872617 108.22631600550118 M334.28000336721755 109.51194612131296 C220.98970164295713 107.75384899713893, 106.62322993504925 107.1450524917392, 27.77083566517872 109.30846399841522 M27.379196166992188 109.51678466796875 C9.046594238529604 109.27454710379243, -1.0494603551924229 101.88958045219381, 1.6850746236741543 82.37474787607789 M26.997222121804953 111.24764943495393 C7.286478820132714 111.54318566750734, 2.002648727782071 101.24712471396973, -1.6408577872440218 83.69134044479578 M-1.304452296346426 82.92079156264663 C1.903316099645843 61.96878677498172, 0.18823571920608462 40.99865073121331, -0.6490342579782009 25.84652930125594 M-0.7735392767935991 82.62315839715302 C1.0601605578780817 63.912263298504044, 1.1102180286765742 46.062881337672444, -0.8547511417418718 27.686833145096898 M0 27.379196166992188 C-0.43562204018235207 9.21489708001415, 9.0306224587063 0.7839785851538181, 27.268336351960897 0.6858686245977879 M-0.569716040045023 26.61622715368867 C-1.6727413786575198 8.027309545191628, 11.392729040669899 0.8307965500280261, 25.91036881674081 -1.9650239842012522" stroke="#000000" stroke-width="1" fill="none"></path></g><g transform="translate(659.6738891601562 138.0562744140625) rotate(0 84.5 12.5)"><text x="0" y="18" font-family="Virgil, Segoe UI Emoji" font-size="20px" fill="#000000" text-anchor="start" style="white-space: pre;" direction="ltr">__v_isReadonly </text></g><g transform="translate(658.6738891601562 166.82083129882812) rotate(0 79 12.5)"><text x="0" y="18" font-family="Virgil, Segoe UI Emoji" font-size="20px" fill="#000000" text-anchor="start" style="white-space: pre;" direction="ltr">__v_isReactive</text></g><g transform="translate(660.6738891601562 194.82083129882812) rotate(0 159 12.5)"><text x="0" y="18" font-family="Virgil, Segoe UI Emoji" font-size="20px" fill="#000000" text-anchor="start" style="white-space: pre;" direction="ltr">__v_raw: return source target</text></g><g transform="translate(878.8977661132812 152.64596557617188) rotate(0 52 12.5)"><text x="0" y="18" font-family="Virgil, Segoe UI Emoji" font-size="20px" fill="#000000" text-anchor="start" style="white-space: pre;" direction="ltr">is readonly</text></g><g><g transform="translate(816.3943481445312 151.68814086914062) rotate(0 8.610807528346754 6.279396681752985)"><path d="M-1.0445559002459048 -0.15786077007651333 C2.082481251408656 2.170298840353886, 15.034677475939194 11.70550152634581, 18.266170956939458 13.845134983211755 M0.6079135227855295 -1.2863416197057815 C3.6118260997192317 0.7254716401143622, 14.440275329217936 9.66947714446423, 17.26707850254141 12.193268734896556" stroke="#000000" stroke-width="1" fill="none"></path></g></g><g><g transform="translate(820.0337524414062 181.98355102539062) rotate(0 6.6313728310167335 -7.928245262703854)"><path d="M-0.909334411472082 -0.8813761688768864 C1.25418718829751 -3.9309030431012317, 11.482509431988001 -14.590555268277726, 14.17208007350564 -17.126787922531367 M0.8141262931656095 1.2702973971236498 C2.7058767501544208 -1.1240626481703173, 10.809214545590802 -12.678016547414785, 13.166784485382959 -15.930122192455455" stroke="#000000" stroke-width="1" fill="none"></path></g></g><g><g transform="translate(834.4804077148438 164.13504028320312) rotate(0 16.978808655589773 0.508665034932676)"><path d="M-1.180150506645441 -0.6451062820851803 C4.523364204416673 -0.591404984643062, 29.058849511792264 0.20020181511839225, 35.13776781782508 0.5608359433710575 M0.40113174802623686 1.6306089744810017 C5.872948237822081 1.7794715278192115, 28.521015857721988 1.3718861889683953, 34.22891752398573 1.5683020240906627" stroke="#000000" stroke-width="1" fill="none"></path></g><g transform="translate(834.4804077148438 164.13504028320312) rotate(0 16.978808655589773 0.508665034932676)"><path d="M16.76418151192154 7.5950860733258665 C22.438050683538524 5.757781317183451, 30.057312132401933 1.4579970680364756, 35.0938631473971 0.47452838000233055 M17.762730067481172 8.09903548323835 C23.236328630050455 4.714016374746352, 28.886257887731645 2.6605866723236793, 34.383743825573355 1.0153371251905055" stroke="#000000" stroke-width="1" fill="none"></path></g><g transform="translate(834.4804077148438 164.13504028320312) rotate(0 16.978808655589773 0.508665034932676)"><path d="M16.825673114533917 -4.409066583406206 C22.500268537854208 -1.7287335143338727, 30.096385164708835 -1.5102751937162868, 35.0938631473971 0.47452838000233055 M17.82422167009355 -3.9051171734937227 C23.197025631585447 -3.1712402927423113, 28.82585424970072 -1.1054848098205619, 34.383743825573355 1.0153371251905055" stroke="#000000" stroke-width="1" fill="none"></path></g></g><g><g transform="translate(365.2691647127326 223.67639367836318) rotate(0 0.6251534280748388 30.464787934057654)"><path d="M-0.9066583536565304 1.094610645622015 C-0.4467267548848705 10.75807403669949, 1.6239630849115465 49.448367186695116, 2.1569652098062533 59.099197063368294 M0.8182072813343257 0.6236772892344744 C1.1335137715659274 10.948526343165668, 0.8825852901223962 50.42083491961822, 0.9729190268292176 60.305898578880836" stroke="#000000" stroke-width="1" fill="none"></path></g><g transform="translate(365.2691647127326 223.67639367836318) rotate(0 0.6251534280748388 30.464787934057654)"><path d="M-7.4518166132262 31.475603411844276 C-7.504334453726834 38.791152562538215, -5.11031616481053 48.24343342774534, -0.2790127559826625 60.306810466615964 M-9.757645219936038 32.82292892125835 C-6.494992965502733 41.25536438121057, -3.86572844461039 48.18061471904805, 0.4921140153630721 59.36719009657066" stroke="#000000" stroke-width="1" fill="none"></path></g><g transform="translate(365.2691647127326 223.67639367836318) rotate(0 0.6251534280748388 30.464787934057654)"><path d="M12.996188667665411 31.457343698065607 C7.836311639504524 38.62295916046816, 5.122800557684444 48.07980096074669, -0.2790127559826625 60.306810466615964 M10.690360060955573 32.804669207479684 C7.800479095871706 41.18101252998053, 4.277211949313791 48.1117569718012, 0.4921140153630721 59.36719009657066" stroke="#000000" stroke-width="1" fill="none"></path></g></g><g transform="translate(201.0283203125 286.919677734375) rotate(0 163.37750244140625 49.2408447265625)"><path d="M165.77127457037568 1.1947866044938564 C220.40271932140837 16.649205528660808, 275.5148921911215 32.722267372994814, 324.8951946534216 51.10041707381606 M163.93672141246498 -0.5206989031285048 C197.8855763992275 11.072637332322463, 233.94501920733202 22.051701031344397, 326.11060789041215 50.312779845669866 M327.61530173197383 49.38920586928725 C274.976388095159 65.75253657388313, 224.14584441069417 81.78793770024984, 163.7154219187796 97.61313086375598 M327.11674240045244 49.431714000180364 C262.9995941558283 67.8589712370937, 199.2175964580553 86.42052805399027, 164.66114088706672 98.41344905085866 M164.58967328444123 98.6008027158678 C117.4221612735831 83.21501517112131, 66.8417989484214 70.32200425816222, -0.8047095499932766 49.86531227454543 M163.48107239417732 99.32722878642385 C125.95770399083108 86.76687418874057, 89.93169012103886 74.67534173108042, -0.1439951378852129 49.21069914288819 M0.5586470402777195 48.45128124579787 C45.85780917014927 37.70515589386225, 86.77317842375487 25.029870593622327, 162.77669477835298 1.8336458764970303 M-0.013684602454304695 49.43055492825806 C49.02206785958261 35.583174272999166, 96.43017177339645 22.62379077598452, 164.17670616321266 -0.2167955618351698" stroke="#000000" stroke-width="1" fill="none"></path></g><g transform="translate(299.8772888183594 308.2193298339844) rotate(0 71.5 25)"><text x="0" y="18" font-family="Virgil, Segoe UI Emoji" font-size="20px" fill="#000000" text-anchor="start" style="white-space: pre;" direction="ltr">array methods</text><text x="0" y="43" font-family="Virgil, Segoe UI Emoji" font-size="20px" fill="#000000" text-anchor="start" style="white-space: pre;" direction="ltr">invocation?</text></g><g transform="translate(650.9810791015625 289.4424133300781) rotate(0 142.56015014648438 45.6556396484375)"><path d="M21.659803804010153 -1.3013114891946316 M23.46477489045039 1.3927471966384044 C99.28656698095955 -2.656324531211429, 175.59246378192594 -0.6530587323362576, 261.8045502613095 1.431314152466701 M22.771526503399052 0.47015196390851194 C89.35144152393012 -0.32429819344559674, 156.12562182137512 -0.7283627000913251, 262.30689654840586 0.16053183389963652 M262.29248046875 0 C275.73775169874233 -1.7729469500482082, 283.19807451590896 7.848788821448883, 283.6028441749513 21.7035470046103 M263.94743567332625 -1.657319899648428 C276.6574176874633 2.2239945990964767, 284.76359327901156 6.805002546620866, 284.5580929743126 24.518340973369778 M283.64756155386567 24.25614457949996 C283.8451443621102 37.203847853821685, 285.18918034519584 54.941159129852394, 285.64048493281007 70.31620925292373 M285.5278480928391 23.567667366936803 C284.0719162079699 37.278878867719214, 284.46189181536505 53.00535106491275, 285.7300625126809 68.31556719727814 M285.12030029296875 68.48345947265625 C284.19176131114364 82.19681434209149, 276.40343961740535 90.95985412970185, 261.6364309154451 91.14329171553254 M285.4760556779802 69.15164935961366 C283.3359420107678 85.9433658980454, 278.19359706907227 89.85020354222506, 260.21561878789214 91.52108260821551 M262.8331704434532 90.68567597878155 C193.8261962893897 90.64342481159167, 126.15340668547677 92.85064409141147, 23.678757965683122 91.21879480349466 M261.82426604123174 91.7931113223312 C185.81413755174106 92.56204526323019, 111.04936730817651 92.68378818138638, 22.476984923736822 91.97255058620074 M22.82781982421875 91.311279296875 C7.796451465537151 90.5897272862494, 1.9628950916230679 82.61097375924389, 1.4758495651185513 69.21781731024384 M21.609457787126303 91.7573868073523 C8.478352595058581 90.63915041517467, -0.5332485569640995 84.86091280809293, -2.2360160125419495 68.15451806019992 M0.7112093009054661 67.26762348040938 C-1.7507599788574475 53.30047126520392, 0.6761770052047473 36.314821582957435, 1.3434606827795506 21.018438275903463 M0.8976241033524275 67.69655239768326 C-0.6841981502125896 55.8431604794315, -0.012064644868198693 44.20205074196588, -0.3740002829581499 23.460161151364446 M0 22.82781982421875 C-1.5892097391188145 6.865956270446381, 6.954159037520489 0.9806551970541477, 22.3242251239717 -1.0197756253182888 M1.2070170007646084 22.745463732630014 C2.1754046486690637 7.767069179130098, 6.975374109235903 0.2533819718286394, 23.505288182385264 0.6751170558854938" stroke="#000000" stroke-width="1" fill="none"></path></g><g transform="translate(664.0499267578125 320.4779052734375) rotate(0 124.5 12.5)"><text x="0" y="18" font-family="Virgil, Segoe UI Emoji" font-size="20px" fill="#000000" text-anchor="start" style="white-space: pre;" direction="ltr">call this wrapper function</text></g><g><g transform="translate(524.6638200309412 337.82337476584917) rotate(0 57.28516964701919 -0.7358727305274044)"><path d="M-0.18296756520867352 -0.027340187877416655 C19.294721534408865 -0.1783646978986364, 96.74769602198273 0.02691638665790297, 116.30850356032097 0.0860473636972301 M-1.7381642662826926 -1.0872977318521588 C17.653202970100807 -1.6509824123688888, 95.70618080596559 -1.5040759768005962, 115.49789835553572 -1.5577928247520185" stroke="#000000" stroke-width="1" fill="none"></path></g><g transform="translate(524.6638200309412 337.82337476584917) rotate(0 57.28516964701919 -0.7358727305274044)"><path d="M87.26789953049555 9.156550635342713 C95.89389716096964 8.049352383546452, 103.44184773498267 2.339980204289006, 116.66530437435911 -1.7018582011231638 M86.6611820091708 8.295078768153902 C97.76039304568383 5.2609330385375825, 109.16018545463491 -0.02011151095667607, 116.42117329169021 -2.1533497116187075" stroke="#000000" stroke-width="1" fill="none"></path></g><g transform="translate(524.6638200309412 337.82337476584917) rotate(0 57.28516964701919 -0.7358727305274044)"><path d="M87.25521674172376 -11.364654045004597 C96.05410505622443 -7.269076609394904, 103.60527110714736 -7.775692439071243, 116.66530437435911 -1.7018582011231638 M86.648499220399 -12.226125912193408 C97.72228808675622 -7.2362025123948985, 109.12703960384485 -4.493233183443872, 116.42117329169021 -2.1533497116187075" stroke="#000000" stroke-width="1" fill="none"></path></g></g><g transform="translate(381.62481689453125 236.128173828125) rotate(0 12 12.5)"><text x="0" y="18" font-family="Virgil, Segoe UI Emoji" font-size="20px" fill="#000000" text-anchor="start" style="white-space: pre;" direction="ltr">No</text></g><g transform="translate(583.6248168945312 298.128173828125) rotate(0 15 12.5)"><text x="0" y="18" font-family="Virgil, Segoe UI Emoji" font-size="20px" fill="#000000" text-anchor="start" style="white-space: pre;" direction="ltr">Yes</text></g><g><g transform="translate(366.1937003113577 385.9069451017551) rotate(0 0.789567618132935 30.482761312818752)"><path d="M-0.3684628151357173 0.3314505837857724 C-0.08217552103557174 10.40544496342467, 1.547053707740804 51.32963071390623, 1.9475980514014963 61.505664430703334 M1.6389554775785657 -0.5401418050657958 C1.8390813510353816 9.705916700408999, 1.5134332291833812 49.76551026855232, 1.5513957973576042 59.74665947799135" stroke="#000000" stroke-width="1" fill="none"></path></g><g transform="translate(366.1937003113577 385.9069451017551) rotate(0 0.789567618132935 30.482761312818752)"><path d="M-8.083954799957603 33.28136035823509 C-3.981042223654635 42.46367255128867, -0.9262388329953675 49.243788503742564, -0.09964761398668553 58.2301504777794 M-8.938537800721853 31.705330467086878 C-4.743297693771854 40.67981692192959, -2.0885605616799605 49.742000820492876, 1.674789658934519 60.09175165724505" stroke="#000000" stroke-width="1" fill="none"></path></g><g transform="translate(366.1937003113577 385.9069451017551) rotate(0 0.789567618132935 30.482761312818752)"><path d="M12.437185369931036 33.33435576956816 C9.990180147440658 42.43674350671655, 6.495534615392601 49.19994564557187, -0.09964761398668553 58.2301504777794 M11.582602369166786 31.75832587841995 C9.012122922637486 40.685809243408244, 4.900988049072184 49.73052042032944, 1.674789658934519 60.09175165724505" stroke="#000000" stroke-width="1" fill="none"></path></g></g><g transform="translate(228.5201873779297 450.34423828125) rotate(0 138.24242401123047 44.87158203125)"><path d="M137.9994169510901 0.8556460700929165 C179.991996496427 15.093722671164283, 224.29937623781177 27.72467351601095, 277.466282133013 43.805950459092855 M138.6781790535897 -0.6189041715115309 C167.76943719931586 10.332204648481849, 193.71951840835973 18.75418000128323, 276.6709570568055 44.6691968459636 M275.62422490492463 45.86149340495467 C239.00347876289493 56.485676577821735, 200.11059474583288 70.79309971316147, 140.64337051287293 88.88119095191358 M276.5951366107911 44.74044728465378 C236.593675619142 57.617384403457685, 199.13520624259678 69.63491518857325, 138.07363048009574 88.96006876416503 M137.93104350939393 90.14440601691602 C108.65140786572839 79.88323347058311, 78.55990687917466 69.20128326176061, 0.2564520873129368 44.198706682771444 M139.36287656240165 90.1577077526599 C92.74699275027626 73.65114281456229, 45.02536387368703 60.01150369637202, 0.802809564396739 45.42048299498856 M-1.3974337540566921 45.47525792941451 C30.51285544121638 33.6662984184362, 58.95178990541026 23.63956364257261, 138.27148449793458 1.8281998001039028 M-0.5931707937270403 44.05261600203812 C50.09466925216839 28.622690419983115, 97.33455161610618 12.751158865485337, 139.0769543927163 0.6654908079653978" stroke="#000000" stroke-width="1" fill="none"></path></g><g transform="translate(316.0791320800781 467.83447265625) rotate(0 51 25)"><text x="0" y="18" font-family="Virgil, Segoe UI Emoji" font-size="20px" fill="#000000" text-anchor="start" style="white-space: pre;" direction="ltr">is internal</text><text x="0" y="43" font-family="Virgil, Segoe UI Emoji" font-size="20px" fill="#000000" text-anchor="start" style="white-space: pre;" direction="ltr">symbol key</text></g><g><g transform="translate(503.18353271484375 495.2279052734375) rotate(0 71.6343482635915 -1.9945116303861141)"><path d="M-0.5849029518663883 -0.25038954243063927 C23.410979312906665 -1.0241011681656045, 119.6966690880557 -3.3190228921671707, 143.85359947904945 -3.738633718341589 M1.3088842690642926 -1.4274479975458236 C25.143953246042756 -2.159374755934502, 119.08065055039091 -2.6998545090512684, 142.82491261399352 -2.702296833312139" stroke="#000000" stroke-width="1" fill="none"></path></g><g transform="translate(503.18353271484375 495.2279052734375) rotate(0 71.6343482635915 -1.9945116303861141)"><path d="M114.25580777920106 7.408799566015698 C121.16434402116619 5.379487632546454, 130.94202049122433 3.0902816459960567, 142.73522424957716 -4.0493355754669755 M113.97065254806796 6.680637539982892 C124.04585714212516 4.333400159169923, 135.6444568898107 -0.21362327622105148, 142.91972637995147 -1.9470002770330757" stroke="#000000" stroke-width="1" fill="none"></path></g><g transform="translate(503.18353271484375 495.2279052734375) rotate(0 71.6343482635915 -1.9945116303861141)"><path d="M114.1782312620265 -13.112262401383134 C121.26378350114652 -9.192985318845341, 131.0639462092585 -5.533980412171126, 142.73522424957716 -4.0493355754669755 M113.8930760308934 -13.84042442741594 C123.82003936168961 -8.910105995125708, 135.44615114581728 -6.179460552865497, 142.91972637995147 -1.9470002770330757" stroke="#000000" stroke-width="1" fill="none"></path></g></g><g transform="translate(555.6248168945312 459.128173828125) rotate(0 15.5 12.5)"><text x="0" y="18" font-family="Virgil, Segoe UI Emoji" font-size="20px" fill="#000000" text-anchor="start" style="white-space: pre;" direction="ltr">yes</text></g><g transform="translate(652.37255859375 458.06353759765625) rotate(0 92.8367919921875 32.063262939453125)"><path d="M17.88346367701888 1.7924782074987888 M15.887536410242319 0.3873836360871792 C67.00605066736307 -1.0002641847172078, 120.53460291886859 -2.380698101762801, 168.0614709891379 0.5762820802628994 M15.30679121427238 -0.7639710288494825 C75.62051394902119 0.009359931197050697, 133.774719395562 -0.8377737648822035, 168.9255648534745 -0.748792527243495 M169.64195251464844 0 C179.63240537668267 0.5616531409323215, 185.23234992846847 6.534764492263397, 183.74541884288192 17.572086457163095 M170.96453350409865 -1.6930582486093044 C182.5970451739306 -1.110693903453648, 184.36817037332804 7.123458308291933, 183.81665757168085 15.936764310114086 M185.64398491755128 15.255076821893454 C184.29986022720715 26.83122016563952, 184.50773822079083 41.384837722032074, 186.67765307798982 47.514112289994955 M185.87148573808372 16.947184743359685 C186.4364028063839 26.925625342761812, 185.09199769173318 38.47480759560632, 184.9271986167878 47.32681560702622 M185.673583984375 48.09489440917969 C187.6361204944551 60.382526798794665, 180.04433581853905 64.98253786936402, 169.77823501452804 62.61907756701112 M186.22837537154555 48.42994451895356 C183.4497375117615 57.08956919542203, 181.88786341814944 63.30329866241664, 171.02637874353678 62.96502054762095 M167.8325775898993 63.78953331336379 C115.24699089452268 66.88628645183698, 57.01236016228083 63.552590205689825, 17.404201988130808 63.47801977023482 M169.84681716375053 63.14800268597901 C123.56052470252943 65.45739830235803, 79.03878721872533 65.65586549739206, 15.215201703831553 64.24529636092484 M16.031631469726562 64.12652587890625 C6.3090098065634574 64.04467344656587, 0.9012384973466396 58.46615414197246, -1.6601249612867832 48.20288813486695 M14.52174299582839 64.30000234022737 C6.679951364484927 65.76461587380618, -1.7578561855480075 56.90671613446126, 2.1646040963008994 46.69922694992274 M1.4452883042395115 49.606628354638815 C0.8845292411720078 41.377492826850954, 1.0683746419822495 33.14585104295958, 0.2974836863577366 15.866655644029379 M0.7457554619759321 48.456799449399114 C-0.2449740492416953 38.611382818068925, -0.38266071906820287 27.994666824556123, -0.14868882484734058 16.673367263749242 M0 16.031631469726562 C-0.6963489688932896 3.882799708594879, 5.674385682990154 1.9770785607397556, 14.488658007234335 -0.8720079623162746 M-0.44079453125596046 14.438813213258982 C1.2954890595749018 7.496271896672746, 3.3903763897096124 -2.0355173842981458, 17.262064831145107 -0.9512109654024243" stroke="#000000" stroke-width="1" fill="none"></path></g><g transform="translate(678.6248168945312 476.5989990234375) rotate(0 63 12.5)"><text x="0" y="18" font-family="Virgil, Segoe UI Emoji" font-size="20px" fill="#000000" text-anchor="start" style="white-space: pre;" direction="ltr">direct return</text></g><g><g transform="translate(366.3922810543369 541.0185574441733) rotate(0 1.4814917269616785 58.729860057712415)"><path d="M0.9053226090967657 -0.7723362900316715 C1.2670215029684604 19.084025671343287, 2.728952581270486 98.71532991161088, 3.0415052043902278 118.23205640545655 M-0.07852175046689802 1.4365832123626023 C0.06247365809471908 21.045005770978488, 1.8351632385820895 97.29996900001991, 2.1748052783845515 116.57992818545159" stroke="#000000" stroke-width="1" fill="none"></path></g><g transform="translate(366.3922810543369 541.0185574441733) rotate(0 1.4814917269616785 58.729860057712415)"><path d="M-9.950234694616272 88.86421915615057 C-3.3424866401603612 98.77103080811757, -2.4776061268904463 110.507222582475, 0.4844748959480376 114.64203759248909 M-8.84698720669873 87.72370842384254 C-5.5331238302192665 96.25934052556562, -2.6976324332643156 105.178937134974, 1.812195919880137 117.06358381885644" stroke="#000000" stroke-width="1" fill="none"></path></g><g transform="translate(366.3922810543369 541.0185574441733) rotate(0 1.4814917269616785 58.729860057712415)"><path d="M10.56663954249707 88.44246813443962 C9.52642441128621 98.66121473214686, 2.7465263645564058 110.55455486795408, 0.4844748959480376 114.64203759248909 M11.669887030414612 87.30195740213159 C8.74234917294546 95.9289921866301, 5.337441328146301 104.97686831492022, 1.812195919880137 117.06358381885644" stroke="#000000" stroke-width="1" fill="none"></path></g></g><g transform="translate(387.84161376953125 783.3760375976562) rotate(0 75.96392822265625 37.068115234375)"><path d="M45.00863367102053 2.729245403038668 C55.187521487987226 -0.12767408796767787, 69.8160375227089 -1.4608715178918508, 81.98366898480222 -0.8037866145497929 C94.15130044689555 -0.14670171120773523, 107.57536932550362 3.1412433918399283, 118.01442244358049 6.671754823091014 C128.45347556165734 10.2022662543421, 138.81855461943672 14.976049100602623, 144.61798769326344 20.379281972956722 C150.41742076709016 25.78251484531082, 153.46774590429604 32.97160104120797, 152.8110208865408 39.0911520572156 C152.15429586878557 45.210703073223236, 147.17525999867178 51.8713410034551, 140.67763758673198 57.09658806900253 C134.18001517479217 62.32183513454996, 124.50540411434515 67.76726291187018, 113.82528641490205 70.44263445050018 C103.14516871545895 73.11800598913018, 89.19718325113185 73.37211339613964, 76.59693139007337 73.14881730078255 C63.99667952901488 72.92552120542547, 49.261286987328475 71.72336054011194, 38.223775248551135 69.10285787835764 C27.186263509773795 66.48235521660334, 16.627516013286236 62.404662262862395, 10.371860957409325 57.425801330256704 C4.116205901532413 52.44694039765101, 0.9243321216892184 45.49312194342111, 0.6898449132896616 39.229692282723505 C0.45535770489010474 32.9662626220259, 3.3566564540868606 25.26160361477271, 8.964937707011984 19.845223366071075 C14.573218959937108 14.42884311736944, 27.618612125166525 9.76884785882317, 34.3395324308404 6.731410790513696 C41.06045273651427 3.693973722204221, 45.95501762574929 2.3403818804984335, 49.29045954105523 1.6206009562142256 C52.62590145636116 0.9008200319300178, 53.8072798609496 1.674748569400824, 54.35218392267603 2.412725244808449 M45.583901211972844 2.8748743859423627 C56.040069808169015 0.518193925179252, 70.96224159099174 0.5106929681681809, 83.1095767531058 1.317738238495366 C95.25691191521986 2.124783508822551, 108.23627094242646 4.368770367899897, 118.4679121846572 7.717146007905473 C128.69955342688795 11.06552164791105, 138.70426266445088 16.160011308246162, 144.49942420649023 21.40799207852882 C150.29458574852958 26.65597284881148, 154.13675330770272 33.40201878012124, 153.2388814368934 39.20503062960144 C152.34100956608407 45.00804247908164, 145.8164691047059 51.09686644271257, 139.11219298163434 56.226063175410005 C132.40791685856277 61.35525990810744, 123.50894965207138 66.78104882938847, 113.01322469846394 69.98021102578605 C102.51749974485651 73.17937322218363, 88.67868820985737 75.63887084328813, 76.13784325998975 75.4210363537955 C63.59699831012214 75.20320186430287, 48.54670231525635 71.87266044713006, 37.768154999258265 68.67320408883023 C26.989607683260182 65.4737477305304, 17.87972766435117 61.084955897019086, 11.466559364001242 56.224298203996526 C5.053391063651315 51.363640510973966, -0.4036023989638788 45.55177841269802, -0.7108548028412969 39.509257930694865 C-1.018107206718715 33.46673744869171, 3.82225661180446 25.42076681941717, 9.623044940736733 19.969175311977597 C15.423833269669007 14.517583804538024, 28.0738484004439 9.518707621257722, 34.09387517075234 6.799708886057424 C40.11390194106078 4.080710150857126, 43.56592927463308 3.95376740731394, 45.74320556258738 3.655182900775813 C47.92048185054168 3.356598394237686, 46.67078488314673 4.562930314590087, 47.15753289847815 5.008201846828662" stroke="#000000" stroke-width="1" fill="none"></path></g><g transform="translate(404.1395263671875 807.5345458984375) rotate(0 63.5 12.5)"><text x="0" y="18" font-family="Virgil, Segoe UI Emoji" font-size="20px" fill="#000000" text-anchor="start" style="white-space: pre;" direction="ltr">track effect</text></g><g transform="translate(250.72695922851562 661.1141357421875) rotate(0 113.56425476074219 49.880950927734375)"><path d="M112.66402488574386 -0.8547402583062649 C155.93267534023445 18.70586867117375, 196.4321267968475 34.16434206486732, 227.15128987655044 49.63051939383149 M114.1939007062465 -0.2190087754279375 C152.9286018869632 18.87481256220692, 191.18213351513765 34.01766125317865, 226.30432647652924 49.860236970707774 M227.31507867202163 51.87946558371186 C198.1469021263687 62.67947674905627, 168.40356865318307 77.05375423968111, 115.88192969188094 98.39005864039063 M227.48576063103974 50.868309346958995 C195.18723692093437 66.29152650635592, 162.89423035835034 79.73997543900569, 114.75573420710862 99.8078131955117 M114.74460154399276 98.42303192988038 C76.7595013248854 82.4336330339217, 41.41424591682187 68.23530191490376, -1.0560744442045689 48.23050380125642 M113.7320139426738 99.80692866258323 C75.73458207073895 82.758398962048, 38.50785804550436 65.50192944394263, -0.25438874773681164 50.40075799636543 M-0.5951054729521275 51.66371512785554 C46.80660180207342 31.065903251804414, 89.88468841407449 11.546177323721352, 115.74038415774703 -1.9163213931024075 M0.02796703763306141 49.996873585507274 C40.317619738541545 32.27879725877196, 82.61650096792728 13.142417161874477, 113.77905404753983 0.7179287951439619" stroke="#000000" stroke-width="1" fill="none"></path></g><g transform="translate(309.62481689453125 699.24560546875) rotate(0 56.5 12.5)"><text x="0" y="18" font-family="Virgil, Segoe UI Emoji" font-size="20px" fill="#000000" text-anchor="start" style="white-space: pre;" direction="ltr">is readonly?</text></g><g transform="translate(380.62481689453125 582.24560546875) rotate(0 12 12.5)"><text x="0" y="18" font-family="Virgil, Segoe UI Emoji" font-size="20px" fill="#000000" text-anchor="start" style="white-space: pre;" direction="ltr">No</text></g><g transform="translate(385.62481689453125 398.24560546875) rotate(0 12 12.5)"><text x="0" y="18" font-family="Virgil, Segoe UI Emoji" font-size="20px" fill="#000000" text-anchor="start" style="white-space: pre;" direction="ltr">No</text></g><g><g transform="translate(391.70203967949953 763.5857381500392) rotate(341.6998824520182 -18.17787124323712 72.29651384471953)"><path d="M0.9753234721720216 -0.9606747843325137 C-5.120845257343588 23.24053987453081, -29.99918517918258 121.14200121212492, -36.41845037476264 145.55370247377147 M0.028229565722867944 1.149367008553818 C-6.233929647851599 24.98392566233263, -31.459779328461057 120.11182139076966, -37.33106595864624 143.84685282859084" stroke="#000000" stroke-width="1" fill="none"></path></g><g transform="translate(391.70203967949953 763.5857381500392) rotate(341.6998824520182 -18.17787124323712 72.29651384471953)"><path d="M-41.836460413018735 114.10023928667677 C-37.919720173902824 121.55920860956459, -37.083679807049606 133.38644466609003, -38.993004860636894 144.39411483782408 M-40.93410531392184 113.6832277928598 C-39.302283345494246 123.97303959578527, -38.355836083192195 134.97960766680487, -36.97570953546197 143.25675635675964" stroke="#000000" stroke-width="1" fill="none"></path></g><g transform="translate(391.70203967949953 763.5857381500392) rotate(341.6998824520182 -18.17787124323712 72.29651384471953)"><path d="M-21.96393768028977 119.21911051215314 C-24.286316938327925 125.23629807707005, -29.67461897428258 135.4602345600204, -38.993004860636894 144.39411483782408 M-21.061582581192877 118.80209901833616 C-26.300396246923462 127.44694507829162, -32.19451615321377 136.69148308819692, -36.97570953546197 143.25675635675964" stroke="#000000" stroke-width="1" fill="none"></path></g></g><g transform="translate(322.4569396972656 809.9249877929688) rotate(0 15 12.5)"><text x="0" y="18" font-family="Virgil, Segoe UI Emoji" font-size="20px" fill="#000000" text-anchor="start" style="white-space: pre;" direction="ltr">Yes</text></g><g><g transform="translate(482.61602783203125 710.5813903808594) rotate(0 68.36676008070822 -0.09285388961433227)"><path d="M0.4744424678385257 1.012365033477545 C23.21414992983142 0.6998135112226012, 112.6979976353546 -1.0133907057344913, 135.24410081878304 -1.1980728127062321 M-0.7356139658857137 0.4982527307141571 C22.479406265222153 0.3083791572321205, 114.88576572686743 0.620154710756615, 137.46913412730208 0.20476271037943672" stroke="#000000" stroke-width="1" fill="none"></path></g></g><g><g transform="translate(616.9318237304688 710.091552734375) rotate(0 2.7617151614929867 122.73385376063646)"><path d="M-0.5711053110659122 0.9755295373499393 C-0.005768487839967973 41.47199641025471, 3.0371546517358676 203.3055586087906, 3.704774952745015 243.9277815546934 M1.3299256712850185 0.4420785991195588 C2.2661762536829255 40.98661446183766, 5.338708053897093 204.09983433331521, 6.094535634051958 245.02562892215332" stroke="#000000" stroke-width="1" fill="none"></path></g></g><g transform="translate(634.6248168945312 811.7672119140625) rotate(0 12 12.5)"><text x="0" y="18" font-family="Virgil, Segoe UI Emoji" font-size="20px" fill="#000000" text-anchor="start" style="white-space: pre;" direction="ltr">No</text></g><g transform="translate(248.0975341796875 918.9154663085938) rotate(0 125.45266723632812 43.67694091796875)"><path d="M124.8986720405519 1.7980694808065891 C152.53837478008674 8.723545619766064, 180.58261918575676 17.71681414164121, 252.79178648814565 44.92523968592286 M126.1641787905246 -0.9256025869399309 C152.43179182378313 9.387084424440511, 177.8975625100307 19.29369645485724, 250.1289155501873 43.4821934979409 M251.69205599650746 43.83467781916261 C200.743831240626 60.5201173422911, 151.39253841085366 76.69863186988722, 126.28432434424758 87.97430301085114 M250.42624020762747 43.64073279313743 C211.19574859533162 59.73868397737773, 172.69244469119033 72.04634181368034, 126.58311754651368 87.02096959762275 M124.04851597175002 87.26835418120027 C87.46493474875031 73.45217342212956, 49.82589733075736 62.211104144047425, 1.6256437860429287 43.45119607821107 M125.92870575375855 87.9093215148896 C83.36451134270112 72.90160160605308, 41.34168923048358 59.12185608875893, -0.3526474218815565 43.35629835538566 M0.0594215951859951 44.339821223169565 C35.45085559874774 31.387090599872167, 71.82117123357952 17.634872822053723, 127.12562030181289 -1.182411190122366 M-0.15069019608199596 44.03354492597282 C36.197964782938364 30.534503543116152, 74.61337487876415 18.223988552875817, 126.61434525437653 -0.9402259904891253" stroke="#000000" stroke-width="1" fill="none"></path></g><g transform="translate(291.77996826171875 949.3329467773438) rotate(0 90.5 12.5)"><text x="0" y="18" font-family="Virgil, Segoe UI Emoji" font-size="20px" fill="#000000" text-anchor="start" style="white-space: pre;" direction="ltr">is shallow reactive</text></g><g><g transform="translate(624.0104370117188 953.9592895507812) rotate(0 -58.63369469585365 3.4165186550188764)"><path d="M0.36598917022347455 0.26323585733771315 C-19.319389579941827 1.0978815498451393, -97.49662662173311 5.097816930462917, -117.24081961140037 6.110307624191046 M-0.901005244748667 -0.6441692628990858 C-20.728076326049244 0.8799601988463353, -97.99021045952725 6.102382769531881, -117.63337856193073 7.477206572936848" stroke="#000000" stroke-width="1" fill="none"></path></g><g transform="translate(624.0104370117188 953.9592895507812) rotate(0 -58.63369469585365 3.4165186550188764)"><path d="M-89.77443846259399 -2.930288360562609 C-100.86005390170175 0.2579091833006233, -110.69761604666823 5.507066020551216, -115.98509972576983 7.544906895654276 M-90.41481113191827 -4.359409312826084 C-98.08013674505438 -1.4129750193010984, -105.79583564688208 3.6027063896676266, -117.8564813419897 8.082910345913842" stroke="#000000" stroke-width="1" fill="none"></path></g><g transform="translate(624.0104370117188 953.9592895507812) rotate(0 -58.63369469585365 3.4165186550188764)"><path d="M-88.36621770365144 17.542545265487373 C-100.16464868288577 13.106428499298886, -110.52694355966527 10.726976080272287, -115.98509972576983 7.544906895654276 M-89.00659037297572 16.1134243132239 C-97.00125383211497 12.961786625506864, -105.13676290891641 11.874231867715892, -117.8564813419897 8.082910345913842" stroke="#000000" stroke-width="1" fill="none"></path></g></g><g transform="translate(64.34793090820312 932.7735595703125) rotate(0 50.60871887207031 32.474029541015625)"><path d="M16.88761430606246 1.0901807583868504 M16.252453926950693 1.2635206542909145 C36.662149042496964 -1.6315995969561254, 56.68866926180299 -0.08186536214624984, 86.61406398192048 1.485111054033041 M16.16299250535667 0.8712388891726732 C35.730205548729515 -0.31006002620606987, 56.903648374206846 -0.6136718411818084, 84.15959283523262 -0.29161071591079235 M84.98042297363281 0 C95.56759899482131 -0.3862726651132107, 99.44962006434798 7.085116986185312, 100.5357022844255 16.184638861566782 M83.68246739730239 -1.6136250458657742 C97.48318067658693 1.2570878429338337, 103.50470400322229 4.841930387727916, 102.02866040933877 14.966286550275981 M102.66928756609559 14.479770358651876 C101.45994791625529 26.693079715580115, 102.158189984546 39.31379492577984, 100.55686045065522 49.984510477632284 M101.7463866751641 17.130864204838872 C100.08075502832766 25.9221359037613, 102.05971035679217 34.98129281081361, 101.26827463321388 48.65851676650345 M101.21743774414062 48.71104431152344 C101.45189374312758 60.96124792471528, 95.4237204156816 63.398892764002085, 85.8661716543138 64.92262423411012 M101.41010015830398 48.718438390642405 C102.01786026824266 61.3313817543909, 96.35381268728524 65.0829353434965, 86.0379550980404 66.88123636078089 M83.25468504801393 65.8526515327394 C61.121521008264466 66.37927261624621, 32.82735004102478 65.31265858445452, 16.4401934184134 64.58457213267684 M84.90798976831138 64.52480501122773 C69.91698434631667 65.05714130054216, 56.065655972051445 63.5916108454297, 17.034022776409984 65.3215119857341 M16.237014770507812 64.94805908203125 C6.228110488504171 63.08945393934846, -0.7288424409925938 57.58225167170167, 1.8902292810380459 47.968669299036264 M16.327506478875875 65.07331371679902 C3.7740494119003416 66.30722519587725, -1.4925185395404696 59.37329866718501, -2.10855389367789 50.90604258608073 M-1.026113148778677 49.20323961600661 C-1.2172676080065394 43.509245976595395, 0.41690280501073346 35.46142772170566, 0.5598697699606419 17.710680540651083 M0.2902883570641279 49.22032815404236 C-0.12809268269953633 39.99757379775248, 0.24166312183919048 31.841288633967483, -0.08573475666344166 15.734575869515538 M0 16.237014770507812 C-0.06288773193955421 5.7586298026144505, 5.251544531434774 -1.6739188395440578, 17.78063517436385 0.10051453486084938 M-1.7363036312162876 15.12443232908845 C0.46346075404435405 7.326396731846034, 3.3289854692295195 -0.3224105494096874, 14.54993055332452 1.157752345316112" stroke="#000000" stroke-width="1" fill="none"></path></g><g transform="translate(85.99481201171875 949.967529296875) rotate(0 30 12.5)"><text x="0" y="18" font-family="Virgil, Segoe UI Emoji" font-size="20px" fill="#000000" text-anchor="start" style="white-space: pre;" direction="ltr">return</text></g><g><g transform="translate(251.73748779296875 962.185302734375) rotate(0 -41.043194653838896 0.7563210867344878)"><path d="M0.6499653674662114 -0.7217470385134219 C-12.99576926852266 -0.24320867632826165, -69.11039466684063 2.014797840764125, -82.73635467514396 2.2343892119824886 M-0.4679415439534933 1.5137318209279331 C-13.678265525695558 1.7199613307385397, -67.05975760111895 0.576597291774427, -80.57633058150299 0.577413355158642" stroke="#000000" stroke-width="1" fill="none"></path></g><g transform="translate(251.73748779296875 962.185302734375) rotate(0 -41.043194653838896 0.7563210867344878)"><path d="M-53.471364473412734 -11.107724795942902 C-57.30211490145099 -5.970380168396053, -66.49213442559429 -2.8414070279675476, -81.45277324859984 1.8134299229551107 M-51.72671158188115 -8.967997674723863 C-60.093467661168326 -5.998929257980506, -68.16916595562563 -4.469630003502605, -80.16250843909569 0.1860494978446514" stroke="#000000" stroke-width="1" fill="none"></path></g><g transform="translate(251.73748779296875 962.185302734375) rotate(0 -41.043194653838896 0.7563210867344878)"><path d="M-53.709354601726474 9.412103738542095 C-57.37690366718844 9.866127574303592, -66.51262072313955 8.313068967456768, -81.45277324859984 1.8134299229551107 M-51.96470171019489 11.551830859761134 C-60.41928860528641 8.617582974473931, -68.42649638585894 4.241538124503983, -80.16250843909569 0.1860494978446514" stroke="#000000" stroke-width="1" fill="none"></path></g></g><g transform="translate(205.56878662109375 930.711181640625) rotate(0 15 12.5)"><text x="0" y="18" font-family="Virgil, Segoe UI Emoji" font-size="20px" fill="#000000" text-anchor="start" style="white-space: pre;" direction="ltr">Yes</text></g><g transform="translate(281.01470947265625 1054.7684936523438) rotate(0 96.92578125 35.4364013671875)"><path d="M95.47539365664124 1.7271997295320034 C123.61921745678848 9.770401945844789, 146.94620359261464 20.501005359873673, 193.85812950506806 36.9959016405046 M97.40431156568229 0.5235870499163866 C131.92909828975826 12.796191389516899, 166.3367508022493 25.092630102143595, 193.54495104961097 35.55867827124894 M193.55568409338593 37.653434332460165 C156.35228568396542 49.87359397924808, 115.73444057611323 65.59234360215817, 95.47773039713502 69.39680283889174 M192.86094578914344 35.94075024314225 C164.81492462763703 45.995496637616625, 135.96383744974733 56.529667455170916, 97.34090831689537 70.85816759057343 M97.42415583506227 69.29911702498794 C72.92527253632409 63.73020129103857, 48.11779941045654 55.42925118650665, 0.8880760706961155 36.320008572191 M97.07177427224815 71.48869842477143 C72.1603668805688 63.43145134470146, 46.71122488924408 54.44182509812899, -0.04479220695793629 35.835377933457494 M-0.9254167042672634 37.210268314927816 C25.027886891253296 29.040313109476116, 49.47247370153666 16.649662188161162, 96.64934718981385 1.6381995044648647 M-0.4805980045348406 35.05372309871018 C36.85095349330455 21.7083976768516, 73.28251760400832 7.804365141745656, 97.32162633351982 -0.7752546649426222" stroke="#000000" stroke-width="1" fill="none"></path></g><g transform="translate(348.20947265625 1077.8250732421875) rotate(0 29.5 12.5)"><text x="0" y="18" font-family="Virgil, Segoe UI Emoji" font-size="20px" fill="#000000" text-anchor="start" style="white-space: pre;" direction="ltr">is Ref</text></g><g><g transform="translate(377.58587646484375 1010.5418701171875) rotate(0 0.22560905060731784 20.264265800947328)"><path d="M-0.04379203096032147 0.5148735143244267 C-0.1416061061124007 7.201579826821883, -0.23741784666975344 32.95276329691211, -0.24100508466362958 39.263126073032616 M-1.5259215765539558 -0.260421835994348 C-1.2843230140550683 6.703716526313995, 1.3182504944658526 34.209258253757525, 1.977139677768573 40.78895343788899" stroke="#000000" stroke-width="1" fill="none"></path></g><g transform="translate(377.58587646484375 1010.5418701171875) rotate(0 0.22560905060731784 20.264265800947328)"><path d="M-5.629482429101328 21.51324333461875 C-3.8568439176257385 27.635909523771733, -2.529070620706224 35.15434239507582, 0.5882540683085653 40.8857373289664 M-6.9946114371542425 23.019287488576968 C-4.76189443138367 29.241932798676565, -1.312266348927833 33.504630656805695, 1.6287277318700053 41.299305117062126" stroke="#000000" stroke-width="1" fill="none"></path></g><g transform="translate(377.58587646484375 1010.5418701171875) rotate(0 0.22560905060731784 20.264265800947328)"><path d="M7.7477065629455 20.23137694680694 C5.112458049164365 26.770668861168623, 2.0415001775731483 34.71060924330226, 0.5882540683085653 40.8857373289664 M6.3825775548925865 21.737421100765157 C4.525842393155795 28.263755197327292, 3.892658449403813 32.917687679356945, 1.6287277318700053 41.299305117062126" stroke="#000000" stroke-width="1" fill="none"></path></g></g><g transform="translate(389.62481689453125 1013.7672119140625) rotate(0 12 12.5)"><text x="0" y="18" font-family="Virgil, Segoe UI Emoji" font-size="20px" fill="#000000" text-anchor="start" style="white-space: pre;" direction="ltr">No</text></g><g><g transform="translate(472.811517997701 1088.2369832851277) rotate(0 38.78654559406567 -2.653158724407831)"><path d="M-0.2485537670552731 -0.3388895250856876 C12.827155316879098 -1.0278590384784214, 64.63319249356661 -2.775943594010111, 77.82164495518653 -3.229328848369642 M1.8218167759012434 -1.5624104710947724 C14.782934683027737 -2.672075677682372, 64.00541389843013 -4.406509426965873, 76.80206015066466 -4.967427923729865" stroke="#000000" stroke-width="1" fill="none"></path></g><g transform="translate(472.811517997701 1088.2369832851277) rotate(0 38.78654559406567 -2.653158724407831)"><path d="M48.47764980683836 6.181091169192602 C57.04174365789563 5.193121659865117, 64.18975295028294 1.4449526504581325, 76.4822924408432 -4.474548715552537 M49.35826804565998 6.5040973278872265 C56.181165004886054 2.652709847383164, 64.68338334904313 -0.5344959241541165, 75.81092738279364 -5.93726582584366" stroke="#000000" stroke-width="1" fill="none"></path></g><g transform="translate(472.811517997701 1088.2369832851277) rotate(0 38.78654559406567 -2.653158724407831)"><path d="M47.66004838698922 -14.323823614929278 C56.58087457625247 -10.239592279910427, 63.931062422511346 -8.917253927578185, 76.4822924408432 -4.474548715552537 M48.54066662581084 -14.000817456234653 C55.46240042076947 -11.92730274052978, 64.20058907880198 -9.196525665986197, 75.81092738279364 -5.93726582584366" stroke="#000000" stroke-width="1" fill="none"></path></g></g><g transform="translate(487.62481689453125 1059.7672119140625) rotate(0 15 12.5)"><text x="0" y="18" font-family="Virgil, Segoe UI Emoji" font-size="20px" fill="#000000" text-anchor="start" style="white-space: pre;" direction="ltr">Yes</text></g><g transform="translate(556.4765625 1024.2861328125) rotate(0 132.58364868164062 52.783294677734375)"><path d="M133.47057164087892 -1.0363231338560581 C175.45668323642354 16.852478520465123, 216.99726804393833 32.59674561366908, 265.8729226626457 54.23882561549544 M133.32996514253318 -0.2526047807186842 C169.3830360661169 13.218035507045508, 204.40778373282427 27.667214635789218, 265.1175658386202 52.40957308001816 M263.4054992236198 53.24200039729476 C233.73412774376868 65.38526406759134, 199.7683810073059 80.71272955168016, 132.91075933352113 105.83037775382398 M264.2050144355745 52.6407966632396 C218.0630305093007 72.57340172030482, 167.87770264240612 92.89307985664158, 133.19082489423454 104.87505895085631 M134.32697236910462 103.84981840476392 C106.29960338956597 94.6500783252374, 77.84849633256826 85.82638613926856, 1.9708471335470676 51.76198345050216 M132.8601368945092 106.23462420888244 C96.24926878089704 90.94352163947394, 56.655749682399104 75.1350099825528, -0.4249590951949358 53.799515845254064 M-0.17559241876006126 52.978354033082724 C30.940599886793645 42.24126680133864, 62.85166158108041 28.640179047305132, 133.69606936350465 -0.03575426712632179 M-0.5365766603499651 53.908028246834874 C26.814843735452744 42.924150316361334, 55.01339573690668 32.85406112125143, 132.75153711251915 0.4479584116488695" stroke="#000000" stroke-width="1" fill="none"></path></g><g transform="translate(606.7413940429688 1055.4689331054688) rotate(0 99.5 25)"><text x="0" y="18" font-family="Virgil, Segoe UI Emoji" font-size="20px" fill="#000000" text-anchor="start" style="white-space: pre;" direction="ltr">is valid integer key </text><text x="0" y="43" font-family="Virgil, Segoe UI Emoji" font-size="20px" fill="#000000" text-anchor="start" style="white-space: pre;" direction="ltr">+ array</text></g><g><g transform="translate(689.6339721679688 1131.2488403320312) rotate(0 -0.014067061925288726 27.258859029975724)"><path d="M-0.09797587171196942 1.0066965915262698 C-0.34829772884647053 10.139599650849899, -0.8884141263862451 45.4580492037038, -0.6334007479250431 54.02810970321298 M-1.6085519337002188 0.48960835673846326 C-1.5659141522987434 9.337223186179376, 1.1035491000271092 43.43495140272814, 1.580417809849605 52.22371204324998" stroke="#000000" stroke-width="1" fill="none"></path></g><g transform="translate(689.6339721679688 1131.2488403320312) rotate(0 -0.014067061925288726 27.258859029975724)"><path d="M-7.52555983456581 26.20437613988967 C-4.334324077446639 38.755833541309606, -2.987094123336785 44.705838784203124, 3.563663834547624 53.49257024132647 M-9.837984309892944 27.162527623797967 C-5.280607409799463 35.820637153648455, -1.927298517433325 45.703680244489775, 2.1928701399173587 51.91013674379327" stroke="#000000" stroke-width="1" fill="none"></path></g><g transform="translate(689.6339721679688 1131.2488403320312) rotate(0 -0.014067061925288726 27.258859029975724)"><path d="M10.70578399062508 24.990074342501376 C7.100292138545534 37.978825186405814, 1.6585792574546288 44.38100913681511, 3.563663834547624 53.49257024132647 M8.393359515297945 25.948225826409672 C6.529359673936223 34.99880215729497, 3.4524012662242747 45.31013430982262, 2.1928701399173587 51.91013674379327" stroke="#000000" stroke-width="1" fill="none"></path></g></g><g transform="translate(599.1121826171875 1180.1489868164062) rotate(0 106.11947631835938 33.357391357421875)"><path d="M16.912192162126303 -0.891249056905508 M16.957074526697397 1.625371154397726 C55.3680698862368 -0.2630146178797581, 97.30238449016097 0.8229821291371486, 197.53616047278047 -1.1614384092390537 M16.86197271756828 0.965942682698369 C71.20977864732409 -0.64922230367812, 127.06017666387189 -0.4258603942886241, 194.82077321223915 0.3801080007106066 M195.5602569580078 0 C206.85703636830053 -0.7071571312844753, 213.05706840381026 4.8257585006455574, 212.62555724009871 18.469505432993174 M193.97580593451858 0.9646451510488987 C206.1957654065763 0.08224947880953559, 212.70354425180705 6.861417152794698, 212.6829518603161 17.565217946283518 M213.47826302424073 15.430411752313375 C212.1540627778913 28.004087279875336, 212.1123069824125 40.00445577008378, 214.13802981749177 48.39068013057113 M212.2674570363015 16.61456793732941 C212.59569116175615 25.221348415185815, 211.52551700413667 32.4555111714846, 212.95836278609931 50.683407785370946 M212.23895263671875 50.03608703613281 C211.7260977588594 61.137408339728914, 207.0139619273444 64.96128619089723, 197.20002990588546 68.19474971666932 M213.20824521407485 50.75808859243989 C210.70656524766235 59.283560347867514, 208.51754678556077 67.1059771521017, 195.2579501317814 65.26197393964976 M194.06935203447938 67.24321907386184 C139.35097835483577 67.64610785278683, 81.59684188832696 68.20071727070217, 14.988022331148386 68.22162252292037 M196.29164710454643 67.64854628033936 C135.654630787587 68.35136193219377, 75.69427882304453 67.03438723269655, 16.340390531346202 66.38701427169144 M16.678695678710938 66.71478271484375 C4.7458396914104615 67.36949110403657, -0.5713452734053135 61.74752494071921, 0.5789611898362637 49.07168162241578 M15.951716598123312 66.70758366957307 C4.183424201297263 67.61136784981936, 2.2610504077747464 60.119451183391114, 0.569118599779904 50.76001701187342 M-1.9835561476647854 49.79728310927749 C0.9460570832290983 39.70317573238489, 1.7083936949768401 28.555780849388782, -1.0208871327340603 17.4359114728868 M0.24164131097495556 50.30380910821259 C-0.5489543833365047 40.03245777175235, 1.0485274038682377 30.796447698109485, -0.6347976047545671 16.36351657100022 M0 16.678695678710938 C-0.7317989505827427 4.892421646664539, 5.871835685024658 1.6073161400854588, 16.657279070466757 -1.8010965548455715 M-1.2426019348204136 15.04069996252656 C-1.3164942396804689 6.066121610316137, 3.9427811112875735 -0.186012722738087, 17.033797352202235 1.512881098501384" stroke="#000000" stroke-width="1" fill="none"></path></g><g transform="translate(626.6248168945312 1198.8426513671875) rotate(0 75 12.5)"><text x="0" y="18" font-family="Virgil, Segoe UI Emoji" font-size="20px" fill="#000000" text-anchor="start" style="white-space: pre;" direction="ltr">return ref.value</text></g><g transform="translate(707.6248168945312 1136.8426513671875) rotate(0 12 12.5)"><text x="0" y="18" font-family="Virgil, Segoe UI Emoji" font-size="20px" fill="#000000" text-anchor="start" style="white-space: pre;" direction="ltr">No</text></g><g transform="translate(863.6449584960938 1034.5489807128906) rotate(0 55.4136962890625 36.50144958496094)"><path d="M20.11825192347169 -0.5978599227964878 M17.574114497750998 -0.6555368863046169 C43.74250339736132 -0.24705500104386857, 67.26263408774312 1.3720588018659825, 92.00532251223922 0.5923074521124363 M18.565476955845952 -0.5983221847563982 C38.236657029283194 0.799151148582105, 56.99261684210032 -0.21666166565358225, 91.82597863860428 -0.51581677980721 M92.57666778564453 0 C105.43946441387136 -0.4349307455122471, 112.28537595644593 4.399229860554138, 108.84383643046021 18.011920865625143 M91.55578065291047 0.7572157941758633 C105.91672385962059 0.5557750152423977, 111.44315334390849 4.271500065612296, 110.32553334068507 16.60347432959825 M109.55779736861587 17.62036657705903 C111.1015001558628 24.756376162426477, 110.39111781352423 34.19707706249119, 111.13966303691268 56.359490517526865 M111.48516696877778 17.678335992619395 C110.74868839397294 26.230371458872245, 110.44757139100892 35.69411766426084, 111.63448929972947 54.11802294664085 M110.827392578125 54.752174377441406 C112.81892419233918 68.14187397186954, 106.44196840499838 72.43812411651015, 94.32923543825746 71.19605844840407 M112.5707893408835 54.25730949267745 C112.09605800341815 66.86806856462111, 105.38115511567642 73.11983525622637, 93.01038747858256 74.48619698155672 M91.72969740256667 72.89553761854768 C70.46629423382187 71.42586213093722, 45.91840238709855 72.75385349732363, 18.38556056842208 73.66063964739442 M92.43843394704163 72.3172759693116 C63.907010861514394 72.66920052070822, 35.19645149974204 72.02099482317175, 19.23756325431168 72.68229022435844 M18.25072479248047 73.00289916992188 C4.457676573346058 73.26328521594405, 1.0948275364935398 67.33933831875522, -0.22882258519530296 53.25716441497207 M16.75036406889558 73.09041100367904 C5.101691433104375 74.90458060968668, -1.5352211134508251 66.26095685431112, 0.32628638576716185 54.522301744110884 M1.021928247064352 56.25058842077851 C1.8147541053655503 42.288394934990265, 1.1110703714254258 29.681185732649286, -1.0167352594435215 19.42301619425416 M-0.5776670556515455 54.18573102168739 C-0.9784870811033668 44.221903875452924, 0.45007883829589473 34.1641722339792, -0.7939834576100111 17.875242499634624 M0 18.25072479248047 C-1.7591822110116482 4.599067187557617, 7.41029958302776 -1.6743136085569859, 16.439208868891 0.31485241279006004 M-0.7921986542642117 18.029484804719687 C-1.5279104785993693 4.116862460660437, 5.705927529248098 0.38227839339524516, 18.853958211652934 0.6803768740966913" stroke="#000000" stroke-width="1" fill="none"></path></g><g transform="translate(872.9033813476562 1059.9008483886719) rotate(0 50 12.5)"><text x="0" y="18" font-family="Virgil, Segoe UI Emoji" font-size="20px" fill="#000000" text-anchor="start" style="white-space: pre;" direction="ltr">return ref</text></g><g><g transform="translate(820.9043579101562 1077.1462097167969) rotate(0 21.542734570461334 -1.7126538060605299)"><path d="M-0.10396628156304355 -0.1563773296773434 C7.430748075495163 -0.8486329617599646, 37.14845841949185 -2.8085586530466875, 44.70315644964576 -3.268930282443762 M-1.617687308723107 -1.2840793730970472 C5.760322532818343 -1.8400035146034013, 35.81573889997167 -1.052485411580031, 43.49781853712164 -1.6753057341929525" stroke="#000000" stroke-width="1" fill="none"></path></g><g transform="translate(820.9043579101562 1077.1462097167969) rotate(0 21.542734570461334 -1.7126538060605299)"><path d="M22.116864090112788 5.716932188841871 C27.94244460358296 4.486513608495821, 33.973372269982846 2.452766315540269, 42.64322448155843 -1.784961825972423 M23.009357999337656 7.290424382436446 C27.722272264630256 4.505194738298037, 31.63893987208108 3.474527397643021, 42.877938160737976 -1.9209541499521583" stroke="#000000" stroke-width="1" fill="none"></path></g><g transform="translate(820.9043579101562 1077.1462097167969) rotate(0 21.542734570461334 -1.7126538060605299)"><path d="M21.78141283860602 -9.779501768524277 C27.807743194162125 -7.01300860840696, 33.925185703714824 -5.050134791059685, 42.64322448155843 -1.784961825972423 M22.673906747830888 -8.206009574929702 C27.343461368381348 -7.2777104706878575, 31.340482863172056 -4.59636689235822, 42.877938160737976 -1.9209541499521583" stroke="#000000" stroke-width="1" fill="none"></path></g></g><g transform="translate(820.6248168945312 1045.8426513671875) rotate(0 15 12.5)"><text x="0" y="18" font-family="Virgil, Segoe UI Emoji" font-size="20px" fill="#000000" text-anchor="start" style="white-space: pre;" direction="ltr">Yes</text></g><g transform="translate(253.69366455078125 1171.9452514648438) rotate(0 128.2044677734375 53.84503173828125)"><path d="M127.72531307116151 1.5872580371797085 C158.67779666317475 14.431836578774215, 190.09506359845096 26.6972602540282, 254.49493551626801 55.304522570222616 M128.27772298268974 0.9660974163562059 C158.42360542138186 13.599760782569305, 186.8045636966654 25.59422380723025, 255.50250705890357 53.7904571313411 M256.7111668623984 55.00783162936568 C230.13940018599578 67.2429819379848, 200.5573723628508 77.532181439738, 128.71345913782716 108.07610553130507 M257.1792806070298 53.32639873214066 C227.34446071523644 66.9678486352735, 196.56745101147567 78.2347908546985, 129.93162014894187 107.92627304978669 M130.7293425835669 108.78591483458877 C90.97574834608803 88.67566186427106, 49.85845607620993 73.64830086931521, 0.6858623065054417 53.25939732417464 M129.9666242878884 107.61106413789093 C101.15707707076996 95.68933015745827, 71.9915586019653 84.30605809583786, -0.41565111465752125 54.105044366791844 M-1.3823912106454372 52.59387093409896 C47.195347160846 32.94958527037873, 94.09727184530348 13.947351781148456, 127.08682763949037 1.2569858394563198 M-0.6664593536406755 53.34054041095078 C37.68947392813862 39.84022713256999, 77.30174270998688 23.641450269427146, 129.62615957669914 -0.6510731559246778" stroke="#000000" stroke-width="1" fill="none"></path></g><g transform="translate(337.62481689453125 1215.8426513671875) rotate(0 49 12.5)"><text x="0" y="18" font-family="Virgil, Segoe UI Emoji" font-size="20px" fill="#000000" text-anchor="start" style="white-space: pre;" direction="ltr">is Object?</text></g><g transform="translate(412.62481689453125 1078.8426513671875) rotate(0 4.5 12.5)"><text x="0" y="18" font-family="Virgil, Segoe UI Emoji" font-size="20px" fill="#000000" text-anchor="start" style="white-space: pre;" direction="ltr">?</text></g><g><g transform="translate(380.49017333984375 1126.9644775390625) rotate(0 -0.797085406631254 25.34839115733746)"><path d="M0.4228423453867436 -0.9771458365023136 C0.25262803410490353 7.36667420292894, -1.891134021927913 41.66382714336117, -2.017013158649206 50.110858394950625 M-0.8143041526246817 1.124248653994873 C-0.49849757253813254 9.672515936937803, 0.3294252156248938 43.38878305489508, 0.3764376310538502 51.67392815117724" stroke="#000000" stroke-width="1" fill="none"></path></g><g transform="translate(380.49017333984375 1126.9644775390625) rotate(0 -0.797085406631254 25.34839115733746)"><path d="M-10.211725091839446 27.279598962279128 C-6.547962491975904 35.130349807138415, -5.279889848486482 39.57339758857695, 1.9178743069898339 50.36371225704439 M-9.01538283778192 27.916544573145078 C-6.494371359087731 33.73961517527183, -4.619622362647287 38.367658668683255, 0.060467059342190765 51.45846105766483" stroke="#000000" stroke-width="1" fill="none"></path></g><g transform="translate(380.49017333984375 1126.9644775390625) rotate(0 -0.797085406631254 25.34839115733746)"><path d="M6.91485512668253 26.9911189066065 C6.861875848041643 34.9648251740405, 4.4130913696716885 39.47047968348663, 1.9178743069898339 50.36371225704439 M8.111197380740057 27.62806451747245 C6.719502257712285 33.629928268564264, 4.68204853129539 38.3238688905847, 0.060467059342190765 51.45846105766483" stroke="#000000" stroke-width="1" fill="none"></path></g></g><g transform="translate(396.62481689453125 1134.8426513671875) rotate(0 12 12.5)"><text x="0" y="18" font-family="Virgil, Segoe UI Emoji" font-size="20px" fill="#000000" text-anchor="start" style="white-space: pre;" direction="ltr">No</text></g><g transform="translate(10 1188.5592346191406) rotate(0 87.58834838867188 41.07356262207031)"><path d="M21.666872266680002 -1.379480067640543 M21.68659072741866 -1.5496617518365383 C55.12903664681164 -2.1343639521170115, 87.3488835366636 -1.7383374599981762, 153.41746228560805 -1.037485595792532 M20.31287825293839 -0.02451738901436329 C58.15622410099389 -0.338054178547748, 94.04046541108552 -1.5119461401223024, 155.00806659646332 -0.9767963010817766 M154.6399154663086 0 C167.9821961360673 1.9164332710206509, 175.3271222151816 8.031903640677532, 173.3081977404654 22.219772156327963 M155.00366628542542 -1.3842104114592075 C167.77211534014592 0.7063333498314024, 175.39382648896427 9.113903403965136, 173.7728094978258 20.693911700136958 M174.24640732631087 22.534690503031015 C176.1114275522307 32.802230261636, 175.7787345714644 45.29841153025075, 174.34024732932448 61.35903859511018 M174.79688024707139 20.41304853372276 C174.7737424677343 35.484248991669105, 176.13104030546853 50.476864778594944, 175.8257439751178 61.767627684399486 M175.17669677734375 61.61034393310547 C175.84772718325257 74.61025509859125, 167.72919551904002 83.47077399119735, 155.12783289328218 82.40924268588424 M177.02536595240235 62.72009318694472 C175.2148297889158 76.02013306884716, 167.3486977421368 81.8625850962475, 155.45208235215395 80.45487188566476 M156.44933610782027 80.69091165438294 C110.24296507344859 81.82620111431962, 66.06838954078589 82.74799970116501, 19.126359399408102 83.67102909460664 M155.17633664794266 81.73398390226066 C111.23085949363555 82.31729857220513, 69.49204928573957 82.3955352117048, 21.276424588635564 81.4677782934159 M20.536781311035156 82.14712524414062 C8.467484915008148 80.45456927642226, -1.369117733091116 74.61943743253748, -1.5133168660104275 60.291904743760824 M19.175315741449594 82.84261577948928 C4.883538347793123 81.16982323992997, 2.254954747669399 74.42215622334432, 0.027176587097346605 62.45137970913201 M0.08085375651717186 60.50202477350831 C-0.07538319400483351 49.400602709008886, 1.0551654023773076 36.93749012326923, 0.4237934909760952 21.472384218126535 M-0.37020945362746716 61.22980788163841 C-0.6057105201129129 52.95035242335054, 0.022530005609590675 43.53200955966716, -0.8332051616162062 20.890424935147166 M0 20.536781311035156 C-0.8801137171685696 6.876352326323589, 7.591849410285553 -1.4940044321119785, 21.999540332704782 0.8407350145280361 M-1.0879424773156643 20.465458806604147 C-2.2571603910997506 7.056354994264742, 5.300633597684405 -1.5724945021793246, 21.90687821339816 1.7475739644840358" stroke="#000000" stroke-width="1" fill="none"></path></g><g transform="translate(49.456787109375 1208.5036010742188) rotate(0 50 25)"><text x="0" y="18" font-family="Virgil, Segoe UI Emoji" font-size="20px" fill="#000000" text-anchor="start" style="white-space: pre;" direction="ltr">recursivly </text><text x="0" y="43" font-family="Virgil, Segoe UI Emoji" font-size="20px" fill="#000000" text-anchor="start" style="white-space: pre;" direction="ltr">reactive</text></g><g><g transform="translate(255.00775146484375 1224.0421142578125) rotate(0 -34.836594596230384 0.701652660220816)"><path d="M0.43880127444863315 -1.0236810900270938 C-11.113455985238156 -0.6215465364356836, -57.348922854910285 2.0064550978442033, -68.89624923691153 2.4269864104688166 M-0.7899667858052999 1.0532823923695833 C-12.581374548471844 1.1514876101880025, -58.60169698685098 0.6063321893879523, -70.11199046690949 0.9220731795299799" stroke="#000000" stroke-width="1" fill="none"></path></g><g transform="translate(255.00775146484375 1224.0421142578125) rotate(0 -34.836594596230384 0.701652660220816)"><path d="M-43.6808901322796 -10.334290062157553 C-49.43232483420432 -6.662404605498088, -60.39775390271061 -0.4601720073599438, -70.3111145610083 1.0029269360471518 M-41.24655714126071 -8.646480589253944 C-48.627822326686726 -6.335672926090126, -56.47767375430732 -4.8669385771544516, -70.44084982779809 0.5518637259025128" stroke="#000000" stroke-width="1" fill="none"></path></g><g transform="translate(255.00775146484375 1224.0421142578125) rotate(0 -34.836594596230384 0.701652660220816)"><path d="M-43.57456070663051 10.186643065726294 C-49.36401652617128 6.98903165806803, -60.365041977830685 6.321378579492727, -70.3111145610083 1.0029269360471518 M-41.140227715611616 11.874452538629903 C-48.58093281301258 9.166680293963356, -56.456790721344106 5.6163218724561625, -70.44084982779809 0.5518637259025128" stroke="#000000" stroke-width="1" fill="none"></path></g></g><g transform="translate(212.62481689453125 1188.91845703125) rotate(0 15 12.5)"><text x="0" y="18" font-family="Virgil, Segoe UI Emoji" font-size="20px" fill="#000000" text-anchor="start" style="white-space: pre;" direction="ltr">Yes</text></g><g><g transform="translate(385.60898298140773 1284.2566942882618) rotate(0 1.4710588250079013 25.17999104019782)"><path d="M0.4524271823465824 -0.8874809481203556 C1.1961153626691194 7.4945870519245315, 3.371084305768655 41.06010201303395, 3.711304926276739 49.65959020961204 M-0.7691872762609273 1.2609876087773593 C-0.08219735892791136 9.911202841652772, 2.0217183531111194 43.29620128112952, 2.9770149358646676 51.24746302851604" stroke="#000000" stroke-width="1" fill="none"></path></g><g transform="translate(385.60898298140773 1284.2566942882618) rotate(0 1.4710588250079013 25.17999104019782)"><path d="M-8.984931365862368 29.409943305753963 C-4.9754359785763524 32.68719340767401, -0.7367248600137799 40.8608348269858, 4.547829310698967 52.02815065496729 M-7.462502233028291 28.586614339479105 C-4.913118179140507 36.001414931669316, -1.494362494122929 42.8322717999833, 2.7105816652165458 52.247055573027" stroke="#000000" stroke-width="1" fill="none"></path></g><g transform="translate(385.60898298140773 1284.2566942882618) rotate(0 1.4710588250079013 25.17999104019782)"><path d="M7.940656189409614 27.939490739881307 C7.92373257101492 31.629685635105822, 8.143779088430133 40.15245854866214, 4.547829310698967 52.02815065496729 M9.46308532224369 27.11616177360645 C6.443850514051203 35.00133651638793, 4.30050571357437 42.31541471476377, 2.7105816652165458 52.247055573027" stroke="#000000" stroke-width="1" fill="none"></path></g></g><g transform="translate(402.62481689453125 1283.91845703125) rotate(0 12 12.5)"><text x="0" y="18" font-family="Virgil, Segoe UI Emoji" font-size="20px" fill="#000000" text-anchor="start" style="white-space: pre;" direction="ltr">No</text></g><g transform="translate(268.7757568359375 1333.5757446289062) rotate(0 119.21722412109375 34.9268798828125)"><path d="M17.58314746245742 -1.5982513390481472 M18.341908214205908 1.4354024935142427 C66.98201336085167 0.5603989122771981, 114.06984133791535 -0.06920365700032205, 221.3373987058744 0.18761179093670183 M16.923569035875765 0.1341132557492886 C84.32758192231923 -2.1027256041134748, 150.20919135917322 -2.1140240187109867, 220.61503650535877 0.22939281626789185 M220.97100830078128 0 C231.10663165276253 -0.46478426083922386, 238.8333932720125 7.2966813283661995, 238.75793832167986 16.653067115694284 M222.5056059919298 0.5651494301855564 C232.91924254962558 2.0758182151243085, 238.4555105077103 5.917765697153905, 238.8118144022301 17.305351356975734 M238.37033605948093 18.704268511384726 C238.3864542317113 28.177410510564528, 239.62709666010943 36.944066761453314, 238.17807877436283 53.17973845824599 M239.10731777362528 17.548591973260045 C238.75151273646884 24.79798661434709, 239.00861480870776 32.404438826845265, 238.8484115879983 52.814985455945134 M238.43444824218753 52.39031982421875 C236.85234862193468 62.50184389327963, 232.85203148548806 69.58430099859834, 219.04042642936113 70.73624444380403 M239.39030509814623 52.55661380663514 C239.37488682735713 62.54355784089614, 234.02599688240642 71.66797564458102, 220.0243573056534 70.46357394885271 M222.07155162076734 68.69576497123542 C166.5806427489079 68.43090311418815, 114.47218526894947 67.92211200373775, 19.212936939109678 71.26118229372474 M220.20071072729493 70.00934225279357 C178.68799084806375 70.17098572492947, 138.3442002819842 70.2133396041589, 17.003903742274513 69.09902161116189 M17.46343994140625 69.853759765625 C7.200223183880249 71.25726497545838, 0.5999838672578335 65.85386952136953, 0.3514637313783169 53.89609718695283 M19.33126335963607 71.55798113718629 C7.260738166856268 68.17600821088999, 0.8547013865783808 63.9232446435218, 0.5403006302192805 51.24204113911837 M-0.5476446114480495 53.03728061541915 C1.2166730742902814 39.99043113536811, 0.3995915036649762 25.92899043827606, 0.4775511063635349 17.33289521560073 M0.1646548192948103 52.443102004006505 C-0.29500399892270934 44.370897879811466, 0.4395684712654315 37.10277281140256, -0.9821526724845171 17.971786441281438 M0 17.46343994140625 C-0.7862274087965488 5.837896628926197, 6.3595176699260865 -0.2923588715493679, 18.251230891793966 -0.5430338345468044 M-0.455088559538126 17.8835824765265 C0.32210093010216934 5.955143608960012, 6.388490882205466 -2.126428933627903, 18.268799649365246 0.9184628887102009" stroke="#000000" stroke-width="1" fill="none"></path></g><g transform="translate(288.1966552734375 1353.7731323242188) rotate(0 102 12.5)"><text x="0" y="18" font-family="Virgil, Segoe UI Emoji" font-size="20px" fill="#000000" text-anchor="start" style="white-space: pre;" direction="ltr">return the key value</text></g></svg>