<svg version="1.1" xmlns="http://www.w3.org/2000/svg" viewBox="0 0 839.7033386230469 504.2103271484375" width="1679.4066772460938" height="1008.420654296875">
  <!-- svg-source:excalidraw -->
  
  <defs>
    <style>
      @font-face {
        font-family: "Virgil";
        src: url("https://excalidraw.com/Virgil.woff2");
      }
      @font-face {
        font-family: "Cascadia";
        src: url("https://excalidraw.com/Cascadia.woff2");
      }
    </style>
  </defs>
  <rect x="0" y="0" width="839.7033386230469" height="504.2103271484375" fill="#ffffff"></rect><g transform="translate(237.66000366210938 10) rotate(0 296.02166748046875 165.46160888671875)"><path d="M0.7665640354156494 -0.38744645118713383 C139.12380121416138 0.10632493535868726, 278.7488606585321 -0.5217069860280316, 591.9604254245758 -0.52622971534729 M0.15921943187713625 0.08119614124298097 C175.27212191245565 1.2832756244817574, 350.22259763522163 0.8602676593938667, 592.3420738935471 -0.37298400402069093 M590.7802612974916 0.5427765877367259 C592.3065632257102 74.44307045266235, 594.316080901113 147.14522323515175, 591.490622496791 331.95406551983984 M592.2067653609226 -0.27582439416565924 C590.7222445166473 108.95939904965348, 590.9879671195059 218.08597672122002, 592.4460156994247 330.63548359101947 M592.2729879856109 331.7043717861176 C464.8286354797361 330.92856426755833, 338.05523023948626 331.7834425024216, 0.4392614841461182 331.3143189907074 M592.4113175153732 330.6091029405594 C381.1232622306976 333.0354323727267, 170.44621768820943 332.8983130795138, 0.08342978954315186 330.9625888109207 M1.2660353439205907 331.53947381466963 C-0.681828464145265 258.8781524116529, -2.272975654526099 185.9507716184473, -0.8150216819015905 0.5855238722664982 M-0.3733097787382366 330.93409432189196 C1.8703568336533143 203.4194729200736, 1.993687313705217 76.5658389147441, -0.47601691107941985 -0.07052325881814978" stroke="#000000" stroke-width="1" fill="none"></path></g><g transform="translate(284.6338806152344 53.41868591308594) rotate(0 56 12.5)"><text x="56" y="18" font-family="Virgil, Segoe UI Emoji" font-size="20px" fill="#000000" text-anchor="middle" style="white-space: pre;" direction="ltr">vm instance</text></g><g transform="translate(409.6717224121094 23.161621093749943) rotate(0 203.6441650390625 153.04833984375003)"><path d="M249.90177945657948 3.6540201824918768 C269.0254443467257 4.48344634855538, 288.9935779823268 13.06473825719931, 306.0832076555064 20.32943068856693 C323.17283732868594 27.59412311993455, 339.15652930755255 36.40208866577923, 352.4395574956568 47.2421747706976 C365.72258568376105 58.08226087561597, 377.1562132331342 71.95438006260753, 385.7813767841318 85.36994731807714 C394.40654033512936 98.78551457354675, 400.94255665337397 113.3513242051545, 404.1905388016421 127.73557830351527 C407.43852094991024 142.11983240187604, 407.5884921783166 157.10628351103597, 405.2692696737406 171.67547190824178 C402.95004716916463 186.24466030544758, 398.1315956196171 201.58425258968, 390.27520377418625 215.1507086867501 C382.4188119287554 228.7171647838202, 370.95893026334795 241.9949968520453, 358.1309186011557 253.07420849066233 C345.3029069389635 264.15342012927937, 330.0640265734232 273.716764984186, 313.30713380103265 281.62597851845237 C296.5502410286421 289.53519205271874, 276.51585964189076 296.5895613654518, 257.5895619668124 300.5294896962605 C238.66326429173412 304.4694180270692, 219.15672874961865 305.4862341015396, 199.74934775056283 305.2655485033047 C180.34196675150702 305.04486290506975, 159.88820662625798 303.8077149844423, 141.14527597247744 299.20537610685085 C122.40234531869687 294.60303722925937, 103.57771347526568 286.2219001108618, 87.29176382787948 277.651515237756 C71.00581418049327 269.08113036465016, 55.62220786314433 259.30666282585105, 43.42957808816021 247.783066868216 C31.236948313176093 236.25947091058094, 21.206303173664903 222.09902161659096, 14.13598517797476 208.50993949194574 C7.065667182284618 194.92085736730053, 2.6230780035837 180.89384358511927, 1.007670114019362 166.2485741203446 C-0.607737775544976 151.60330465556996, 0.3538212638817173 135.30929632393793, 4.443537840588732 120.63832270329789 C8.533254417295748 105.96734908265786, 15.928396263189839 90.9752880152304, 25.54596957426145 78.22273239650445 C35.16354288533306 65.4701767777785, 48.24483067807543 54.20487050894509, 62.14897770701839 44.12298899094219 C76.05312473596135 34.04110747293929, 91.6826409356214 24.676703633780985, 108.97085174791921 17.731443288487043 C126.25906256021703 10.7861829431931, 146.33353399739016 5.155733151400412, 165.8782425808053 2.4514269191785445 C185.42295116422045 -0.2528793130433229, 207.85617882669618 0.30341024321982, 226.2391032484101 1.5056058951558384 C244.622027670124 2.707801547091857, 263.9027615719689 6.264428928157281, 276.17578911108876 9.664600830794654 C288.44881665020864 13.064772733432028, 301.2204440223918 19.50960437724027, 299.8772684831295 21.906637310980074 M272.88557037753685 9.868027168078726 C291.2449631833194 12.275253183081956, 307.7291966560515 21.402896926607227, 323.3328116091133 29.970152121191646 C338.93642656217514 38.537407315776065, 354.31117039589924 49.453573373935896, 366.5072600959078 61.271558335585254 C378.7033497959163 73.08954329723461, 389.78537330333666 86.83883520551286, 396.5093498091644 100.87806189108781 C403.23332631499215 114.91728857666276, 405.8255062607966 130.85746292658965, 406.8511191308744 145.5069184490349 C407.8767320009522 160.15637397148018, 407.1746996018603 174.60621598247891, 402.66302702963117 188.77479502575946 C398.151354457402 202.94337406904, 389.773780681543 217.79414122403026, 379.7810836974996 230.51839270871812 C369.7883867134562 243.242644193406, 357.26307699623834 255.07132932920325, 342.70684512537093 265.1203039338867 C328.1506132545035 275.16927853857015, 310.3576006689135 284.34400728792133, 292.4436924722952 290.81224033681883 C274.5297842756769 297.28047338571633, 254.606287248108 301.54902345775594, 235.22339594566097 303.92970222727183 C215.84050464321393 306.3103809967877, 195.55587626065542 306.86425403076646, 176.14634465761304 305.0963129539141 C156.73681305457066 303.3283718770617, 136.8481750217353 299.33693909854054, 118.76620632740669 293.32205576615763 C100.6842376330781 287.3071724337747, 82.2851435895853 278.9189743253685, 67.65453249164148 269.0070129596166 C53.02392139369765 259.0950515938647, 40.898990359393686 246.40614044596262, 30.982539739743714 233.85028757164628 C21.066089120093743 221.29443469732993, 13.064039332182531 207.78646706065538, 8.155828773741632 193.67189571371853 C3.247618215300733 179.55732436678167, 1.1835582073050592 164.01069710822043, 1.5332763890983188 149.1628594900252 C1.8829945708915783 134.31502187182997, 3.9783265628376894 118.70447955121622, 10.254137864501189 104.5848700045471 C16.529949166164688 90.46526045787797, 27.89502361452088 76.34690061710589, 39.18814419907932 64.44520221001044 C50.481264783637755 52.54350380291498, 62.64226929681171 42.4428423214605, 78.01286137185183 33.174679561974344 C93.38345344689193 23.906516802488184, 112.85123680075017 14.217184827368033, 131.41169664932 8.836225653093493 C149.9721564978898 3.4552664788189533, 169.84710262413134 1.8570013333099333, 189.37562046327074 0.8889245163271084 C208.90413830241013 -0.07915230065571655, 234.84816304750547 1.658461120659652, 248.58280368415643 3.0277647511965426 C262.3174443208074 4.397068381733433, 268.036887262568 7.683658780132636, 271.78346428317644 9.104746299548452 C275.5300413037849 10.525833818964268, 271.9428022150465 9.07624695003526, 271.06226580780714 11.554289867691438" stroke="#000000" stroke-width="1" fill="none"></path></g><g transform="translate(566.2377624511719 49.3978271484375) rotate(0 39.5 12.5)"><text x="0" y="18" font-family="Virgil, Segoe UI Emoji" font-size="20px" fill="#000000" text-anchor="start" style="white-space: pre;" direction="ltr">_events</text></g><g transform="translate(436.1611022949219 129.97128295898438) rotate(0 81.06881713867188 71.83656311035156)"><path d="M69.80011861436282 0.17964043397500973 C80.92403296749723 -2.3359796887563355, 94.87053106709536 -0.4292713797608614, 105.88045544938954 2.7413256490509497 C116.89037983168373 5.91192267786276, 127.41469789857427 11.884090338427672, 135.8596649081279 19.203222606845877 C144.30463191768155 26.52235487526408, 152.23089569239772 36.8068093393279, 156.55025750671138 46.65611925956017 C160.86961932102503 56.50542917979244, 162.67206076207867 67.99276614771388, 161.7758357940099 78.2990821282395 C160.87961082594114 88.60539810876513, 157.0696897074841 99.53981404539506, 151.17290769829873 108.49401514271392 C145.27612568911337 117.44821624003278, 136.14406193033318 126.22216250421833, 126.39514373889779 132.02428871215267 C116.64622554746241 137.826414920087, 104.43526797242298 142.09150641430324, 92.67939854968645 143.3067723903199 C80.92352912694993 144.52203836633657, 67.13530637811729 142.5277421542469, 55.85992720247862 139.3158845682526 C44.58454802683995 136.10402698225832, 33.48746072370545 131.1966781684201, 25.027123495854397 124.03562687435411 C16.566786268003344 116.87457558028811, 9.338681608074925 106.12372337009863, 5.097903835372307 96.34957680385659 C0.8571260626696882 86.57543023761455, -1.5333876787727074 75.53554436771113, -0.41754314036131746 65.39074747690185 C0.6983013980500725 55.245950586092576, 5.614725704508199 44.5676129738338, 11.792971065840646 35.480795459000966 C17.971216427173093 26.393977944168128, 24.883376353756503 16.795131690447334, 36.651929027633365 10.86984238790484 C48.42048170151023 4.944553085362343, 72.69134751136069 1.410025446088632, 82.4042871091018 -0.07094035625401318 C92.11722670684291 -1.5519061585966583, 95.03777569870552 0.6384640945637396, 94.92956661408006 1.9840475738489687 M114.80551592626716 5.128965621541525 C125.42078126016024 7.954255722548659, 136.79356014949266 16.49739882202723, 144.09873685157385 24.972221999792396 C151.40391355365503 33.44704517755756, 155.86998220095805 45.61385372087056, 158.6365761387542 55.97790468813253 C161.40317007655037 66.3419556553945, 163.1433370537066 76.97702650519845, 160.69830047835077 87.15652780336423 C158.25326390299495 97.33602910153, 151.15765301934624 108.74306990667733, 143.9663566866192 117.0549124771272 C136.77506035389217 125.36675504757707, 127.9806671609696 132.47159042744627, 117.55052248198858 137.02758322606348 C107.12037780300756 141.5835760246807, 93.29026753378808 144.3571561829783, 81.38548861273306 144.3908692688305 C69.48070969167803 144.4245823546827, 56.897535841551665 141.67875421141804, 46.12184895565844 137.22986174117682 C35.34616206976522 132.7809692709356, 23.900959835394634 125.77810478741192, 16.73136729737373 117.6975144473832 C9.561774759352826 109.61692410735448, 5.739840450341477 98.97157239505754, 3.104293727533019 88.74631970100447 C0.4687470047245612 78.5210670069514, -1.5650051038034634 66.41321703553785, 0.9180869605229844 56.34599828306483 C3.4011790248494322 46.278779530591805, 10.76755534443505 36.535839594419095, 18.002846113491707 28.343007186166318 C25.238136882548364 20.15017477791354, 34.05941240551783 11.780921049631946, 44.32983157486292 7.1890038335481705 C54.60025074420801 2.597086617464396, 67.81517900407998 0.9600188770041361, 79.62536112956222 0.791503889663673 C91.43554325504446 0.6229889023232099, 109.38007059081909 5.023317299081813, 115.19092432775639 6.177913909505392 C121.0017780646937 7.332510519928971, 115.29683615679359 6.567462608449419, 114.49048355118606 7.719083552205149" stroke="#000000" stroke-width="1" fill="none"></path></g><g transform="translate(488.2377624511719 140.3978271484375) rotate(0 20 12.5)"><text x="0" y="18" font-family="Virgil, Segoe UI Emoji" font-size="20px" fill="#000000" text-anchor="start" style="white-space: pre;" direction="ltr">click</text></g><g transform="translate(645.4943542480469 108.60931396484375) rotate(0 74.90338134765625 48.21490478515625)"><path d="M65.71604861113411 -0.5020190564721148 C76.98476663138352 -2.29394918923687, 91.95697544746378 -0.28368323778813753, 103.06015966479109 2.7803235337585903 C114.1633438821184 5.844330305305318, 124.75904944794863 11.772079789978427, 132.33515391509795 17.882021572808252 C139.91125838224727 23.991963355638077, 146.22153611181878 31.90404002443391, 148.51678646768698 39.43997423073754 C150.8120368235552 46.97590843704117, 149.51522349965524 55.87994657785204, 146.10665605030718 63.097626810630025 C142.69808860095912 70.31530704340801, 136.46396953078153 77.61210228760342, 128.06538177159868 82.74605562740544 C119.66679401241583 87.88000896720746, 107.12019201126728 91.87803452918841, 95.7151294952101 93.90134684944218 C84.31006697915294 95.92465916969594, 71.28488668640645 96.28134969732177, 59.63500667525568 94.88592954892803 C47.98512666410492 93.4905094005343, 34.83508011251517 90.47383761489971, 25.815849428305526 85.52882595907974 C16.79661874409588 80.58381430325977, 9.595609879823467 72.42437945047331, 5.519622569997793 65.21585961400821 C1.443635260172118 58.0073397775431, -0.06459533715566224 49.66977591206082, 1.359925569351475 42.27770694028909 C2.784446475858612 34.885637968517365, 7.2544823465725985 26.981164304543167, 14.066748009040616 20.863445783377855 C20.879013671508634 14.745727262212544, 31.876278103991922 9.029558195060693, 42.23351954415958 5.571395813297229 C52.59076098432723 2.1132334315337666, 68.97834348149499 0.8500527469259941, 76.21019665004654 0.11447149279707958 C83.4420498185981 -0.6211097613318349, 85.73419855199461 0.4721356668528808, 85.62463855546886 1.1579082885237426 M62.671356159662984 1.9431075374071227 C73.75509391137206 0.16316080881582562, 88.59778030016307 1.098175201783595, 99.72180041709156 3.615850138938278 C110.84582053402005 6.13352507609296, 121.5313981834847 11.747173108506129, 129.41547686123397 17.04915716033522 C137.29955553898324 22.35114121216431, 144.21706486589005 28.3813685056841, 147.02627248358715 35.427754449912825 C149.83548010128425 42.47414039414155, 149.22222243895936 51.910196539311926, 146.2707225674165 59.32747282570756 C143.31922269587363 66.7447491121032, 137.40003547007166 73.91786989491493, 129.31727325433 79.93141216828664 C121.23451103858832 85.94495444165835, 109.21723578948894 92.54340336674323, 97.77414927296654 95.40872646593786 C86.33106275644414 98.27404956513249, 72.02156730305403 98.79463462482025, 60.65875415519557 97.12335076345437 C49.2959410073371 95.45206690208849, 38.9255848239873 90.47918872820217, 29.597270385815747 85.3810232977426 C20.268955947644194 80.28285786728303, 9.696770732252777 73.52775935516313, 4.6888675261662485 66.53435818069696 C-0.3190356799202805 59.54095700623079, -1.8369490212242816 51.131704096793186, -0.45014885070342814 43.420616250945606 C0.9366513198174253 35.70952840509803, 6.139076333166251 26.782396344244148, 13.00966854929137 20.267831105611467 C19.880260765416487 13.753265866978786, 32.348053820097896 7.84105358569472, 40.77340444604728 4.333224819149514 C49.198755071996665 0.8253960526043085, 59.75295143088447 -0.46262095027868, 63.56177230498767 -0.7791414936597647 C67.37059317909086 -1.0956620370408494, 63.56691329703238 1.5422986542236714, 63.626329690666466 2.4341015588630057" stroke="#000000" stroke-width="1" fill="none"></path></g><g transform="translate(651.5893249511719 140.468994140625) rotate(0 69.5 12.5)"><text x="0" y="18" font-family="Virgil, Segoe UI Emoji" font-size="20px" fill="#000000" text-anchor="start" style="white-space: pre;" direction="ltr">custom events</text></g><g transform="translate(645.4618225097656 226.54718017578125) rotate(0 49.735504150390625 26.36041259765625)"><path d="M33.97858489699809 1.082227049303036 C42.59074866959098 -0.7260561460000361, 55.41956237270619 -0.7980157867800968, 64.63085172784795 0.7371714296229719 C73.84214108298973 2.2723586460260403, 83.5986867310363 6.034598721014003, 89.2463210278487 10.293350347721448 C94.89395532466109 14.552101974428894, 98.22193153003322 21.030598345717774, 98.51665750872235 26.289681189867643 C98.81138348741148 31.548764034017513, 96.3375440444703 37.75331150906666, 91.01467689998348 41.847847412620666 C85.69180975549666 45.94238331617467, 75.91010462317936 49.135726623656296, 66.57945464180143 50.85689661119166 C57.248804660423495 52.57806659872702, 44.344362202778726 53.481546746423575, 35.03077701171587 52.174867337832836 C25.717191820653014 50.8681879292421, 16.524318737843274 47.21169806401025, 10.697943495424305 43.01682015964722 C4.871568253005336 38.821942255284185, 0.48464970579195565 32.3640403243541, 0.07252555720205578 27.00559991165464 C-0.3395985913878441 21.647159498955183, 2.6808701591230433 14.99108298905386, 8.225198603884905 10.86617768345047 C13.769527048646768 6.74127237784708, 28.409545450013212 3.8191457304045446, 33.33849622577323 2.256168078034303 C38.26744700153324 0.6931904256640617, 36.80272406135897 1.5905100775667993, 37.798903258444994 1.4883117692290213 C38.795082455531016 1.3861134608912433, 39.41672749355207 1.1948625166243112, 39.31557140828934 1.6429782280076353 M29.63547235303805 3.988320723917589 C37.88784496334835 1.5019589996848484, 50.896026169372 -0.3465679127542298, 60.376135490977596 0.340699727785843 C69.8562448125832 1.0279673683259158, 80.18592709102244 4.340012977591499, 86.51612828267164 8.111926567158026 C92.84632947432085 11.883840156724553, 97.3524000279361 17.943389061642517, 98.35734264087287 22.972181265185 C99.36228525380965 28.000973468727484, 97.11213353438777 33.749738190377926, 92.54578396029231 38.28467978841293 C87.97943438619686 42.819621386447935, 79.2253560441244 47.59018073975308, 70.95924519630015 50.18183085339503 C62.6931343484759 52.773480967036974, 52.57192734294349 54.688423724005034, 42.94911887334685 53.8345804702646 C33.326310403750206 52.98073721652416, 20.12388199765107 49.089122474904336, 13.22239437872031 45.05877133095242 C6.320906759789551 41.0284201870005, 2.767977523308347 34.93943219573823, 1.5401931597622962 29.652473606553073 C0.3124087962162452 24.365515017367922, 1.5543063443615468 17.828887485355583, 5.855688197444003 13.33701979584151 C10.15707005052646 8.845152106327436, 23.698518046158107 4.56622344755092, 27.348484278257033 2.701267469468629 C30.99845051035596 0.8363114913863381, 27.678830229066197 2.149614556198381, 27.75548559003755 2.1472839273477646 C27.832140951008906 2.1449532984971484, 27.30864610220101 2.010823908839639, 27.80841644408516 2.6872836963649327" stroke="#000000" stroke-width="1" fill="none"></path></g><g transform="translate(684.1973266601562 240.4075927734375) rotate(0 11 12.5)"><text x="11" y="18" font-family="Virgil, Segoe UI Emoji" font-size="20px" fill="#000000" text-anchor="middle" style="white-space: pre;" direction="ltr">....</text></g><g transform="translate(491.4217834472656 194.57952880859375) rotate(0 39 25)"><text x="0" y="18" font-family="Virgil, Segoe UI Emoji" font-size="20px" fill="#000000" text-anchor="start" style="white-space: pre;" direction="ltr">events</text><text x="0" y="43" font-family="Virgil, Segoe UI Emoji" font-size="20px" fill="#000000" text-anchor="start" style="white-space: pre;" direction="ltr">callback</text></g><g transform="translate(462.1304016113281 185.366943359375) rotate(0 62.741455078125 36.9022216796875)"><path d="M63.816640123333464 0.6672396520279875 C74.18154520310785 0.2654988351578525, 87.81975016100044 1.599322556990336, 97.09264303617772 5.070357627131294 C106.365535911355 8.541392697272252, 114.65248043398648 15.665809183511623, 119.45399737439709 21.493450072873735 C124.2555143148077 27.321090962235846, 127.06276275267865 33.91790183345019, 125.90174467864135 40.03620296330397 C124.74072660460405 46.154504093157755, 118.99659659543845 53.10865404419438, 112.48788893017328 58.20325685199644 C105.97918126490812 63.297859659798505, 96.73809195626058 68.21012355553437, 86.84949868705036 70.60381981011633 C76.96090541784014 72.9975160646983, 64.00103149743464 73.46814236974244, 53.156329314912 72.56543437948827 C42.31162713238937 71.6627263892341, 30.244268096931677 69.36091490781632, 21.781285591914568 65.18757186859128 C13.31830308689746 61.014228829366225, 5.804079841994449 53.74837978903603, 2.3784342848093587 47.52537614413796 C-1.0472112723757312 41.30237249923989, -1.646977914250551 34.07045900685452, 1.227412248804029 27.84954999920286 C4.101802411858609 21.628640991551197, 11.863492202009919 14.731874176072221, 19.62477526313684 10.199922098227976 C27.38605832426376 5.66797002038373, 39.77282582958596 2.342537715134422, 47.79511061556556 0.6578375321373855 C55.81739540154516 -1.0268626508596512, 63.70941280055882 -0.15535938680024822, 67.75848397901446 0.09172100024575514 C71.80755515747009 0.33880138729175846, 72.14627866818462 1.4873801791944055, 72.08953768629937 2.1403198544134057 M42.41205596264647 3.5091139571359307 C51.68339809184871 0.8540723590727914, 63.47122246619671 -0.49696250452090207, 73.82901889727727 0.5488124669546863 C84.18681532835782 1.5945874384302747, 96.54582022238067 5.400926504173672, 104.55883454912981 9.78376378598946 C112.57184887587896 14.16660106780525, 118.65396444342618 20.42526865265786, 121.90710485777211 26.84583615784942 C125.16024527211805 33.266403663040975, 126.6107051077528 42.08921379459783, 124.07767703520543 48.30716881713881 C121.54464896265804 54.525123839679786, 114.90904124365706 59.78594481824484, 106.70893642248784 64.15356629309527 C98.50883160131862 68.52118776794569, 85.73433842601524 73.51674525000956, 74.87704810819014 74.51289766624134 C64.01975779036503 75.50905008247312, 51.86991278198651 72.52299723957667, 41.56519451553724 70.13048079048596 C31.26047624908798 67.73796434139526, 19.815457876306667 64.84242469589819, 13.048738509494548 60.157798971697076 C6.2820191426824294 55.47317324749597, 2.3183186791709867 48.47912516606502, 0.9648783146645314 42.02272644527933 C-0.388562049841924 35.56632772449365, 0.6901958211428614 27.137413813837565, 4.928096322455815 21.41940664698295 C9.165996823768769 15.701399480128334, 20.312356983299868 10.874584597008637, 26.392281322542253 7.714683444151646 C32.47220566178464 4.554782291294655, 38.88049355840566 3.1849411612563046, 41.40764235791013 2.459999729841009 C43.934791157414594 1.735058298425713, 41.47217515675881 2.755960968716496, 41.55517411956904 3.3650348556598715" stroke="#000000" stroke-width="1" fill="none"></path></g><g transform="translate(18.24151611328125 37.55049133300781) rotate(0 68.00459289550781 23.06757354736328)"><path d="M-1.6246105432510376 -1.5755332708358765 C47.02262270752854 0.3971095153885653, 97.05303466924562 -0.9266705444258878, 137.6966747045517 0.7773452997207642 M0.13526612520217896 -0.5688703656196594 C35.65873271998844 0.2781441017012003, 70.82752402180596 0.08776972731155186, 136.07498055696487 -0.020852863788604736 M135.91484487056732 -1.9305709600448608 C137.54365846210345 10.023321881378527, 136.92645951801165 20.338176636864414, 134.17652928829193 45.97310411930085 M135.97932320833206 0.5032712817192078 C135.872188991537 8.773777195949062, 137.11361927412977 19.136263090647667, 135.86572343111038 47.06357210874558 M134.25505101680756 44.295461297035224 C95.68090287688374 47.37175169869809, 52.857120947897414 47.18053999825864, 0.5782283544540405 45.796044945716865 M135.86332780122757 45.424122035503395 C100.75504061027769 44.95317235893409, 65.92098437635904 46.28440442985694, 0.5421169400215149 46.66195887327195 M0.6733516454696655 45.49242556095124 C-1.0801337430499098 34.18074723053096, 0.4318177034832933 20.987843314173187, 1.572487235069275 1.531324028968811 M-0.6951419711112976 46.93705958127976 C-0.5709042996180232 35.18103589630528, 0.2993101626622502 24.82558594179955, -0.047389209270477295 0.4754793047904968" stroke="#000000" stroke-width="2" fill="none"></path></g><g transform="translate(36.237762451171875 49.3978271484375) rotate(0 50 12.5)"><text x="0" y="18" font-family="Virgil, Segoe UI Emoji" font-size="20px" fill="#000000" text-anchor="start" style="white-space: pre;" direction="ltr">event emit</text></g><g><g transform="translate(83.96710205078125 85.26205444335938) rotate(0 0.7492267489433289 69.78741511702538)"><path d="M-0.39475858211517334 0.6084827184677124 C-0.12923203551641554 51.84453452159991, 1.7923995792868848 99.1416093205185, -0.040262579917907715 139.45405995845795 M-0.653184711933136 0.12077027559280396 C0.23404808327317372 42.04755006287867, 1.8243035402433998 84.77224257057021, 2.1516382098197937 138.697081387043" stroke="#000000" stroke-width="2" fill="none"></path></g></g><g><g transform="translate(86.30999755859375 221.95587158203125) rotate(0 196.8617276315199 2.1522022014232505)"><path d="M0.24172819447672456 0.7728958184933686 C154.74181339643158 -0.44596560949726427, 307.6049744604508 3.381617846340335, 392.64075293660443 4.243963623235786 M-0.039575431960704725 -0.015886857067705658 C103.37379038094026 1.1834679152367478, 205.53997763006626 2.2314428309436294, 393.7630306950005 4.320291259914195" stroke="#000000" stroke-width="2" fill="none"></path></g><g transform="translate(86.30999755859375 221.95587158203125) rotate(0 196.8617276315199 2.1522022014232505)"><path d="M365.87960651252064 15.608262889238421 C378.28301573013584 8.301332431497784, 387.7546780832798 8.260868974476427, 392.71685914901815 4.573595145374095 M365.39278492066654 14.24320250019652 C373.6750523873081 10.94087555827459, 379.86038044261613 8.296515129128466, 394.65906320718847 4.705687084823405" stroke="#000000" stroke-width="2" fill="none"></path></g><g transform="translate(86.30999755859375 221.95587158203125) rotate(0 196.8617276315199 2.1522022014232505)"><path d="M366.10496282523764 -4.911708283211053 C378.2757784073125 -4.19303472868206, 387.6593111825197 3.7912000217732134, 392.71685914901815 4.573595145374095 M365.61814123338354 -6.276768672252953 C373.93116901926146 -4.211787963735328, 380.05754549660355 -1.488272668226001, 394.65906320718847 4.705687084823405" stroke="#000000" stroke-width="2" fill="none"></path></g></g><g transform="translate(165.23776245117188 181.3978271484375) rotate(0 103.5 12.5)"><text x="0" y="18" font-family="Virgil, Segoe UI Emoji" font-size="20px" fill="#000000" text-anchor="start" style="white-space: pre;" direction="ltr">call thouse callbacks</text></g><g transform="translate(255.36959838867188 438.971923828125) rotate(0 59.2147216796875 27.61920166015625)"><path d="M-0.20816385746002197 -0.2775634527206421 C39.63865486432769 2.1687891602907623, 73.8100585470529 2.095131170788809, 116.88652837276459 1.9506813287734985 M-0.9127094149589539 0.6038305163383484 C42.95711121232744 -0.47206000952472094, 86.09530342164508 -1.2376907315706194, 117.85564881563187 0.3635789752006531 M118.63497197628021 1.0718666315078735 C117.99798405747883 18.57981641614824, 117.31230366807453 38.44482186485111, 118.56621205806732 57.200257897377014 M118.34641724824905 0.24658983945846558 C117.23492306447683 17.636005870278314, 118.57016438222585 37.52560500656691, 118.57675057649612 55.90508097410202 M118.51875722408295 54.50796663761139 C93.501075195866 52.93234512711686, 66.42516562858654 55.28031799698991, -0.9673610925674438 55.75110399723053 M119.23890572786331 54.79639261960983 C79.20092813540685 54.43949201777068, 40.43522837498166 54.488436491037284, 0.4644172787666321 55.12486666440964 M-1.6544643640518188 56.589086174964905 C-1.692962079975041 43.34831813693963, 0.5864454212456621 26.97241826297686, -0.5779606103897095 1.2633758783340454 M0.4698341488838196 54.60260409116745 C-0.14542084656284715 37.08827734144651, 1.4631359008736764 20.007727447194334, -0.6048862338066101 -0.46339207887649536" stroke="#000000" stroke-width="2" fill="none"></path></g><g transform="translate(273.2377624511719 452.3978271484375) rotate(0 41 12.5)"><text x="0" y="18" font-family="Virgil, Segoe UI Emoji" font-size="20px" fill="#000000" text-anchor="start" style="white-space: pre;" direction="ltr">event on</text></g><g><g transform="translate(375.3878479003906 467.17254638671875) rotate(0 79.22885358333588 -1.6865657567977905)"><path d="M-1.8661304712295532 0.01602327823638916 C45.59569857588358 -1.127002710588895, 88.63341304030655 -2.8336933116293586, 160.3238376379013 -3.38915479183197 M-0.03410452604293823 -0.25957661867141724 C61.09989982666594 -2.540553687234606, 121.66690916230402 -2.7394210048475003, 158.93975907564163 -2.2454336285591125" stroke="#000000" stroke-width="2" fill="none"></path></g></g><g><g transform="translate(534.7278137207031 463.1541748046875) rotate(0 -2.7070933684131546 -110.35467743460345)"><path d="M-0.98798855439288 -0.8028868516121183 C-1.8545966104635998 -69.35450244380158, -3.7642328144290405 -136.41684342748954, -4.335317851346122 -218.9029489931743 M0.3093136116095212 -0.5182810406054813 C-1.0546060517168019 -56.715782452550144, -2.5185431547991266 -111.69097910795513, -5.723500348435722 -220.19107382860133" stroke="#000000" stroke-width="2" fill="none"></path></g><g transform="translate(534.7278137207031 463.1541748046875) rotate(0 -2.7070933684131546 -110.35467743460345)"><path d="M4.210246758674612 -193.23700053907783 C1.5515147743028934 -201.9704178579674, -2.008868692859414 -208.9768559567688, -4.012710071908317 -218.63363557424495 M5.708130138133993 -192.90839065529258 C2.5265052636280982 -200.08386508140364, -0.2755189697928495 -205.7983142592722, -5.615525163518272 -220.12092267837474" stroke="#000000" stroke-width="2" fill="none"></path></g><g transform="translate(534.7278137207031 463.1541748046875) rotate(0 -2.7070933684131546 -110.35467743460345)"><path d="M-16.30231652428883 -192.64139165041024 C-12.580107984669596 -201.5310259210912, -9.760487957984646 -208.72271569898538, -4.012710071908317 -218.63363557424495 M-14.80443314482945 -192.312781766625 C-12.751794853612342 -199.44614953089493, -10.321088770650908 -205.31253782263454, -5.615525163518272 -220.12092267837474" stroke="#000000" stroke-width="2" fill="none"></path></g></g><g transform="translate(472.2377624511719 424.3978271484375) rotate(0 148.5 12.5)"><text x="0" y="18" font-family="Virgil, Segoe UI Emoji" font-size="20px" fill="#000000" text-anchor="start" style="white-space: pre;" direction="ltr">push into this callbacks array</text></g><g transform="translate(10 312.479736328125) rotate(0 57.0853271484375 24.792633056640625)"><path d="M1.4353259801864624 0.6203895807266235 C22.275621394392513 -1.3438239940626955, 45.87409551953606 -2.562135303877149, 116.03917348384857 -0.7103255987167358 M-0.940600574016571 0.2696916460990906 C33.81180045453512 -0.08363719186992968, 66.52202619011805 -1.2954959412595781, 114.0062854886055 -0.24674397706985474 M112.4135936498642 0.9255081415176392 C113.57209061761732 12.11677192768002, 113.78692292352552 22.2939976279049, 113.1713718175888 49.22070848941803 M114.58250313997269 0.35550516843795776 C114.26485200056285 10.203509184158975, 114.55901665815563 22.83099318034874, 113.627106487751 49.98897188901901 M112.40614354610443 50.886815667152405 C87.22112715481926 50.16585614613243, 63.16147697447158 47.830113195692974, 0.4389461278915405 49.953805565834045 M113.7965858578682 48.927646815776825 C69.88615226105176 49.166106640214714, 24.562449621266566 48.600854336137566, -0.2153903841972351 50.47603052854538 M0.6903194189071655 47.99393618106842 C0.7018629476044225 34.0715750448926, 1.2958456441376256 18.892988322779274, -1.164451241493225 -1.225878119468689 M0.2192257046699524 49.82925623655319 C-0.8171432375786025 30.59464129947628, -0.01919440029832914 11.448100092868117, 0.6501815915107727 0.9156038165092468" stroke="#000000" stroke-width="2" fill="none"></path></g><g transform="translate(22.643463134765625 323.86865234375) rotate(0 46.5 12.5)"><text x="0" y="18" font-family="Virgil, Segoe UI Emoji" font-size="20px" fill="#000000" text-anchor="start" style="white-space: pre;" direction="ltr">event off</text></g><g><g transform="translate(127.02734375 338.299072265625) rotate(0 180.0861633908841 -48.97389512040823)"><path d="M-0.7099678547783931 -1.1447014228656345 C92.85699120358328 -26.71514675285671, 185.80975522007472 -51.07065390697577, 360.8822946365466 -97.88652653337039 M0.12090216236817278 -0.06126370744606832 C116.918177130051 -29.92952281256673, 233.42178917967502 -62.119353860878896, 360.18886979702245 -97.5953636805605" stroke="#000000" stroke-width="2" fill="none"></path></g><g transform="translate(127.02734375 338.299072265625) rotate(0 180.0861633908841 -48.97389512040823)"><path d="M334.6190875202021 -82.02609492923632 C341.9024195003617 -85.49721068349623, 347.46687845618044 -88.38898321384366, 360.4567737210108 -97.60504883929005 M335.98039710815755 -80.25097473050967 C344.31412286459835 -84.83158856306372, 351.3986013073972 -91.20936891975691, 359.32065632227193 -97.12800336285343" stroke="#000000" stroke-width="2" fill="none"></path></g><g transform="translate(127.02734375 338.299072265625) rotate(0 180.0861633908841 -48.97389512040823)"><path d="M329.11585963882084 -101.79562919970986 C337.99947996713536 -100.17018360940219, 344.9890924862192 -97.94230221718942, 360.4567737210108 -97.60504883929005 M330.4771692267763 -100.02050900098321 C340.78484549639 -98.15534576144066, 349.65448933154687 -98.12018281224493, 359.32065632227193 -97.12800336285343" stroke="#000000" stroke-width="2" fill="none"></path></g></g><g transform="translate(148.89999389648432 268.8358154296875) rotate(344.60562520191843 123.50000000000003 12.5)"><text x="0" y="18" font-family="Virgil, Segoe UI Emoji" font-size="20px" fill="#000000" text-anchor="start" style="white-space: pre;" direction="ltr">splice this event callback</text></g></svg>