<svg version="1.1" xmlns="http://www.w3.org/2000/svg" viewBox="0 0 504.63885498046875 547.224609375" width="1513.9165649414062" height="1641.673828125">
  <!-- svg-source:excalidraw -->
  
  <defs>
    <style>
      @font-face {
        font-family: "Virgil";
        src: url("https://excalidraw.com/Virgil.woff2");
      }
      @font-face {
        font-family: "Cascadia";
        src: url("https://excalidraw.com/Cascadia.woff2");
      }
    </style>
  </defs>
  <rect x="0" y="0" width="504.63885498046875" height="547.224609375" fill="#ffffff"></rect><g transform="translate(140.81195068359375 411.5894470214844) rotate(0 94.92758178710938 62.81758117675781)"><path d="M132.2961222102875 4.745399662842225 C144.74994776108736 7.243205574191464, 158.05675685753124 14.499520048567334, 167.04255041563323 21.32035653358794 C176.02834397373522 28.141193018608547, 182.61761508057023 37.30657787726522, 186.21088355889952 45.67041857296587 C189.80415203722882 54.034259268666524, 190.78363492353813 62.91936958125477, 188.60216128560904 71.50340070779185 C186.42068764767996 80.08743183432894, 180.48757714771708 89.48556337274202, 173.122041731325 97.17460533218839 C165.75650631493292 104.86364729163476, 155.79225451851056 112.94518165983776, 144.40894878725663 117.63765246447005 C133.0256430560027 122.33012326910234, 118.40816907375988 124.63314047150368, 104.82220734380141 125.32943015998217 C91.23624561384294 126.02571984846065, 75.62283661010295 124.69248359270352, 62.89317840750583 121.81539059534097 C50.16352020490871 118.93829759797842, 37.81918776125495 114.15078374490665, 28.444258128218678 108.06687217580685 C19.069328495182404 101.98296060670705, 11.17170770345734 93.90940316497199, 6.643600609288185 85.31192118074222 C2.1154935151190317 76.71443919651244, 0.1384879763426501 65.64172336661026, 1.2756155632037576 56.48198027042825 C2.4127431500648653 47.32223717424625, 7.009516751773923 38.01027581881468, 13.46636613045483 30.35346260365018 C19.923215509135737 22.696649388485685, 29.030977624818775 15.345332236406712, 40.0167118352892 10.541100979441289 C51.002446045759626 5.736869722475865, 65.84940951954069 2.9664345428112595, 79.38077139327737 1.5280750618576349 C92.91213326701406 0.08971558090401044, 110.75958034879385 0.842471448783467, 121.20488307770933 1.910944093719543 C131.6501858066248 2.979416738655619, 137.4463789174117 6.181842170468909, 142.05258776677022 7.938910931474091 C146.65879661612874 9.695979692479272, 149.60720724165822 11.564831754393348, 148.8421361738604 12.453356659750632 M61.40032470120606 5.080960241624659 C72.93408357520221 1.3941687667030358, 89.92705347348937 0.228630486675731, 103.2826733380912 0.576272099350966 C116.63829320269303 0.9239137120262011, 129.81699151912144 2.8649709085003634, 141.53404388881705 7.166809917676069 C153.25109625851266 11.468648926851774, 165.9046566587112 19.082205777779688, 173.58498755626482 26.387306154405202 C181.26531845381845 33.69240653103071, 185.27975892321314 42.07082265500711, 187.61602927413878 50.997412177429155 C189.95229962506443 59.924001699851196, 191.31740902696077 70.93236957086327, 187.6026096618187 79.94684328893746 C183.8878102966766 88.96131700701164, 174.38553592578197 98.33591688154857, 165.3272330832862 105.08425448587431 C156.2689302407904 111.83259209020005, 145.42863021417512 116.80516776168353, 133.25279260684403 120.43686891489187 C121.07695499951294 124.06857006810021, 105.90303913378322 126.94840060933566, 92.27220743929962 126.87446140512432 C78.64137574481602 126.80052220091298, 63.162029358957675 123.95426963734266, 51.46780243994237 119.99323368962384 C39.77357552092706 116.03219774190501, 30.49319558163057 110.2208993095905, 22.10684592520778 103.10824571881132 C13.720496268784988 95.99559212803214, 4.576732054443349 86.05526097794825, 1.1497045014056226 77.3173121449488 C-2.2773230516321044 68.57936331194935, -1.3519059253509411 59.46132411224379, 1.5446806069814158 50.68055272081464 C4.441267139313773 41.89978132938549, 10.609810007284953 31.613471123446907, 18.529223695399764 24.632683796373932 C26.448637383514576 17.651896469300958, 41.92038126868724 12.045031824411065, 49.06116273567029 8.795828758376786 C56.20194420265334 5.546625692342506, 58.96544313617561 5.831586382351687, 61.37391249729807 5.137465400168253 C63.782381858420536 4.443344417984819, 62.78609736804604 4.028394032465452, 63.511978902405076 4.631102865276183" stroke="#000000" stroke-width="4" fill="none"></path></g><g transform="translate(181.86480712890625 457.00811767578125) rotate(0 59 17.5)"><text x="0" y="25" font-family="Virgil, Segoe UI Emoji" font-size="28px" fill="#000000" text-anchor="start" style="white-space: pre;" direction="ltr">WeakMap</text></g><g><g transform="translate(180.63543701171875 426.2856140136719) rotate(0 -13.442596407663075 -36.17988586910069)"><path d="M-0.8272713493555783 0.3846952568739652 C-5.248458928987384 -11.724306486919522, -22.85516610853374 -60.539951716735956, -27.309410710260273 -72.74446699507534 M0.9392724628932774 -0.4589436786063015 C-3.499321298431605 -12.351741928923875, -22.999054252337665 -59.33454127596691, -27.82446527821943 -71.183516951669" stroke="#000000" stroke-width="4" fill="none"></path></g><g transform="translate(180.63543701171875 426.2856140136719) rotate(0 -13.442596407663075 -36.17988586910069)"><path d="M-6.976813234281135 -47.634686678095036 C-12.271252940085187 -53.38626325144415, -17.17914651373484 -61.17789143075299, -27.6593427673541 -72.55479497129097 M-7.536328459982169 -49.994146492710584 C-12.318691310155039 -54.24117511195792, -17.69716937709852 -59.33489352615311, -27.059625108409673 -71.58368006480858" stroke="#000000" stroke-width="4" fill="none"></path></g><g transform="translate(180.63543701171875 426.2856140136719) rotate(0 -13.442596407663075 -36.17988586910069)"><path d="M-25.957571634650293 -39.83399357218098 C-26.789267539750103 -47.286395512208536, -27.24029750976226 -56.9097010383097, -27.6593427673541 -72.55479497129097 M-26.517086860351327 -42.19345338679653 C-26.587859496603098 -48.29777958807888, -27.18440612364408 -55.35677140333456, -27.059625108409673 -71.58368006480858" stroke="#000000" stroke-width="4" fill="none"></path></g></g><g transform="translate(22.54815673828125 277.93324279785156) rotate(0 100.73031616210938 39.513511657714844)"><path d="M137.71532890041954 3.5230587303165564 C151.26623404041112 4.940594134975028, 165.40849957571962 8.255802066961106, 175.486678779346 12.264822586110089 C185.56485798297237 16.273843105259072, 194.1061724082527 21.910474989358832, 198.18440412217782 27.577181845210447 C202.26263583610296 33.24388870106206, 202.55838784149364 40.43692046822591, 199.95606906289672 46.26506372121978 C197.3537502842998 52.09320697421366, 190.81343921189404 58.043309965302015, 182.5704914505962 62.5460413631737 C174.32754368929835 67.04877276104538, 163.22591251051426 70.67965001645965, 150.4983824951096 73.28145210844987 C137.77085247970496 75.88325420044009, 120.9897546509762 77.59003079206805, 106.20531135816836 78.15685391511502 C91.42086806536052 78.723677038162, 75.2851229038939 78.72194277618021, 61.791722738262564 76.68239084673174 C48.29832257263122 74.64283891728326, 34.93599552479299 70.21739406172165, 25.244910364380317 65.91954233842414 C15.55382520396764 61.62169061512662, 7.573060762447007 56.5940409459336, 3.645211775786507 50.89528050694662 C-0.2826372108739932 45.19652006795964, -1.0047567015602348 37.61967838339952, 1.6778164444173171 31.726979704502273 C4.360389590394869 25.83428102560503, 11.38362579079156 19.94457020687701, 19.74065065165182 15.539088433563165 C28.097675512512076 11.13360666024932, 39.251373708664325 7.937710666482376, 51.819965609578865 5.294089064619207 C64.3885575104934 2.650467462756039, 78.24129225786326 -0.6030031769961528, 95.15220205713906 -0.3226411776158429 C112.06311185641486 -0.04227917823553301, 141.45893755249057 5.1649478213471305, 153.28542440523364 6.9762610609010665 C165.11191125797671 8.787574300455002, 166.7566828772879 10.22157419446273, 166.11112317359743 10.545238259707773 M147.27372152917007 4.131688530758609 C160.27976010635206 6.1105606599375255, 175.00268223963462 11.44148654352226, 183.5817196701018 16.125897673320484 C192.16075710056896 20.81030880311871, 196.6480913041185 26.45434193382816, 198.74794611197302 32.23815530954795 C200.84780091982753 38.02196868526774, 200.16173832385013 45.24062881965853, 196.18084851722887 50.82877792763921 C192.1999587106076 56.416927035619885, 184.3832899305199 61.55772673032326, 174.86260727224547 65.76704995743201 C165.34192461397103 69.97637318454076, 152.57592006788298 73.87182106265257, 139.05675256758218 76.0847172902917 C125.5375850672814 78.29761351793084, 108.09331708893247 79.47513967803872, 93.74760227044078 79.04442732326683 C79.4018874519491 78.61371496849495, 65.37262901301197 76.42945223149135, 52.98246365663206 73.50044316166039 C40.59229830025215 70.57143409182942, 28.013305069980305 66.238068689187, 19.406610132161305 61.47037290428102 C10.799915194342306 56.70267711937504, 3.784349500510288 50.20270128649166, 1.3422940297180759 44.8942684522245 C-1.0997614410741363 39.58583561795734, 0.416775681706139 34.984381420660554, 4.754277307408032 29.619775898678057 C9.091778933109925 24.255170376695563, 17.481189646326698 16.946624099841177, 27.36730378392943 12.706635320329529 C37.25341792153216 8.46664654081788, 50.53377766429797 6.402444814988115, 64.07096213302444 4.1798432216081665 C77.6081466017509 1.9572416282282181, 94.3690463694983 -0.5270712767311115, 108.59041059628822 -0.6289742399501606 C122.81177482307814 -0.7308772031692096, 142.7403603081767 2.7554120330239917, 149.39914749376393 3.568425442293872 C156.05793467935118 4.381438851563753, 149.3407920639721 3.580481615300208, 148.54313370981174 4.249106215669123" stroke="#000000" stroke-width="4" fill="none"></path></g><g transform="translate(95.0848388671875 302.7423095703125) rotate(0 26 17.5)"><text x="0" y="25" font-family="Virgil, Segoe UI Emoji" font-size="28px" fill="#000000" text-anchor="start" style="white-space: pre;" direction="ltr">Map</text></g><g><g transform="translate(66.78338623046875 284.4111022949219) rotate(0 -1.3354525341373176 -38.75529012379236)"><path d="M1.0715823579579593 -0.8479990113526583 C0.5739418872942528 -13.832444531594714, -2.3490863473465047 -66.05350332545737, -3.130296535417438 -78.83177780993283 M0.17502436654642217 1.3211975623480976 C-0.4120219310435157 -11.441919514009108, -2.9965920037341616 -64.1990428140449, -3.7424874262325467 -77.67826834606007" stroke="#000000" stroke-width="4" fill="none"></path></g><g transform="translate(66.78338623046875 284.4111022949219) rotate(0 -1.3354525341373176 -38.75529012379236)"><path d="M6.545760169607355 -48.9882865960078 C3.5836565514698506 -57.64736687583852, 2.4042639663252503 -65.50106085387287, -3.778580063339323 -75.90595412725582 M7.734315720368876 -50.22329578663424 C4.551172769836291 -57.75108203322558, 1.3908819839994688 -65.4710221886638, -4.3243825550563635 -78.33803180051967" stroke="#000000" stroke-width="4" fill="none"></path></g><g transform="translate(66.78338623046875 284.4111022949219) rotate(0 -1.3354525341373176 -38.75529012379236)"><path d="M-13.948110759711806 -47.929392494481874 C-11.000591176355352 -57.0764014939729, -6.278523792488709 -65.2350169372165, -3.778580063339323 -75.90595412725582 M-12.759555208950285 -49.16440168510832 C-10.426863557211107 -57.140109726054455, -8.07465566064327 -65.1448741765026, -4.3243825550563635 -78.33803180051967" stroke="#000000" stroke-width="4" fill="none"></path></g></g><g transform="translate(10 130.8555145263672) rotate(0 78.86941528320312 35.833961486816406)"><path d="M63.83318838741379 0.37801969595656004 C75.44161083293201 -1.1674760196360445, 90.61504254749268 0.1340605983967702, 102.77552232962552 1.8711617307153219 C114.93600211175836 3.6082628630338736, 127.97927503273469 6.829859337483612, 136.79606708021086 10.80062648986787 C145.61285912768705 14.771393642252129, 152.70533420511867 19.954068419264015, 155.67627461448257 25.695764645020873 C158.64721502384646 31.43746087077773, 157.90504900409104 39.658409100150806, 154.62170953639412 45.25080384440902 C151.3383700686972 50.843198588667235, 144.28415572542863 55.01956692570211, 135.97623780830097 59.25013311057016 C127.6683198911733 63.480699295438214, 116.74934258447719 68.77022811090484, 104.7742020336281 70.63420095361734 C92.79906148277901 72.49817379632984, 76.80158361007598 71.65059266956345, 64.12539450320642 70.43397016684514 C51.44920539633686 69.21734766412683, 38.58193888408994 66.7868065162169, 28.717067392410733 63.33446593730746 C18.852195900731523 59.88212535839803, 9.687486821207255 54.91206888875841, 4.936165553131161 49.719926693388516 C0.18484428505506756 44.52778449801862, -1.3186235543460612 38.03450532878032, 0.20913978395417132 32.1816127650881 C1.7369031222544038 26.328720201395875, 6.54751342218083 19.293080597297106, 14.102745582932556 14.602571311235181 C21.65797774368428 9.912062025173256, 36.85282084627362 6.453827545356946, 45.54053274846453 4.038557048716555 C54.228244650655434 1.623286552076165, 62.28986229950462 0.6902592070840564, 66.229016996078 0.11094833139284077 C70.16817169265138 -0.46836254429837487, 69.09578787644475 0.01386984223123433, 69.17546092790484 0.5626917945692611 M56.63932698991557 2.8060295130526995 C67.94648899390069 1.215770024907135, 83.56885067624107 1.2259333762541267, 95.95461555725021 2.3481610046934307 C108.34038043825934 3.4703886331327345, 121.62059083187516 5.7268499080803, 130.95391627597036 9.539395283688524 C140.28724172006557 13.351940659296748, 147.57471207520348 20.092856248339302, 151.9545682218214 25.22343325834277 C156.33442436843933 30.354010268346237, 159.0878279383023 34.76902814330367, 157.23305315567785 40.32285734370934 C155.3782783730534 45.876686544115, 148.5818913939834 53.63709785087308, 140.82591952607467 58.54640846077677 C133.06994765816594 63.45571907068045, 122.29831967889439 67.38953540348336, 110.69722194822556 69.77872100313144 C99.09612421755673 72.16790660277951, 84.13416507815072 73.40176636620635, 71.21933314206176 72.88152205866521 C58.30450120597279 72.36127775112408, 43.913316242553414 70.33587607536137, 33.208230331691766 66.65725515788463 C22.503144420830118 62.97863424040789, 12.50979238556019 56.275732958943024, 6.988817676891884 50.80979655380476 C1.4678429682235787 45.343860148666494, -0.599147408498626 39.30965636126832, 0.08238207968193478 33.86163672705506 C0.7639115678624956 28.4136170928418, 4.745046035277807 23.113745281492314, 11.077994605975249 18.12167874852521 C17.410943176672692 13.129612215558105, 30.309176026963375 6.482322337182401, 38.080073503866586 3.9092375292524366 C45.8509709807698 1.3361527213224722, 54.454302079648585 2.8951717753281216, 57.70337946739453 2.6831699009454226 C60.95245685514047 2.4711680265627236, 57.53295359315514 2.100580912871497, 57.574537830342244 2.6372262829562416" stroke="#000000" stroke-width="4" fill="none"></path></g><g transform="translate(65.36941528320312 149.1894760131836) rotate(0 23.5 17.5)"><text x="23.5" y="25" font-family="Virgil, Segoe UI Emoji" font-size="28px" fill="#000000" text-anchor="middle" style="white-space: pre;" direction="ltr">Set</text></g><g><g transform="translate(108.33770751953125 126.33029174804688) rotate(0 27.30013009351677 -29.498061631293965)"><path d="M0.4575833011418582 0.8035294186323882 C9.86023045865198 -8.826878880336881, 46.1524922935913 -47.90123840458691, 55.361584382131696 -57.82838094122708 M-0.761324195098132 0.17977841807529327 C8.642802393206706 -9.827025989163666, 45.43448668834443 -50.13980927633121, 54.817036490608004 -59.79965268122032" stroke="#000000" stroke-width="4" fill="none"></path></g><g transform="translate(108.33770751953125 126.33029174804688) rotate(0 27.30013009351677 -29.498061631293965)"><path d="M44.3621047844516 -30.93432679285452 C46.01580578400339 -36.24684765827655, 46.96626251695721 -42.16420784786935, 53.085451228264716 -61.15185125404969 M43.57835915008205 -33.11984344550565 C46.07497421986726 -40.10468455309615, 51.0825383095291 -48.78726558369046, 55.18908407790586 -60.69056622637436" stroke="#000000" stroke-width="4" fill="none"></path></g><g transform="translate(108.33770751953125 126.33029174804688) rotate(0 27.30013009351677 -29.498061631293965)"><path d="M29.390512642376695 -44.96897787926206 C34.2149420476392 -47.36125237936032, 38.34149908320306 -50.30127661566502, 53.085451228264716 -61.15185125404969 M28.606767008007143 -47.154494531913194 C35.56377880924262 -49.88246858368452, 45.07980652672264 -54.33873130746595, 55.18908407790586 -60.69056622637436" stroke="#000000" stroke-width="4" fill="none"></path></g></g><g transform="translate(155.9337158203125 10) rotate(0 78.741455078125 35.05414581298828)"><path d="M60.18603384740558 0.7984722994529747 C71.54050981071444 -0.8263324408422672, 86.65703468382846 0.5402359935402217, 98.97485683312183 2.02600755019413 C111.29267898241521 3.5117791068480386, 124.9908217531533 6.01861210078328, 134.09296674316582 9.713101639376426 C143.19511173317832 13.407591177969572, 150.02531846641324 18.585941828918468, 153.58772677319692 24.192944781753006 C157.1501350799806 29.799947734587544, 158.07736946347993 37.702597449833284, 155.467416583868 43.355119356383646 C152.85746370425605 49.00764126293401, 146.27057303701548 53.83454489171905, 137.92800949552526 58.10807622105519 C129.58544595403504 62.38160755039134, 117.32052473224566 67.06405230951587, 105.41203533492659 68.9963073324005 C93.50354593760751 70.92856235528514, 79.08773666779567 70.66987527087764, 66.47707311161084 69.701606358363 C53.866409555425996 68.73333744584835, 39.751588430105805 66.74886072348738, 29.748053997817564 63.186693857312676 C19.744519565529323 59.62452699113798, 11.385900855919552 53.69032271387023, 6.455866517881404 48.32860516131479 C1.5258321798432561 42.96688760875935, -1.1341623920550674 36.434297179324815, 0.16784796958867787 31.016388541980024 C1.4698583312324232 25.598479904635237, 7.036339222741902 20.248371979569278, 14.267928687743876 15.821153337246066 C21.49951815274585 11.393934694922855, 35.389645790777244 7.104560524705063, 43.55738475960052 4.453076688040749 C51.72512372842379 1.801592851376435, 59.61597342703062 0.3014496473434563, 63.27436250068352 -0.08774968273981898 C66.93275157433644 -0.47694901282309426, 65.18094407478321 1.2704699317051542, 65.50771920151796 2.1178807075410973 M100.62457725525728 0.7059392403169795 C112.9476778657639 1.4145419131510875, 126.14876642526224 4.608217805424879, 135.05555838966288 8.491584888997775 C143.96235035406352 12.37495197257067, 150.74439398850572 18.58666089466083, 154.0653290416611 24.00614174175435 C157.38626409481648 29.425622588847872, 157.82210336202735 35.49597410367223, 154.98116870859513 41.0084699715589 C152.14023405516292 46.52096583944557, 145.0689452067362 52.72100239581083, 137.01972112106773 57.081116949074385 C128.97049703539926 61.44123150233794, 118.60915776566603 64.93172758801165, 106.68582419458423 67.16915729114027 C94.76249062350243 69.40658699426888, 78.06332646029338 71.0869354380268, 65.47971969457699 70.50569516784608 C52.89611292886059 69.92445489766537, 41.05873707245236 67.1482316858348, 31.184183600285834 63.68171567005598 C21.30963012811931 60.215199654277164, 11.136117820428328 54.81479552668582, 6.232398861577835 49.70659907317318 C1.3286799027273402 44.59840261966054, 0.6483835223306305 38.70868963486989, 1.761869847182865 33.03253694898012 C2.8753561720351 27.35638426309036, 5.748988093153007 20.57746534155437, 12.913316810691242 15.649682957834585 C20.07764552822948 10.721900574114802, 33.42056318176179 6.201090015810713, 44.747842152412275 3.465842646661418 C56.07512112306276 0.7305952775121227, 71.54954874410394 -0.6026216357484054, 80.87699063459412 -0.7618012570611867 C90.2044325250843 -0.920980878373968, 97.81420455049103 2.264315661852232, 100.71249349535336 2.51076491878473 C103.61078244021569 2.757214175717228, 98.88579471764425 0.2558621848539306, 98.2667243037681 0.7168942845338009" stroke="#000000" stroke-width="4" fill="none"></path></g><g transform="translate(199.86480712890625 25.00811767578125) rotate(0 44 17.5)"><text x="0" y="25" font-family="Virgil, Segoe UI Emoji" font-size="28px" fill="#000000" text-anchor="start" style="white-space: pre;" direction="ltr">effect</text></g><g transform="translate(188.63885498046875 362.21820068359375) rotate(0 153 17.5)"><text x="0" y="25" font-family="Virgil, Segoe UI Emoji" font-size="28px" fill="#000000" text-anchor="start" style="white-space: pre;" direction="ltr">tracked source object</text></g><g transform="translate(85.39862060546875 229.00811767578125) rotate(0 143.5 17.5)"><text x="0" y="25" font-family="Virgil, Segoe UI Emoji" font-size="28px" fill="#000000" text-anchor="start" style="white-space: pre;" direction="ltr">tracked object's key</text></g><g transform="translate(162.86480712890625 92.00811767578125) rotate(0 44.5 17.5)"><text x="0" y="25" font-family="Virgil, Segoe UI Emoji" font-size="28px" fill="#000000" text-anchor="start" style="white-space: pre;" direction="ltr">collect</text></g></svg>