<svg version="1.1" xmlns="http://www.w3.org/2000/svg" viewBox="0 0 1032.2279205322266 631.3502349853516" width="3096.6837615966797" height="1894.0507049560547">
  <!-- svg-source:excalidraw -->
  
  <defs>
    <style>
      @font-face {
        font-family: "Virgil";
        src: url("https://excalidraw.com/Virgil.woff2");
      }
      @font-face {
        font-family: "Cascadia";
        src: url("https://excalidraw.com/Cascadia.woff2");
      }
    </style>
  </defs>
  <rect x="0" y="0" width="1032.2279205322266" height="631.3502349853516" fill="#ffffff"></rect><g transform="translate(366.2484893798828 147.75465393066406) rotate(0 327.9897155761719 236.79779052734375)"><path d="M117.39897185750307 0.6972608249634504 M117.81312051653524 0.2154668606455443 C276.05969889193295 -0.5117447731404347, 432.3065081260927 -0.8111542601530961, 537.7025387735287 -0.4154732116498501 M117.89601019105605 0.12190776988180381 C251.73984598590965 0.6407397968652082, 383.9351319603872 0.5819704166867337, 537.0680967420599 -0.20135840492321486 M537.5805358886719 0 C616.3283540426443 0.547928599640727, 657.0408644098788 39.91107289803526, 656.0570483822376 117.0601994674653 M539.2893060464412 0.04428568296134472 C617.705283457196 0.3076984249986707, 655.4901042631827 40.168031729602575, 657.9507637134753 116.39295364553111 M657.2316352089542 117.76443632943698 C657.3413763781568 177.3327767754585, 654.8191965526198 239.92992577334945, 657.3611379769503 356.2492134299535 M656.7996997198309 118.06026648079974 C658.0249423271088 167.98571143563902, 657.6453273007571 216.7299121775925, 655.2865534368514 355.9147369745201 M655.9794311523438 355.1966857910157 C657.9628433007747 435.4170995435368, 616.7231988726804 473.6983003299684, 537.7725376505405 473.7126282136888 M654.3415682334453 353.9157276432962 C657.1731182537042 434.9993524018365, 617.6509218604924 471.81464500362057, 536.2801750353537 475.47683053547524 M537.4483750931553 473.4106587308433 C378.364648872115 473.0243248729328, 219.26635146094722 474.52721527722656, 117.88736609793827 473.47926223352295 M537.198157013457 473.766733066123 C370.88965676005427 472.08593023807356, 203.5220051574595 471.5988806523553, 118.48053976021838 473.2759446034187 M118.39889526367189 473.59558105468756 C40.670033059393376 475.0703001301736, -1.8355072122067213 432.36064220281946, -1.7623316626995802 353.6849956195802 M120.35666763968767 473.2259437125177 C37.62972525175041 471.5721173965373, 1.7857574275694788 435.0260688397724, 1.421234535332769 355.2089408391156 M-0.8711824796401849 355.08342828667634 C2.1242817269556924 302.59687204266277, 1.62206793530992 251.45672681607795, 1.2757142011535187 118.7820969698888 M0.5837364996666835 354.45598483431235 C-0.7137786527967778 277.4802264517893, -1.0818479266273109 199.75329274053436, 0.5499149517985095 118.72789163743721 M0 118.39889526367189 C1.6124192494899035 40.5558905483534, 39.16786708620688 -1.5789726097136736, 119.60911768861116 -1.3533257562667131 M1.4131565112620592 116.8768503945321 C0.9549099526368079 37.324622152590514, 39.011135215715825 -1.5830930835567414, 119.97683527981864 1.9425194197334346" stroke="#000000" stroke-width="4" fill="none"></path></g><g transform="translate(439.78602600097656 170.39100646972656) rotate(0 108 17.5)"><text x="0" y="25" font-family="Virgil, Segoe UI Emoji" font-size="28px" fill="#000000" text-anchor="start" style="white-space: pre;" direction="ltr">Global WeakMap</text></g><g transform="translate(396.19703674316406 229.2881317138672) rotate(0 192.44784545898438 115.28675842285156)"><path d="M110.71872014014288 11.092516016737079 C126.06267033366285 4.518264342732659, 147.21291184374851 1.5464209434623513, 166.81023080008015 0.0845401881849881 C186.40754975641178 -1.377340567092375, 208.8970173410961 0.12433095117547799, 228.30263387813264 2.3212314850729 C247.70825041516918 4.518132018970322, 265.9952963724189 7.7905241041793545, 283.2439300222994 13.265943391569522 C300.4925636721799 18.74136267895969, 318.04720082302754 26.42886184937479, 331.7944357774155 35.173747209413904 C345.5416707318035 43.91863256945302, 357.21880400747403 54.9620468523462, 365.7273397486272 65.73525555180419 C374.2358754897803 76.50846425126218, 380.0881974062818 88.06046527687559, 382.84565022433435 99.81299940616185 C385.6031030423869 111.56553353544811, 385.6495724534623 124.59815833149061, 382.2720566569424 136.25046032752172 C378.8945408604225 147.90276232355282, 371.83355819079486 159.4975570259783, 362.5805554452149 169.7268113823485 C353.3275526996349 179.9560657387187, 340.85597626867207 189.59923708196342, 326.7540401834624 197.62598646574298 C312.6521040982527 205.65273584952254, 295.72381922182217 212.52385718426186, 277.9689389339568 217.88730768502586 C260.2140586460914 223.25075818578986, 239.911008246253 227.82753535141552, 220.22475845627 229.80668947032694 C200.538508666287 231.78584358923837, 179.23235231303335 231.75578825608906, 159.85144019405865 229.7622323984944 C140.47052807508396 227.76867654089975, 121.2905723248424 223.57443142278171, 103.93928574242186 217.84535432475894 C86.58799916000132 212.11627722673617, 69.54700055334978 203.79787351201543, 55.7437206995354 195.38776981035778 C41.94044084572103 186.97766610870013, 30.070735993215415 177.9785245639158, 21.11960661953563 167.38473211481312 C12.168477245855849 156.79093966571043, 5.019892647278008 143.73127725951153, 2.0369444574567126 131.82501511574156 C-0.9460037323645829 119.91875297197161, -0.09776894520849089 107.34321870858679, 3.221917480607857 95.9471592521934 C6.541603906424205 84.55109979580001, 12.9848625883171 73.99329668710969, 21.9550630123548 63.448658377381264 C30.9252634363925 52.90402006765284, 43.208255177343474 41.27883230674257, 57.04312002483405 32.679329393822826 C70.87798487232463 24.07982648090308, 95.67763293251966 15.64137024719672, 104.96425209729829 11.851640899862772 C114.25087126207691 8.061911552528825, 110.36470282479645 10.13770344840952, 112.76283501350586 9.940953309819136 C115.16096720221528 9.744203171228753, 117.94776006561408 8.947548298277871, 119.35304522955475 10.671140068320469 M118.95736147448035 7.894506031213567 C135.09145097500942 1.6391264530201495, 158.72770906760212 -0.2828248918745757, 178.40423916761125 -1.0840486930280377 C198.08076926762038 -1.8852724941814998, 217.73624375579757 0.290294799016086, 237.01654207453512 3.0871632242927944 C256.29684039327265 5.884031649569502, 277.08282733243976 9.555931922736793, 294.08602908003655 15.697161858632214 C311.08923082763334 21.838391794527634, 326.51037426877616 30.805817078643784, 339.0357525601158 39.934542839665326 C351.5611308514554 49.06326860068687, 361.5371685226015 59.520976344858745, 369.23829882807433 70.46951642476148 C376.93942913354715 81.41805650466421, 383.2210578333866 94.0171981855995, 385.2425343929525 105.62578331908173 C387.2640109525184 117.23436845256397, 385.8022005091993 128.66729979323213, 381.36715818546963 140.12102722565487 C376.93211586174 151.5747546580776, 369.19081326514777 164.17408469431732, 358.6322804505746 174.34814791361822 C348.0737476360015 184.52221113291913, 333.28140441220614 193.3629661212292, 318.0159612980306 201.16540654146036 C302.7505181838551 208.96784696169152, 285.09180855790834 216.4613229649461, 267.0396217655216 221.16279043500512 C248.98743497313487 225.86425790506414, 229.24233418449623 228.33294213623515, 209.70284054371027 229.37421136181442 C190.1633469029243 230.4154805873937, 168.80584538865094 229.640258024572, 149.80265992080575 227.41040578848083 C130.79947445296057 225.18055355238965, 112.57211915366386 221.9141038174806, 95.68372773663923 215.99509794526733 C78.79533631961459 210.07609207305407, 61.778135263460996 201.01966129442008, 48.472311418657966 191.8963705552012 C35.16648757385494 182.77307981598233, 23.859260686503745 172.01736502061667, 15.848784667821036 161.25535350995412 C7.838308649138327 150.49334199929157, 2.274263380626479 138.9277068594924, 0.4094553065617106 127.32430149122587 C-1.455352767503058 115.72089612295935, 0.4499286153882309 103.41820891294364, 4.659936223432425 91.63492130035499 C8.869943831476618 79.85163368776634, 15.87944881527209 66.93838308358893, 25.669500954826873 56.624575815693994 C35.459553094381654 46.310768547799064, 48.893841061059966 37.33354103303495, 63.400249060761126 29.752077692985395 C77.9066570604623 22.170614352935843, 103.41334402522332 14.633141150964606, 112.70794895303383 11.135795775396687 C122.00255388084435 7.638450399828768, 117.74366237597776 9.036708174775974, 119.16787862762419 8.768005439577877 C120.59209487927062 8.49930270437978, 120.17542704787546 7.631932174973945, 121.25324646291243 9.523579364208103" stroke="#000000" stroke-width="4" fill="none"></path></g><g transform="translate(507.62147521972656 244.24916076660156) rotate(0 26 17.5)"><text x="0" y="25" font-family="Virgil, Segoe UI Emoji" font-size="28px" fill="#000000" text-anchor="start" style="white-space: pre;" direction="ltr">Map</text></g><g><g transform="translate(591.5376129150391 179.34962463378906) rotate(0 6.6478258121758245 -47.17750730556436)"><path d="M-0.33049594871699806 -0.5699405182152987 C2.097501016532382 -16.573389461512367, 11.085712024445336 -80.41966047969957, 13.626147573068739 -96.10025137551129 M1.6968549488671125 1.7452367643825712 C4.014350076982131 -14.072392491667221, 10.316197192935894 -78.36009227193271, 12.468755854833871 -94.71588229076937" stroke="#000000" stroke-width="4" fill="none"></path></g><g transform="translate(591.5376129150391 179.34962463378906) rotate(0 6.6478258121758245 -47.17750730556436)"><path d="M18.541874805623884 -66.21410265451182 C17.469523913192525 -70.5509161307348, 18.32510380438852 -78.3173332761329, 12.733090118113905 -95.03665950024501 M19.681465706946547 -65.02170490825434 C17.31762018182366 -74.41917483810312, 15.236370559255022 -82.16678213232682, 11.502228883635253 -93.93930901927874" stroke="#000000" stroke-width="4" fill="none"></path></g><g transform="translate(591.5376129150391 179.34962463378906) rotate(0 6.6478258121758245 -47.17750730556436)"><path d="M-1.848981553424407 -68.52342708613659 C1.5939929018872112 -72.29253416865559, 6.966429178964985 -79.54740404882918, 12.733090118113905 -95.03665950024501 M-0.7093906521017441 -67.33102933987911 C2.7944883454185683 -76.1490959066708, 6.589191665353072 -83.23123425489905, 11.502228883635253 -93.93930901927874" stroke="#000000" stroke-width="4" fill="none"></path></g></g><g transform="translate(419.43458557128906 10) rotate(0 281.5 35)"><text x="0" y="25" font-family="Virgil, Segoe UI Emoji" font-size="28px" fill="#000000" text-anchor="start" style="white-space: pre;" direction="ltr">Store all reactive's dependence Map,</text><text x="0" y="60" font-family="Virgil, Segoe UI Emoji" font-size="28px" fill="#000000" text-anchor="start" style="white-space: pre;" direction="ltr">you can use their source object to find </text></g><g transform="translate(445.6747589111328 338.3993682861328) rotate(0 141.80975341796875 54.386566162109375)"><path d="M129.59357645975723 1.107111639208206 C146.02914994797163 -0.31308333432046354, 165.59700150486475 -0.060025984558929935, 182.46894406122718 1.9098939206191403 C199.3408866175896 3.8798138257972106, 216.91165193900864 8.672102648195473, 230.82523179793185 12.926631070276628 C244.73881165685506 17.181159492357782, 257.3114196252213 21.795257749564083, 265.9504232147665 27.43706445310606 C274.5894268043117 33.078871156648034, 280.4894688998311 40.15186486348658, 282.6592533352032 46.777471291528485 C284.82903777057527 53.40307771957039, 283.3428029827637 60.69459974088422, 278.96912982699916 67.19070302135749 C274.5954566712346 73.68680630183076, 266.7505779243256 80.39777372347305, 256.4172144006159 85.75409097436811 C246.08385087690613 91.11040822526317, 231.61738106914612 95.5426834725769, 216.96894868474072 99.3286065267279 C202.32051630033533 103.1145295808789, 185.50417026205585 106.98353763644542, 168.52662009418358 108.46962929927415 C151.54906992631132 109.95572096210287, 132.5617546601895 109.67001188144259, 115.10364767750706 108.24515650370023 C97.64554069482459 106.82030112595787, 78.53366792873058 103.71343146375841, 63.7779781980888 99.92049703282 C49.022288467447034 96.12756260188158, 36.63295568854556 90.96780799961678, 26.569509293656424 85.48754991806975 C16.50606289876729 80.00729183652271, 7.448728062433585 73.45195792812771, 3.397299828754001 67.03894854353783 C-0.6541284049255838 60.62593915894795, -0.2992534037124037 53.62827851453871, 2.2609398915789143 47.00949361053047 C4.821133186870233 40.39070870652223, 9.967762377013111 33.240882525363666, 18.758459600501908 27.326239119488402 C27.549156823990707 21.411595713613135, 41.13816005795638 15.764441622052255, 55.00512323251169 11.521633175278872 C68.87208640706702 7.278824728505489, 87.41896969845268 3.896169692163042, 101.96023864783382 1.8693884388481052 C116.50150759721495 -0.1573928144668315, 133.3757386520181 -0.5858865260765272, 142.25273692879853 -0.6390543446107486 C151.12973520557895 -0.69222216314497, 155.1299973140434 0.6300027969387413, 155.22222830851632 1.5503815276427773 M160.40324809169994 0.7281756106485489 C177.26673419663342 0.536142694047283, 194.48394840652875 4.38157483648631, 209.60495639827687 7.387518690180542 C224.72596439002498 10.393462543874774, 240.16150482697597 13.580987351261047, 251.12929604218863 18.763838732813944 C262.0970872574013 23.94669011436684, 269.89448638529535 32.025079587428394, 275.41170368955284 38.48462697949792 C280.9289209938103 44.94417437156744, 285.2117585678911 51.10041042863577, 284.2325998677336 57.521123085231096 C283.2534411675761 63.941835741826424, 277.18220316720306 70.99299290001925, 269.53675148860805 77.0089029190699 C261.89129981001304 83.02481293812055, 251.47533735795847 89.05084549022662, 238.3598897961636 93.616583199535 C225.24444223436873 98.18232090884338, 207.5070601870209 101.65485143343207, 190.84406611783885 104.40332917492015 C174.1810720486568 107.15180691640822, 155.69209636146414 110.03830463794016, 138.3819253810713 110.10744964846346 C121.07175440067847 110.17659465898676, 102.88084152461491 107.50284466943609, 86.98304023548184 104.81819923805992 C71.08523894634877 102.13355380668375, 55.60335714947335 98.99327111574445, 42.99511764627289 93.99957706020643 C30.38687814307243 89.00588300466842, 18.270787836573437 81.01386916374521, 11.333603216279101 74.85603490483183 C4.396418595984765 68.69820064591845, 1.9905507098330397 63.391498602668094, 1.3720099245068695 57.052571506726174 C0.7534691391806992 50.713644410784255, 1.6354084300546035 43.41256922692102, 7.622358504322079 36.822472329180314 C13.609308578589555 30.23237543143961, 25.270301692148315 22.879025231992554, 37.293710370111725 17.511990120281943 C49.317119048075135 12.144955008571333, 64.48975568882445 7.640020674881816, 79.76281057210252 4.620261658916661 C95.0358654553806 1.6005026429515063, 115.77046634566818 -0.0038930966180252824, 128.93203966978018 -0.6065639755089833 C142.09361299389218 -1.2092348543999414, 153.88864537984477 0.42103818047668773, 158.73225051677449 1.0042363855709127 C163.5758556537042 1.5874345906651377, 158.04516911652223 2.2120974286402153, 157.99367049135853 2.892625255056366" stroke="#000000" stroke-width="4" fill="none"></path></g><g transform="translate(514.9342803955078 345.46827697753906) rotate(0 23.5 17.5)"><text x="0" y="25" font-family="Virgil, Segoe UI Emoji" font-size="28px" fill="#000000" text-anchor="start" style="white-space: pre;" direction="ltr">Set</text></g><g transform="translate(578.2383880615234 246.11647033691406) rotate(0 69.89532470703125 35.312164306640625)"><path d="M51.29813507657006 0.20443931726557452 C61.984333927359884 -1.715710458866761, 77.44617381236678 -0.9037684675556275, 88.97264580127234 0.8443076008611996 C100.49911779017789 2.5923836692780267, 112.39547087142242 6.31756013354497, 120.45696701000341 10.692895727766537 C128.5184631485844 15.068231321988105, 134.648846909749 21.36512292565356, 137.34162263275826 27.0963211661906 C140.0343983557675 32.82751940672764, 139.8466421385694 39.247247811200864, 136.6136213480588 45.080085170988774 C133.38060055754823 50.91292253077668, 126.61583753522254 57.95277757944823, 117.94349788969484 62.093345324918054 C109.27115824416714 66.23391307038789, 96.25851813620957 68.70531269649511, 84.57958347489262 69.92349164380772 C72.90064881357566 71.14167059112033, 58.998552982386414 71.12585094425788, 47.86988992179309 69.40241900879374 C36.74122686119976 67.67898707332961, 25.40868200032585 63.9485544536458, 17.807605111332656 59.58290003102293 C10.206528222339461 55.21724560840006, 4.622415125977833 49.05668076382732, 2.263428587833914 43.20849247305655 C-0.09555795031000391 37.36030418228578, 0.08527558382052547 30.125114497763306, 3.653685882469148 24.493770286398302 C7.22209618111777 18.862426075033298, 13.914248655826635 13.425485219558798, 23.67389037972565 9.420427204866535 C33.433532103624664 5.41536919017427, 53.851608899556744 2.070031731372386, 62.211536225863235 0.4634221982447144 C70.57146355216972 -1.1431873348829573, 73.59479270556069 -0.8997845804642246, 73.83345433756458 -0.21922999389949638 M71.23541001528785 -1.44539943740196 C82.0634130959169 -1.9694356564253392, 94.94475970011544 2.6258869134362772, 105.17492530936258 5.944525790279105 C115.40509091860972 9.263164667121933, 126.72411209238852 13.153420888874283, 132.61640367077067 18.466433823655006 C138.50869524915282 23.77944675843573, 141.04815678269745 31.88513068656989, 140.52867477965546 37.822603398963444 C140.00919277661347 43.760076111357, 135.9761450873763 49.30741663379415, 129.49951165251866 54.09127009801634 C123.02287821766102 58.87512356223853, 112.13048908564573 63.902343067019864, 101.66887417050961 66.5257241842966 C91.20725925537349 69.14910530157336, 78.13880992883847 69.99256895046673, 66.7298221617019 69.83155680167681 C55.32083439456533 69.67054465288689, 43.23348948692988 68.80529668975167, 33.21494756769019 65.55965129155703 C23.1964056484505 62.3140058933624, 11.973271546385892 55.951213984794556, 6.618570646263777 50.35768441250901 C1.263869746141661 44.76415484022346, 0.2917480241731608 37.67451611523824, 1.0867421669574924 31.998473857843738 C1.8817363097418238 26.32243160044924, 5.124946092772627 20.929596532620113, 11.388535502969766 16.301430868142006 C17.652124913166904 11.673265203663899, 29.009721236794284 7.04337794114614, 38.66827862814033 4.229479870975091 C48.32683601948637 1.4155818008040413, 64.08550192121862 0.019951537234835115, 69.33987985104604 -0.5819575528842904 C74.59425778087345 -1.183866643003416, 69.86383631193453 0.08708425731850866, 70.19454620710479 0.6180253302603376" stroke="#000000" stroke-width="4" fill="none"></path></g><g transform="translate(628.5420379638672 253.1862030029297) rotate(0 23.5 17.5)"><text x="0" y="25" font-family="Virgil, Segoe UI Emoji" font-size="28px" fill="#000000" text-anchor="start" style="white-space: pre;" direction="ltr">Set</text></g><g transform="translate(701.0294647216797 406.0360107421875) rotate(0 132.44107055664062 95.37619018554688)"><path d="M150.44502668322357 1.7397488217804664 C165.5500808112716 1.8985035240369232, 182.14582899862546 6.6222480842923295, 195.9243833452365 12.171097923184647 C209.70293769184752 17.719947762076963, 222.96790754705296 26.231671242260887, 233.11635276288985 35.03284785513437 C243.26479797872673 43.834024468007854, 251.42858652285608 54.50702648221917, 256.8150546402578 64.97815760042555 C262.2015227576595 75.44928871863193, 265.7438442803319 86.65048772982449, 265.4351614673002 97.85963456437266 C265.12647865426845 109.06878139892082, 261.2666187010873 121.55400960429549, 254.96295776206745 132.23303860771452 C248.6592968230476 142.91206761113355, 238.57784692152674 153.69837845640507, 227.61319583318112 161.93380858488683 C216.6485447448355 170.1692387133686, 203.59861567383166 176.73771467418334, 189.1750512319937 181.6456193786052 C174.75148679015575 186.55352408302707, 157.0681565300778 190.68757402491616, 141.07180918215343 191.381236811418 C125.07546183422907 192.07489959791985, 108.10574204502863 189.30984607721098, 93.19696714444754 185.80759609761623 C78.28819224386645 182.30534611802148, 63.94102929239182 177.3057975725625, 51.61915977866684 170.36773693384947 C39.297290264941864 163.42967629513643, 27.585982318265536 153.95411199415128, 19.265750062097666 144.17923226533802 C10.945517805929796 134.40435253652475, 4.562604309694983 122.86024333597915, 1.6977662416596218 111.71845856096988 C-1.1670718263757394 100.57667378596061, -0.8733752009826432 88.51291517882294, 2.0767216538854996 77.32852361528239 C5.026818508753642 66.14413205174185, 11.07233651516733 54.3692324407393, 19.39834737086848 44.61210917972662 C27.724358226569628 34.85498591871394, 39.170834158894635 25.54155808255704, 52.032786788092395 18.785784049206313 C64.89473941729015 12.030010015855588, 81.2540191259089 7.167934462566949, 96.57006314605502 4.077464979622263 C111.88610716620114 0.9869954966775771, 131.54334069093179 0.14874286611604032, 143.92905090896915 0.24296715153819548 C156.3147611270065 0.33719143696035064, 163.40311632465148 2.682000590117968, 170.88432445427918 4.642810692155194 C178.36553258390688 6.6036207941924205, 189.37334217633276 10.455138577341286, 188.81629968673542 12.007827763761554 M174.39114775991408 3.7397899704536144 C189.601066510077 5.906006966522959, 205.16689213629752 15.173301324701697, 217.19675604357732 22.40697708391734 C229.22661995085713 29.640652843132983, 238.81053425528907 37.430924637088964, 246.57033120359281 47.14184452574747 C254.33012815189656 56.85276441440598, 261.36338016245253 69.20217705787714, 263.7555377333998 80.6724964158684 C266.1476953043471 92.14281577385965, 264.2319035564435 104.9767156299849, 260.9232766292764 115.963760673695 C257.6146497021093 126.95080571740512, 252.70581116031502 137.14373604699236, 243.90377617039724 146.59476667812908 C235.10174118047945 156.0457973092658, 220.98442141418482 165.90543730271963, 208.11106668976976 172.6699444605153 C195.2377119653547 179.43445161831096, 181.89123527224027 184.16841581249673, 166.66364782390687 187.181809624903 C151.43606037557348 190.19520343730926, 132.80841022176088 191.83395931148496, 116.74554199976946 190.75030733495294 C100.68267377777805 189.6666553584209, 84.40008203273045 185.92165013359278, 70.28643849195842 180.6798977657108 C56.17279495118639 175.4381453978288, 42.22154731291316 167.98284573366837, 32.063680755137256 159.29979312766093 C21.90581419736135 150.6167405216535, 14.826492517822505 139.28853602836907, 9.339239145302983 128.58158212966623 C3.8519857727834603 117.8746282309634, -1.0152852493581292 106.30606932225216, -0.8598394799798825 95.05806973544388 C-0.7043937106016358 83.8100701486356, 4.108091963738346 72.0073043797192, 10.271913761572463 61.09358460881658 C16.43573555940658 50.179864837913954, 25.45487748663291 38.07315480182711, 36.12309130702482 29.57575111002815 C46.791305127416734 21.078347418229193, 60.14539602718095 15.07326448457103, 74.28119668392394 10.109162458022823 C88.41699734066692 5.145060431474614, 105.48082355458578 0.7028587717886575, 120.93789524748274 -0.2088610492611025 C136.3949669403797 -1.1205808703108624, 158.18857381658057 3.9615164495038093, 167.0236268413057 4.6388435317242624 C175.85867986603085 5.316170613944716, 173.0708539163431 3.5465093101775267, 173.94821339583362 3.855101444061617 C174.82557287532413 4.163693577945708, 173.12978569797988 4.904408610195486, 172.28778371824882 6.490396335028805" stroke="#000000" stroke-width="4" fill="none"></path></g><g transform="translate(797.5768890380859 421.8447265625) rotate(0 26 17.5)"><text x="0" y="25" font-family="Virgil, Segoe UI Emoji" font-size="28px" fill="#000000" text-anchor="start" style="white-space: pre;" direction="ltr">Map</text></g><g transform="translate(750.7524871826172 475.5714111328125) rotate(0 91.09365844726562 54.386566162109375)"><path d="M66.98764332093944 2.015902595408683 C78.8242530476556 -0.6894788280119131, 94.91512864020112 0.35455845814647446, 107.97888582148352 1.969384243270575 C121.04264300276591 3.5842100283946756, 134.5129665418127 7.19081513617965, 145.37018640863386 11.704857306153286 C156.22740627545502 16.21889947612692, 166.87847577148864 22.11949996148039, 173.12220502241047 29.053637263112392 C179.3659342733323 35.9877745647444, 182.79439834875626 45.155683387328175, 182.83256191416493 53.30968111594531 C182.8707254795736 61.463678844562445, 179.03791806096882 70.74158504733404, 173.3511864148624 77.97762363481519 C167.664454768756 85.21366222229634, 159.22058460526378 91.66469034853594, 148.71217203752656 96.72591264083216 C138.20375946978933 101.78713493312839, 123.53121319644129 106.71441197038504, 110.30071100843914 108.34495738859249 C97.07020882043699 109.97550280679994, 82.07315971482123 108.53638493528152, 69.32915890951367 106.5091851500768 C56.585158104206094 104.48198536487209, 43.97090520074907 101.17106622018547, 33.83670617659371 96.1817586773642 C23.702507152438343 91.19245113454294, 14.20219356112268 83.82747806868646, 8.523964764581478 76.57333989314921 C2.8457359680402776 69.31920171761196, -0.4989163193206944 60.530645426541405, -0.23266660265349515 52.656929624140695 C0.03358311401370412 44.783213821739984, 3.9961964177296094 36.37470408884619, 10.121463064584674 29.33104507874495 C16.246729711439738 22.287386068643713, 25.969594830695208 15.178978932092985, 36.518933278476894 10.39497556353328 C47.06827172625858 5.610972194973574, 65.90701731739041 2.0504116084943504, 73.41749375127478 0.6270248673867158 C80.92797018515914 -0.7963618737209188, 81.20914596733714 0.9368272132808725, 81.58179188178305 1.8546551168874714 M85.89550551021097 0.6965072621187574 C98.48919957371137 -0.4178079026616939, 114.39852420289698 2.090773073078599, 126.39283512948226 4.954371929286118 C138.38714605606754 7.817970785493637, 149.11142206499483 12.29714930168165, 157.86137106972268 17.878100399363873 C166.61132007445053 23.459051497046097, 174.96717693607107 30.62117101979993, 178.89252915784945 38.44007851537946 C182.81788137962783 46.25898601095899, 183.98582240249712 56.95707027284508, 181.413484400393 64.79154537284106 C178.84114639828888 72.62602047283704, 171.41004706807308 79.2300934875028, 163.45850114522472 85.44692911535533 C155.50695522237635 91.66376474320786, 145.48860478741926 98.19803250862566, 133.70420886330288 102.09255913995628 C121.9198129391865 105.9870857712869, 105.9870378404869 108.7372676957228, 92.75212560052643 108.81408890333904 C79.51721336056595 108.89091011095528, 66.51563554636981 105.91226498833932, 54.29473542353998 102.55348638565368 C42.073835300710165 99.19470778296805, 27.90332938971059 94.67148394848752, 19.426724863547506 88.66141728722525 C10.950120337384423 82.65135062596298, 6.438518578024263 74.0885894112967, 3.4351082665614854 66.49308641808007 C0.4316979550987079 58.89758342486345, -1.1751323602624097 50.66028086408225, 1.4062629947708416 43.088399327925515 C3.987658349804093 35.51651779176878, 10.65642250281593 27.262175457475177, 18.923480396760993 21.061797201139647 C27.19053829070606 14.861418944804118, 39.875259660429364 9.41284293975377, 51.008610358441224 5.886129789912339 C62.141961056453084 2.359416640070908, 80.2166678951225 0.5980728140342274, 85.72358458483214 -0.09848169790893735 C91.23050127454178 -0.7950362098521021, 83.92388235277916 0.6539069864570972, 84.0501104966991 1.7068027182533498" stroke="#000000" stroke-width="4" fill="none"></path></g><g transform="translate(819.7667083740234 482.39501953125) rotate(0 23.5 17.5)"><text x="0" y="25" font-family="Virgil, Segoe UI Emoji" font-size="28px" fill="#000000" text-anchor="start" style="white-space: pre;" direction="ltr">Set</text></g><g transform="translate(814.8867340087891 313.61744689941406) rotate(0 95 17.5)"><text x="0" y="25" font-family="Virgil, Segoe UI Emoji" font-size="28px" fill="#000000" text-anchor="start" style="white-space: pre;" direction="ltr">.....other maps</text></g><g transform="translate(509.64112854003906 391.08558654785156) rotate(0 80.79776000976562 27.2762451171875)"><path d="M50.2785195930323 2.009852702497515 C61.38333699787109 -0.034439040365447315, 78.19560975526531 -0.6685424736891404, 91.27094476939449 -0.16065495340928138 C104.34627978352367 0.3472325668705777, 118.22941921430578 2.332460364640163, 128.7305296778074 5.057177824176669 C139.23164014130901 7.781895283713176, 148.87497673013934 12.040075080725948, 154.2776075504042 16.187649803809755 C159.6802383706691 20.335224526893562, 162.23112161927492 25.735909416379833, 161.1463145993967 29.942626162679513 C160.0615075795185 34.14934290897919, 155.0957605228558 37.830095655389044, 147.76876543113485 41.42795028160784 C140.4417703394139 45.02580490782664, 128.785275341013 49.22352016630866, 117.18434404907099 51.52975391999229 C105.58341275712897 53.835987673675916, 90.9844612418764 55.371589720857585, 78.16317767948277 55.26535280370963 C65.34189411708914 55.15911588656168, 51.40751626580449 53.16483805278109, 40.25664267470919 50.89233241710455 C29.105769083613893 48.619826781428, 18.01666017741875 45.45446430437891, 11.25793613291097 41.630318989650384 C4.49921208840319 37.80617367492186, 0.07362383694148394 32.47363815236463, -0.29570159233749393 27.947460528733387 C-0.6650270216164718 23.421282905102146, 2.6746686218689 18.51559019913524, 9.041983557237103 14.473253247862925 C15.409298492605306 10.43091629659061, 28.71866872417162 5.920961841624056, 37.90818801987172 3.6934388210995017 C47.097707315571824 1.465915800574947, 57.104827799608074 1.6055800980450823, 64.1790993314377 1.1081151247155958 C71.25337086326732 0.6106501513861093, 79.961125614156 0.37927621854767796, 80.35381721084944 0.7086489811225825 M90.37515697433238 0.16329485247654318 C102.83228151684011 0.0780642019649586, 116.42079887036303 1.3123146537285257, 126.92968185716782 3.798068503631498 C137.4385648439726 6.28382235353447, 147.6429475285105 10.872807350968998, 153.4284548951611 15.077817951894378 C159.21396226181173 19.28282855281976, 162.64968995940595 24.635127531897034, 161.64272605707163 29.028132109183783 C160.6357621547373 33.42113668647053, 154.69439384113255 37.498090371041016, 147.38667148115525 41.435845415614864 C140.07894912117794 45.37360046018871, 128.8905799863471 50.41355181542838, 117.79639189720783 52.654662376626874 C106.70220380806856 54.89577293782537, 93.59888054415313 55.20777568671241, 80.82154294631962 54.882508782805836 C68.04420534848612 54.55724187889926, 52.61628949802352 52.726264625715956, 41.1323663102068 50.703060953187446 C29.648443122390077 48.679857280658936, 18.57252188262165 46.62787619166255, 11.918003819419283 42.74328674763477 C5.263485756216917 38.85869730360699, 1.6379563409790758 32.24235904198348, 1.2052579309926017 27.395524289020745 C0.7725595210061276 22.548689536058014, 3.69508090079946 17.515379443063956, 9.321813359500439 13.662278229858373 C14.948545818201417 9.80917701665279, 24.008646959763027 6.66898254958107, 34.96565268319848 4.27691700978724 C45.92265840663393 1.8848514699934111, 65.69589301188914 0.15167297731023055, 75.06384770011314 -0.690115008904602 C84.43180238833715 -1.5319029951194345, 88.53756038186071 -1.0545321068270432, 91.17338081254248 -0.7738109075017547 C93.80920124322424 -0.49308970817646625, 91.321111140985 0.3023460971351213, 90.87877028420368 0.994212187047129" stroke="#000000" stroke-width="4" fill="none"></path></g><g transform="translate(539.7860260009766 400.39100646972656) rotate(0 77.5 17.5)"><text x="0" y="25" font-family="Virgil, Segoe UI Emoji" font-size="28px" fill="#000000" text-anchor="start" style="white-space: pre;" direction="ltr">effects...  </text></g><g><g transform="translate(510.8771514892578 261.7336883544922) rotate(0 -98.29320996376686 -21.069808321767994)"><path d="M-0.21652409546077256 0.1653880130499601 C-32.998782562340295 -6.6857560943643035, -163.04746272874374 -35.53682601853201, -195.97035878412424 -42.30500465658592 M-1.7893379749171436 -0.7933872254379093 C-34.70147896282996 -7.433704130651284, -164.12687721583373 -34.42353233807648, -196.36989583207296 -41.35784618771734" stroke="#000000" stroke-width="4" fill="none"></path></g><g transform="translate(510.8771514892578 261.7336883544922) rotate(0 -98.29320996376686 -21.069808321767994)"><path d="M-166.39173455520813 -43.830885535345594 C-179.28412824519515 -45.33876724694983, -186.88273300618673 -41.45660031620645, -196.04942472225056 -39.89690395101073 M-165.67643872167264 -45.78570494359098 C-178.24386217576395 -43.45716151228571, -187.8569540594869 -43.45409763968046, -196.57003283726053 -42.171223596959436" stroke="#000000" stroke-width="4" fill="none"></path></g><g transform="translate(510.8771514892578 261.7336883544922) rotate(0 -98.29320996376686 -21.069808321767994)"><path d="M-170.63187999350694 -23.75250987774039 C-181.79622089718092 -32.48629692224388, -187.86724541563743 -35.83768610486351, -196.04942472225056 -39.89690395101073 M-169.91658415997145 -25.707329285985775 C-180.93566922316649 -30.557428043959558, -189.03445505594644 -37.725062958426335, -196.57003283726053 -42.171223596959436" stroke="#000000" stroke-width="4" fill="none"></path></g></g><g transform="translate(10 189.6424102783203) rotate(0 159.5 70)"><text x="0" y="25" font-family="Virgil, Segoe UI Emoji" font-size="28px" fill="#000000" text-anchor="start" style="white-space: pre;" direction="ltr">Dependence collection,</text><text x="0" y="60" font-family="Virgil, Segoe UI Emoji" font-size="28px" fill="#000000" text-anchor="start" style="white-space: pre;" direction="ltr">store tracked reactive</text><text x="0" y="95" font-family="Virgil, Segoe UI Emoji" font-size="28px" fill="#000000" text-anchor="start" style="white-space: pre;" direction="ltr">object's key to their</text><text x="0" y="130" font-family="Virgil, Segoe UI Emoji" font-size="28px" fill="#000000" text-anchor="start" style="white-space: pre;" direction="ltr">denpendence.</text></g><g><g transform="translate(513.9342803955078 367.56003620805234) rotate(0 -101.05374050032344 31.582211504935174)"><path d="M0.1082197319716216 -0.9253179978579282 C-33.29678522634009 9.546973543720592, -167.86866011110448 52.04094790944034, -201.46449110396208 62.749725885955385 M-1.2941036380827429 1.203286107927561 C-34.733808544228474 11.854395753773202, -168.7585808179279 53.49850883380647, -202.21570073261856 64.08974100772828" stroke="#000000" stroke-width="4" fill="none"></path></g><g transform="translate(513.9342803955078 367.56003620805234) rotate(0 -101.05374050032344 31.582211504935174)"><path d="M-179.9246578368682 46.494389119998004 C-184.1173424662277 50.407482301937684, -188.25006060288368 53.114391451771205, -203.11092742167412 62.60223360669404 M-178.4515027528021 45.16345207437166 C-186.5040798095158 51.98278436038516, -194.14313047144444 58.72301256849987, -203.12494663994758 63.88054832846463" stroke="#000000" stroke-width="4" fill="none"></path></g><g transform="translate(513.9342803955078 367.56003620805234) rotate(0 -101.05374050032344 31.582211504935174)"><path d="M-173.7888401525612 66.07682369108198 C-179.2796197145447 65.80882595480806, -184.7241443006454 64.3291107152178, -203.11092742167412 62.60223360669404 M-172.3156850684951 64.74588664545564 C-182.31692666251237 65.2209337827604, -191.9593968628552 65.56725753544015, -203.12494663994758 63.88054832846463" stroke="#000000" stroke-width="4" fill="none"></path></g></g><g transform="translate(24.233169555664062 400.5879364013672) rotate(0 153 70)"><text x="0" y="25" font-family="Virgil, Segoe UI Emoji" font-size="28px" fill="#000000" text-anchor="start" style="white-space: pre;" direction="ltr">A Set present a </text><text x="0" y="60" font-family="Virgil, Segoe UI Emoji" font-size="28px" fill="#000000" text-anchor="start" style="white-space: pre;" direction="ltr">dependence</text><text x="0" y="95" font-family="Virgil, Segoe UI Emoji" font-size="28px" fill="#000000" text-anchor="start" style="white-space: pre;" direction="ltr">it collection all itself </text><text x="0" y="130" font-family="Virgil, Segoe UI Emoji" font-size="28px" fill="#000000" text-anchor="start" style="white-space: pre;" direction="ltr">tracked effect</text></g></svg>